G04*
G04 #@! TF.GenerationSoftware,Altium Limited,Altium Designer,25.8.1 (18)*
G04*
G04 Layer_Color=16711935*
%FSLAX44Y44*%
%MOMM*%
G71*
G04*
G04 #@! TF.SameCoordinates,DB59F86C-ED4C-4CE5-93F7-31ED6AAFB850*
G04*
G04*
G04 #@! TF.FilePolarity,Negative*
G04*
G01*
G75*
%ADD13C,0.2032*%
%ADD17C,6.4000*%
%ADD18C,4.2000*%
D13*
X1940000Y210000D02*
D03*
X939988Y184910D02*
D03*
X320001Y185000D02*
D03*
X885000Y185000D02*
D03*
X375001Y184979D02*
D03*
X185000Y80000D02*
D03*
X95000D02*
D03*
X94999Y160021D02*
D03*
X185000Y160000D02*
D03*
X1234998Y50020D02*
D03*
X1234999Y80000D02*
D03*
X1234998Y110020D02*
D03*
X1074999Y50021D02*
D03*
X1075000Y80000D02*
D03*
Y110000D02*
D03*
X1019979Y159999D02*
D03*
X1180000Y160000D02*
D03*
X1290000D02*
D03*
X1340000D02*
D03*
X1450000D02*
D03*
X1394999Y49999D02*
D03*
X1394998Y80021D02*
D03*
X1394999Y109999D02*
D03*
X1555000Y110000D02*
D03*
X1554999Y50021D02*
D03*
X2149999D02*
D03*
X2209999D02*
D03*
X2210000Y455000D02*
D03*
X2149999Y455021D02*
D03*
X12Y160090D02*
D03*
X1Y80000D02*
D03*
X22Y90D02*
D03*
X185001Y0D02*
D03*
X1395011Y160090D02*
D03*
X1235011D02*
D03*
X1075012D02*
D03*
X1075001Y0D02*
D03*
X1235000D02*
D03*
X1394999D02*
D03*
X1719910Y405012D02*
D03*
X1555000Y160000D02*
D03*
Y0D02*
D03*
X1699999Y-1D02*
D03*
X2180000Y0D02*
D03*
X2180012Y405090D02*
D03*
D17*
X632500Y0D02*
D03*
X2080022Y510090D02*
D03*
Y-39910D02*
D03*
X1340022Y80090D02*
D03*
X-52467Y505680D02*
D03*
X95022Y-39910D02*
D03*
D18*
X1697511Y505589D02*
D03*
M02*
