M48
;Layer_Color=9474304
;FILE_FORMAT=4:4
METRIC,LZ
;TYPE=PLATED
T01F00S00C0.5000
;TYPE=NON_PLATED
T02F00S00C2.1000
T03F00S00C5.5000
T04F00S00C8.0000
%
T01
X02273522Y-0009775
X-00111Y-0009775
Y00557929
X02273522Y00557929
T02
X02149999Y00050021
X02209999
X01554999
X01555Y0011
X0145Y0016
X01394999Y00109999
X01394998Y00080021
X01394999Y00049999
X01234998Y0005002
X01234999Y0008
X01234998Y0011002
X0118Y0016
X0129
X0134
X01075Y0011
Y0008
X01074999Y00050021
X01019979Y00159999
X00885Y00185
X00375001Y00184979
X00185Y0016
Y0008
X00095
X00094999Y00160021
X02149999Y00455021
X0221Y00455
T03
X0218Y0
X01699999Y-00000001
X01555Y0
Y0016
X01395011Y0016009
X01235011
X01235Y0
X01394999
X01075001
X01075012Y0016009
X00939988Y0018491
X00320001Y00185
X00185001Y0
X00000022Y0000009
X00000001Y0008
X00000012Y0016009
X0171991Y00405012
X02180012Y0040509
T04
X0194Y0021
M30
