G04*
G04 #@! TF.GenerationSoftware,Altium Limited,Altium Designer,25.8.1 (18)*
G04*
G04 Layer_Color=16711935*
%FSLAX44Y44*%
%MOMM*%
G71*
G04*
G04 #@! TF.SameCoordinates,DB59F86C-ED4C-4CE5-93F7-31ED6AAFB850*
G04*
G04*
G04 #@! TF.FilePolarity,Positive*
G04*
G01*
G75*
%ADD20C,0.0500*%
D20*
X2205009Y89D02*
G03*
X2205009Y89I-24999J0D01*
G01*
X2217500Y22750D02*
G03*
X2217500Y22750I-5000J0D01*
G01*
X2220500D02*
G03*
X2220500Y22750I-8000J0D01*
G01*
X2152500Y22500D02*
G03*
X2152500Y22500I-5000J0D01*
G01*
X2155500D02*
G03*
X2155500Y22500I-8000J0D01*
G01*
X2152500Y-22500D02*
G03*
X2152500Y-22500I-5000J0D01*
G01*
X2155500D02*
G03*
X2155500Y-22500I-8000J0D01*
G01*
X2217500D02*
G03*
X2217500Y-22500I-5000J0D01*
G01*
X2220500D02*
G03*
X2220500Y-22500I-8000J0D01*
G01*
Y382500D02*
G03*
X2220500Y382500I-8000J0D01*
G01*
X2217500D02*
G03*
X2217500Y382500I-5000J0D01*
G01*
X2155500D02*
G03*
X2155500Y382500I-8000J0D01*
G01*
X2152500D02*
G03*
X2152500Y382500I-5000J0D01*
G01*
X2155500Y427500D02*
G03*
X2155500Y427500I-8000J0D01*
G01*
X2152500D02*
G03*
X2152500Y427500I-5000J0D01*
G01*
X2220500Y427750D02*
G03*
X2220500Y427750I-8000J0D01*
G01*
X2217500D02*
G03*
X2217500Y427750I-5000J0D01*
G01*
X2205009Y405089D02*
G03*
X2205009Y405089I-24999J0D01*
G01*
X1724988Y-89D02*
G03*
X1724988Y-89I-24999J0D01*
G01*
X1672500Y-22750D02*
G03*
X1672500Y-22750I-5000J0D01*
G01*
X1675500D02*
G03*
X1675500Y-22750I-8000J0D01*
G01*
X1737500Y-22500D02*
G03*
X1737500Y-22500I-5000J0D01*
G01*
X1740500D02*
G03*
X1740500Y-22500I-8000J0D01*
G01*
X1737500Y22500D02*
G03*
X1737500Y22500I-5000J0D01*
G01*
X1740500D02*
G03*
X1740500Y22500I-8000J0D01*
G01*
X1672500D02*
G03*
X1672500Y22500I-5000J0D01*
G01*
X1675500D02*
G03*
X1675500Y22500I-8000J0D01*
G01*
X1750500Y437500D02*
G03*
X1750500Y437500I-8000J0D01*
G01*
X1747500D02*
G03*
X1747500Y437500I-5000J0D01*
G01*
X1750500Y372500D02*
G03*
X1750500Y372500I-8000J0D01*
G01*
X1747500D02*
G03*
X1747500Y372500I-5000J0D01*
G01*
X1705500D02*
G03*
X1705500Y372500I-8000J0D01*
G01*
X1702500D02*
G03*
X1702500Y372500I-5000J0D01*
G01*
X1705250Y437500D02*
G03*
X1705250Y437500I-8000J0D01*
G01*
X1702250D02*
G03*
X1702250Y437500I-5000J0D01*
G01*
X1744909Y405011D02*
G03*
X1744909Y405011I-24999J0D01*
G01*
X1882499Y147999D02*
G03*
X1887499Y142999I4999J0D01*
G01*
X1997499Y272000D02*
G03*
X1992500Y276999I-4999J0D01*
G01*
X1887500D02*
G03*
X1882501Y272000I0J-4999D01*
G01*
X1992501Y142999D02*
G03*
X1997501Y147999I0J4999D01*
G01*
X1975001Y210000D02*
G03*
X1975000Y209750I-35001J0D01*
G01*
X1970002Y210000D02*
G03*
X1970002Y210000I-30002J0D01*
G01*
X1964750Y213534D02*
G03*
X1936465Y185250I-24750J-3534D01*
G01*
X1920000Y280000D02*
G03*
X1920000Y280000I-5000J0D01*
G01*
X1923000D02*
G03*
X1923000Y280000I-8000J0D01*
G01*
X1970000D02*
G03*
X1970000Y280000I-5000J0D01*
G01*
X1973000D02*
G03*
X1973000Y280000I-8000J0D01*
G01*
X1920000Y135000D02*
G03*
X1920000Y135000I-5000J0D01*
G01*
X1923000D02*
G03*
X1923000Y135000I-8000J0D01*
G01*
X1946001D02*
G03*
X1946001Y135000I-5000J0D01*
G01*
X1949001D02*
G03*
X1949001Y135000I-8000J0D01*
G01*
X1970000D02*
G03*
X1970000Y135000I-5000J0D01*
G01*
X1973000D02*
G03*
X1973000Y135000I-8000J0D01*
G01*
X915500Y207500D02*
G03*
X915500Y207500I-8000J0D01*
G01*
X912500D02*
G03*
X912500Y207500I-5000J0D01*
G01*
X980500D02*
G03*
X980500Y207500I-8000J0D01*
G01*
X977500D02*
G03*
X977500Y207500I-5000J0D01*
G01*
X980500Y162500D02*
G03*
X980500Y162500I-8000J0D01*
G01*
X977500D02*
G03*
X977500Y162500I-5000J0D01*
G01*
X915500Y162250D02*
G03*
X915500Y162250I-8000J0D01*
G01*
X912500D02*
G03*
X912500Y162250I-5000J0D01*
G01*
X964988Y184911D02*
G03*
X964988Y184911I-24999J0D01*
G01*
X360500Y162500D02*
G03*
X360500Y162500I-8000J0D01*
G01*
X357500D02*
G03*
X357500Y162500I-5000J0D01*
G01*
X295500D02*
G03*
X295500Y162500I-8000J0D01*
G01*
X292500D02*
G03*
X292500Y162500I-5000J0D01*
G01*
X295500Y207500D02*
G03*
X295500Y207500I-8000J0D01*
G01*
X292500D02*
G03*
X292500Y207500I-5000J0D01*
G01*
X360500Y207750D02*
G03*
X360500Y207750I-8000J0D01*
G01*
X357500D02*
G03*
X357500Y207750I-5000J0D01*
G01*
X345009Y185089D02*
G03*
X345009Y185089I-24999J0D01*
G01*
X210009Y89D02*
G03*
X210009Y89I-24999J0D01*
G01*
X222500Y22750D02*
G03*
X222500Y22750I-5000J0D01*
G01*
X225500D02*
G03*
X225500Y22750I-8000J0D01*
G01*
X157500Y22500D02*
G03*
X157500Y22500I-5000J0D01*
G01*
X160500D02*
G03*
X160500Y22500I-8000J0D01*
G01*
X157500Y-22500D02*
G03*
X157500Y-22500I-5000J0D01*
G01*
X160500D02*
G03*
X160500Y-22500I-8000J0D01*
G01*
X222500D02*
G03*
X222500Y-22500I-5000J0D01*
G01*
X225500D02*
G03*
X225500Y-22500I-8000J0D01*
G01*
X25009Y80089D02*
G03*
X25009Y80089I-24999J0D01*
G01*
X37500Y102750D02*
G03*
X37500Y102750I-5000J0D01*
G01*
X40500D02*
G03*
X40500Y102750I-8000J0D01*
G01*
X-27500Y102500D02*
G03*
X-27500Y102500I-5000J0D01*
G01*
X-24500D02*
G03*
X-24500Y102500I-8000J0D01*
G01*
X-27500Y57500D02*
G03*
X-27500Y57500I-5000J0D01*
G01*
X-24500D02*
G03*
X-24500Y57500I-8000J0D01*
G01*
X37500D02*
G03*
X37500Y57500I-5000J0D01*
G01*
X40500D02*
G03*
X40500Y57500I-8000J0D01*
G01*
Y137500D02*
G03*
X40500Y137500I-8000J0D01*
G01*
X37500D02*
G03*
X37500Y137500I-5000J0D01*
G01*
X-24500D02*
G03*
X-24500Y137500I-8000J0D01*
G01*
X-27500D02*
G03*
X-27500Y137500I-5000J0D01*
G01*
X-24500Y182500D02*
G03*
X-24500Y182500I-8000J0D01*
G01*
X-27500D02*
G03*
X-27500Y182500I-5000J0D01*
G01*
X40500Y182750D02*
G03*
X40500Y182750I-8000J0D01*
G01*
X37500D02*
G03*
X37500Y182750I-5000J0D01*
G01*
X25009Y160089D02*
G03*
X25009Y160089I-24999J0D01*
G01*
X25019Y89D02*
G03*
X25019Y89I-24999J0D01*
G01*
X37510Y22750D02*
G03*
X37510Y22750I-5000J0D01*
G01*
X40510D02*
G03*
X40510Y22750I-8000J0D01*
G01*
X-27490Y22500D02*
G03*
X-27490Y22500I-5000J0D01*
G01*
X-24490D02*
G03*
X-24490Y22500I-8000J0D01*
G01*
X-27490Y-22500D02*
G03*
X-27490Y-22500I-5000J0D01*
G01*
X-24490D02*
G03*
X-24490Y-22500I-8000J0D01*
G01*
X37510D02*
G03*
X37510Y-22500I-5000J0D01*
G01*
X40510D02*
G03*
X40510Y-22500I-8000J0D01*
G01*
X1595500D02*
G03*
X1595500Y-22500I-8000J0D01*
G01*
X1592500D02*
G03*
X1592500Y-22500I-5000J0D01*
G01*
X1530500D02*
G03*
X1530500Y-22500I-8000J0D01*
G01*
X1527500D02*
G03*
X1527500Y-22500I-5000J0D01*
G01*
X1530500Y22500D02*
G03*
X1530500Y22500I-8000J0D01*
G01*
X1527500D02*
G03*
X1527500Y22500I-5000J0D01*
G01*
X1595500Y22750D02*
G03*
X1595500Y22750I-8000J0D01*
G01*
X1592500D02*
G03*
X1592500Y22750I-5000J0D01*
G01*
X1580009Y89D02*
G03*
X1580009Y89I-24999J0D01*
G01*
Y160089D02*
G03*
X1580009Y160089I-24999J0D01*
G01*
X1592500Y182750D02*
G03*
X1592500Y182750I-5000J0D01*
G01*
X1595500D02*
G03*
X1595500Y182750I-8000J0D01*
G01*
X1527500Y182500D02*
G03*
X1527500Y182500I-5000J0D01*
G01*
X1530500D02*
G03*
X1530500Y182500I-8000J0D01*
G01*
X1527500Y137500D02*
G03*
X1527500Y137500I-5000J0D01*
G01*
X1530500D02*
G03*
X1530500Y137500I-8000J0D01*
G01*
X1592500D02*
G03*
X1592500Y137500I-5000J0D01*
G01*
X1595500D02*
G03*
X1595500Y137500I-8000J0D01*
G01*
X1435499D02*
G03*
X1435499Y137500I-8000J0D01*
G01*
X1432499D02*
G03*
X1432499Y137500I-5000J0D01*
G01*
X1370499D02*
G03*
X1370499Y137500I-8000J0D01*
G01*
X1367499D02*
G03*
X1367499Y137500I-5000J0D01*
G01*
X1370499Y182500D02*
G03*
X1370499Y182500I-8000J0D01*
G01*
X1367499D02*
G03*
X1367499Y182500I-5000J0D01*
G01*
X1435499Y182750D02*
G03*
X1435499Y182750I-8000J0D01*
G01*
X1432499D02*
G03*
X1432499Y182750I-5000J0D01*
G01*
X1420008Y160089D02*
G03*
X1420008Y160089I-24999J0D01*
G01*
X1435499Y-22500D02*
G03*
X1435499Y-22500I-8000J0D01*
G01*
X1432499D02*
G03*
X1432499Y-22500I-5000J0D01*
G01*
X1370499D02*
G03*
X1370499Y-22500I-8000J0D01*
G01*
X1367499D02*
G03*
X1367499Y-22500I-5000J0D01*
G01*
X1370499Y22500D02*
G03*
X1370499Y22500I-8000J0D01*
G01*
X1367499D02*
G03*
X1367499Y22500I-5000J0D01*
G01*
X1435499Y22750D02*
G03*
X1435499Y22750I-8000J0D01*
G01*
X1432499D02*
G03*
X1432499Y22750I-5000J0D01*
G01*
X1420008Y89D02*
G03*
X1420008Y89I-24999J0D01*
G01*
X1275499Y137500D02*
G03*
X1275499Y137500I-8000J0D01*
G01*
X1272499D02*
G03*
X1272499Y137500I-5000J0D01*
G01*
X1210499D02*
G03*
X1210499Y137500I-8000J0D01*
G01*
X1207499D02*
G03*
X1207499Y137500I-5000J0D01*
G01*
X1210499Y182500D02*
G03*
X1210499Y182500I-8000J0D01*
G01*
X1207499D02*
G03*
X1207499Y182500I-5000J0D01*
G01*
X1275499Y182750D02*
G03*
X1275499Y182750I-8000J0D01*
G01*
X1272499D02*
G03*
X1272499Y182750I-5000J0D01*
G01*
X1260008Y160089D02*
G03*
X1260008Y160089I-24999J0D01*
G01*
X1275499Y-22500D02*
G03*
X1275499Y-22500I-8000J0D01*
G01*
X1272499D02*
G03*
X1272499Y-22500I-5000J0D01*
G01*
X1210499D02*
G03*
X1210499Y-22500I-8000J0D01*
G01*
X1207499D02*
G03*
X1207499Y-22500I-5000J0D01*
G01*
X1210499Y22500D02*
G03*
X1210499Y22500I-8000J0D01*
G01*
X1207499D02*
G03*
X1207499Y22500I-5000J0D01*
G01*
X1275499Y22750D02*
G03*
X1275499Y22750I-8000J0D01*
G01*
X1272499D02*
G03*
X1272499Y22750I-5000J0D01*
G01*
X1260008Y89D02*
G03*
X1260008Y89I-24999J0D01*
G01*
X1100009D02*
G03*
X1100009Y89I-24999J0D01*
G01*
X1112500Y22750D02*
G03*
X1112500Y22750I-5000J0D01*
G01*
X1115500D02*
G03*
X1115500Y22750I-8000J0D01*
G01*
X1047500Y22500D02*
G03*
X1047500Y22500I-5000J0D01*
G01*
X1050500D02*
G03*
X1050500Y22500I-8000J0D01*
G01*
X1047500Y-22500D02*
G03*
X1047500Y-22500I-5000J0D01*
G01*
X1050500D02*
G03*
X1050500Y-22500I-8000J0D01*
G01*
X1112500D02*
G03*
X1112500Y-22500I-5000J0D01*
G01*
X1115500D02*
G03*
X1115500Y-22500I-8000J0D01*
G01*
X1100009Y160089D02*
G03*
X1100009Y160089I-24999J0D01*
G01*
X1112500Y182750D02*
G03*
X1112500Y182750I-5000J0D01*
G01*
X1115500D02*
G03*
X1115500Y182750I-8000J0D01*
G01*
X1047500Y182500D02*
G03*
X1047500Y182500I-5000J0D01*
G01*
X1050500D02*
G03*
X1050500Y182500I-8000J0D01*
G01*
X1047500Y137500D02*
G03*
X1047500Y137500I-5000J0D01*
G01*
X1050500D02*
G03*
X1050500Y137500I-8000J0D01*
G01*
X1112500D02*
G03*
X1112500Y137500I-5000J0D01*
G01*
X1115500D02*
G03*
X1115500Y137500I-8000J0D01*
G01*
X1300002Y160000D02*
G03*
X1300002Y160000I-10001J0D01*
G01*
X1297500Y172700D02*
G03*
X1297500Y172700I-7500J0D01*
G01*
X1295050D02*
G03*
X1295050Y172700I-5050J0D01*
G01*
X1297500Y147300D02*
G03*
X1297500Y147300I-7500J0D01*
G01*
X1294950D02*
G03*
X1294950Y147300I-4950J0D01*
G01*
X1460002Y160000D02*
G03*
X1460002Y160000I-10001J0D01*
G01*
X1457500Y172700D02*
G03*
X1457500Y172700I-7500J0D01*
G01*
X1455050D02*
G03*
X1455050Y172700I-5050J0D01*
G01*
X1457500Y147300D02*
G03*
X1457500Y147300I-7500J0D01*
G01*
X1454950D02*
G03*
X1454950Y147300I-4950J0D01*
G01*
X2142250Y50000D02*
G03*
X2142250Y50000I-4950J0D01*
G01*
X2144800D02*
G03*
X2144800Y50000I-7500J0D01*
G01*
X2167750D02*
G03*
X2167750Y50000I-5050J0D01*
G01*
X2170200D02*
G03*
X2170200Y50000I-7500J0D01*
G01*
X2160002D02*
G03*
X2160002Y50000I-10001J0D01*
G01*
X2202250D02*
G03*
X2202250Y50000I-4950J0D01*
G01*
X2204800D02*
G03*
X2204800Y50000I-7500J0D01*
G01*
X2227750D02*
G03*
X2227750Y50000I-5050J0D01*
G01*
X2230200D02*
G03*
X2230200Y50000I-7500J0D01*
G01*
X2220002D02*
G03*
X2220002Y50000I-10001J0D01*
G01*
X2202250Y455000D02*
G03*
X2202250Y455000I-4950J0D01*
G01*
X2204800D02*
G03*
X2204800Y455000I-7500J0D01*
G01*
X2227750D02*
G03*
X2227750Y455000I-5050J0D01*
G01*
X2230200D02*
G03*
X2230200Y455000I-7500J0D01*
G01*
X2220002D02*
G03*
X2220002Y455000I-10001J0D01*
G01*
X2142250D02*
G03*
X2142250Y455000I-4950J0D01*
G01*
X2144800D02*
G03*
X2144800Y455000I-7500J0D01*
G01*
X2167750D02*
G03*
X2167750Y455000I-5050J0D01*
G01*
X2170200D02*
G03*
X2170200Y455000I-7500J0D01*
G01*
X2160002D02*
G03*
X2160002Y455000I-10001J0D01*
G01*
X895002Y185000D02*
G03*
X895002Y185000I-10001J0D01*
G01*
X905200D02*
G03*
X905200Y185000I-7500J0D01*
G01*
X902750D02*
G03*
X902750Y185000I-5050J0D01*
G01*
X879800D02*
G03*
X879800Y185000I-7500J0D01*
G01*
X877250D02*
G03*
X877250Y185000I-4950J0D01*
G01*
X385001D02*
G03*
X385001Y185000I-10001J0D01*
G01*
X369800D02*
G03*
X369800Y185000I-7500J0D01*
G01*
X367350D02*
G03*
X367350Y185000I-5050J0D01*
G01*
X395200D02*
G03*
X395200Y185000I-7500J0D01*
G01*
X392650D02*
G03*
X392650Y185000I-4950J0D01*
G01*
X177250Y80000D02*
G03*
X177250Y80000I-4950J0D01*
G01*
X179800D02*
G03*
X179800Y80000I-7500J0D01*
G01*
X202750D02*
G03*
X202750Y80000I-5050J0D01*
G01*
X205200D02*
G03*
X205200Y80000I-7500J0D01*
G01*
X195002D02*
G03*
X195002Y80000I-10001J0D01*
G01*
X105001D02*
G03*
X105001Y80000I-10001J0D01*
G01*
X115200D02*
G03*
X115200Y80000I-7500J0D01*
G01*
X112750D02*
G03*
X112750Y80000I-5050J0D01*
G01*
X89800D02*
G03*
X89800Y80000I-7500J0D01*
G01*
X87250D02*
G03*
X87250Y80000I-4950J0D01*
G01*
X105001Y160000D02*
G03*
X105001Y160000I-10001J0D01*
G01*
X115200D02*
G03*
X115200Y160000I-7500J0D01*
G01*
X112750D02*
G03*
X112750Y160000I-5050J0D01*
G01*
X89800D02*
G03*
X89800Y160000I-7500J0D01*
G01*
X87250D02*
G03*
X87250Y160000I-4950J0D01*
G01*
X177250D02*
G03*
X177250Y160000I-4950J0D01*
G01*
X179800D02*
G03*
X179800Y160000I-7500J0D01*
G01*
X202750D02*
G03*
X202750Y160000I-5050J0D01*
G01*
X205200D02*
G03*
X205200Y160000I-7500J0D01*
G01*
X195002D02*
G03*
X195002Y160000I-10001J0D01*
G01*
X1547250Y50000D02*
G03*
X1547250Y50000I-4950J0D01*
G01*
X1549800D02*
G03*
X1549800Y50000I-7500J0D01*
G01*
X1572750D02*
G03*
X1572750Y50000I-5050J0D01*
G01*
X1575200D02*
G03*
X1575200Y50000I-7500J0D01*
G01*
X1565002D02*
G03*
X1565002Y50000I-10001J0D01*
G01*
X1547250Y110000D02*
G03*
X1547250Y110000I-4950J0D01*
G01*
X1549800D02*
G03*
X1549800Y110000I-7500J0D01*
G01*
X1572750D02*
G03*
X1572750Y110000I-5050J0D01*
G01*
X1575200D02*
G03*
X1575200Y110000I-7500J0D01*
G01*
X1565002D02*
G03*
X1565002Y110000I-10001J0D01*
G01*
X1387249Y109999D02*
G03*
X1387249Y109999I-4950J0D01*
G01*
X1389799D02*
G03*
X1389799Y109999I-7500J0D01*
G01*
X1412749D02*
G03*
X1412749Y109999I-5050J0D01*
G01*
X1415199D02*
G03*
X1415199Y109999I-7500J0D01*
G01*
X1405000D02*
G03*
X1405000Y109999I-10001J0D01*
G01*
Y80000D02*
G03*
X1405000Y80000I-10001J0D01*
G01*
X1415199D02*
G03*
X1415199Y80000I-7500J0D01*
G01*
X1412749D02*
G03*
X1412749Y80000I-5050J0D01*
G01*
X1389799D02*
G03*
X1389799Y80000I-7500J0D01*
G01*
X1387249D02*
G03*
X1387249Y80000I-4950J0D01*
G01*
Y49999D02*
G03*
X1387249Y49999I-4950J0D01*
G01*
X1389799D02*
G03*
X1389799Y49999I-7500J0D01*
G01*
X1412749D02*
G03*
X1412749Y49999I-5050J0D01*
G01*
X1415199D02*
G03*
X1415199Y49999I-7500J0D01*
G01*
X1405000D02*
G03*
X1405000Y49999I-10001J0D01*
G01*
X1245001Y109999D02*
G03*
X1245001Y109999I-10001J0D01*
G01*
X1255199D02*
G03*
X1255199Y109999I-7500J0D01*
G01*
X1252749D02*
G03*
X1252749Y109999I-5050J0D01*
G01*
X1229799D02*
G03*
X1229799Y109999I-7500J0D01*
G01*
X1227249D02*
G03*
X1227249Y109999I-4950J0D01*
G01*
X1245001Y80000D02*
G03*
X1245001Y80000I-10001J0D01*
G01*
X1255199D02*
G03*
X1255199Y80000I-7500J0D01*
G01*
X1252749D02*
G03*
X1252749Y80000I-5050J0D01*
G01*
X1229799D02*
G03*
X1229799Y80000I-7500J0D01*
G01*
X1227249D02*
G03*
X1227249Y80000I-4950J0D01*
G01*
Y49999D02*
G03*
X1227249Y49999I-4950J0D01*
G01*
X1229799D02*
G03*
X1229799Y49999I-7500J0D01*
G01*
X1252749D02*
G03*
X1252749Y49999I-5050J0D01*
G01*
X1255199D02*
G03*
X1255199Y49999I-7500J0D01*
G01*
X1245001D02*
G03*
X1245001Y49999I-10001J0D01*
G01*
X1067250Y50000D02*
G03*
X1067250Y50000I-4950J0D01*
G01*
X1069800D02*
G03*
X1069800Y50000I-7500J0D01*
G01*
X1092750D02*
G03*
X1092750Y50000I-5050J0D01*
G01*
X1095200D02*
G03*
X1095200Y50000I-7500J0D01*
G01*
X1085002D02*
G03*
X1085002Y50000I-10001J0D01*
G01*
Y80000D02*
G03*
X1085002Y80000I-10001J0D01*
G01*
X1095200D02*
G03*
X1095200Y80000I-7500J0D01*
G01*
X1092750D02*
G03*
X1092750Y80000I-5050J0D01*
G01*
X1069800D02*
G03*
X1069800Y80000I-7500J0D01*
G01*
X1067250D02*
G03*
X1067250Y80000I-4950J0D01*
G01*
X1085002Y110000D02*
G03*
X1085002Y110000I-10001J0D01*
G01*
X1095200D02*
G03*
X1095200Y110000I-7500J0D01*
G01*
X1092750D02*
G03*
X1092750Y110000I-5050J0D01*
G01*
X1069800D02*
G03*
X1069800Y110000I-7500J0D01*
G01*
X1067250D02*
G03*
X1067250Y110000I-4950J0D01*
G01*
X1344950Y147300D02*
G03*
X1344950Y147300I-4950J0D01*
G01*
X1347500D02*
G03*
X1347500Y147300I-7500J0D01*
G01*
X1345050Y172700D02*
G03*
X1345050Y172700I-5050J0D01*
G01*
X1347500D02*
G03*
X1347500Y172700I-7500J0D01*
G01*
X1350002Y160000D02*
G03*
X1350002Y160000I-10001J0D01*
G01*
X1184950Y147300D02*
G03*
X1184950Y147300I-4950J0D01*
G01*
X1187500D02*
G03*
X1187500Y147300I-7500J0D01*
G01*
X1185050Y172700D02*
G03*
X1185050Y172700I-5050J0D01*
G01*
X1187500D02*
G03*
X1187500Y172700I-7500J0D01*
G01*
X1190002Y160000D02*
G03*
X1190002Y160000I-10001J0D01*
G01*
X1024950Y147300D02*
G03*
X1024950Y147300I-4950J0D01*
G01*
X1027500D02*
G03*
X1027500Y147300I-7500J0D01*
G01*
X1025050Y172700D02*
G03*
X1025050Y172700I-5050J0D01*
G01*
X1027500D02*
G03*
X1027500Y172700I-7500J0D01*
G01*
X1030002Y160000D02*
G03*
X1030002Y160000I-10001J0D01*
G01*
X2140000Y30001D02*
X2180001D01*
X2140000Y-29999D02*
Y30001D01*
Y-29999D02*
X2219440D01*
Y30001D01*
X2180001D02*
X2219440D01*
X2180001Y435001D02*
X2219440D01*
Y375001D02*
Y435001D01*
X2140000Y375001D02*
X2219440D01*
X2140000D02*
Y435001D01*
X2180001D01*
X1699999Y-30001D02*
X1740000D01*
Y29999D01*
X1660560D02*
X1740000D01*
X1660560Y-30001D02*
Y29999D01*
Y-30001D02*
X1699999D01*
X1689999Y405001D02*
Y444440D01*
X1749999D01*
Y365000D02*
Y444440D01*
X1689999Y365000D02*
X1749999D01*
X1689999D02*
Y405001D01*
X1997499Y261999D02*
X2002499D01*
X1997499D02*
Y272000D01*
X1882499Y147999D02*
Y157999D01*
X1877499D02*
X1882499D01*
X1877501Y261999D02*
X1882501D01*
Y272000D01*
X1887500Y276999D02*
X1992500D01*
X1877499Y261999D02*
X1877501D01*
X1877499Y157999D02*
Y261999D01*
X1997501Y147999D02*
Y157999D01*
X2002501D01*
Y261999D01*
X1887499Y142999D02*
X1992501D01*
X1932235Y181021D02*
X1968978Y217764D01*
X900560Y155000D02*
X939999D01*
X900560D02*
Y214999D01*
X980000D01*
Y155000D02*
Y214999D01*
X939999Y155000D02*
X980000D01*
X320001Y215001D02*
X359440D01*
Y155001D02*
Y215001D01*
X280000Y155001D02*
X359440D01*
X280000D02*
Y215001D01*
X320001D01*
X145000Y30001D02*
X185001D01*
X145000Y-29999D02*
Y30001D01*
Y-29999D02*
X224440D01*
Y30001D01*
X185001D02*
X224440D01*
X-40000Y110000D02*
X1D01*
X-40000Y50001D02*
Y110000D01*
Y50001D02*
X39440D01*
Y110000D01*
X1D02*
X39440D01*
X1Y190001D02*
X39440D01*
Y130001D02*
Y190001D01*
X-40000Y130001D02*
X39440D01*
X-40000D02*
Y190001D01*
X1D01*
X-39990Y30001D02*
X11D01*
X-39990Y-29999D02*
Y30001D01*
Y-29999D02*
X39450D01*
Y30001D01*
X11D02*
X39450D01*
X1555001D02*
X1594440D01*
Y-29999D02*
Y30001D01*
X1515000Y-29999D02*
X1594440D01*
X1515000D02*
Y30001D01*
X1555001D01*
X1515000Y190001D02*
X1555001D01*
X1515000Y130001D02*
Y190001D01*
Y130001D02*
X1594440D01*
Y190001D01*
X1555001D02*
X1594440D01*
X1395000D02*
X1434439D01*
Y130001D02*
Y190001D01*
X1354999Y130001D02*
X1434439D01*
X1354999D02*
Y190001D01*
X1395000D01*
Y30001D02*
X1434439D01*
Y-29999D02*
Y30001D01*
X1354999Y-29999D02*
X1434439D01*
X1354999D02*
Y30001D01*
X1395000D01*
X1235000Y190001D02*
X1274439D01*
Y130001D02*
Y190001D01*
X1194999Y130001D02*
X1274439D01*
X1194999D02*
Y190001D01*
X1235000D01*
Y30001D02*
X1274439D01*
Y-29999D02*
Y30001D01*
X1194999Y-29999D02*
X1274439D01*
X1194999D02*
Y30001D01*
X1235000D01*
X1035000D02*
X1075001D01*
X1035000Y-29999D02*
Y30001D01*
Y-29999D02*
X1114440D01*
Y30001D01*
X1075001D02*
X1114440D01*
X1035000Y190001D02*
X1075001D01*
X1035000Y130001D02*
Y190001D01*
Y130001D02*
X1114440D01*
Y190001D01*
X1075001D02*
X1114440D01*
X1290000Y163750D02*
X1295000Y156250D01*
X1290000D02*
X1295000D01*
X1290000D02*
Y163750D01*
X1295000D01*
X1285000Y156250D02*
X1290000Y163750D01*
X1285000Y156250D02*
X1290000D01*
Y163750D01*
X1285000D02*
X1290000D01*
X1277478Y184000D02*
X1302599D01*
Y136000D02*
Y184000D01*
X1277478Y136000D02*
X1302599D01*
X1277478D02*
Y184000D01*
X1450000Y163750D02*
X1455000Y156250D01*
X1450000D02*
X1455000D01*
X1450000D02*
Y163750D01*
X1455000D01*
X1445000Y156250D02*
X1450000Y163750D01*
X1445000Y156250D02*
X1450000D01*
Y163750D01*
X1445000D02*
X1450000D01*
X1437478Y184000D02*
X1462599D01*
Y136000D02*
Y184000D01*
X1437478Y136000D02*
X1462599D01*
X1437478D02*
Y184000D01*
X2126000Y62522D02*
X2174000D01*
X2126000Y37401D02*
Y62522D01*
Y37401D02*
X2174000D01*
Y62522D01*
X2153750Y50000D02*
Y55000D01*
X2146250Y50000D02*
X2153750D01*
X2146250D02*
Y55000D01*
X2153750Y50000D01*
Y45000D02*
Y50000D01*
X2146250D02*
X2153750D01*
X2146250Y45000D02*
Y50000D01*
Y45000D02*
X2153750Y50000D01*
X2186000Y62522D02*
X2234000D01*
X2186000Y37401D02*
Y62522D01*
Y37401D02*
X2234000D01*
X2234000Y62522D01*
X2213750Y50000D02*
Y55000D01*
X2206250Y50000D02*
X2213750D01*
X2206250D02*
Y55000D01*
X2213750Y50000D01*
Y45000D02*
Y50000D01*
X2206250D02*
X2213750D01*
X2206250Y45000D02*
Y50000D01*
Y45000D02*
X2213750Y50000D01*
X2186000Y467522D02*
X2234000D01*
X2186000Y442401D02*
Y467522D01*
Y442401D02*
X2234000D01*
Y467522D01*
X2213750Y455000D02*
Y460000D01*
X2206250Y455000D02*
X2213750D01*
X2206250D02*
Y460000D01*
X2213750Y455000D01*
Y450000D02*
Y455000D01*
X2206250D02*
X2213750D01*
X2206250Y450000D02*
Y455000D01*
Y450000D02*
X2213750Y455000D01*
X2126000Y467522D02*
X2174000D01*
X2126000Y442401D02*
Y467522D01*
Y442401D02*
X2174000D01*
Y467522D01*
X2153750Y455000D02*
Y460000D01*
X2146250Y455000D02*
X2153750D01*
X2146250D02*
Y460000D01*
X2153750Y455000D01*
Y450000D02*
Y455000D01*
X2146250D02*
X2153750D01*
X2146250Y450000D02*
Y455000D01*
Y450000D02*
X2153750Y455000D01*
X881250Y180000D02*
X888750Y185000D01*
X881250Y180000D02*
Y185000D01*
X888750D01*
Y180000D02*
Y185000D01*
X881250Y190000D02*
X888750Y185000D01*
X881250D02*
Y190000D01*
Y185000D02*
X888750D01*
Y190000D01*
X909000Y172401D02*
Y197522D01*
X861000Y172401D02*
X909000D01*
X861000D02*
Y197522D01*
X909000D01*
X371250Y185000D02*
X378750Y190000D01*
Y185000D02*
Y190000D01*
X371250Y185000D02*
X378750D01*
X371250D02*
Y190000D01*
Y185000D02*
X378750Y180000D01*
Y185000D01*
X371250D02*
X378750D01*
X371250Y180000D02*
Y185000D01*
X351000Y172478D02*
Y197599D01*
X399000D01*
Y172478D02*
Y197599D01*
X351000Y172478D02*
X399000D01*
X161000Y92522D02*
X209000D01*
X161000Y67401D02*
Y92522D01*
Y67401D02*
X209000D01*
Y92522D01*
X188750Y80000D02*
Y85000D01*
X181250Y80000D02*
X188750D01*
X181250D02*
Y85000D01*
X188750Y80000D01*
Y75000D02*
Y80000D01*
X181250D02*
X188750D01*
X181250Y75000D02*
Y80000D01*
Y75000D02*
X188750Y80000D01*
X91250Y75000D02*
X98750Y80000D01*
X91250Y75000D02*
Y80000D01*
X98750D01*
Y75000D02*
Y80000D01*
X91250Y85000D02*
X98750Y80000D01*
X91250D02*
Y85000D01*
Y80000D02*
X98750D01*
Y85000D01*
X119000Y67401D02*
Y92522D01*
X71000Y67401D02*
X119000D01*
X71000D02*
Y92522D01*
X119000D01*
X91250Y155000D02*
X98750Y160000D01*
X91250Y155000D02*
Y160000D01*
X98750D01*
Y155000D02*
Y160000D01*
X91250Y165000D02*
X98750Y160000D01*
X91250D02*
Y165000D01*
Y160000D02*
X98750D01*
Y165000D01*
X119000Y147401D02*
Y172522D01*
X71000Y147401D02*
X119000D01*
X71000D02*
Y172522D01*
X119000D01*
X161000D02*
X209000D01*
X161000Y147401D02*
Y172522D01*
Y147401D02*
X209000D01*
Y172522D01*
X188750Y160000D02*
Y165000D01*
X181250Y160000D02*
X188750D01*
X181250D02*
Y165000D01*
X188750Y160000D01*
Y155000D02*
Y160000D01*
X181250D02*
X188750D01*
X181250Y155000D02*
Y160000D01*
Y155000D02*
X188750Y160000D01*
X1531000Y62522D02*
X1579000D01*
X1531000Y37401D02*
Y62522D01*
Y37401D02*
X1579000D01*
Y62522D01*
X1558750Y50000D02*
Y55000D01*
X1551250Y50000D02*
X1558750D01*
X1551250D02*
Y55000D01*
X1558750Y50000D01*
Y45000D02*
Y50000D01*
X1551250D02*
X1558750D01*
X1551250Y45000D02*
Y50000D01*
Y45000D02*
X1558750Y50000D01*
X1531000Y122522D02*
X1579000D01*
X1531000Y97401D02*
Y122522D01*
Y97401D02*
X1579000D01*
Y122522D01*
X1558750Y110000D02*
Y115000D01*
X1551250Y110000D02*
X1558750D01*
X1551250D02*
Y115000D01*
X1558750Y110000D01*
Y105000D02*
Y110000D01*
X1551250D02*
X1558750D01*
X1551250Y105000D02*
Y110000D01*
Y105000D02*
X1558750Y110000D01*
X1370999Y122521D02*
X1418999D01*
X1370999Y97400D02*
Y122521D01*
Y97400D02*
X1418999D01*
Y122521D01*
X1398749Y109999D02*
Y114999D01*
X1391249Y109999D02*
X1398749D01*
X1391249D02*
Y114999D01*
X1398749Y109999D01*
Y104999D02*
Y109999D01*
X1391249D02*
X1398749D01*
X1391249Y104999D02*
Y109999D01*
Y104999D02*
X1398749Y109999D01*
X1391249Y75000D02*
X1398749Y80000D01*
X1391249Y75000D02*
Y80000D01*
X1398749D01*
Y75000D02*
Y80000D01*
X1391249Y85000D02*
X1398749Y80000D01*
X1391249D02*
Y85000D01*
Y80000D02*
X1398749D01*
Y85000D01*
X1418999Y67401D02*
Y92522D01*
X1370999Y67401D02*
X1418999D01*
X1370999D02*
Y92522D01*
X1418999D01*
X1370999Y62521D02*
X1418999D01*
X1370999Y37400D02*
Y62521D01*
Y37400D02*
X1418999D01*
Y62521D01*
X1398749Y49999D02*
Y54999D01*
X1391249Y49999D02*
X1398749D01*
X1391249D02*
Y54999D01*
X1398749Y49999D01*
Y44999D02*
Y49999D01*
X1391249D02*
X1398749D01*
X1391249Y44999D02*
Y49999D01*
Y44999D02*
X1398749Y49999D01*
X1231249Y104999D02*
X1238749Y109999D01*
X1231249Y104999D02*
Y109999D01*
X1238749D01*
Y104999D02*
Y109999D01*
X1231249Y114999D02*
X1238749Y109999D01*
X1231249D02*
Y114999D01*
Y109999D02*
X1238749D01*
Y114999D01*
X1258999Y97400D02*
Y122521D01*
X1210999Y97400D02*
X1258999D01*
X1210999D02*
Y122521D01*
X1258999D01*
X1231249Y75000D02*
X1238749Y80000D01*
X1231249Y75000D02*
Y80000D01*
X1238749D01*
Y75000D02*
Y80000D01*
X1231249Y85000D02*
X1238749Y80000D01*
X1231249D02*
Y85000D01*
Y80000D02*
X1238749D01*
Y85000D01*
X1258999Y67401D02*
Y92522D01*
X1210999Y67401D02*
X1258999D01*
X1210999D02*
Y92522D01*
X1258999D01*
X1210999Y62521D02*
X1258999D01*
X1210999Y37400D02*
Y62521D01*
Y37400D02*
X1258999D01*
Y62521D01*
X1238749Y49999D02*
Y54999D01*
X1231249Y49999D02*
X1238749D01*
X1231249D02*
Y54999D01*
X1238749Y49999D01*
Y44999D02*
Y49999D01*
X1231249D02*
X1238749D01*
X1231249Y44999D02*
Y49999D01*
Y44999D02*
X1238749Y49999D01*
X1051000Y62522D02*
X1099000D01*
X1051000Y37401D02*
Y62522D01*
Y37401D02*
X1099000D01*
Y62522D01*
X1078750Y50000D02*
Y55000D01*
X1071250Y50000D02*
X1078750D01*
X1071250D02*
Y55000D01*
X1078750Y50000D01*
Y45000D02*
Y50000D01*
X1071250D02*
X1078750D01*
X1071250Y45000D02*
Y50000D01*
Y45000D02*
X1078750Y50000D01*
X1071250Y75000D02*
X1078750Y80000D01*
X1071250Y75000D02*
Y80000D01*
X1078750D01*
Y75000D02*
Y80000D01*
X1071250Y85000D02*
X1078750Y80000D01*
X1071250D02*
Y85000D01*
Y80000D02*
X1078750D01*
Y85000D01*
X1099000Y67401D02*
Y92522D01*
X1051000Y67401D02*
X1099000D01*
X1051000D02*
Y92522D01*
X1099000D01*
X1071250Y105000D02*
X1078750Y110000D01*
X1071250Y105000D02*
Y110000D01*
X1078750D01*
Y105000D02*
Y110000D01*
X1071250Y115000D02*
X1078750Y110000D01*
X1071250D02*
Y115000D01*
Y110000D02*
X1078750D01*
Y115000D01*
X1099000Y97401D02*
Y122522D01*
X1051000Y97401D02*
X1099000D01*
X1051000D02*
Y122522D01*
X1099000D01*
X1327478Y136000D02*
Y184000D01*
Y136000D02*
X1352599D01*
Y184000D01*
X1327478D02*
X1352599D01*
X1335000Y163750D02*
X1340000D01*
Y156250D02*
Y163750D01*
X1335000Y156250D02*
X1340000D01*
X1335000D02*
X1340000Y163750D01*
X1345000D01*
X1340000Y156250D02*
Y163750D01*
Y156250D02*
X1345000D01*
X1340000Y163750D02*
X1345000Y156250D01*
X1167478Y136000D02*
Y184000D01*
Y136000D02*
X1192599D01*
Y184000D01*
X1167478D02*
X1192599D01*
X1175000Y163750D02*
X1180000D01*
Y156250D02*
Y163750D01*
X1175000Y156250D02*
X1180000D01*
X1175000D02*
X1180000Y163750D01*
X1185000D01*
X1180000Y156250D02*
Y163750D01*
Y156250D02*
X1185000D01*
X1180000Y163750D02*
X1185000Y156250D01*
X1007478Y136000D02*
Y184000D01*
Y136000D02*
X1032599D01*
Y184000D01*
X1007478D02*
X1032599D01*
X1015000Y163750D02*
X1020000D01*
Y156250D02*
Y163750D01*
X1015000Y156250D02*
X1020000D01*
X1015000D02*
X1020000Y163750D01*
X1025000D01*
X1020000Y156250D02*
Y163750D01*
Y156250D02*
X1025000D01*
X1020000Y163750D02*
X1025000Y156250D01*
M02*
