G04*
G04 #@! TF.GenerationSoftware,Altium Limited,Altium Designer,25.8.1 (18)*
G04*
G04 Layer_Color=255*
%FSLAX44Y44*%
%MOMM*%
G71*
G04*
G04 #@! TF.SameCoordinates,4735BC6C-472E-4BDB-949C-0D940F0CBE95*
G04*
G04*
G04 #@! TF.FilePolarity,Positive*
G04*
G01*
G75*
%ADD25C,4.3000*%
%ADD26C,1.6000*%
%ADD27C,1.5000*%
%ADD28O,3.6000X4.2000*%
%ADD29R,1.5000X1.5000*%
%ADD30C,1.6500*%
%ADD31R,1.6500X1.6500*%
D25*
X632511Y0D02*
D03*
X455000Y80000D02*
D03*
X1340000D02*
D03*
X2080000Y510000D02*
D03*
Y-40000D02*
D03*
X95000D02*
D03*
X-52489Y505589D02*
D03*
D26*
X1742500Y372500D02*
D03*
Y437500D02*
D03*
X1697500Y372500D02*
D03*
X1697250Y437500D02*
D03*
X1107500Y182750D02*
D03*
Y137500D02*
D03*
X1042500D02*
D03*
Y182500D02*
D03*
X1107500Y22750D02*
D03*
Y-22500D02*
D03*
X1042500D02*
D03*
Y22500D02*
D03*
X1965000Y135000D02*
D03*
X1941001D02*
D03*
X1915000D02*
D03*
X1965000Y280000D02*
D03*
X1915000D02*
D03*
X2212500Y-22500D02*
D03*
X1667500Y-22750D02*
D03*
X1522500Y22500D02*
D03*
X1362499D02*
D03*
X1202499D02*
D03*
X152500Y-22500D02*
D03*
X32500Y57500D02*
D03*
X1587500Y182750D02*
D03*
X1362499Y182500D02*
D03*
X1202499D02*
D03*
X32500Y137500D02*
D03*
X972500Y162500D02*
D03*
X352500Y207750D02*
D03*
X32510Y-22500D02*
D03*
X2212500Y382500D02*
D03*
X2147500D02*
D03*
Y427500D02*
D03*
X2212500Y427750D02*
D03*
X2212500Y22750D02*
D03*
X2147500Y22500D02*
D03*
Y-22500D02*
D03*
X1732500Y-22500D02*
D03*
X1667500Y22500D02*
D03*
X1732500D02*
D03*
X1522500Y-22500D02*
D03*
X1587500D02*
D03*
Y22750D02*
D03*
X1362499Y-22500D02*
D03*
X1427499D02*
D03*
Y22750D02*
D03*
X1522500Y182500D02*
D03*
X1587500Y137500D02*
D03*
X1522500D02*
D03*
X1202499Y-22500D02*
D03*
X1267499D02*
D03*
Y22750D02*
D03*
X972500Y207500D02*
D03*
X907500D02*
D03*
Y162250D02*
D03*
X1362499Y137500D02*
D03*
X1427499D02*
D03*
Y182750D02*
D03*
X1202499Y137500D02*
D03*
X1267499D02*
D03*
Y182750D02*
D03*
X217500Y22750D02*
D03*
X152500Y22500D02*
D03*
X217500Y-22500D02*
D03*
X32500Y102750D02*
D03*
X-32500Y102500D02*
D03*
Y57500D02*
D03*
X32510Y22750D02*
D03*
X-32490Y22500D02*
D03*
Y-22500D02*
D03*
X287500Y162500D02*
D03*
X352500D02*
D03*
X287500Y207500D02*
D03*
X-32500Y137500D02*
D03*
Y182500D02*
D03*
X32500Y182750D02*
D03*
D27*
X1087700Y110000D02*
D03*
X1062300D02*
D03*
Y50000D02*
D03*
X1087700D02*
D03*
Y80000D02*
D03*
X1062300D02*
D03*
X1020000Y147300D02*
D03*
Y172700D02*
D03*
X1340000Y147300D02*
D03*
Y172700D02*
D03*
X1180000Y147300D02*
D03*
Y172700D02*
D03*
X1825700Y387300D02*
D03*
X1851100Y412700D02*
D03*
X1851100Y387300D02*
D03*
X1876500Y412700D02*
D03*
Y387300D02*
D03*
X1901900D02*
D03*
X1927300Y412700D02*
D03*
X1927300Y387300D02*
D03*
X1952700Y412700D02*
D03*
X1952700Y387300D02*
D03*
X1978100Y412700D02*
D03*
Y387300D02*
D03*
X1901900Y412700D02*
D03*
X2054300Y387300D02*
D03*
X2054300Y412700D02*
D03*
X2028900Y387300D02*
D03*
Y412700D02*
D03*
X2003500Y387300D02*
D03*
X2003500Y412700D02*
D03*
X2137300Y455000D02*
D03*
X2162700D02*
D03*
X2137300Y50000D02*
D03*
X2162700D02*
D03*
X2197300Y455000D02*
D03*
X2222700D02*
D03*
X2197300Y50000D02*
D03*
X2222700D02*
D03*
X1290000Y172700D02*
D03*
Y147300D02*
D03*
X1450000Y172700D02*
D03*
Y147300D02*
D03*
X1542300Y50000D02*
D03*
X1567700D02*
D03*
X1382299Y49999D02*
D03*
X1407699D02*
D03*
Y80000D02*
D03*
X1382299D02*
D03*
X1542300Y110000D02*
D03*
X1567700D02*
D03*
X1382299Y109999D02*
D03*
X1407699D02*
D03*
X1222299Y49999D02*
D03*
X1247699D02*
D03*
Y80000D02*
D03*
X1222299D02*
D03*
X107700Y160000D02*
D03*
X82300D02*
D03*
X1247699Y109999D02*
D03*
X1222299D02*
D03*
X172300Y80000D02*
D03*
X197700D02*
D03*
X172300Y160000D02*
D03*
X197700D02*
D03*
X362300Y185000D02*
D03*
X387700D02*
D03*
X107700Y80000D02*
D03*
X82300D02*
D03*
X897700Y185000D02*
D03*
X872300D02*
D03*
D28*
X1882000Y210000D02*
D03*
X1998000D02*
D03*
D29*
X1825700Y412700D02*
D03*
D30*
X-37418Y336966D02*
D03*
Y362366D02*
D03*
X-62818Y463966D02*
D03*
X-37418D02*
D03*
X-62818Y438566D02*
D03*
X-37418D02*
D03*
X-62818Y413166D02*
D03*
X-37418D02*
D03*
X-62818Y387766D02*
D03*
X-37418D02*
D03*
X-62818Y362366D02*
D03*
Y336966D02*
D03*
Y311566D02*
D03*
X-37418D02*
D03*
X-62818Y286166D02*
D03*
D31*
X-37418D02*
D03*
M02*
