G04*
G04 #@! TF.GenerationSoftware,Altium Limited,Altium Designer,25.8.1 (18)*
G04*
G04 Layer_Color=128*
%FSLAX44Y44*%
%MOMM*%
G71*
G04*
G04 #@! TF.SameCoordinates,4735BC6C-472E-4BDB-949C-0D940F0CBE95*
G04*
G04*
G04 #@! TF.FilePolarity,Positive*
G04*
G01*
G75*
G04:AMPARAMS|DCode=34|XSize=0.72mm|YSize=0.99mm|CornerRadius=0.09mm|HoleSize=0mm|Usage=FLASHONLY|Rotation=90.000|XOffset=0mm|YOffset=0mm|HoleType=Round|Shape=RoundedRectangle|*
%AMROUNDEDRECTD34*
21,1,0.7200,0.8100,0,0,90.0*
21,1,0.5400,0.9900,0,0,90.0*
1,1,0.1800,0.4050,0.2700*
1,1,0.1800,0.4050,-0.2700*
1,1,0.1800,-0.4050,-0.2700*
1,1,0.1800,-0.4050,0.2700*
%
%ADD34ROUNDEDRECTD34*%
G04:AMPARAMS|DCode=35|XSize=1mm|YSize=0.6mm|CornerRadius=0.075mm|HoleSize=0mm|Usage=FLASHONLY|Rotation=180.000|XOffset=0mm|YOffset=0mm|HoleType=Round|Shape=RoundedRectangle|*
%AMROUNDEDRECTD35*
21,1,1.0000,0.4500,0,0,180.0*
21,1,0.8500,0.6000,0,0,180.0*
1,1,0.1500,-0.4250,0.2250*
1,1,0.1500,0.4250,0.2250*
1,1,0.1500,0.4250,-0.2250*
1,1,0.1500,-0.4250,-0.2250*
%
%ADD35ROUNDEDRECTD35*%
G04:AMPARAMS|DCode=36|XSize=0.6mm|YSize=1.45mm|CornerRadius=0.075mm|HoleSize=0mm|Usage=FLASHONLY|Rotation=180.000|XOffset=0mm|YOffset=0mm|HoleType=Round|Shape=RoundedRectangle|*
%AMROUNDEDRECTD36*
21,1,0.6000,1.3000,0,0,180.0*
21,1,0.4500,1.4500,0,0,180.0*
1,1,0.1500,-0.2250,0.6500*
1,1,0.1500,0.2250,0.6500*
1,1,0.1500,0.2250,-0.6500*
1,1,0.1500,-0.2250,-0.6500*
%
%ADD36ROUNDEDRECTD36*%
G04:AMPARAMS|DCode=37|XSize=1.4mm|YSize=1.05mm|CornerRadius=0.1313mm|HoleSize=0mm|Usage=FLASHONLY|Rotation=180.000|XOffset=0mm|YOffset=0mm|HoleType=Round|Shape=RoundedRectangle|*
%AMROUNDEDRECTD37*
21,1,1.4000,0.7875,0,0,180.0*
21,1,1.1375,1.0500,0,0,180.0*
1,1,0.2625,-0.5688,0.3938*
1,1,0.2625,0.5688,0.3938*
1,1,0.2625,0.5688,-0.3938*
1,1,0.2625,-0.5688,-0.3938*
%
%ADD37ROUNDEDRECTD37*%
G04:AMPARAMS|DCode=38|XSize=0.72mm|YSize=0.99mm|CornerRadius=0.09mm|HoleSize=0mm|Usage=FLASHONLY|Rotation=0.000|XOffset=0mm|YOffset=0mm|HoleType=Round|Shape=RoundedRectangle|*
%AMROUNDEDRECTD38*
21,1,0.7200,0.8100,0,0,0.0*
21,1,0.5400,0.9900,0,0,0.0*
1,1,0.1800,0.2700,-0.4050*
1,1,0.1800,-0.2700,-0.4050*
1,1,0.1800,-0.2700,0.4050*
1,1,0.1800,0.2700,0.4050*
%
%ADD38ROUNDEDRECTD38*%
G04:AMPARAMS|DCode=39|XSize=1.4mm|YSize=1.05mm|CornerRadius=0.1313mm|HoleSize=0mm|Usage=FLASHONLY|Rotation=90.000|XOffset=0mm|YOffset=0mm|HoleType=Round|Shape=RoundedRectangle|*
%AMROUNDEDRECTD39*
21,1,1.4000,0.7875,0,0,90.0*
21,1,1.1375,1.0500,0,0,90.0*
1,1,0.2625,0.3938,0.5688*
1,1,0.2625,0.3938,-0.5688*
1,1,0.2625,-0.3938,-0.5688*
1,1,0.2625,-0.3938,0.5688*
%
%ADD39ROUNDEDRECTD39*%
G04:AMPARAMS|DCode=40|XSize=1.45mm|YSize=0.396mm|CornerRadius=0.0495mm|HoleSize=0mm|Usage=FLASHONLY|Rotation=180.000|XOffset=0mm|YOffset=0mm|HoleType=Round|Shape=RoundedRectangle|*
%AMROUNDEDRECTD40*
21,1,1.4500,0.2970,0,0,180.0*
21,1,1.3510,0.3960,0,0,180.0*
1,1,0.0990,-0.6755,0.1485*
1,1,0.0990,0.6755,0.1485*
1,1,0.0990,0.6755,-0.1485*
1,1,0.0990,-0.6755,-0.1485*
%
%ADD40ROUNDEDRECTD40*%
D34*
X2189750Y177650D02*
D03*
Y163850D02*
D03*
X2041500Y211850D02*
D03*
Y225650D02*
D03*
X2081250Y211600D02*
D03*
Y225400D02*
D03*
X2129000Y177650D02*
D03*
Y163850D02*
D03*
X2088250Y306650D02*
D03*
Y292850D02*
D03*
X2104750Y306400D02*
D03*
Y292600D02*
D03*
X2173000Y163850D02*
D03*
Y177650D02*
D03*
X2233750Y163600D02*
D03*
Y177400D02*
D03*
X1777367Y344002D02*
D03*
Y330202D02*
D03*
X9000Y74100D02*
D03*
X124500Y19100D02*
D03*
X104500D02*
D03*
X84500D02*
D03*
X64500Y19100D02*
D03*
X-22200Y168099D02*
D03*
X124500Y32900D02*
D03*
X104500D02*
D03*
X84500D02*
D03*
X64500Y32900D02*
D03*
X-13000Y73850D02*
D03*
Y87650D02*
D03*
X9000Y87900D02*
D03*
X-22200Y154299D02*
D03*
D35*
X2104500Y260750D02*
D03*
Y241750D02*
D03*
X2081500Y251250D02*
D03*
X2064750Y260750D02*
D03*
Y241750D02*
D03*
X2041750Y251250D02*
D03*
X200750Y107750D02*
D03*
Y126750D02*
D03*
X177750Y117250D02*
D03*
D36*
X2228050Y201000D02*
D03*
X2215350D02*
D03*
X2202650D02*
D03*
X2189950D02*
D03*
X2228050Y255500D02*
D03*
X2215350D02*
D03*
X2202650D02*
D03*
X2189950D02*
D03*
X2167050Y201000D02*
D03*
X2154350D02*
D03*
X2141650D02*
D03*
X2128950D02*
D03*
X2167050Y255500D02*
D03*
X2154350D02*
D03*
X2141650D02*
D03*
X2128950D02*
D03*
D37*
X2215000Y180000D02*
D03*
Y161000D02*
D03*
X2154250Y180500D02*
D03*
Y161500D02*
D03*
X1758068Y349500D02*
D03*
Y330500D02*
D03*
X1746250Y187250D02*
D03*
Y206250D02*
D03*
X1754903Y50403D02*
D03*
Y31403D02*
D03*
X13500Y169250D02*
D03*
X-6250Y169500D02*
D03*
X70250Y126750D02*
D03*
Y107750D02*
D03*
X90000Y126750D02*
D03*
Y107750D02*
D03*
X109500Y126750D02*
D03*
Y107750D02*
D03*
X13500Y150250D02*
D03*
X-6250Y150500D02*
D03*
D38*
X1773900Y232750D02*
D03*
X1760100D02*
D03*
X1816900Y135000D02*
D03*
X1803100D02*
D03*
X1800164Y33015D02*
D03*
X1786364D02*
D03*
X1876900Y58750D02*
D03*
X1863100D02*
D03*
X1876900Y43250D02*
D03*
X1863100D02*
D03*
X1186900Y195000D02*
D03*
X1173100D02*
D03*
X1346900D02*
D03*
X1333100D02*
D03*
X1026900D02*
D03*
X1013100D02*
D03*
X1888100Y335000D02*
D03*
X1901900D02*
D03*
X1941900D02*
D03*
X1928100D02*
D03*
X1296900Y195000D02*
D03*
X1283100D02*
D03*
X1456900D02*
D03*
X1443100D02*
D03*
X1988100Y335000D02*
D03*
X2001900D02*
D03*
X2041900D02*
D03*
X2028100D02*
D03*
X247400Y126750D02*
D03*
X233600D02*
D03*
X2143100Y75000D02*
D03*
X2156900D02*
D03*
X2143100Y485000D02*
D03*
X2156900D02*
D03*
X2203100D02*
D03*
X2216900D02*
D03*
X2203100Y75000D02*
D03*
X2216900D02*
D03*
X141900Y80000D02*
D03*
X128100D02*
D03*
X141900Y160000D02*
D03*
X128100D02*
D03*
X1601900Y110000D02*
D03*
X1588100D02*
D03*
X1601900Y50000D02*
D03*
X1588100D02*
D03*
X1456900Y110000D02*
D03*
X1443100D02*
D03*
X1456900Y80000D02*
D03*
X1443100D02*
D03*
X1456900Y50000D02*
D03*
X1443100D02*
D03*
X2004150Y305500D02*
D03*
X1990350D02*
D03*
X1296900Y110000D02*
D03*
X1283100D02*
D03*
X1296900Y80000D02*
D03*
X1283100D02*
D03*
X1296900Y50000D02*
D03*
X1283100D02*
D03*
X1126900Y110000D02*
D03*
X1113100D02*
D03*
X1126900Y80000D02*
D03*
X1113100D02*
D03*
X1126900Y50000D02*
D03*
X1113100D02*
D03*
X833100Y185000D02*
D03*
X846900D02*
D03*
X421900D02*
D03*
X408100D02*
D03*
X231900Y160000D02*
D03*
X218100D02*
D03*
X231900Y80000D02*
D03*
X218100D02*
D03*
D39*
X1735040Y126477D02*
D03*
X1754040D02*
D03*
D40*
X1776000Y315750D02*
D03*
Y309250D02*
D03*
Y302750D02*
D03*
Y296250D02*
D03*
Y289750D02*
D03*
Y283250D02*
D03*
Y276750D02*
D03*
Y270250D02*
D03*
Y263750D02*
D03*
Y257250D02*
D03*
Y250750D02*
D03*
Y244250D02*
D03*
X1834000D02*
D03*
Y250750D02*
D03*
Y257250D02*
D03*
Y263750D02*
D03*
Y270250D02*
D03*
Y276750D02*
D03*
Y283250D02*
D03*
Y289750D02*
D03*
Y296250D02*
D03*
Y302750D02*
D03*
Y309250D02*
D03*
Y315750D02*
D03*
X1776000Y220750D02*
D03*
Y214250D02*
D03*
Y207750D02*
D03*
Y201250D02*
D03*
Y194750D02*
D03*
Y188250D02*
D03*
Y181750D02*
D03*
Y175250D02*
D03*
Y168750D02*
D03*
Y162250D02*
D03*
Y155750D02*
D03*
Y149250D02*
D03*
X1834000D02*
D03*
Y155750D02*
D03*
Y162250D02*
D03*
Y168750D02*
D03*
Y175250D02*
D03*
Y181750D02*
D03*
Y188250D02*
D03*
Y194750D02*
D03*
Y201250D02*
D03*
Y207750D02*
D03*
Y214250D02*
D03*
Y220750D02*
D03*
X1776000Y15750D02*
D03*
Y9250D02*
D03*
Y2750D02*
D03*
Y-3750D02*
D03*
Y-10250D02*
D03*
Y-16750D02*
D03*
Y-23250D02*
D03*
Y-29750D02*
D03*
Y-36250D02*
D03*
Y-42750D02*
D03*
Y-49250D02*
D03*
Y-55750D02*
D03*
X1834000D02*
D03*
Y-49250D02*
D03*
Y-42750D02*
D03*
Y-36250D02*
D03*
Y-29750D02*
D03*
Y-23250D02*
D03*
Y-16750D02*
D03*
Y-10250D02*
D03*
Y-3750D02*
D03*
Y2750D02*
D03*
Y9250D02*
D03*
Y15750D02*
D03*
X1776000Y120750D02*
D03*
Y114250D02*
D03*
Y107750D02*
D03*
Y101250D02*
D03*
Y94750D02*
D03*
Y88250D02*
D03*
Y81750D02*
D03*
Y75250D02*
D03*
Y68750D02*
D03*
Y62250D02*
D03*
Y55750D02*
D03*
Y49250D02*
D03*
X1834000D02*
D03*
Y55750D02*
D03*
Y62250D02*
D03*
Y68750D02*
D03*
Y75250D02*
D03*
Y81750D02*
D03*
Y88250D02*
D03*
Y94750D02*
D03*
Y101250D02*
D03*
Y107750D02*
D03*
Y114250D02*
D03*
Y120750D02*
D03*
M02*
