G04*
G04 #@! TF.GenerationSoftware,Altium Limited,Altium Designer,25.8.1 (18)*
G04*
G04 Layer_Color=32896*
%FSLAX44Y44*%
%MOMM*%
G71*
G04*
G04 #@! TF.SameCoordinates,4735BC6C-472E-4BDB-949C-0D940F0CBE95*
G04*
G04*
G04 #@! TF.FilePolarity,Positive*
G04*
G01*
G75*
%ADD54C,0.0500*%
D54*
X2182250Y157750D02*
X2197250D01*
X2189750Y170750D02*
Y175750D01*
X2182250Y157750D02*
Y183750D01*
X2189750Y170750D02*
X2194750D01*
X2182250Y183750D02*
X2197250D01*
X2189750Y165750D02*
Y170750D01*
X2184750D02*
X2189750D01*
X2197250Y157750D02*
Y183750D01*
X2110250Y260750D02*
X2112000Y257000D01*
X2110250Y260750D02*
X2112000Y264500D01*
X2074000Y268250D02*
X2112000D01*
X2074000Y234000D02*
X2112000D01*
X2074000D02*
Y268250D01*
X2112000Y234000D02*
Y268250D01*
X2093000Y251250D02*
Y256250D01*
Y246250D02*
Y251250D01*
X2088000D02*
X2093000D01*
X2098000D01*
X2070500Y260750D02*
X2072250Y257000D01*
X2070500Y260750D02*
X2072250Y264500D01*
X2034250Y268250D02*
X2072250D01*
X2034250Y234000D02*
X2072250D01*
X2034250D02*
Y268250D01*
X2072250Y234000D02*
Y268250D01*
X2053250Y251250D02*
Y256250D01*
Y246250D02*
Y251250D01*
X2048250D02*
X2053250D01*
X2058250D01*
X2034000Y231750D02*
X2049000D01*
X2041500Y213750D02*
Y218750D01*
X2049000Y205750D02*
Y231750D01*
X2036500Y218750D02*
X2041500D01*
X2034000Y205750D02*
X2049000D01*
X2041500Y218750D02*
Y223750D01*
Y218750D02*
X2046500D01*
X2034000Y205750D02*
Y231750D01*
X2073750Y231500D02*
X2088750D01*
X2081250Y213500D02*
Y218500D01*
X2088750Y205500D02*
Y231500D01*
X2076250Y218500D02*
X2081250D01*
X2073750Y205500D02*
X2088750D01*
X2081250Y218500D02*
Y223500D01*
Y218500D02*
X2086250D01*
X2073750Y205500D02*
Y231500D01*
X2121500Y157750D02*
X2136500D01*
X2129000Y170750D02*
Y175750D01*
X2121500Y157750D02*
Y183750D01*
X2129000Y170750D02*
X2134000D01*
X2121500Y183750D02*
X2136500D01*
X2129000Y165750D02*
Y170750D01*
X2124000D02*
X2129000D01*
X2136500Y157750D02*
Y183750D01*
X2209000Y228250D02*
Y233250D01*
Y223250D02*
Y228250D01*
X2214000D01*
X2204000D02*
X2209000D01*
X2181250Y265250D02*
X2236500D01*
X2181250Y191250D02*
X2236500D01*
Y265250D01*
X2181250Y191250D02*
Y265250D01*
X2186200D02*
X2189950Y263500D01*
X2193700Y265250D01*
X2205500Y153250D02*
Y187750D01*
X2224500Y153250D02*
Y187750D01*
X2205500Y153250D02*
X2224500D01*
X2205500Y187750D02*
X2224500D01*
X2210000Y170500D02*
X2215000D01*
X2220000D01*
X2215000Y165500D02*
Y170500D01*
Y175500D01*
X2080750Y286750D02*
X2095750D01*
X2088250Y299750D02*
Y304750D01*
X2080750Y286750D02*
Y312750D01*
X2088250Y299750D02*
X2093250D01*
X2080750Y312750D02*
X2095750D01*
X2088250Y294750D02*
Y299750D01*
X2083250D02*
X2088250D01*
X2095750Y286750D02*
Y312750D01*
X2144750Y153750D02*
Y188250D01*
X2163750Y153750D02*
Y188250D01*
X2144750Y153750D02*
X2163750D01*
X2144750Y188250D02*
X2163750D01*
X2149250Y171000D02*
X2154250D01*
X2159250D01*
X2154250Y166000D02*
Y171000D01*
Y176000D01*
X2097250Y286500D02*
X2112250D01*
X2104750Y299500D02*
Y304500D01*
X2097250Y286500D02*
Y312500D01*
X2104750Y299500D02*
X2109750D01*
X2097250Y312500D02*
X2112250D01*
X2104750Y294500D02*
Y299500D01*
X2099750D02*
X2104750D01*
X2112250Y286500D02*
Y312500D01*
X2148000Y228250D02*
Y233250D01*
Y223250D02*
Y228250D01*
X2153000D01*
X2143000D02*
X2148000D01*
X2120250Y265250D02*
X2175500D01*
X2120250Y191250D02*
X2175500D01*
Y265250D01*
X2120250Y191250D02*
Y265250D01*
X2125200D02*
X2128950Y263500D01*
X2132700Y265250D01*
X2173000Y170750D02*
Y175750D01*
Y165750D02*
Y170750D01*
X2178000D01*
X2168000D02*
X2173000D01*
X2165500Y183750D02*
X2180500D01*
X2165500Y157750D02*
X2180500D01*
Y183750D01*
X2165500Y157750D02*
Y183750D01*
X2233750Y170500D02*
Y175500D01*
Y165500D02*
Y170500D01*
X2238750D01*
X2228750D02*
X2233750D01*
X2226250Y183500D02*
X2241250D01*
X2226250Y157500D02*
X2241250D01*
Y183500D01*
X2226250Y157500D02*
Y183500D01*
X1767568Y322750D02*
Y357250D01*
X1748568Y322750D02*
Y357250D01*
X1767568D01*
X1748568Y322750D02*
X1767568D01*
X1758068Y340000D02*
X1763068D01*
X1753068D02*
X1758068D01*
Y345000D01*
Y335000D02*
Y340000D01*
X1777367Y332102D02*
Y337102D01*
Y342102D01*
X1772367Y337102D02*
X1777367D01*
X1782367D01*
X1769867Y324102D02*
X1784867D01*
X1769867Y350102D02*
X1784867D01*
X1769867Y324102D02*
Y350102D01*
X1784867Y324102D02*
Y350102D01*
X1736750Y179500D02*
Y214000D01*
X1755750Y179500D02*
Y214000D01*
X1736750Y179500D02*
X1755750D01*
X1736750Y214000D02*
X1755750D01*
X1741250Y196750D02*
X1746250D01*
X1751250D01*
X1746250Y191750D02*
Y196750D01*
Y201750D01*
X1762000Y232750D02*
X1767000D01*
X1772000D01*
X1767000D02*
Y237750D01*
Y227750D02*
Y232750D01*
X1754000Y225250D02*
Y240250D01*
X1780000Y225250D02*
Y240250D01*
X1754000D02*
X1780000D01*
X1754000Y225250D02*
X1780000D01*
X1727290Y135977D02*
X1761790D01*
X1727290Y116977D02*
X1761790D01*
X1727290D02*
Y135977D01*
X1761790Y116977D02*
Y135977D01*
X1744540Y126477D02*
Y131477D01*
Y121477D02*
Y126477D01*
X1739540D02*
X1744540D01*
X1749540D01*
X1805000Y135000D02*
X1810000D01*
X1815000D01*
X1810000D02*
Y140000D01*
Y130000D02*
Y135000D01*
X1797000Y127500D02*
Y142500D01*
X1823000Y127500D02*
Y142500D01*
X1797000D02*
X1823000D01*
X1797000Y127500D02*
X1823000D01*
X1788264Y33015D02*
X1793264D01*
X1798264D01*
X1793264D02*
Y38015D01*
Y28015D02*
Y33015D01*
X1780264Y25515D02*
Y40515D01*
X1806264Y25515D02*
Y40515D01*
X1780264D02*
X1806264D01*
X1780264Y25515D02*
X1806264D01*
X1764403Y23653D02*
Y58153D01*
X1745403Y23653D02*
Y58153D01*
X1764403D01*
X1745403Y23653D02*
X1764403D01*
X1754903Y40903D02*
X1759903D01*
X1749903D02*
X1754903D01*
Y45903D01*
Y35903D02*
Y40903D01*
X1857000Y51250D02*
Y66250D01*
X1870000Y58750D02*
X1875000D01*
X1857000Y66250D02*
X1883000D01*
X1870000Y53750D02*
Y58750D01*
X1883000Y51250D02*
Y66250D01*
X1865000Y58750D02*
X1870000D01*
Y63750D01*
X1857000Y51250D02*
X1883000D01*
X1857000Y35750D02*
Y50750D01*
X1870000Y43250D02*
X1875000D01*
X1857000Y50750D02*
X1883000D01*
X1870000Y38250D02*
Y43250D01*
X1883000Y35750D02*
Y50750D01*
X1865000Y43250D02*
X1870000D01*
Y48250D01*
X1857000Y35750D02*
X1883000D01*
X1167000Y187500D02*
Y202500D01*
X1180000Y195000D02*
X1185000D01*
X1167000Y202500D02*
X1193000D01*
X1180000Y190000D02*
Y195000D01*
X1193000Y187500D02*
Y202500D01*
X1175000Y195000D02*
X1180000D01*
Y200000D01*
X1167000Y187500D02*
X1193000D01*
X1327000D02*
Y202500D01*
X1340000Y195000D02*
X1345000D01*
X1327000Y202500D02*
X1353000D01*
X1340000Y190000D02*
Y195000D01*
X1353000Y187500D02*
Y202500D01*
X1335000Y195000D02*
X1340000D01*
Y200000D01*
X1327000Y187500D02*
X1353000D01*
X1007000D02*
Y202500D01*
X1020000Y195000D02*
X1025000D01*
X1007000Y202500D02*
X1033000D01*
X1020000Y190000D02*
Y195000D01*
X1033000Y187500D02*
Y202500D01*
X1015000Y195000D02*
X1020000D01*
Y200000D01*
X1007000Y187500D02*
X1033000D01*
X1908000Y327500D02*
Y342500D01*
X1890000Y335000D02*
X1895000D01*
X1882000Y327500D02*
X1908000D01*
X1895000Y335000D02*
Y340000D01*
X1882000Y327500D02*
Y342500D01*
X1895000Y335000D02*
X1900000D01*
X1895000Y330000D02*
Y335000D01*
X1882000Y342500D02*
X1908000D01*
X1922000Y327500D02*
Y342500D01*
X1935000Y335000D02*
X1940000D01*
X1922000Y342500D02*
X1948000D01*
X1935000Y330000D02*
Y335000D01*
X1948000Y327500D02*
Y342500D01*
X1930000Y335000D02*
X1935000D01*
Y340000D01*
X1922000Y327500D02*
X1948000D01*
X1277000Y187500D02*
Y202500D01*
X1290000Y195000D02*
X1295000D01*
X1277000Y202500D02*
X1303000D01*
X1290000Y190000D02*
Y195000D01*
X1303000Y187500D02*
Y202500D01*
X1285000Y195000D02*
X1290000D01*
Y200000D01*
X1277000Y187500D02*
X1303000D01*
X1437000D02*
Y202500D01*
X1450000Y195000D02*
X1455000D01*
X1437000Y202500D02*
X1463000D01*
X1450000Y190000D02*
Y195000D01*
X1463000Y187500D02*
Y202500D01*
X1445000Y195000D02*
X1450000D01*
Y200000D01*
X1437000Y187500D02*
X1463000D01*
X2008000Y327500D02*
Y342500D01*
X1990000Y335000D02*
X1995000D01*
X1982000Y327500D02*
X2008000D01*
X1995000Y335000D02*
Y340000D01*
X1982000Y327500D02*
Y342500D01*
X1995000Y335000D02*
X2000000D01*
X1995000Y330000D02*
Y335000D01*
X1982000Y342500D02*
X2008000D01*
X2022000Y327500D02*
Y342500D01*
X2035000Y335000D02*
X2040000D01*
X2022000Y342500D02*
X2048000D01*
X2035000Y330000D02*
Y335000D01*
X2048000Y327500D02*
Y342500D01*
X2030000Y335000D02*
X2035000D01*
Y340000D01*
X2022000Y327500D02*
X2048000D01*
X227500Y119250D02*
Y134250D01*
X240500Y126750D02*
X245500D01*
X227500Y134250D02*
X253500D01*
X240500Y121750D02*
Y126750D01*
X253500Y119250D02*
Y134250D01*
X235500Y126750D02*
X240500D01*
Y131750D01*
X227500Y119250D02*
X253500D01*
X2163000Y67500D02*
Y82500D01*
X2145000Y75000D02*
X2150000D01*
X2137000Y67500D02*
X2163000D01*
X2150000Y75000D02*
Y80000D01*
X2137000Y67500D02*
Y82500D01*
X2150000Y75000D02*
X2155000D01*
X2150000Y70000D02*
Y75000D01*
X2137000Y82500D02*
X2163000D01*
Y477500D02*
Y492500D01*
X2145000Y485000D02*
X2150000D01*
X2137000Y477500D02*
X2163000D01*
X2150000Y485000D02*
Y490000D01*
X2137000Y477500D02*
Y492500D01*
X2150000Y485000D02*
X2155000D01*
X2150000Y480000D02*
Y485000D01*
X2137000Y492500D02*
X2163000D01*
X2223000Y477500D02*
Y492500D01*
X2205000Y485000D02*
X2210000D01*
X2197000Y477500D02*
X2223000D01*
X2210000Y485000D02*
Y490000D01*
X2197000Y477500D02*
Y492500D01*
X2210000Y485000D02*
X2215000D01*
X2210000Y480000D02*
Y485000D01*
X2197000Y492500D02*
X2223000D01*
Y67500D02*
Y82500D01*
X2205000Y75000D02*
X2210000D01*
X2197000Y67500D02*
X2223000D01*
X2210000Y75000D02*
Y80000D01*
X2197000Y67500D02*
Y82500D01*
X2210000Y75000D02*
X2215000D01*
X2210000Y70000D02*
Y75000D01*
X2197000Y82500D02*
X2223000D01*
X122000Y72500D02*
Y87500D01*
X135000Y80000D02*
X140000D01*
X122000Y87500D02*
X148000D01*
X135000Y75000D02*
Y80000D01*
X148000Y72500D02*
Y87500D01*
X130000Y80000D02*
X135000D01*
Y85000D01*
X122000Y72500D02*
X148000D01*
X122000Y152500D02*
Y167500D01*
X135000Y160000D02*
X140000D01*
X122000Y167500D02*
X148000D01*
X135000Y155000D02*
Y160000D01*
X148000Y152500D02*
Y167500D01*
X130000Y160000D02*
X135000D01*
Y165000D01*
X122000Y152500D02*
X148000D01*
X1582000Y102500D02*
Y117500D01*
X1595000Y110000D02*
X1600000D01*
X1582000Y117500D02*
X1608000D01*
X1595000Y105000D02*
Y110000D01*
X1608000Y102500D02*
Y117500D01*
X1590000Y110000D02*
X1595000D01*
Y115000D01*
X1582000Y102500D02*
X1608000D01*
X1582000Y42500D02*
Y57500D01*
X1595000Y50000D02*
X1600000D01*
X1582000Y57500D02*
X1608000D01*
X1595000Y45000D02*
Y50000D01*
X1608000Y42500D02*
Y57500D01*
X1590000Y50000D02*
X1595000D01*
Y55000D01*
X1582000Y42500D02*
X1608000D01*
X1437000Y102500D02*
Y117500D01*
X1450000Y110000D02*
X1455000D01*
X1437000Y117500D02*
X1463000D01*
X1450000Y105000D02*
Y110000D01*
X1463000Y102500D02*
Y117500D01*
X1445000Y110000D02*
X1450000D01*
Y115000D01*
X1437000Y102500D02*
X1463000D01*
X1437000Y72500D02*
Y87500D01*
X1450000Y80000D02*
X1455000D01*
X1437000Y87500D02*
X1463000D01*
X1450000Y75000D02*
Y80000D01*
X1463000Y72500D02*
Y87500D01*
X1445000Y80000D02*
X1450000D01*
Y85000D01*
X1437000Y72500D02*
X1463000D01*
X1437000Y42500D02*
Y57500D01*
X1450000Y50000D02*
X1455000D01*
X1437000Y57500D02*
X1463000D01*
X1450000Y45000D02*
Y50000D01*
X1463000Y42500D02*
Y57500D01*
X1445000Y50000D02*
X1450000D01*
Y55000D01*
X1437000Y42500D02*
X1463000D01*
X70250Y112250D02*
Y117250D01*
Y122250D01*
X65250Y117250D02*
X70250D01*
X75250D01*
X60750Y100000D02*
X79750D01*
X60750Y134500D02*
X79750D01*
X60750Y100000D02*
Y134500D01*
X79750Y100000D02*
Y134500D01*
X90000Y112250D02*
Y117250D01*
Y122250D01*
X85000Y117250D02*
X90000D01*
X95000D01*
X80500Y100000D02*
X99500D01*
X80500Y134500D02*
X99500D01*
X80500Y100000D02*
Y134500D01*
X99500Y100000D02*
Y134500D01*
X1984250Y298000D02*
Y313000D01*
X1997250Y305500D02*
X2002250D01*
X1984250Y313000D02*
X2010250D01*
X1997250Y300500D02*
Y305500D01*
X2010250Y298000D02*
Y313000D01*
X1992250Y305500D02*
X1997250D01*
Y310500D01*
X1984250Y298000D02*
X2010250D01*
X109500Y112250D02*
Y117250D01*
Y122250D01*
X104500Y117250D02*
X109500D01*
X114500D01*
X100000Y100000D02*
X119000D01*
X100000Y134500D02*
X119000D01*
X100000Y100000D02*
Y134500D01*
X119000Y100000D02*
Y134500D01*
X206500Y126750D02*
X208250Y123000D01*
X206500Y126750D02*
X208250Y130500D01*
X170250Y134250D02*
X208250D01*
X170250Y100000D02*
X208250D01*
X170250D02*
Y134250D01*
X208250Y100000D02*
Y134250D01*
X189250Y117250D02*
Y122250D01*
Y112250D02*
Y117250D01*
X184250D02*
X189250D01*
X194250D01*
X117000Y39000D02*
X132000D01*
X124500Y21000D02*
Y26000D01*
X132000Y13000D02*
Y39000D01*
X119500Y26000D02*
X124500D01*
X117000Y13000D02*
X132000D01*
X124500Y26000D02*
Y31000D01*
Y26000D02*
X129500D01*
X117000Y13000D02*
Y39000D01*
X97000D02*
X112000D01*
X104500Y21000D02*
Y26000D01*
X112000Y13000D02*
Y39000D01*
X99500Y26000D02*
X104500D01*
X97000Y13000D02*
X112000D01*
X104500Y26000D02*
Y31000D01*
Y26000D02*
X109500D01*
X97000Y13000D02*
Y39000D01*
X77000D02*
X92000D01*
X84500Y21000D02*
Y26000D01*
X92000Y13000D02*
Y39000D01*
X79500Y26000D02*
X84500D01*
X77000Y13000D02*
X92000D01*
X84500Y26000D02*
Y31000D01*
Y26000D02*
X89500D01*
X77000Y13000D02*
Y39000D01*
X57000D02*
X72000D01*
X64500Y21000D02*
Y26000D01*
X72000Y13000D02*
Y39000D01*
X59500Y26000D02*
X64500D01*
X57000Y13000D02*
X72000D01*
X64500Y26000D02*
Y31000D01*
Y26000D02*
X69500D01*
X57000Y13000D02*
Y39000D01*
X-20500Y93750D02*
X-5500D01*
X-13000Y75750D02*
Y80750D01*
X-5500Y67750D02*
Y93750D01*
X-18000Y80750D02*
X-13000D01*
X-20500Y67750D02*
X-5500D01*
X-13000Y80750D02*
Y85750D01*
Y80750D02*
X-8000D01*
X-20500Y67750D02*
Y93750D01*
X23000Y142500D02*
Y177000D01*
X4000Y142500D02*
Y177000D01*
X23000D01*
X4000Y142500D02*
X23000D01*
X13500Y159750D02*
X18500D01*
X8500D02*
X13500D01*
Y164750D01*
Y154750D02*
Y159750D01*
X3250Y142750D02*
Y177250D01*
X-15750Y142750D02*
Y177250D01*
X3250D01*
X-15750Y142750D02*
X3250D01*
X-6250Y160000D02*
X-1250D01*
X-11250D02*
X-6250D01*
Y165000D01*
Y155000D02*
Y160000D01*
X1500Y68000D02*
X16500D01*
X9000Y81000D02*
Y86000D01*
X1500Y68000D02*
Y94000D01*
X9000Y81000D02*
X14000D01*
X1500Y94000D02*
X16500D01*
X9000Y76000D02*
Y81000D01*
X4000D02*
X9000D01*
X16500Y68000D02*
Y94000D01*
X-22200Y156199D02*
Y161199D01*
Y166199D01*
X-27200Y161199D02*
X-22200D01*
X-17200D01*
X-29700Y148199D02*
X-14700D01*
X-29700Y174199D02*
X-14700D01*
X-29700Y148199D02*
Y174199D01*
X-14700Y148199D02*
Y174199D01*
X1277000Y102500D02*
Y117500D01*
X1290000Y110000D02*
X1295000D01*
X1277000Y117500D02*
X1303000D01*
X1290000Y105000D02*
Y110000D01*
X1303000Y102500D02*
Y117500D01*
X1285000Y110000D02*
X1290000D01*
Y115000D01*
X1277000Y102500D02*
X1303000D01*
X1277000Y72500D02*
Y87500D01*
X1290000Y80000D02*
X1295000D01*
X1277000Y87500D02*
X1303000D01*
X1290000Y75000D02*
Y80000D01*
X1303000Y72500D02*
Y87500D01*
X1285000Y80000D02*
X1290000D01*
Y85000D01*
X1277000Y72500D02*
X1303000D01*
X1277000Y42500D02*
Y57500D01*
X1290000Y50000D02*
X1295000D01*
X1277000Y57500D02*
X1303000D01*
X1290000Y45000D02*
Y50000D01*
X1303000Y42500D02*
Y57500D01*
X1285000Y50000D02*
X1290000D01*
Y55000D01*
X1277000Y42500D02*
X1303000D01*
X1107000Y102500D02*
Y117500D01*
X1120000Y110000D02*
X1125000D01*
X1107000Y117500D02*
X1133000D01*
X1120000Y105000D02*
Y110000D01*
X1133000Y102500D02*
Y117500D01*
X1115000Y110000D02*
X1120000D01*
Y115000D01*
X1107000Y102500D02*
X1133000D01*
X1107000Y72500D02*
Y87500D01*
X1120000Y80000D02*
X1125000D01*
X1107000Y87500D02*
X1133000D01*
X1120000Y75000D02*
Y80000D01*
X1133000Y72500D02*
Y87500D01*
X1115000Y80000D02*
X1120000D01*
Y85000D01*
X1107000Y72500D02*
X1133000D01*
X1107000Y42500D02*
Y57500D01*
X1120000Y50000D02*
X1125000D01*
X1107000Y57500D02*
X1133000D01*
X1120000Y45000D02*
Y50000D01*
X1133000Y42500D02*
Y57500D01*
X1115000Y50000D02*
X1120000D01*
Y55000D01*
X1107000Y42500D02*
X1133000D01*
X853000Y177500D02*
Y192500D01*
X835000Y185000D02*
X840000D01*
X827000Y177500D02*
X853000D01*
X840000Y185000D02*
Y190000D01*
X827000Y177500D02*
Y192500D01*
X840000Y185000D02*
X845000D01*
X840000Y180000D02*
Y185000D01*
X827000Y192500D02*
X853000D01*
X402000Y177500D02*
Y192500D01*
X415000Y185000D02*
X420000D01*
X402000Y192500D02*
X428000D01*
X415000Y180000D02*
Y185000D01*
X428000Y177500D02*
Y192500D01*
X410000Y185000D02*
X415000D01*
Y190000D01*
X402000Y177500D02*
X428000D01*
X212000Y152500D02*
Y167500D01*
X225000Y160000D02*
X230000D01*
X212000Y167500D02*
X238000D01*
X225000Y155000D02*
Y160000D01*
X238000Y152500D02*
Y167500D01*
X220000Y160000D02*
X225000D01*
Y165000D01*
X212000Y152500D02*
X238000D01*
X212000Y72500D02*
Y87500D01*
X225000Y80000D02*
X230000D01*
X212000Y87500D02*
X238000D01*
X225000Y75000D02*
Y80000D01*
X238000Y72500D02*
Y87500D01*
X220000Y80000D02*
X225000D01*
Y85000D01*
X212000Y72500D02*
X238000D01*
M02*
