M48
;Layer_Color=9474304
;FILE_FORMAT=4:4
METRIC,LZ
;TYPE=PLATED
T01F00S00C0.5000
T02F00S00C1.0000
T03F00S00C2.6000
T04F00S00C3.2000
;TYPE=NON_PLATED
T05F00S00C7.5000
%
T01
X01977Y00101
X02115Y0014769
X0217325Y00151
X02234Y0015075
X01886789Y001245
X01898Y001105
X01855Y00115
X0185425Y0014875
Y001625
Y001755
X0186825Y0015925
X01815Y001625
Y0017525
Y0014925
X018005Y00114
X01794Y0010075
X017615Y0008475
X0175525Y00063
Y0001575
X01732Y00008
X0173175Y-000065
X0170975Y000005
X01701Y-0000875
X0168975
Y0001375
X016725Y0000025
X01706Y-0005125
X0174Y-000575
X0175Y-0005
X01775Y-000675
X0181575Y-0005525
Y-000425
X018175Y-000175
X0179525Y-000105
Y000075
X01807733Y00016502
X0181075Y00033
X018175Y0004925
X0186Y0003
Y000175
Y-000075
Y-0002
Y-0004075
X0185075Y-0005575
X018825Y-000075
X0175375Y0011325
X0172175Y001265
X01735Y001425
X0167875Y0014175
Y001305
X01667Y0014175
X0164675
X01639Y0013025
X016555
X0164575Y001035
X0162175Y0008125
X016Y00095
X0161575Y0013775
X0157Y0014
X015575Y001525
X0154575Y0013475
X01527Y000905
X0151575
X014725Y0011
X01479Y0005175
X01434Y0006525
X0145525Y-000225
X01495
X0155525
X0139725Y-0002225
X0117Y-0001731
X013125Y001825
X01063Y001665
X01136Y0003475
X011235Y-000735
X0102Y-00015
X009975
X00915Y-0007
X00303009Y-00024779
X0029Y0005
X00245
X00225Y00045
X002165Y000945
X001345Y00126
X00135Y0014
X001245Y00045
X001045
X000845
X000645Y00045
X-0001325Y0006025
X0000925Y0010575
X0005325Y001775
X0031725Y0013725
X00235Y-0008
X-00025Y-00085
X-00005Y00187
X009485Y001955
X0173125Y00188
X0176Y00187
X0176025Y0021325
X0178471Y002325
X0180025Y0023375
X018Y00221
X0185425Y0021425
Y00203
X018505Y0023825
X018725
Y0025
X0188175Y0025875
X01882501Y00270296
X018825Y0028175
X018575Y0028325
X0186775Y00297
X01855Y00315
X01886998Y00320411
X01902Y0032075
X01942Y0034925
X019475Y00263
X0195725Y0025225
X0192575Y002465
X0179425Y0029225
X017565Y002945
X0174125
X01758135Y00317502
X01758184Y00360998
X01777482Y003555
X018Y0034
X0197525Y0033475
X0199025Y00374
X020145Y003055
X02047Y0030625
X02055Y00315
X020535Y0033525
X0209425Y0032175
X021545Y0028
X0220875Y0028025
X0222775Y0027225
X02178686Y00226126
X02129Y0021675
X0206475Y0022825
T02
X01965Y00135
X021373Y0005
X021627
X021973
X022227
X022125Y0002275
X022125Y-000225
X021475
Y000225
X01941001Y00135
X01915
X017325Y000225
Y-000225
X016675Y-0002275
Y000225
X015875Y0002275
Y-000225
X015677Y0005
Y0011
X015875Y001375
Y0018275
X015225Y001825
Y001375
X015423Y0011
Y0005
X015225Y000225
Y-000225
X01427499
Y0002275
X01407699Y00049999
X01382299
Y0008
X01407699
Y00109999
X01382299
X01362499Y001375
X0134Y001473
Y001727
X01362499Y001825
X01427499Y0018275
X0145Y001727
Y001473
X01427499Y001375
X0129Y001473
Y001727
X01267499Y0018275
Y001375
X01247699Y00109999
X01222299
Y0008
X01247699
Y00049999
X01222299
X01202499Y000225
Y-000225
X01267499
Y0002275
X01362499Y000225
Y-000225
X01202499Y001375
X0118Y001473
Y001727
X01202499Y001825
X011075Y0018275
Y001375
X010877Y0011
X010623
Y0008
X010877
Y0005
X010623
X010425Y000225
Y-000225
X011075
Y0002275
X010425Y001375
X0102Y001473
Y001727
X010425Y001825
X009725Y001625
X009075Y0016225
X008977Y00185
X008723
X003877
X003623
X003525Y001625
X002875
X001977Y0016
X001723
X001077
X000823
X000325Y001375
Y0010275
Y000575
X0003251Y0002275
Y-000225
X001525
Y000225
X002175Y0002275
Y-000225
X001977Y0008
X001723
X001077
X000823
X000325Y0018275
X-000325Y001825
Y001375
Y001025
Y000575
X-0003249Y000225
Y-000225
X-00037418Y00286166
Y00311566
Y00336966
Y00362366
Y00387766
Y00413166
Y00438566
Y00463966
X-00062818
Y00438566
Y00413166
Y00387766
Y00362366
Y00336966
Y00311566
Y00286166
X002875Y002075
X003525Y0020775
X009075Y002075
X009725
X016975Y003725
X017425
Y004375
X0169725
X018257Y004127
X018511
X018511Y003873
X018765Y003873
Y004127
X019019
X019019Y003873
X019273Y003873
X019527Y003873
X019527Y004127
X019273Y004127
X018257Y003873
X01915Y0028
X01965
X019781Y003873
Y004127
X020035
X020289Y004127
Y003873
X020035Y003873
X020543Y003873
X020543Y004127
X021475Y004275
X021373Y00455
X021627
X021973
X022227
X022125Y0042775
Y003825
X021475
T03
X01882Y0021
X01998
T04
X0208Y-0004
X0134Y0008
X00632511Y0
X00455Y0008
X00095Y-0004
X-00052489Y00505589
X01697511
X0208Y0051
T05
X0081Y0
X0091Y0008
X0071
X00555
X00455Y0
X00355Y0008
M30
