G04*
G04 #@! TF.GenerationSoftware,Altium Limited,Altium Designer,25.8.1 (18)*
G04*
G04 Layer_Color=32768*
%FSLAX44Y44*%
%MOMM*%
G71*
G04*
G04 #@! TF.SameCoordinates,4735BC6C-472E-4BDB-949C-0D940F0CBE95*
G04*
G04*
G04 #@! TF.FilePolarity,Positive*
G04*
G01*
G75*
%ADD54C,0.0500*%
D54*
X1686500Y362000D02*
Y448000D01*
Y362000D02*
X1753000D01*
Y448000D01*
X1686500D02*
X1753000D01*
X1720000Y405000D02*
Y410000D01*
X1715000Y405000D02*
X1720000D01*
Y400000D02*
Y405000D01*
X1725000D01*
X1075000Y155000D02*
Y160000D01*
X1070000D02*
X1075000D01*
Y165000D01*
Y160000D02*
X1080000D01*
X1118000Y127000D02*
Y193500D01*
X1032000Y127000D02*
X1118000D01*
X1032000D02*
Y193500D01*
X1118000D01*
X1070000Y110000D02*
X1080000D01*
X1075000Y105000D02*
Y115000D01*
X1048500Y125000D02*
X1101500D01*
X1048500Y95000D02*
Y125000D01*
Y95000D02*
X1101500D01*
Y125000D01*
Y35000D02*
Y65000D01*
X1048500Y35000D02*
X1101500D01*
X1048500D02*
Y65000D01*
X1101500D01*
X1075000Y45000D02*
Y55000D01*
X1070000Y50000D02*
X1080000D01*
X1075000Y-5000D02*
Y0D01*
X1070000D02*
X1075000D01*
Y5000D01*
Y0D02*
X1080000D01*
X1118000Y-33000D02*
Y33500D01*
X1032000Y-33000D02*
X1118000D01*
X1032000D02*
Y33500D01*
X1118000D01*
X1070000Y80000D02*
X1080000D01*
X1075000Y75000D02*
Y85000D01*
X1048500Y95000D02*
X1101500D01*
X1048500Y65000D02*
Y95000D01*
Y65000D02*
X1101500D01*
Y95000D01*
X1005000Y186500D02*
X1035000D01*
Y133500D02*
Y186500D01*
X1005000Y133500D02*
X1035000D01*
X1005000D02*
Y186500D01*
X1015000Y160000D02*
X1025000D01*
X1020000Y155000D02*
Y165000D01*
X1325000Y186500D02*
X1355000D01*
Y133500D02*
Y186500D01*
X1325000Y133500D02*
X1355000D01*
X1325000D02*
Y186500D01*
X1335000Y160000D02*
X1345000D01*
X1340000Y155000D02*
Y165000D01*
X1165000Y186500D02*
X1195000D01*
Y133500D02*
Y186500D01*
X1165000Y133500D02*
X1195000D01*
X1165000D02*
Y186500D01*
X1175000Y160000D02*
X1185000D01*
X1180000Y155000D02*
Y165000D01*
X1915000Y124500D02*
X2005000D01*
Y290500D01*
X1875000D02*
X2005000D01*
X1875000Y158000D02*
Y290500D01*
Y124500D02*
Y158000D01*
Y124500D02*
X1915000D01*
X-78118Y479266D02*
X-22118D01*
X-78118Y270916D02*
Y479266D01*
X-22118Y288666D02*
Y479266D01*
X-78118Y270916D02*
X-22118D01*
Y288666D01*
X-55001Y375002D02*
X-45001D01*
X-49998Y369998D02*
Y379998D01*
X2176500Y440000D02*
Y470000D01*
X2123500Y440000D02*
X2176500D01*
X2123500D02*
Y470000D01*
X2176500D01*
X2150000Y450000D02*
Y460000D01*
X2145000Y455000D02*
X2155000D01*
X2176500Y35000D02*
Y65000D01*
X2123500Y35000D02*
X2176500D01*
X2123500D02*
Y65000D01*
X2176500D01*
X2150000Y45000D02*
Y55000D01*
X2145000Y50000D02*
X2155000D01*
X2236500Y440000D02*
Y470000D01*
X2183500Y440000D02*
X2236500D01*
X2183500D02*
Y470000D01*
X2236500D01*
X2210000Y450000D02*
Y460000D01*
X2205000Y455000D02*
X2215000D01*
X2236500Y35000D02*
Y65000D01*
X2183500Y35000D02*
X2236500D01*
X2183500D02*
Y65000D01*
X2236500D01*
X2210000Y45000D02*
Y55000D01*
X2205000Y50000D02*
X2215000D01*
X1290000Y155000D02*
Y165000D01*
X1285000Y160000D02*
X1295000D01*
X1275000Y133500D02*
Y186500D01*
Y133500D02*
X1305000D01*
Y186500D01*
X1275000D02*
X1305000D01*
X1450000Y155000D02*
Y165000D01*
X1445000Y160000D02*
X1455000D01*
X1435000Y133500D02*
Y186500D01*
Y133500D02*
X1465000D01*
Y186500D01*
X1435000D02*
X1465000D01*
X2137000Y438500D02*
X2223000D01*
X2137000Y372000D02*
Y438500D01*
Y372000D02*
X2223000D01*
Y438500D01*
X2180000Y405000D02*
X2185000D01*
X2180000D02*
Y410000D01*
X2175000Y405000D02*
X2180000D01*
Y400000D02*
Y405000D01*
Y-5000D02*
Y0D01*
X2175000D02*
X2180000D01*
Y5000D01*
Y0D02*
X2185000D01*
X2223000Y-33000D02*
Y33500D01*
X2137000Y-33000D02*
X2223000D01*
X2137000D02*
Y33500D01*
X2223000D01*
X1700000Y0D02*
X1700000Y5000D01*
X1700000Y0D02*
X1705000D01*
X1700000Y-5000D02*
Y0D01*
X1695000D02*
X1700000D01*
X1657000Y-33500D02*
Y33000D01*
X1743000D01*
Y-33500D02*
Y33000D01*
X1657000Y-33500D02*
X1743000D01*
X1512000Y33500D02*
X1598000D01*
X1512000Y-33000D02*
Y33500D01*
Y-33000D02*
X1598000D01*
Y33500D01*
X1555000Y0D02*
X1560000D01*
X1555000D02*
Y5000D01*
X1550000Y0D02*
X1555000D01*
Y-5000D02*
Y0D01*
X1351999Y33500D02*
X1437999D01*
X1351999Y-33000D02*
Y33500D01*
Y-33000D02*
X1437999D01*
Y33500D01*
X1394999Y0D02*
X1399999D01*
X1394999D02*
Y5000D01*
X1389999Y0D02*
X1394999D01*
Y-5000D02*
Y0D01*
X1555000Y155000D02*
Y160000D01*
X1550000D02*
X1555000D01*
Y165000D01*
Y160000D02*
X1560000D01*
X1598000Y127000D02*
Y193500D01*
X1512000Y127000D02*
X1598000D01*
X1512000D02*
Y193500D01*
X1598000D01*
X1581500Y35000D02*
Y65000D01*
X1528500Y35000D02*
X1581500D01*
X1528500D02*
Y65000D01*
X1581500D01*
X1555000Y45000D02*
Y55000D01*
X1550000Y50000D02*
X1560000D01*
X1421499Y34999D02*
Y64999D01*
X1368499Y34999D02*
X1421499D01*
X1368499D02*
Y64999D01*
X1421499D01*
X1394999Y44999D02*
Y54999D01*
X1389999Y49999D02*
X1399999D01*
X1389999Y80000D02*
X1399999D01*
X1394999Y75000D02*
Y85000D01*
X1368499Y95000D02*
X1421499D01*
X1368499Y65000D02*
Y95000D01*
Y65000D02*
X1421499D01*
Y95000D01*
X1581500Y95000D02*
Y125000D01*
X1528500Y95000D02*
X1581500D01*
X1528500D02*
Y125000D01*
X1581500D01*
X1555000Y105000D02*
Y115000D01*
X1550000Y110000D02*
X1560000D01*
X1421499Y94999D02*
Y124999D01*
X1368499Y94999D02*
X1421499D01*
X1368499D02*
Y124999D01*
X1421499D01*
X1394999Y104999D02*
Y114999D01*
X1389999Y109999D02*
X1399999D01*
X1191999Y33500D02*
X1277999D01*
X1191999Y-33000D02*
Y33500D01*
Y-33000D02*
X1277999D01*
Y33500D01*
X1234999Y0D02*
X1239999D01*
X1234999D02*
Y5000D01*
X1229999Y0D02*
X1234999D01*
Y-5000D02*
Y0D01*
X1261499Y34999D02*
Y64999D01*
X1208499Y34999D02*
X1261499D01*
X1208499D02*
Y64999D01*
X1261499D01*
X1234999Y44999D02*
Y54999D01*
X1229999Y49999D02*
X1239999D01*
X1229999Y80000D02*
X1239999D01*
X1234999Y75000D02*
Y85000D01*
X1208499Y95000D02*
X1261499D01*
X1208499Y65000D02*
Y95000D01*
Y65000D02*
X1261499D01*
Y95000D01*
X90000Y160000D02*
X100000D01*
X95000Y155000D02*
Y165000D01*
X68500Y175000D02*
X121500D01*
X68500Y145000D02*
Y175000D01*
Y145000D02*
X121500D01*
Y175000D01*
X1229999Y109999D02*
X1239999D01*
X1234999Y104999D02*
Y114999D01*
X1208499Y124999D02*
X1261499D01*
X1208499Y94999D02*
Y124999D01*
Y94999D02*
X1261499D01*
Y124999D01*
X897000Y151500D02*
X983000D01*
Y218000D01*
X897000D02*
X983000D01*
X897000Y151500D02*
Y218000D01*
X935000Y185000D02*
X940000D01*
Y180000D02*
Y185000D01*
X945000D01*
X940000D02*
Y190000D01*
X1351999Y193500D02*
X1437999D01*
X1351999Y127000D02*
Y193500D01*
Y127000D02*
X1437999D01*
Y193500D01*
X1394999Y160000D02*
X1399999D01*
X1394999D02*
Y165000D01*
X1389999Y160000D02*
X1394999D01*
Y155000D02*
Y160000D01*
X1191999Y193500D02*
X1277999D01*
X1191999Y127000D02*
Y193500D01*
Y127000D02*
X1277999D01*
Y193500D01*
X1234999Y160000D02*
X1239999D01*
X1234999D02*
Y165000D01*
X1229999Y160000D02*
X1234999D01*
Y155000D02*
Y160000D01*
X211500Y65000D02*
Y95000D01*
X158500Y65000D02*
X211500D01*
X158500D02*
Y95000D01*
X211500D01*
X185000Y75000D02*
Y85000D01*
X180000Y80000D02*
X190000D01*
X211500Y145000D02*
Y175000D01*
X158500Y145000D02*
X211500D01*
X158500D02*
Y175000D01*
X211500D01*
X185000Y155000D02*
Y165000D01*
X180000Y160000D02*
X190000D01*
X370000Y185000D02*
X380000D01*
X375000Y180000D02*
Y190000D01*
X348500Y170000D02*
X401500D01*
Y200000D01*
X348500D02*
X401500D01*
X348500Y170000D02*
Y200000D01*
X90000Y80000D02*
X100000D01*
X95000Y75000D02*
Y85000D01*
X68500Y95000D02*
X121500D01*
X68500Y65000D02*
Y95000D01*
Y65000D02*
X121500D01*
Y95000D01*
X185000Y-5000D02*
Y0D01*
X180000D02*
X185000D01*
Y5000D01*
Y0D02*
X190000D01*
X228000Y-33000D02*
Y33500D01*
X142000Y-33000D02*
X228000D01*
X142000D02*
Y33500D01*
X228000D01*
X0Y75000D02*
Y80000D01*
X-5000D02*
X0D01*
Y85000D01*
Y80000D02*
X5000D01*
X43000Y47000D02*
Y113500D01*
X-43000Y47000D02*
X43000D01*
X-43000D02*
Y113500D01*
X43000D01*
X10Y-5000D02*
Y0D01*
X-4990D02*
X10D01*
Y5000D01*
Y0D02*
X5010D01*
X43010Y-33000D02*
Y33500D01*
X-42990Y-33000D02*
X43010D01*
X-42990D02*
Y33500D01*
X43010D01*
X277000Y218500D02*
X363000D01*
X277000Y152000D02*
Y218500D01*
Y152000D02*
X363000D01*
Y218500D01*
X320000Y185000D02*
X325000D01*
X320000D02*
Y190000D01*
X315000Y185000D02*
X320000D01*
Y180000D02*
Y185000D01*
X-43000Y193500D02*
X43000D01*
X-43000Y127000D02*
Y193500D01*
Y127000D02*
X43000D01*
Y193500D01*
X0Y160000D02*
X5000D01*
X0D02*
Y165000D01*
X-5000Y160000D02*
X0D01*
Y155000D02*
Y160000D01*
X880000Y185000D02*
X890000D01*
X885000Y180000D02*
Y190000D01*
X858500Y200000D02*
X911500D01*
X858500Y170000D02*
Y200000D01*
Y170000D02*
X911500D01*
Y200000D01*
M02*
