G04*
G04 #@! TF.GenerationSoftware,Altium Limited,Altium Designer,25.8.1 (18)*
G04*
G04 Layer_Color=16711935*
%FSLAX44Y44*%
%MOMM*%
G71*
G04*
G04 #@! TF.SameCoordinates,4735BC6C-472E-4BDB-949C-0D940F0CBE95*
G04*
G04*
G04 #@! TF.FilePolarity,Negative*
G04*
G01*
G75*
%ADD14C,1.8032*%
%ADD15C,1.7032*%
%ADD16O,3.8032X4.4032*%
%ADD17R,1.6500X1.6500*%
%ADD18C,1.6500*%
%ADD19C,1.8500*%
%ADD20R,1.8500X1.8500*%
%ADD21C,0.2032*%
%ADD22C,1.1032*%
G04:AMPARAMS|DCode=45|XSize=0.87mm|YSize=1.14mm|CornerRadius=0.165mm|HoleSize=0mm|Usage=FLASHONLY|Rotation=90.000|XOffset=0mm|YOffset=0mm|HoleType=Round|Shape=RoundedRectangle|*
%AMROUNDEDRECTD45*
21,1,0.8700,0.8100,0,0,90.0*
21,1,0.5400,1.1400,0,0,90.0*
1,1,0.3300,0.4050,0.2700*
1,1,0.3300,0.4050,-0.2700*
1,1,0.3300,-0.4050,-0.2700*
1,1,0.3300,-0.4050,0.2700*
%
%ADD45ROUNDEDRECTD45*%
G04:AMPARAMS|DCode=46|XSize=1.15mm|YSize=0.75mm|CornerRadius=0.15mm|HoleSize=0mm|Usage=FLASHONLY|Rotation=180.000|XOffset=0mm|YOffset=0mm|HoleType=Round|Shape=RoundedRectangle|*
%AMROUNDEDRECTD46*
21,1,1.1500,0.4500,0,0,180.0*
21,1,0.8500,0.7500,0,0,180.0*
1,1,0.3000,-0.4250,0.2250*
1,1,0.3000,0.4250,0.2250*
1,1,0.3000,0.4250,-0.2250*
1,1,0.3000,-0.4250,-0.2250*
%
%ADD46ROUNDEDRECTD46*%
G04:AMPARAMS|DCode=47|XSize=0.75mm|YSize=1.6mm|CornerRadius=0.15mm|HoleSize=0mm|Usage=FLASHONLY|Rotation=180.000|XOffset=0mm|YOffset=0mm|HoleType=Round|Shape=RoundedRectangle|*
%AMROUNDEDRECTD47*
21,1,0.7500,1.3000,0,0,180.0*
21,1,0.4500,1.6000,0,0,180.0*
1,1,0.3000,-0.2250,0.6500*
1,1,0.3000,0.2250,0.6500*
1,1,0.3000,0.2250,-0.6500*
1,1,0.3000,-0.2250,-0.6500*
%
%ADD47ROUNDEDRECTD47*%
G04:AMPARAMS|DCode=48|XSize=1.55mm|YSize=1.2mm|CornerRadius=0.2063mm|HoleSize=0mm|Usage=FLASHONLY|Rotation=180.000|XOffset=0mm|YOffset=0mm|HoleType=Round|Shape=RoundedRectangle|*
%AMROUNDEDRECTD48*
21,1,1.5500,0.7875,0,0,180.0*
21,1,1.1375,1.2000,0,0,180.0*
1,1,0.4125,-0.5688,0.3938*
1,1,0.4125,0.5688,0.3938*
1,1,0.4125,0.5688,-0.3938*
1,1,0.4125,-0.5688,-0.3938*
%
%ADD48ROUNDEDRECTD48*%
G04:AMPARAMS|DCode=49|XSize=0.87mm|YSize=1.14mm|CornerRadius=0.165mm|HoleSize=0mm|Usage=FLASHONLY|Rotation=0.000|XOffset=0mm|YOffset=0mm|HoleType=Round|Shape=RoundedRectangle|*
%AMROUNDEDRECTD49*
21,1,0.8700,0.8100,0,0,0.0*
21,1,0.5400,1.1400,0,0,0.0*
1,1,0.3300,0.2700,-0.4050*
1,1,0.3300,-0.2700,-0.4050*
1,1,0.3300,-0.2700,0.4050*
1,1,0.3300,0.2700,0.4050*
%
%ADD49ROUNDEDRECTD49*%
G04:AMPARAMS|DCode=50|XSize=1.55mm|YSize=1.2mm|CornerRadius=0.2063mm|HoleSize=0mm|Usage=FLASHONLY|Rotation=90.000|XOffset=0mm|YOffset=0mm|HoleType=Round|Shape=RoundedRectangle|*
%AMROUNDEDRECTD50*
21,1,1.5500,0.7875,0,0,90.0*
21,1,1.1375,1.2000,0,0,90.0*
1,1,0.4125,0.3938,0.5688*
1,1,0.4125,0.3938,-0.5688*
1,1,0.4125,-0.3938,-0.5688*
1,1,0.4125,-0.3938,0.5688*
%
%ADD50ROUNDEDRECTD50*%
G04:AMPARAMS|DCode=51|XSize=1.6mm|YSize=0.546mm|CornerRadius=0.1245mm|HoleSize=0mm|Usage=FLASHONLY|Rotation=180.000|XOffset=0mm|YOffset=0mm|HoleType=Round|Shape=RoundedRectangle|*
%AMROUNDEDRECTD51*
21,1,1.6000,0.2970,0,0,180.0*
21,1,1.3510,0.5460,0,0,180.0*
1,1,0.2490,-0.6755,0.1485*
1,1,0.2490,0.6755,0.1485*
1,1,0.2490,0.6755,-0.1485*
1,1,0.2490,-0.6755,-0.1485*
%
%ADD51ROUNDEDRECTD51*%
%ADD52C,6.2000*%
D14*
X1742500Y372500D02*
D03*
Y437500D02*
D03*
X1697500Y372500D02*
D03*
X1697250Y437500D02*
D03*
X1107500Y182750D02*
D03*
Y137500D02*
D03*
X1042500D02*
D03*
Y182500D02*
D03*
X1107500Y22750D02*
D03*
Y-22500D02*
D03*
X1042500D02*
D03*
Y22500D02*
D03*
X1965000Y135000D02*
D03*
X1941001D02*
D03*
X1915000D02*
D03*
X1965000Y280000D02*
D03*
X1915000D02*
D03*
X2212500Y-22500D02*
D03*
X1667500Y-22750D02*
D03*
X1522500Y22500D02*
D03*
X1362499D02*
D03*
X1202499D02*
D03*
X152500Y-22500D02*
D03*
X32500Y57500D02*
D03*
X1587500Y182750D02*
D03*
X1362499Y182500D02*
D03*
X1202499D02*
D03*
X32500Y137500D02*
D03*
X972500Y162500D02*
D03*
X352500Y207750D02*
D03*
X32510Y-22500D02*
D03*
X2212500Y382500D02*
D03*
X2147500D02*
D03*
Y427500D02*
D03*
X2212500Y427750D02*
D03*
X2212500Y22750D02*
D03*
X2147500Y22500D02*
D03*
Y-22500D02*
D03*
X1732500Y-22500D02*
D03*
X1667500Y22500D02*
D03*
X1732500D02*
D03*
X1522500Y-22500D02*
D03*
X1587500D02*
D03*
Y22750D02*
D03*
X1362499Y-22500D02*
D03*
X1427499D02*
D03*
Y22750D02*
D03*
X1522500Y182500D02*
D03*
X1587500Y137500D02*
D03*
X1522500D02*
D03*
X1202499Y-22500D02*
D03*
X1267499D02*
D03*
Y22750D02*
D03*
X972500Y207500D02*
D03*
X907500D02*
D03*
Y162250D02*
D03*
X1362499Y137500D02*
D03*
X1427499D02*
D03*
Y182750D02*
D03*
X1202499Y137500D02*
D03*
X1267499D02*
D03*
Y182750D02*
D03*
X217500Y22750D02*
D03*
X152500Y22500D02*
D03*
X217500Y-22500D02*
D03*
X32500Y102750D02*
D03*
X-32500Y102500D02*
D03*
Y57500D02*
D03*
X32510Y22750D02*
D03*
X-32490Y22500D02*
D03*
Y-22500D02*
D03*
X287500Y162500D02*
D03*
X352500D02*
D03*
X287500Y207500D02*
D03*
X-32500Y137500D02*
D03*
Y182500D02*
D03*
X32500Y182750D02*
D03*
D15*
X1087700Y110000D02*
D03*
X1062300D02*
D03*
Y50000D02*
D03*
X1087700D02*
D03*
Y80000D02*
D03*
X1062300D02*
D03*
X1020000Y147300D02*
D03*
Y172700D02*
D03*
X1340000Y147300D02*
D03*
Y172700D02*
D03*
X1180000Y147300D02*
D03*
Y172700D02*
D03*
X2137300Y455000D02*
D03*
X2162700D02*
D03*
X2137300Y50000D02*
D03*
X2162700D02*
D03*
X2197300Y455000D02*
D03*
X2222700D02*
D03*
X2197300Y50000D02*
D03*
X2222700D02*
D03*
X1290000Y172700D02*
D03*
Y147300D02*
D03*
X1450000Y172700D02*
D03*
Y147300D02*
D03*
X1542300Y50000D02*
D03*
X1567700D02*
D03*
X1382299Y49999D02*
D03*
X1407699D02*
D03*
Y80000D02*
D03*
X1382299D02*
D03*
X1542300Y110000D02*
D03*
X1567700D02*
D03*
X1382299Y109999D02*
D03*
X1407699D02*
D03*
X1222299Y49999D02*
D03*
X1247699D02*
D03*
Y80000D02*
D03*
X1222299D02*
D03*
X107700Y160000D02*
D03*
X82300D02*
D03*
X1247699Y109999D02*
D03*
X1222299D02*
D03*
X172300Y80000D02*
D03*
X197700D02*
D03*
X172300Y160000D02*
D03*
X197700D02*
D03*
X362300Y185000D02*
D03*
X387700D02*
D03*
X107700Y80000D02*
D03*
X82300D02*
D03*
X897700Y185000D02*
D03*
X872300D02*
D03*
D16*
X1882000Y210000D02*
D03*
X1998000D02*
D03*
D17*
X1825700Y412700D02*
D03*
D18*
X1825700Y387300D02*
D03*
X1851100Y412700D02*
D03*
X1851100Y387300D02*
D03*
X1876500Y412700D02*
D03*
Y387300D02*
D03*
X1901900D02*
D03*
X1927300Y412700D02*
D03*
X1927300Y387300D02*
D03*
X1952700Y412700D02*
D03*
X1952700Y387300D02*
D03*
X1978100Y412700D02*
D03*
Y387300D02*
D03*
X1901900Y412700D02*
D03*
X2054300Y387300D02*
D03*
X2054300Y412700D02*
D03*
X2028900Y387300D02*
D03*
Y412700D02*
D03*
X2003500Y387300D02*
D03*
X2003500Y412700D02*
D03*
D19*
X-37418Y336966D02*
D03*
Y362366D02*
D03*
X-62818Y463966D02*
D03*
X-37418D02*
D03*
X-62818Y438566D02*
D03*
X-37418D02*
D03*
X-62818Y413166D02*
D03*
X-37418D02*
D03*
X-62818Y387766D02*
D03*
X-37418D02*
D03*
X-62818Y362366D02*
D03*
Y336966D02*
D03*
Y311566D02*
D03*
X-37418D02*
D03*
X-62818Y286166D02*
D03*
D20*
X-37418D02*
D03*
D21*
X355000Y80000D02*
D03*
X455000Y0D02*
D03*
X555000Y80000D02*
D03*
X710000D02*
D03*
X810000Y0D02*
D03*
X910000Y80000D02*
D03*
D22*
X1784710Y232500D02*
D03*
X1800500Y114000D02*
D03*
X1794000Y100750D02*
D03*
X1800250Y233750D02*
D03*
X1800000Y221000D02*
D03*
X1794250Y292250D02*
D03*
X1807733Y16502D02*
D03*
X2208750Y280250D02*
D03*
X2154500Y280000D02*
D03*
X2129000Y216750D02*
D03*
X2227750Y272250D02*
D03*
X2234000Y150750D02*
D03*
X2173250Y151000D02*
D03*
X2178686Y226126D02*
D03*
X1990250Y374000D02*
D03*
X2094250Y321750D02*
D03*
X2064750Y228250D02*
D03*
D45*
X2189750Y177650D02*
D03*
Y163850D02*
D03*
X2041500Y211850D02*
D03*
Y225650D02*
D03*
X2081250Y211600D02*
D03*
Y225400D02*
D03*
X2129000Y177650D02*
D03*
Y163850D02*
D03*
X2088250Y306650D02*
D03*
Y292850D02*
D03*
X2104750Y306400D02*
D03*
Y292600D02*
D03*
X2173000Y163850D02*
D03*
Y177650D02*
D03*
X2233750Y163600D02*
D03*
Y177400D02*
D03*
X1777367Y344002D02*
D03*
Y330202D02*
D03*
X9000Y74100D02*
D03*
X124500Y19100D02*
D03*
X104500D02*
D03*
X84500D02*
D03*
X64500Y19100D02*
D03*
X-22200Y168099D02*
D03*
X124500Y32900D02*
D03*
X104500D02*
D03*
X84500D02*
D03*
X64500Y32900D02*
D03*
X-13000Y73850D02*
D03*
Y87650D02*
D03*
X9000Y87900D02*
D03*
X-22200Y154299D02*
D03*
D46*
X2104500Y260750D02*
D03*
Y241750D02*
D03*
X2081500Y251250D02*
D03*
X2064750Y260750D02*
D03*
Y241750D02*
D03*
X2041750Y251250D02*
D03*
X200750Y107750D02*
D03*
Y126750D02*
D03*
X177750Y117250D02*
D03*
D47*
X2228050Y201000D02*
D03*
X2215350D02*
D03*
X2202650D02*
D03*
X2189950D02*
D03*
X2228050Y255500D02*
D03*
X2215350D02*
D03*
X2202650D02*
D03*
X2189950D02*
D03*
X2167050Y201000D02*
D03*
X2154350D02*
D03*
X2141650D02*
D03*
X2128950D02*
D03*
X2167050Y255500D02*
D03*
X2154350D02*
D03*
X2141650D02*
D03*
X2128950D02*
D03*
D48*
X2215000Y180000D02*
D03*
Y161000D02*
D03*
X2154250Y180500D02*
D03*
Y161500D02*
D03*
X1758068Y349500D02*
D03*
Y330500D02*
D03*
X1746250Y187250D02*
D03*
Y206250D02*
D03*
X1754903Y50403D02*
D03*
Y31403D02*
D03*
X13500Y169250D02*
D03*
X-6250Y169500D02*
D03*
X70250Y126750D02*
D03*
Y107750D02*
D03*
X90000Y126750D02*
D03*
Y107750D02*
D03*
X109500Y126750D02*
D03*
Y107750D02*
D03*
X13500Y150250D02*
D03*
X-6250Y150500D02*
D03*
D49*
X1773900Y232750D02*
D03*
X1760100D02*
D03*
X1816900Y135000D02*
D03*
X1803100D02*
D03*
X1800164Y33015D02*
D03*
X1786364D02*
D03*
X1876900Y58750D02*
D03*
X1863100D02*
D03*
X1876900Y43250D02*
D03*
X1863100D02*
D03*
X1186900Y195000D02*
D03*
X1173100D02*
D03*
X1346900D02*
D03*
X1333100D02*
D03*
X1026900D02*
D03*
X1013100D02*
D03*
X1888100Y335000D02*
D03*
X1901900D02*
D03*
X1941900D02*
D03*
X1928100D02*
D03*
X1296900Y195000D02*
D03*
X1283100D02*
D03*
X1456900D02*
D03*
X1443100D02*
D03*
X1988100Y335000D02*
D03*
X2001900D02*
D03*
X2041900D02*
D03*
X2028100D02*
D03*
X247400Y126750D02*
D03*
X233600D02*
D03*
X2143100Y75000D02*
D03*
X2156900D02*
D03*
X2143100Y485000D02*
D03*
X2156900D02*
D03*
X2203100D02*
D03*
X2216900D02*
D03*
X2203100Y75000D02*
D03*
X2216900D02*
D03*
X141900Y80000D02*
D03*
X128100D02*
D03*
X141900Y160000D02*
D03*
X128100D02*
D03*
X1601900Y110000D02*
D03*
X1588100D02*
D03*
X1601900Y50000D02*
D03*
X1588100D02*
D03*
X1456900Y110000D02*
D03*
X1443100D02*
D03*
X1456900Y80000D02*
D03*
X1443100D02*
D03*
X1456900Y50000D02*
D03*
X1443100D02*
D03*
X2004150Y305500D02*
D03*
X1990350D02*
D03*
X1296900Y110000D02*
D03*
X1283100D02*
D03*
X1296900Y80000D02*
D03*
X1283100D02*
D03*
X1296900Y50000D02*
D03*
X1283100D02*
D03*
X1126900Y110000D02*
D03*
X1113100D02*
D03*
X1126900Y80000D02*
D03*
X1113100D02*
D03*
X1126900Y50000D02*
D03*
X1113100D02*
D03*
X833100Y185000D02*
D03*
X846900D02*
D03*
X421900D02*
D03*
X408100D02*
D03*
X231900Y160000D02*
D03*
X218100D02*
D03*
X231900Y80000D02*
D03*
X218100D02*
D03*
D50*
X1735040Y126477D02*
D03*
X1754040D02*
D03*
D51*
X1776000Y315750D02*
D03*
Y309250D02*
D03*
Y302750D02*
D03*
Y296250D02*
D03*
Y289750D02*
D03*
Y283250D02*
D03*
Y276750D02*
D03*
Y270250D02*
D03*
Y263750D02*
D03*
Y257250D02*
D03*
Y250750D02*
D03*
Y244250D02*
D03*
X1834000D02*
D03*
Y250750D02*
D03*
Y257250D02*
D03*
Y263750D02*
D03*
Y270250D02*
D03*
Y276750D02*
D03*
Y283250D02*
D03*
Y289750D02*
D03*
Y296250D02*
D03*
Y302750D02*
D03*
Y309250D02*
D03*
Y315750D02*
D03*
X1776000Y220750D02*
D03*
Y214250D02*
D03*
Y207750D02*
D03*
Y201250D02*
D03*
Y194750D02*
D03*
Y188250D02*
D03*
Y181750D02*
D03*
Y175250D02*
D03*
Y168750D02*
D03*
Y162250D02*
D03*
Y155750D02*
D03*
Y149250D02*
D03*
X1834000D02*
D03*
Y155750D02*
D03*
Y162250D02*
D03*
Y168750D02*
D03*
Y175250D02*
D03*
Y181750D02*
D03*
Y188250D02*
D03*
Y194750D02*
D03*
Y201250D02*
D03*
Y207750D02*
D03*
Y214250D02*
D03*
Y220750D02*
D03*
X1776000Y15750D02*
D03*
Y9250D02*
D03*
Y2750D02*
D03*
Y-3750D02*
D03*
Y-10250D02*
D03*
Y-16750D02*
D03*
Y-23250D02*
D03*
Y-29750D02*
D03*
Y-36250D02*
D03*
Y-42750D02*
D03*
Y-49250D02*
D03*
Y-55750D02*
D03*
X1834000D02*
D03*
Y-49250D02*
D03*
Y-42750D02*
D03*
Y-36250D02*
D03*
Y-29750D02*
D03*
Y-23250D02*
D03*
Y-16750D02*
D03*
Y-10250D02*
D03*
Y-3750D02*
D03*
Y2750D02*
D03*
Y9250D02*
D03*
Y15750D02*
D03*
X1776000Y120750D02*
D03*
Y114250D02*
D03*
Y107750D02*
D03*
Y101250D02*
D03*
Y94750D02*
D03*
Y88250D02*
D03*
Y81750D02*
D03*
Y75250D02*
D03*
Y68750D02*
D03*
Y62250D02*
D03*
Y55750D02*
D03*
Y49250D02*
D03*
X1834000D02*
D03*
Y55750D02*
D03*
Y62250D02*
D03*
Y68750D02*
D03*
Y75250D02*
D03*
Y81750D02*
D03*
Y88250D02*
D03*
Y94750D02*
D03*
Y101250D02*
D03*
Y107750D02*
D03*
Y114250D02*
D03*
Y120750D02*
D03*
D52*
X632511Y0D02*
D03*
X455000Y80000D02*
D03*
X1340000D02*
D03*
X2080000Y510000D02*
D03*
Y-40000D02*
D03*
X95000D02*
D03*
X-52489Y505589D02*
D03*
M02*
