G04*
G04 #@! TF.GenerationSoftware,Altium Limited,Altium Designer,25.8.1 (18)*
G04*
G04 Layer_Physical_Order=3*
G04 Layer_Color=16440176*
%FSLAX44Y44*%
%MOMM*%
G71*
G04*
G04 #@! TF.SameCoordinates,4735BC6C-472E-4BDB-949C-0D940F0CBE95*
G04*
G04*
G04 #@! TF.FilePolarity,Positive*
G04*
G01*
G75*
%ADD23C,0.2540*%
%ADD24C,0.3000*%
%ADD26C,1.6000*%
%ADD27C,1.5000*%
%ADD28O,3.6000X4.2000*%
%ADD29R,1.5000X1.5000*%
%ADD30C,1.6500*%
%ADD31R,1.6500X1.6500*%
%ADD32C,0.9000*%
%ADD33C,6.0000*%
G36*
X2272016Y566253D02*
X2274435Y566015D01*
X2276286Y565453D01*
X2277991Y564542D01*
X2279487Y563315D01*
X2280713Y561820D01*
X2281625Y560115D01*
X2282186Y558264D01*
X2282425Y555844D01*
Y-95665D01*
X2282186Y-98085D01*
X2281625Y-99936D01*
X2280713Y-101641D01*
X2279487Y-103136D01*
X2277992Y-104363D01*
X2276286Y-105275D01*
X2274435Y-105836D01*
X2272016Y-106074D01*
X-109494Y-106074D01*
X-111913Y-105836D01*
X-113764Y-105274D01*
X-115470Y-104363D01*
X-116965Y-103136D01*
X-118191Y-101641D01*
X-119103Y-99936D01*
X-119664Y-98085D01*
X-119903Y-95665D01*
Y555844D01*
X-119664Y558264D01*
X-119103Y560115D01*
X-118191Y561820D01*
X-116965Y563315D01*
X-115470Y564542D01*
X-113764Y565454D01*
X-111913Y566015D01*
X-109494Y566253D01*
X2272016Y566253D01*
D02*
G37*
%LPC*%
G36*
X1654511Y534176D02*
X40511D01*
X40096Y534121D01*
X37570Y533872D01*
X34743Y533015D01*
X32137Y531622D01*
X29853Y529747D01*
X27978Y527463D01*
X26586Y524857D01*
X25728Y522030D01*
X25511Y519828D01*
X25414Y519089D01*
Y496336D01*
X18750Y496336D01*
X18335Y496282D01*
X15809Y496033D01*
X12982Y495175D01*
X10376Y493782D01*
X8092Y491908D01*
X6217Y489624D01*
X4825Y487018D01*
X3967Y484190D01*
X3718Y481664D01*
X3664Y481250D01*
Y264929D01*
X3718Y264515D01*
X3967Y261988D01*
X4825Y259160D01*
X6217Y256555D01*
X8092Y254271D01*
X10376Y252396D01*
X12982Y251003D01*
X15809Y250146D01*
X18336Y249897D01*
X18750Y249842D01*
X25416D01*
X25424Y227085D01*
X25480Y226664D01*
X25728Y224149D01*
X26586Y221321D01*
X27978Y218715D01*
X29853Y216431D01*
X32137Y214557D01*
X34743Y213164D01*
X37570Y212306D01*
X40096Y212057D01*
X40511Y212003D01*
X276346Y212003D01*
X277818Y210003D01*
X277500Y208817D01*
Y206183D01*
X278181Y203640D01*
X279498Y201360D01*
X281360Y199498D01*
X283640Y198181D01*
X286183Y197500D01*
X288817D01*
X291360Y198181D01*
X293640Y199498D01*
X295502Y201360D01*
X296819Y203640D01*
X297500Y206183D01*
Y208817D01*
X297182Y210003D01*
X298654Y212003D01*
X341216D01*
X342751Y210003D01*
X342500Y209067D01*
Y206434D01*
X343181Y203890D01*
X344498Y201610D01*
X346360Y199748D01*
X348640Y198431D01*
X351184Y197750D01*
X353816D01*
X356360Y198431D01*
X358640Y199748D01*
X360502Y201610D01*
X361819Y203890D01*
X362500Y206434D01*
Y209067D01*
X362249Y210003D01*
X363784Y212003D01*
X896346Y212003D01*
X897818Y210003D01*
X897500Y208817D01*
Y206183D01*
X898182Y203640D01*
X899498Y201360D01*
X901360Y199498D01*
X903640Y198181D01*
X906183Y197500D01*
X908817D01*
X911360Y198181D01*
X913640Y199498D01*
X915502Y201360D01*
X916818Y203640D01*
X917500Y206183D01*
Y208817D01*
X917182Y210003D01*
X918654Y212003D01*
X961346D01*
X962818Y210003D01*
X962500Y208817D01*
Y206183D01*
X963182Y203640D01*
X964498Y201360D01*
X966360Y199498D01*
X968640Y198181D01*
X971183Y197500D01*
X973817D01*
X976360Y198181D01*
X978640Y199498D01*
X980502Y201360D01*
X981818Y203640D01*
X982500Y206183D01*
Y208817D01*
X982182Y210003D01*
X983654Y212003D01*
X1654511Y212003D01*
X1654925Y212058D01*
X1657451Y212306D01*
X1660279Y213164D01*
X1662884Y214557D01*
X1665168Y216431D01*
X1667043Y218715D01*
X1668436Y221321D01*
X1669294Y224149D01*
X1669510Y226351D01*
X1669608Y227089D01*
Y249842D01*
X1676272Y249842D01*
X1676686Y249897D01*
X1679212Y250146D01*
X1682039Y251003D01*
X1684645Y252396D01*
X1686929Y254271D01*
X1688804Y256555D01*
X1690197Y259161D01*
X1691054Y261988D01*
X1691303Y264514D01*
X1691358Y264929D01*
Y362190D01*
X1693358Y363345D01*
X1693640Y363181D01*
X1696183Y362500D01*
X1698817D01*
X1701360Y363181D01*
X1703640Y364498D01*
X1705502Y366360D01*
X1706819Y368640D01*
X1707500Y371184D01*
Y373816D01*
X1706819Y376360D01*
X1705502Y378640D01*
X1703640Y380502D01*
X1701360Y381819D01*
X1698817Y382500D01*
X1696183D01*
X1693640Y381819D01*
X1693358Y381655D01*
X1691358Y382810D01*
Y427355D01*
X1693090Y428355D01*
X1693390Y428181D01*
X1695933Y427500D01*
X1698566D01*
X1701110Y428181D01*
X1703390Y429498D01*
X1705252Y431360D01*
X1706568Y433640D01*
X1707250Y436184D01*
Y438816D01*
X1706568Y441360D01*
X1705252Y443640D01*
X1703390Y445502D01*
X1701110Y446819D01*
X1698566Y447500D01*
X1695933D01*
X1693390Y446819D01*
X1693090Y446645D01*
X1691358Y447645D01*
Y481250D01*
X1691303Y481665D01*
X1691054Y484191D01*
X1690213Y486964D01*
X1690304Y487130D01*
X1691655Y488532D01*
X1692260Y488281D01*
X1695738Y487589D01*
X1699283D01*
X1702761Y488281D01*
X1706037Y489638D01*
X1708985Y491608D01*
X1711492Y494115D01*
X1713462Y497063D01*
X1714819Y500339D01*
X1715511Y503817D01*
Y507362D01*
X1714819Y510840D01*
X1713462Y514116D01*
X1711492Y517064D01*
X1708985Y519571D01*
X1706037Y521541D01*
X1702761Y522898D01*
X1699283Y523589D01*
X1695738D01*
X1692260Y522898D01*
X1688984Y521541D01*
X1686036Y519571D01*
X1683529Y517064D01*
X1681559Y514116D01*
X1680202Y510840D01*
X1679511Y507362D01*
Y503817D01*
X1680202Y500339D01*
X1681394Y497461D01*
X1680735Y496391D01*
X1680002Y495793D01*
X1679212Y496033D01*
X1676686Y496282D01*
X1676272Y496336D01*
X1669608D01*
Y519090D01*
X1669510Y519827D01*
X1669294Y522030D01*
X1668436Y524857D01*
X1667043Y527463D01*
X1665168Y529747D01*
X1662885Y531622D01*
X1660279Y533015D01*
X1657451Y533872D01*
X1654924Y534121D01*
X1654511Y534176D01*
D02*
G37*
G36*
X2082518Y542000D02*
X2077482D01*
X2072507Y541212D01*
X2067716Y539656D01*
X2063228Y537369D01*
X2059153Y534408D01*
X2055592Y530847D01*
X2052631Y526772D01*
X2050344Y522284D01*
X2048788Y517493D01*
X2048000Y512519D01*
Y507481D01*
X2048788Y502507D01*
X2050344Y497716D01*
X2052631Y493228D01*
X2055592Y489153D01*
X2059153Y485592D01*
X2063228Y482631D01*
X2067716Y480344D01*
X2072507Y478788D01*
X2077482Y478000D01*
X2082518D01*
X2087493Y478788D01*
X2092284Y480344D01*
X2096772Y482631D01*
X2100847Y485592D01*
X2104408Y489153D01*
X2107369Y493228D01*
X2109656Y497716D01*
X2111212Y502507D01*
X2112000Y507481D01*
Y512519D01*
X2111212Y517493D01*
X2109656Y522284D01*
X2107369Y526772D01*
X2104408Y530847D01*
X2100847Y534408D01*
X2096772Y537369D01*
X2092284Y539656D01*
X2087493Y541212D01*
X2082518Y542000D01*
D02*
G37*
G36*
X-49971Y537589D02*
X-55008D01*
X-59983Y536801D01*
X-64773Y535245D01*
X-69261Y532958D01*
X-73336Y529998D01*
X-76898Y526436D01*
X-79858Y522361D01*
X-82145Y517873D01*
X-83701Y513083D01*
X-84489Y508108D01*
Y503071D01*
X-83701Y498096D01*
X-82145Y493306D01*
X-79858Y488818D01*
X-76898Y484743D01*
X-73336Y481181D01*
X-69261Y478221D01*
X-65018Y476059D01*
X-64895Y475294D01*
X-65149Y473953D01*
X-66775Y473518D01*
X-69112Y472168D01*
X-71020Y470260D01*
X-72370Y467923D01*
X-73068Y465316D01*
Y462617D01*
X-72370Y460010D01*
X-71020Y457673D01*
X-69112Y455764D01*
X-66775Y454415D01*
X-64168Y453716D01*
X-61469D01*
X-58862Y454415D01*
X-56525Y455764D01*
X-54616Y457673D01*
X-53267Y460010D01*
X-52568Y462617D01*
Y465316D01*
X-53267Y467923D01*
X-54616Y470260D01*
X-56092Y471736D01*
X-55201Y473620D01*
X-55008Y473590D01*
X-49971D01*
X-44996Y474377D01*
X-44927Y474400D01*
X-44043Y472601D01*
X-46052Y470592D01*
X-47473Y468131D01*
X-48208Y465387D01*
Y465236D01*
X-26628D01*
Y465387D01*
X-27363Y468131D01*
X-28784Y470592D01*
X-30793Y472601D01*
X-33253Y474021D01*
X-35998Y474756D01*
X-38111D01*
X-38591Y476756D01*
X-35718Y478221D01*
X-31643Y481181D01*
X-28081Y484743D01*
X-25120Y488818D01*
X-22834Y493306D01*
X-21277Y498096D01*
X-20489Y503071D01*
Y508108D01*
X-21277Y513083D01*
X-22834Y517873D01*
X-25120Y522361D01*
X-28081Y526436D01*
X-31643Y529998D01*
X-35718Y532958D01*
X-40205Y535245D01*
X-44996Y536801D01*
X-49971Y537589D01*
D02*
G37*
G36*
X2138622Y465040D02*
X2138570D01*
Y456270D01*
X2147340D01*
Y456322D01*
X2146656Y458875D01*
X2145334Y461165D01*
X2143465Y463034D01*
X2141175Y464356D01*
X2138622Y465040D01*
D02*
G37*
G36*
X2136030D02*
X2135978D01*
X2133425Y464356D01*
X2131135Y463034D01*
X2129266Y461165D01*
X2127944Y458875D01*
X2127260Y456322D01*
Y456270D01*
X2136030D01*
Y465040D01*
D02*
G37*
G36*
X2198622D02*
X2198570D01*
Y456270D01*
X2207340D01*
Y456322D01*
X2206656Y458875D01*
X2205334Y461165D01*
X2203465Y463034D01*
X2201175Y464356D01*
X2198622Y465040D01*
D02*
G37*
G36*
X2196030D02*
X2195978D01*
X2193425Y464356D01*
X2191135Y463034D01*
X2189266Y461165D01*
X2187944Y458875D01*
X2187260Y456322D01*
Y456270D01*
X2196030D01*
Y465040D01*
D02*
G37*
G36*
X-26628Y462696D02*
X-36148D01*
Y453176D01*
X-35998D01*
X-33253Y453912D01*
X-30793Y455332D01*
X-28784Y457341D01*
X-27363Y459801D01*
X-26628Y462546D01*
Y462696D01*
D02*
G37*
G36*
X-38688D02*
X-48208D01*
Y462546D01*
X-47473Y459801D01*
X-46052Y457341D01*
X-44043Y455332D01*
X-41583Y453912D01*
X-38839Y453176D01*
X-38688D01*
Y462696D01*
D02*
G37*
G36*
X2223951Y464500D02*
X2221449D01*
X2219033Y463853D01*
X2216867Y462602D01*
X2215098Y460833D01*
X2213847Y458667D01*
X2213200Y456251D01*
Y453749D01*
X2213847Y451333D01*
X2215098Y449167D01*
X2216867Y447398D01*
X2219033Y446147D01*
X2221449Y445500D01*
X2223951D01*
X2226367Y446147D01*
X2228533Y447398D01*
X2230302Y449167D01*
X2231553Y451333D01*
X2232200Y453749D01*
Y456251D01*
X2231553Y458667D01*
X2230302Y460833D01*
X2228533Y462602D01*
X2226367Y463853D01*
X2223951Y464500D01*
D02*
G37*
G36*
X2163951D02*
X2161449D01*
X2159033Y463853D01*
X2156867Y462602D01*
X2155098Y460833D01*
X2153847Y458667D01*
X2153200Y456251D01*
Y453749D01*
X2153847Y451333D01*
X2155098Y449167D01*
X2156867Y447398D01*
X2159033Y446147D01*
X2161449Y445500D01*
X2163951D01*
X2166367Y446147D01*
X2168533Y447398D01*
X2170302Y449167D01*
X2171553Y451333D01*
X2172200Y453749D01*
Y456251D01*
X2171553Y458667D01*
X2170302Y460833D01*
X2168533Y462602D01*
X2166367Y463853D01*
X2163951Y464500D01*
D02*
G37*
G36*
X2207340Y453730D02*
X2198570D01*
Y444960D01*
X2198622D01*
X2201175Y445644D01*
X2203465Y446966D01*
X2205334Y448835D01*
X2206656Y451125D01*
X2207340Y453678D01*
Y453730D01*
D02*
G37*
G36*
X2196030D02*
X2187260D01*
Y453678D01*
X2187944Y451125D01*
X2189266Y448835D01*
X2191135Y446966D01*
X2193425Y445644D01*
X2195978Y444960D01*
X2196030D01*
Y453730D01*
D02*
G37*
G36*
X2147340Y453730D02*
X2138570D01*
Y444960D01*
X2138622D01*
X2141175Y445644D01*
X2143465Y446966D01*
X2145334Y448835D01*
X2146656Y451125D01*
X2147340Y453678D01*
Y453730D01*
D02*
G37*
G36*
X2136030D02*
X2127260D01*
Y453678D01*
X2127944Y451125D01*
X2129266Y448835D01*
X2131135Y446966D01*
X2133425Y445644D01*
X2135978Y444960D01*
X2136030D01*
Y453730D01*
D02*
G37*
G36*
X-36069Y448816D02*
X-38768D01*
X-41375Y448118D01*
X-43712Y446768D01*
X-45620Y444860D01*
X-46970Y442523D01*
X-47668Y439916D01*
Y437217D01*
X-46970Y434610D01*
X-45620Y432273D01*
X-43712Y430364D01*
X-41375Y429015D01*
X-38768Y428316D01*
X-36069D01*
X-33462Y429015D01*
X-31124Y430364D01*
X-29216Y432273D01*
X-27867Y434610D01*
X-27168Y437217D01*
Y439916D01*
X-27867Y442523D01*
X-29216Y444860D01*
X-31124Y446768D01*
X-33462Y448118D01*
X-36069Y448816D01*
D02*
G37*
G36*
X-61469D02*
X-64168D01*
X-66775Y448118D01*
X-69112Y446768D01*
X-71020Y444860D01*
X-72370Y442523D01*
X-73068Y439916D01*
Y437217D01*
X-72370Y434610D01*
X-71020Y432273D01*
X-69112Y430364D01*
X-66775Y429015D01*
X-64168Y428316D01*
X-61469D01*
X-58862Y429015D01*
X-56525Y430364D01*
X-54616Y432273D01*
X-53267Y434610D01*
X-52568Y437217D01*
Y439916D01*
X-53267Y442523D01*
X-54616Y444860D01*
X-56525Y446768D01*
X-58862Y448118D01*
X-61469Y448816D01*
D02*
G37*
G36*
X1743817Y447500D02*
X1741183D01*
X1738640Y446819D01*
X1736360Y445502D01*
X1734498Y443640D01*
X1733181Y441360D01*
X1732500Y438816D01*
Y436184D01*
X1733181Y433640D01*
X1734498Y431360D01*
X1736360Y429498D01*
X1738640Y428181D01*
X1741183Y427500D01*
X1743817D01*
X1746360Y428181D01*
X1748640Y429498D01*
X1750502Y431360D01*
X1751819Y433640D01*
X1752500Y436184D01*
Y438816D01*
X1751819Y441360D01*
X1750502Y443640D01*
X1748640Y445502D01*
X1746360Y446819D01*
X1743817Y447500D01*
D02*
G37*
G36*
X2213817Y437750D02*
X2211183D01*
X2208640Y437068D01*
X2206360Y435752D01*
X2204498Y433890D01*
X2203181Y431610D01*
X2202500Y429067D01*
Y426433D01*
X2203181Y423890D01*
X2204498Y421610D01*
X2206360Y419748D01*
X2208640Y418432D01*
X2211183Y417750D01*
X2213817D01*
X2216360Y418432D01*
X2218640Y419748D01*
X2220502Y421610D01*
X2221819Y423890D01*
X2222500Y426433D01*
Y429067D01*
X2221819Y431610D01*
X2220502Y433890D01*
X2218640Y435752D01*
X2216360Y437068D01*
X2213817Y437750D01*
D02*
G37*
G36*
X2148817Y437500D02*
X2146183D01*
X2143640Y436819D01*
X2141360Y435502D01*
X2139498Y433640D01*
X2138181Y431360D01*
X2137500Y428816D01*
Y426184D01*
X2138181Y423640D01*
X2139498Y421360D01*
X2141360Y419498D01*
X2143640Y418181D01*
X2146183Y417500D01*
X2148817D01*
X2151360Y418181D01*
X2153640Y419498D01*
X2155502Y421360D01*
X2156819Y423640D01*
X2157500Y426184D01*
Y428816D01*
X2156819Y431360D01*
X2155502Y433640D01*
X2153640Y435502D01*
X2151360Y436819D01*
X2148817Y437500D01*
D02*
G37*
G36*
X1835740Y422740D02*
X1826970D01*
Y413970D01*
X1835740D01*
Y422740D01*
D02*
G37*
G36*
X1824430D02*
X1815660D01*
Y413970D01*
X1824430D01*
Y422740D01*
D02*
G37*
G36*
X2055551Y422200D02*
X2053049D01*
X2050633Y421553D01*
X2048467Y420302D01*
X2046698Y418533D01*
X2045447Y416367D01*
X2044800Y413951D01*
Y411449D01*
X2045447Y409033D01*
X2046698Y406867D01*
X2048467Y405098D01*
X2050633Y403847D01*
X2053049Y403200D01*
X2055551D01*
X2057967Y403847D01*
X2060133Y405098D01*
X2061902Y406867D01*
X2063153Y409033D01*
X2063800Y411449D01*
Y413951D01*
X2063153Y416367D01*
X2061902Y418533D01*
X2060133Y420302D01*
X2057967Y421553D01*
X2055551Y422200D01*
D02*
G37*
G36*
X2004751D02*
X2002249D01*
X1999833Y421553D01*
X1997667Y420302D01*
X1995898Y418533D01*
X1994647Y416367D01*
X1994000Y413951D01*
Y411449D01*
X1994647Y409033D01*
X1995898Y406867D01*
X1997667Y405098D01*
X1999833Y403847D01*
X2002249Y403200D01*
X2004751D01*
X2007167Y403847D01*
X2009333Y405098D01*
X2011102Y406867D01*
X2012353Y409033D01*
X2013000Y411449D01*
Y413951D01*
X2012353Y416367D01*
X2011102Y418533D01*
X2009333Y420302D01*
X2007167Y421553D01*
X2004751Y422200D01*
D02*
G37*
G36*
X1979351D02*
X1976849D01*
X1974433Y421553D01*
X1972267Y420302D01*
X1970498Y418533D01*
X1969247Y416367D01*
X1968600Y413951D01*
Y411449D01*
X1969247Y409033D01*
X1970498Y406867D01*
X1972267Y405098D01*
X1974433Y403847D01*
X1976849Y403200D01*
X1979351D01*
X1981767Y403847D01*
X1983933Y405098D01*
X1985702Y406867D01*
X1986953Y409033D01*
X1987600Y411449D01*
Y413951D01*
X1986953Y416367D01*
X1985702Y418533D01*
X1983933Y420302D01*
X1981767Y421553D01*
X1979351Y422200D01*
D02*
G37*
G36*
X1953951D02*
X1951449D01*
X1949033Y421553D01*
X1946867Y420302D01*
X1945098Y418533D01*
X1943848Y416367D01*
X1943200Y413951D01*
Y411449D01*
X1943848Y409033D01*
X1945098Y406867D01*
X1946867Y405098D01*
X1949033Y403847D01*
X1951449Y403200D01*
X1953951D01*
X1956367Y403847D01*
X1958533Y405098D01*
X1960302Y406867D01*
X1961553Y409033D01*
X1962200Y411449D01*
Y413951D01*
X1961553Y416367D01*
X1960302Y418533D01*
X1958533Y420302D01*
X1956367Y421553D01*
X1953951Y422200D01*
D02*
G37*
G36*
X1903151D02*
X1900649D01*
X1898233Y421553D01*
X1896067Y420302D01*
X1894298Y418533D01*
X1893047Y416367D01*
X1892400Y413951D01*
Y411449D01*
X1893047Y409033D01*
X1894298Y406867D01*
X1896067Y405098D01*
X1898233Y403847D01*
X1900649Y403200D01*
X1903151D01*
X1905567Y403847D01*
X1907733Y405098D01*
X1909502Y406867D01*
X1910753Y409033D01*
X1911400Y411449D01*
Y413951D01*
X1910753Y416367D01*
X1909502Y418533D01*
X1907733Y420302D01*
X1905567Y421553D01*
X1903151Y422200D01*
D02*
G37*
G36*
X1877751D02*
X1875249D01*
X1872833Y421553D01*
X1870667Y420302D01*
X1868898Y418533D01*
X1867647Y416367D01*
X1867000Y413951D01*
Y411449D01*
X1867647Y409033D01*
X1868898Y406867D01*
X1870667Y405098D01*
X1872833Y403847D01*
X1875249Y403200D01*
X1877751D01*
X1880167Y403847D01*
X1882333Y405098D01*
X1884102Y406867D01*
X1885353Y409033D01*
X1886000Y411449D01*
Y413951D01*
X1885353Y416367D01*
X1884102Y418533D01*
X1882333Y420302D01*
X1880167Y421553D01*
X1877751Y422200D01*
D02*
G37*
G36*
X1774109Y551544D02*
X21459D01*
X20183Y551290D01*
X19102Y550568D01*
X-17357Y514108D01*
X-18080Y513027D01*
X-18334Y511751D01*
Y392302D01*
X-20182Y391537D01*
X-30289Y401644D01*
X-31370Y402367D01*
X-31559Y402404D01*
X-31907Y404512D01*
X-31124Y404964D01*
X-29216Y406873D01*
X-27867Y409210D01*
X-27168Y411817D01*
Y414516D01*
X-27867Y417123D01*
X-29216Y419460D01*
X-31124Y421368D01*
X-33462Y422718D01*
X-36069Y423416D01*
X-38768D01*
X-41375Y422718D01*
X-43712Y421368D01*
X-45620Y419460D01*
X-46970Y417123D01*
X-47668Y414516D01*
Y411817D01*
X-46970Y409210D01*
X-45620Y406873D01*
X-43712Y404964D01*
X-43116Y404620D01*
X-43652Y402620D01*
X-51298D01*
X-52574Y402367D01*
X-53656Y401644D01*
X-58304Y396996D01*
X-58862Y397318D01*
X-61469Y398016D01*
X-64168D01*
X-66775Y397318D01*
X-69112Y395968D01*
X-71020Y394060D01*
X-72370Y391723D01*
X-73068Y389116D01*
Y386417D01*
X-72370Y383810D01*
X-71020Y381473D01*
X-69529Y379981D01*
X-69271Y378684D01*
X-69491Y377474D01*
X-77358Y369608D01*
X-78080Y368526D01*
X-78334Y367250D01*
Y280000D01*
X-78080Y278724D01*
X-77358Y277642D01*
X-58334Y258619D01*
Y176063D01*
X-58080Y174787D01*
X-57358Y173705D01*
X-38076Y154424D01*
X-36995Y153701D01*
X-35719Y153447D01*
X-24597D01*
X-20834Y149684D01*
Y140326D01*
X-22834Y140063D01*
X-23182Y141360D01*
X-24498Y143640D01*
X-26360Y145502D01*
X-28640Y146819D01*
X-31184Y147500D01*
X-33816D01*
X-36360Y146819D01*
X-38640Y145502D01*
X-40502Y143640D01*
X-41818Y141360D01*
X-42500Y138816D01*
Y136184D01*
X-41818Y133640D01*
X-40502Y131360D01*
X-38640Y129498D01*
X-36360Y128181D01*
X-33816Y127500D01*
X-31184D01*
X-28640Y128181D01*
X-26360Y129498D01*
X-24498Y131360D01*
X-23182Y133640D01*
X-22834Y134937D01*
X-20834Y134674D01*
Y105326D01*
X-22834Y105063D01*
X-23182Y106360D01*
X-24498Y108640D01*
X-26360Y110502D01*
X-28640Y111819D01*
X-31184Y112500D01*
X-33816D01*
X-36360Y111819D01*
X-38640Y110502D01*
X-40502Y108640D01*
X-41818Y106360D01*
X-42500Y103816D01*
Y101184D01*
X-41818Y98640D01*
X-40502Y96360D01*
X-38640Y94498D01*
X-36360Y93181D01*
X-33816Y92500D01*
X-31184D01*
X-28640Y93181D01*
X-26360Y94498D01*
X-24498Y96360D01*
X-23182Y98640D01*
X-22834Y99937D01*
X-20834Y99674D01*
Y93550D01*
X-20580Y92274D01*
X-19857Y91193D01*
X2894Y68441D01*
X3976Y67718D01*
X5251Y67464D01*
X25759D01*
X26318Y65639D01*
X26323Y65465D01*
X24498Y63640D01*
X23182Y61360D01*
X22500Y58816D01*
Y56184D01*
X23182Y53640D01*
X24498Y51360D01*
X26360Y49498D01*
X28640Y48182D01*
X31184Y47500D01*
X33816D01*
X36360Y48182D01*
X38640Y49498D01*
X40502Y51360D01*
X41818Y53640D01*
X42500Y56184D01*
Y58816D01*
X41818Y61360D01*
X40502Y63640D01*
X38677Y65465D01*
X38682Y65639D01*
X39241Y67464D01*
X46070D01*
X61099Y52436D01*
X60953Y50457D01*
X60509Y50201D01*
X59299Y48991D01*
X58443Y47509D01*
X58000Y45856D01*
Y44144D01*
X58443Y42491D01*
X59299Y41009D01*
X60509Y39799D01*
X61991Y38943D01*
X63644Y38500D01*
X65356D01*
X67009Y38943D01*
X68491Y39799D01*
X69701Y41009D01*
X70557Y42491D01*
X71000Y44144D01*
Y45856D01*
X70557Y47509D01*
X69701Y48991D01*
X68491Y50201D01*
X67834Y50581D01*
Y53750D01*
X67742Y54215D01*
X69585Y55200D01*
X78196Y46589D01*
X78000Y45856D01*
Y44144D01*
X78443Y42491D01*
X79299Y41009D01*
X80509Y39799D01*
X81991Y38943D01*
X83644Y38500D01*
X85356D01*
X87009Y38943D01*
X88491Y39799D01*
X89701Y41009D01*
X90557Y42491D01*
X91000Y44144D01*
Y45856D01*
X90557Y47509D01*
X89701Y48991D01*
X88491Y50201D01*
X87009Y51057D01*
X85356Y51500D01*
X83644D01*
X82911Y51304D01*
X74707Y59508D01*
X75472Y61356D01*
X83429D01*
X98196Y46589D01*
X98000Y45856D01*
Y44144D01*
X98443Y42491D01*
X99299Y41009D01*
X100509Y39799D01*
X101991Y38943D01*
X103644Y38500D01*
X105356D01*
X107009Y38943D01*
X108491Y39799D01*
X109701Y41009D01*
X110557Y42491D01*
X111000Y44144D01*
Y45856D01*
X110557Y47509D01*
X109701Y48991D01*
X108491Y50201D01*
X107009Y51057D01*
X105356Y51500D01*
X103644D01*
X102911Y51304D01*
X90167Y64048D01*
X90932Y65896D01*
X98889D01*
X118196Y46589D01*
X118000Y45856D01*
Y44144D01*
X118443Y42491D01*
X119299Y41009D01*
X120509Y39799D01*
X121991Y38943D01*
X123644Y38500D01*
X125356D01*
X127009Y38943D01*
X128491Y39799D01*
X129701Y41009D01*
X130557Y42491D01*
X131000Y44144D01*
Y45856D01*
X130557Y47509D01*
X129701Y48991D01*
X128491Y50201D01*
X127009Y51057D01*
X125356Y51500D01*
X123644D01*
X122911Y51304D01*
X105543Y68672D01*
X106336Y70272D01*
X106544Y70500D01*
X108951D01*
X111367Y71147D01*
X113533Y72398D01*
X115302Y74167D01*
X116552Y76333D01*
X117200Y78749D01*
Y81251D01*
X116552Y83667D01*
X115302Y85833D01*
X113533Y87602D01*
X111367Y88853D01*
X108951Y89500D01*
X106449D01*
X104033Y88853D01*
X101867Y87602D01*
X100098Y85833D01*
X98847Y83667D01*
X98200Y81251D01*
Y78749D01*
X98847Y76333D01*
X99869Y74564D01*
X99398Y73252D01*
X98872Y72564D01*
X91713D01*
X90755Y74564D01*
X91656Y76125D01*
X92340Y78678D01*
Y78730D01*
X82300D01*
X72260D01*
Y78678D01*
X72944Y76125D01*
X73845Y74564D01*
X72887Y72564D01*
X70540D01*
X56328Y86776D01*
X55246Y87499D01*
X53970Y87753D01*
X12679D01*
X-546Y100978D01*
Y157908D01*
X-800Y159184D01*
X-1523Y160266D01*
X-9436Y168179D01*
Y179746D01*
X-7510Y180942D01*
X-7436Y180923D01*
X-5856Y180500D01*
X-4144D01*
X-2491Y180943D01*
X-1009Y181799D01*
X201Y183009D01*
X1057Y184491D01*
X1500Y186144D01*
Y187856D01*
X1057Y189509D01*
X201Y190991D01*
X-1009Y192201D01*
X-2491Y193057D01*
X-4144Y193500D01*
X-5856D01*
X-6589Y193304D01*
X-11666Y198381D01*
Y510370D01*
X22840Y544876D01*
X1772728D01*
X1847766Y469838D01*
Y421642D01*
X1847433Y421553D01*
X1845267Y420302D01*
X1843498Y418533D01*
X1842247Y416367D01*
X1841600Y413951D01*
Y411449D01*
X1842247Y409033D01*
X1843498Y406867D01*
X1845267Y405098D01*
X1847433Y403847D01*
X1849849Y403200D01*
X1852351D01*
X1854767Y403847D01*
X1856933Y405098D01*
X1858702Y406867D01*
X1859953Y409033D01*
X1860600Y411449D01*
Y413951D01*
X1859953Y416367D01*
X1858702Y418533D01*
X1856933Y420302D01*
X1854767Y421553D01*
X1854434Y421642D01*
Y471219D01*
X1854180Y472495D01*
X1853457Y473577D01*
X1776467Y550568D01*
X1775385Y551290D01*
X1774109Y551544D01*
D02*
G37*
G36*
X2030151Y422200D02*
X2027649D01*
X2025233Y421553D01*
X2023067Y420302D01*
X2021298Y418533D01*
X2020047Y416367D01*
X2019400Y413951D01*
Y411449D01*
X2020047Y409033D01*
X2021298Y406867D01*
X2023067Y405098D01*
X2025233Y403847D01*
X2027649Y403200D01*
X2030151D01*
X2032567Y403847D01*
X2034733Y405098D01*
X2036502Y406867D01*
X2037753Y409033D01*
X2038400Y411449D01*
Y413951D01*
X2037753Y416367D01*
X2036502Y418533D01*
X2034733Y420302D01*
X2032567Y421553D01*
X2030151Y422200D01*
D02*
G37*
G36*
X1928551D02*
X1926049D01*
X1923633Y421553D01*
X1921467Y420302D01*
X1919698Y418533D01*
X1918448Y416367D01*
X1917800Y413951D01*
Y411449D01*
X1918448Y409033D01*
X1919698Y406867D01*
X1921467Y405098D01*
X1923633Y403847D01*
X1926049Y403200D01*
X1928551D01*
X1930967Y403847D01*
X1933133Y405098D01*
X1934902Y406867D01*
X1936153Y409033D01*
X1936800Y411449D01*
Y413951D01*
X1936153Y416367D01*
X1934902Y418533D01*
X1933133Y420302D01*
X1930967Y421553D01*
X1928551Y422200D01*
D02*
G37*
G36*
X-61469Y423416D02*
X-64168D01*
X-66775Y422718D01*
X-69112Y421368D01*
X-71020Y419460D01*
X-72370Y417123D01*
X-73068Y414516D01*
Y411817D01*
X-72370Y409210D01*
X-71020Y406873D01*
X-69112Y404964D01*
X-66775Y403615D01*
X-64168Y402916D01*
X-61469D01*
X-58862Y403615D01*
X-56525Y404964D01*
X-54616Y406873D01*
X-53267Y409210D01*
X-52568Y411817D01*
Y414516D01*
X-53267Y417123D01*
X-54616Y419460D01*
X-56525Y421368D01*
X-58862Y422718D01*
X-61469Y423416D01*
D02*
G37*
G36*
X1835740Y411430D02*
X1826970D01*
Y402660D01*
X1835740D01*
Y411430D01*
D02*
G37*
G36*
X1824430D02*
X1815660D01*
Y402660D01*
X1824430D01*
Y411430D01*
D02*
G37*
G36*
X1827022Y397340D02*
X1826970D01*
Y388570D01*
X1835740D01*
Y388622D01*
X1835056Y391175D01*
X1833734Y393465D01*
X1831865Y395334D01*
X1829575Y396656D01*
X1827022Y397340D01*
D02*
G37*
G36*
X1824430D02*
X1824378D01*
X1821825Y396656D01*
X1819535Y395334D01*
X1817666Y393465D01*
X1816344Y391175D01*
X1815660Y388622D01*
Y388570D01*
X1824430D01*
Y397340D01*
D02*
G37*
G36*
X2055551Y396800D02*
X2053049D01*
X2050633Y396153D01*
X2048467Y394902D01*
X2046698Y393133D01*
X2045447Y390967D01*
X2044800Y388551D01*
Y386049D01*
X2045447Y383633D01*
X2046698Y381467D01*
X2048467Y379698D01*
X2050633Y378447D01*
X2053049Y377800D01*
X2055551D01*
X2057967Y378447D01*
X2060133Y379698D01*
X2061902Y381467D01*
X2063152Y383633D01*
X2063800Y386049D01*
Y388551D01*
X2063152Y390967D01*
X2061902Y393133D01*
X2060133Y394902D01*
X2057967Y396153D01*
X2055551Y396800D01*
D02*
G37*
G36*
X1953951D02*
X1951449D01*
X1949033Y396153D01*
X1946867Y394902D01*
X1945098Y393133D01*
X1943847Y390967D01*
X1943200Y388551D01*
Y386049D01*
X1943847Y383633D01*
X1945098Y381467D01*
X1946867Y379698D01*
X1949033Y378447D01*
X1951449Y377800D01*
X1953951D01*
X1956367Y378447D01*
X1958533Y379698D01*
X1960302Y381467D01*
X1961552Y383633D01*
X1962200Y386049D01*
Y388551D01*
X1961552Y390967D01*
X1960302Y393133D01*
X1958533Y394902D01*
X1956367Y396153D01*
X1953951Y396800D01*
D02*
G37*
G36*
X2030151Y396800D02*
X2027649D01*
X2025233Y396152D01*
X2023067Y394902D01*
X2021298Y393133D01*
X2020047Y390967D01*
X2019400Y388551D01*
Y386049D01*
X2020047Y383633D01*
X2021298Y381467D01*
X2023067Y379698D01*
X2025233Y378447D01*
X2027649Y377800D01*
X2030151D01*
X2032567Y378447D01*
X2034733Y379698D01*
X2036502Y381467D01*
X2037753Y383633D01*
X2038400Y386049D01*
Y388551D01*
X2037753Y390967D01*
X2036502Y393133D01*
X2034733Y394902D01*
X2032567Y396152D01*
X2030151Y396800D01*
D02*
G37*
G36*
X1903151D02*
X1900649D01*
X1898233Y396152D01*
X1896067Y394902D01*
X1894298Y393133D01*
X1893047Y390967D01*
X1892400Y388551D01*
Y386049D01*
X1893047Y383633D01*
X1894298Y381467D01*
X1896067Y379698D01*
X1898233Y378447D01*
X1900649Y377800D01*
X1903151D01*
X1905567Y378447D01*
X1907733Y379698D01*
X1909502Y381467D01*
X1910753Y383633D01*
X1911400Y386049D01*
Y388551D01*
X1910753Y390967D01*
X1909502Y393133D01*
X1907733Y394902D01*
X1905567Y396152D01*
X1903151Y396800D01*
D02*
G37*
G36*
X1877751D02*
X1875249D01*
X1872833Y396152D01*
X1870667Y394902D01*
X1868898Y393133D01*
X1867647Y390967D01*
X1867000Y388551D01*
Y386049D01*
X1867647Y383633D01*
X1868898Y381467D01*
X1870667Y379698D01*
X1872833Y378447D01*
X1875249Y377800D01*
X1877751D01*
X1880167Y378447D01*
X1882333Y379698D01*
X1884102Y381467D01*
X1885353Y383633D01*
X1886000Y386049D01*
Y388551D01*
X1885353Y390967D01*
X1884102Y393133D01*
X1882333Y394902D01*
X1880167Y396152D01*
X1877751Y396800D01*
D02*
G37*
G36*
X2004751Y396800D02*
X2002249D01*
X1999833Y396152D01*
X1997667Y394902D01*
X1995898Y393133D01*
X1994648Y390967D01*
X1994000Y388551D01*
Y386049D01*
X1994648Y383633D01*
X1995898Y381467D01*
X1997667Y379698D01*
X1999833Y378447D01*
X2002249Y377800D01*
X2004751D01*
X2007167Y378447D01*
X2009333Y379698D01*
X2011102Y381467D01*
X2012353Y383633D01*
X2013000Y386049D01*
Y388551D01*
X2012353Y390967D01*
X2011102Y393133D01*
X2009333Y394902D01*
X2007167Y396152D01*
X2004751Y396800D01*
D02*
G37*
G36*
X1928551D02*
X1926049D01*
X1923633Y396152D01*
X1921467Y394902D01*
X1919698Y393133D01*
X1918447Y390967D01*
X1917800Y388551D01*
Y386049D01*
X1918447Y383633D01*
X1919698Y381467D01*
X1921467Y379698D01*
X1923633Y378447D01*
X1926049Y377800D01*
X1928551D01*
X1930967Y378447D01*
X1933133Y379698D01*
X1934902Y381467D01*
X1936153Y383633D01*
X1936800Y386049D01*
Y388551D01*
X1936153Y390967D01*
X1934902Y393133D01*
X1933133Y394902D01*
X1930967Y396152D01*
X1928551Y396800D01*
D02*
G37*
G36*
X1835740Y386030D02*
X1826970D01*
Y377260D01*
X1827022D01*
X1829575Y377944D01*
X1831865Y379266D01*
X1833734Y381135D01*
X1835056Y383425D01*
X1835740Y385978D01*
Y386030D01*
D02*
G37*
G36*
X1824430D02*
X1815660D01*
Y385978D01*
X1816344Y383425D01*
X1817666Y381135D01*
X1819535Y379266D01*
X1821825Y377944D01*
X1824378Y377260D01*
X1824430D01*
Y386030D01*
D02*
G37*
G36*
X2213817Y392500D02*
X2211183D01*
X2208640Y391819D01*
X2206360Y390502D01*
X2204498Y388640D01*
X2203181Y386360D01*
X2202500Y383816D01*
Y381184D01*
X2203181Y378640D01*
X2204498Y376360D01*
X2206360Y374498D01*
X2208640Y373181D01*
X2211183Y372500D01*
X2213817D01*
X2216360Y373181D01*
X2218640Y374498D01*
X2220502Y376360D01*
X2221819Y378640D01*
X2222500Y381184D01*
Y383816D01*
X2221819Y386360D01*
X2220502Y388640D01*
X2218640Y390502D01*
X2216360Y391819D01*
X2213817Y392500D01*
D02*
G37*
G36*
X2148817D02*
X2146183D01*
X2143640Y391819D01*
X2141360Y390502D01*
X2139498Y388640D01*
X2138181Y386360D01*
X2137500Y383816D01*
Y381184D01*
X2138181Y378640D01*
X2139498Y376360D01*
X2141360Y374498D01*
X2143640Y373181D01*
X2146183Y372500D01*
X2148817D01*
X2151360Y373181D01*
X2153640Y374498D01*
X2155502Y376360D01*
X2156819Y378640D01*
X2157500Y381184D01*
Y383816D01*
X2156819Y386360D01*
X2155502Y388640D01*
X2153640Y390502D01*
X2151360Y391819D01*
X2148817Y392500D01*
D02*
G37*
G36*
X1979351Y396800D02*
X1976849D01*
X1974433Y396152D01*
X1972267Y394902D01*
X1970498Y393133D01*
X1969247Y390967D01*
X1968600Y388551D01*
Y386049D01*
X1969247Y383633D01*
X1970498Y381467D01*
X1972267Y379698D01*
X1974433Y378447D01*
X1976849Y377800D01*
X1979351D01*
X1981767Y378447D01*
X1983368Y379372D01*
X1983804Y379624D01*
X1985136Y378230D01*
X1985049Y377991D01*
X1984916Y377761D01*
X1984193Y376509D01*
X1983750Y374856D01*
Y373144D01*
X1984193Y371491D01*
X1985049Y370009D01*
X1986259Y368799D01*
X1987741Y367943D01*
X1989394Y367500D01*
X1991106D01*
X1992759Y367943D01*
X1994241Y368799D01*
X1995451Y370009D01*
X1996307Y371491D01*
X1996750Y373144D01*
Y374856D01*
X1996307Y376509D01*
X1995451Y377991D01*
X1994241Y379201D01*
X1992759Y380057D01*
X1991106Y380500D01*
X1989394D01*
X1987741Y380057D01*
X1986824Y379527D01*
X1986259Y379201D01*
X1984855Y380620D01*
X1985702Y381467D01*
X1986953Y383633D01*
X1987600Y386049D01*
Y388551D01*
X1986953Y390967D01*
X1985702Y393133D01*
X1983933Y394902D01*
X1981767Y396152D01*
X1979351Y396800D01*
D02*
G37*
G36*
X1743817Y382500D02*
X1741183D01*
X1738640Y381819D01*
X1736360Y380502D01*
X1734498Y378640D01*
X1733181Y376360D01*
X1732500Y373816D01*
Y371184D01*
X1733181Y368640D01*
X1734498Y366360D01*
X1736360Y364498D01*
X1738640Y363181D01*
X1741183Y362500D01*
X1743817D01*
X1746360Y363181D01*
X1748640Y364498D01*
X1750502Y366360D01*
X1751819Y368640D01*
X1752500Y371184D01*
Y373816D01*
X1751819Y376360D01*
X1750502Y378640D01*
X1748640Y380502D01*
X1746360Y381819D01*
X1743817Y382500D01*
D02*
G37*
G36*
X1759039Y367498D02*
X1757328D01*
X1755675Y367055D01*
X1754193Y366199D01*
X1752982Y364989D01*
X1752127Y363507D01*
X1751684Y361854D01*
Y360142D01*
X1752127Y358489D01*
X1752982Y357007D01*
X1754193Y355797D01*
X1755675Y354941D01*
X1757328Y354498D01*
X1759039D01*
X1760692Y354941D01*
X1762175Y355797D01*
X1763385Y357007D01*
X1764241Y358489D01*
X1764684Y360142D01*
Y361854D01*
X1764241Y363507D01*
X1763385Y364989D01*
X1762175Y366199D01*
X1760692Y367055D01*
X1759039Y367498D01*
D02*
G37*
G36*
X1943270Y356198D02*
Y350520D01*
X1948948D01*
X1948560Y351967D01*
X1947633Y353573D01*
X1946323Y354883D01*
X1944717Y355810D01*
X1943270Y356198D01*
D02*
G37*
G36*
X1940730D02*
X1939283Y355810D01*
X1937677Y354883D01*
X1936367Y353573D01*
X1935440Y351967D01*
X1935052Y350520D01*
X1940730D01*
Y356198D01*
D02*
G37*
G36*
X1778338Y362000D02*
X1776627D01*
X1774973Y361557D01*
X1773491Y360701D01*
X1772281Y359491D01*
X1771425Y358009D01*
X1770982Y356356D01*
Y354644D01*
X1771425Y352991D01*
X1772281Y351509D01*
X1773491Y350299D01*
X1774973Y349443D01*
X1776627Y349000D01*
X1778338D01*
X1779991Y349443D01*
X1781473Y350299D01*
X1782684Y351509D01*
X1783539Y352991D01*
X1783982Y354644D01*
Y356356D01*
X1783539Y358009D01*
X1782684Y359491D01*
X1781473Y360701D01*
X1779991Y361557D01*
X1778338Y362000D01*
D02*
G37*
G36*
X1948948Y347980D02*
X1943270D01*
Y342302D01*
X1944717Y342690D01*
X1946323Y343617D01*
X1947633Y344927D01*
X1948560Y346533D01*
X1948948Y347980D01*
D02*
G37*
G36*
X1940730D02*
X1935052D01*
X1935440Y346533D01*
X1936367Y344927D01*
X1937677Y343617D01*
X1939283Y342690D01*
X1940730Y342302D01*
Y347980D01*
D02*
G37*
G36*
X2054770Y342198D02*
Y336520D01*
X2060448D01*
X2060060Y337967D01*
X2059133Y339573D01*
X2057823Y340883D01*
X2056217Y341810D01*
X2054770Y342198D01*
D02*
G37*
G36*
X2052230D02*
X2050783Y341810D01*
X2049177Y340883D01*
X2047867Y339573D01*
X2046940Y337967D01*
X2046552Y336520D01*
X2052230D01*
Y342198D01*
D02*
G37*
G36*
X1976520Y341698D02*
Y336020D01*
X1982198D01*
X1981810Y337467D01*
X1980883Y339073D01*
X1979573Y340383D01*
X1977967Y341310D01*
X1976520Y341698D01*
D02*
G37*
G36*
X1973980D02*
X1972533Y341310D01*
X1970927Y340383D01*
X1969617Y339073D01*
X1968690Y337467D01*
X1968302Y336020D01*
X1973980D01*
Y341698D01*
D02*
G37*
G36*
X1800856Y346500D02*
X1799144D01*
X1797491Y346057D01*
X1796009Y345201D01*
X1794799Y343991D01*
X1793943Y342509D01*
X1793500Y340856D01*
Y339144D01*
X1793943Y337491D01*
X1794799Y336009D01*
X1796009Y334799D01*
X1797491Y333943D01*
X1799144Y333500D01*
X1800856D01*
X1802509Y333943D01*
X1803991Y334799D01*
X1805201Y336009D01*
X1806057Y337491D01*
X1806500Y339144D01*
Y340856D01*
X1806057Y342509D01*
X1805201Y343991D01*
X1803991Y345201D01*
X1802509Y346057D01*
X1800856Y346500D01*
D02*
G37*
G36*
X2060448Y333980D02*
X2054770D01*
Y328302D01*
X2056217Y328690D01*
X2057823Y329617D01*
X2059133Y330927D01*
X2060060Y332533D01*
X2060448Y333980D01*
D02*
G37*
G36*
X2052230D02*
X2046552D01*
X2046940Y332533D01*
X2047867Y330927D01*
X2049177Y329617D01*
X2050783Y328690D01*
X2052230Y328302D01*
Y333980D01*
D02*
G37*
G36*
X1982198Y333480D02*
X1976520D01*
Y327802D01*
X1977967Y328190D01*
X1979573Y329117D01*
X1980883Y330427D01*
X1981810Y332033D01*
X1982198Y333480D01*
D02*
G37*
G36*
X1973980D02*
X1968302D01*
X1968690Y332033D01*
X1969617Y330427D01*
X1970927Y329117D01*
X1972533Y328190D01*
X1973980Y327802D01*
Y333480D01*
D02*
G37*
G36*
X1885728Y327359D02*
X1884281Y326971D01*
X1882675Y326044D01*
X1881365Y324734D01*
X1880438Y323128D01*
X1880050Y321681D01*
X1885728D01*
Y327359D01*
D02*
G37*
G36*
X1759405Y324450D02*
Y318772D01*
X1765083D01*
X1764695Y320219D01*
X1763768Y321825D01*
X1762457Y323135D01*
X1760852Y324062D01*
X1759405Y324450D01*
D02*
G37*
G36*
X1756865D02*
X1755417Y324062D01*
X1753812Y323135D01*
X1752501Y321825D01*
X1751574Y320219D01*
X1751187Y318772D01*
X1756865D01*
Y324450D01*
D02*
G37*
G36*
X1856270Y321948D02*
Y316270D01*
X1861948D01*
X1861560Y317717D01*
X1860633Y319323D01*
X1859323Y320633D01*
X1857717Y321560D01*
X1856270Y321948D01*
D02*
G37*
G36*
X1853730D02*
X1852283Y321560D01*
X1850677Y320633D01*
X1849367Y319323D01*
X1848440Y317717D01*
X1848052Y316270D01*
X1853730D01*
Y321948D01*
D02*
G37*
G36*
X2095106Y328250D02*
X2093394D01*
X2091741Y327807D01*
X2090259Y326951D01*
X2089049Y325741D01*
X2088193Y324259D01*
X2087750Y322606D01*
Y320894D01*
X2088193Y319241D01*
X2089049Y317759D01*
X2090259Y316549D01*
X2091741Y315693D01*
X2093394Y315250D01*
X2095106D01*
X2096759Y315693D01*
X2098241Y316549D01*
X2099451Y317759D01*
X2100307Y319241D01*
X2100750Y320894D01*
Y322606D01*
X2100307Y324259D01*
X2099451Y325741D01*
X2098241Y326951D01*
X2096759Y327807D01*
X2095106Y328250D01*
D02*
G37*
G36*
X1885728Y319141D02*
X1880050D01*
X1880438Y317694D01*
X1881365Y316088D01*
X1882675Y314778D01*
X1884281Y313851D01*
X1885728Y313463D01*
Y319141D01*
D02*
G37*
G36*
X1765083Y316232D02*
X1759405D01*
Y310554D01*
X1760852Y310942D01*
X1762457Y311869D01*
X1763768Y313179D01*
X1764695Y314785D01*
X1765083Y316232D01*
D02*
G37*
G36*
X1756865D02*
X1751187D01*
X1751574Y314785D01*
X1752501Y313179D01*
X1753812Y311869D01*
X1755417Y310942D01*
X1756865Y310554D01*
Y316232D01*
D02*
G37*
G36*
X1861948Y313730D02*
X1856270D01*
Y308052D01*
X1857717Y308440D01*
X1859323Y309367D01*
X1860633Y310677D01*
X1861560Y312283D01*
X1861948Y313730D01*
D02*
G37*
G36*
X1853730D02*
X1848052D01*
X1848440Y312283D01*
X1849367Y310677D01*
X1850677Y309367D01*
X1852283Y308440D01*
X1853730Y308052D01*
Y313730D01*
D02*
G37*
G36*
X2015770Y312448D02*
Y306770D01*
X2021448D01*
X2021060Y308217D01*
X2020133Y309823D01*
X2018823Y311133D01*
X2017217Y312060D01*
X2015770Y312448D01*
D02*
G37*
G36*
X2013230D02*
X2011783Y312060D01*
X2010177Y311133D01*
X2008867Y309823D01*
X2007940Y308217D01*
X2007552Y306770D01*
X2013230D01*
Y312448D01*
D02*
G37*
G36*
X2055856Y321500D02*
X2054144D01*
X2052491Y321057D01*
X2051009Y320201D01*
X2049799Y318991D01*
X2048943Y317509D01*
X2048500Y315856D01*
Y314648D01*
X2048263Y313950D01*
X2046803Y312750D01*
X2046144D01*
X2044491Y312307D01*
X2043009Y311451D01*
X2041799Y310241D01*
X2040943Y308759D01*
X2040500Y307106D01*
Y305394D01*
X2040943Y303741D01*
X2041799Y302259D01*
X2043009Y301049D01*
X2044491Y300193D01*
X2046144Y299750D01*
X2047856D01*
X2049509Y300193D01*
X2050991Y301049D01*
X2052201Y302259D01*
X2053057Y303741D01*
X2053500Y305394D01*
Y306602D01*
X2053737Y307301D01*
X2055197Y308500D01*
X2055856D01*
X2057509Y308943D01*
X2058991Y309799D01*
X2060201Y311009D01*
X2061057Y312491D01*
X2061500Y314144D01*
Y315856D01*
X2061057Y317509D01*
X2060201Y318991D01*
X2058991Y320201D01*
X2057509Y321057D01*
X2055856Y321500D01*
D02*
G37*
G36*
X1852351Y396800D02*
X1849849D01*
X1847433Y396153D01*
X1845267Y394902D01*
X1843498Y393133D01*
X1842247Y390967D01*
X1841600Y388551D01*
Y386049D01*
X1842247Y383633D01*
X1843498Y381467D01*
X1845267Y379698D01*
X1847433Y378447D01*
X1847766Y378358D01*
Y350481D01*
X1795839Y298554D01*
X1795106Y298750D01*
X1793394D01*
X1791741Y298307D01*
X1790259Y297451D01*
X1789049Y296241D01*
X1788193Y294759D01*
X1787750Y293106D01*
Y291394D01*
X1788193Y289741D01*
X1789049Y288259D01*
X1789146Y288162D01*
Y239754D01*
X1787220Y238558D01*
X1787146Y238577D01*
X1785566Y239000D01*
X1783854D01*
X1782201Y238557D01*
X1780719Y237701D01*
X1779509Y236491D01*
X1778653Y235009D01*
X1778210Y233356D01*
Y231644D01*
X1778653Y229991D01*
X1779509Y228509D01*
X1780719Y227299D01*
X1782201Y226443D01*
X1783854Y226000D01*
X1785566D01*
X1787219Y226443D01*
X1787575Y226649D01*
X1788948Y227097D01*
X1790258Y226027D01*
X1793696Y222589D01*
X1793500Y221856D01*
Y220144D01*
X1793696Y219411D01*
X1790372Y216087D01*
X1789650Y215006D01*
X1789396Y213730D01*
Y110782D01*
X1789650Y109506D01*
X1790372Y108424D01*
X1790610Y108187D01*
X1790464Y106214D01*
X1790009Y105951D01*
X1788799Y104741D01*
X1787943Y103259D01*
X1787500Y101606D01*
Y99894D01*
X1787943Y98241D01*
X1788202Y97792D01*
X1787736Y97094D01*
X1787482Y95818D01*
Y26999D01*
X1787736Y25723D01*
X1788459Y24641D01*
X1791916Y21184D01*
Y13081D01*
X1791259Y12701D01*
X1790049Y11491D01*
X1789193Y10009D01*
X1788750Y8356D01*
Y6644D01*
X1789193Y4991D01*
X1790049Y3509D01*
X1791259Y2299D01*
X1792741Y1443D01*
X1794394Y1000D01*
X1796106D01*
X1797759Y1443D01*
X1799241Y2299D01*
X1800451Y3509D01*
X1801307Y4991D01*
X1801750Y6644D01*
Y8356D01*
X1801307Y10009D01*
X1800451Y11491D01*
X1799241Y12701D01*
X1798584Y13081D01*
Y16660D01*
X1800207Y17686D01*
X1800584Y17714D01*
X1801233Y17040D01*
Y15647D01*
X1801676Y13994D01*
X1802532Y12511D01*
X1803742Y11301D01*
X1805224Y10445D01*
X1806877Y10002D01*
X1808589D01*
X1810242Y10445D01*
X1811724Y11301D01*
X1812934Y12511D01*
X1813790Y13994D01*
X1814233Y15647D01*
Y17358D01*
X1813790Y19011D01*
X1812934Y20494D01*
X1811724Y21704D01*
X1810242Y22559D01*
X1808589Y23002D01*
X1806877D01*
X1806739Y22965D01*
X1805104Y24337D01*
Y26625D01*
X1805902Y27191D01*
X1807104Y27599D01*
X1808241Y26943D01*
X1809894Y26500D01*
X1811606D01*
X1813259Y26943D01*
X1814741Y27799D01*
X1815951Y29009D01*
X1816807Y30491D01*
X1817250Y32144D01*
Y33856D01*
X1816807Y35509D01*
X1815951Y36991D01*
X1814741Y38201D01*
X1813259Y39057D01*
X1811606Y39500D01*
X1809894D01*
X1808241Y39057D01*
X1807104Y38401D01*
X1805902Y38809D01*
X1805104Y39375D01*
Y103968D01*
X1804850Y105244D01*
X1804128Y106326D01*
X1803890Y106563D01*
X1804036Y108536D01*
X1804491Y108799D01*
X1805701Y110009D01*
X1806557Y111491D01*
X1807000Y113144D01*
Y114856D01*
X1806557Y116509D01*
X1805701Y117991D01*
X1804491Y119201D01*
X1803834Y119581D01*
Y208892D01*
X1810128Y215186D01*
X1810850Y216267D01*
X1811104Y217543D01*
Y226230D01*
X1810850Y227506D01*
X1810128Y228587D01*
X1806554Y232161D01*
X1806750Y232894D01*
Y234606D01*
X1806307Y236259D01*
X1805451Y237741D01*
X1804241Y238951D01*
X1802759Y239807D01*
X1801106Y240250D01*
X1799394D01*
X1797814Y239827D01*
X1797740Y239808D01*
X1795814Y241004D01*
Y285940D01*
X1796759Y286193D01*
X1798241Y287049D01*
X1799451Y288259D01*
X1800307Y289741D01*
X1800750Y291394D01*
Y293106D01*
X1800554Y293839D01*
X1853458Y346743D01*
X1854180Y347824D01*
X1854434Y349100D01*
Y378358D01*
X1854767Y378447D01*
X1856933Y379698D01*
X1858702Y381467D01*
X1859953Y383633D01*
X1860600Y386049D01*
Y388551D01*
X1859953Y390967D01*
X1858702Y393133D01*
X1856933Y394902D01*
X1854767Y396153D01*
X1852351Y396800D01*
D02*
G37*
G36*
X2021448Y304230D02*
X2015770D01*
Y298552D01*
X2017217Y298940D01*
X2018823Y299867D01*
X2020133Y301177D01*
X2021060Y302783D01*
X2021448Y304230D01*
D02*
G37*
G36*
X2013230D02*
X2007552D01*
X2007940Y302783D01*
X2008867Y301177D01*
X2010177Y299867D01*
X2011783Y298940D01*
X2013230Y298552D01*
Y304230D01*
D02*
G37*
G36*
X1868606Y303500D02*
X1866894D01*
X1865241Y303057D01*
X1863759Y302201D01*
X1862549Y300991D01*
X1861693Y299509D01*
X1861250Y297856D01*
Y296144D01*
X1861693Y294491D01*
X1862549Y293009D01*
X1863759Y291799D01*
X1865241Y290943D01*
X1866894Y290500D01*
X1868606D01*
X1870259Y290943D01*
X1871741Y291799D01*
X1872951Y293009D01*
X1873807Y294491D01*
X1874250Y296144D01*
Y297856D01*
X1873807Y299509D01*
X1872951Y300991D01*
X1871741Y302201D01*
X1870259Y303057D01*
X1868606Y303500D01*
D02*
G37*
G36*
X1757356Y301000D02*
X1755644D01*
X1753991Y300557D01*
X1752509Y299701D01*
X1751299Y298491D01*
X1750443Y297009D01*
X1750000Y295356D01*
Y293644D01*
X1750443Y291991D01*
X1751299Y290509D01*
X1752509Y289299D01*
X1753991Y288443D01*
X1755644Y288000D01*
X1757356D01*
X1759009Y288443D01*
X1760491Y289299D01*
X1761701Y290509D01*
X1762557Y291991D01*
X1763000Y293644D01*
Y295356D01*
X1762557Y297009D01*
X1761701Y298491D01*
X1760491Y299701D01*
X1759009Y300557D01*
X1757356Y301000D01*
D02*
G37*
G36*
X1742106D02*
X1740394D01*
X1738741Y300557D01*
X1737259Y299701D01*
X1736049Y298491D01*
X1735193Y297009D01*
X1734750Y295356D01*
Y293644D01*
X1735193Y291991D01*
X1736049Y290509D01*
X1737259Y289299D01*
X1738741Y288443D01*
X1740394Y288000D01*
X1742106D01*
X1743759Y288443D01*
X1745241Y289299D01*
X1746451Y290509D01*
X1747307Y291991D01*
X1747750Y293644D01*
Y295356D01*
X1747307Y297009D01*
X1746451Y298491D01*
X1745241Y299701D01*
X1743759Y300557D01*
X1742106Y301000D01*
D02*
G37*
G36*
X1858356Y289750D02*
X1856644D01*
X1854991Y289307D01*
X1853509Y288451D01*
X1852299Y287241D01*
X1851443Y285759D01*
X1851000Y284106D01*
Y282394D01*
X1851443Y280741D01*
X1852299Y279259D01*
X1853509Y278049D01*
X1854991Y277193D01*
X1856644Y276750D01*
X1858356D01*
X1860009Y277193D01*
X1861491Y278049D01*
X1862701Y279259D01*
X1863557Y280741D01*
X1864000Y282394D01*
Y284106D01*
X1863557Y285759D01*
X1862701Y287241D01*
X1861491Y288451D01*
X1860009Y289307D01*
X1858356Y289750D01*
D02*
G37*
G36*
X2209606Y286750D02*
X2207894D01*
X2206241Y286307D01*
X2204759Y285451D01*
X2203549Y284241D01*
X2202693Y282759D01*
X2202250Y281106D01*
Y279394D01*
X2202693Y277741D01*
X2203549Y276259D01*
X2204759Y275049D01*
X2206241Y274193D01*
X2207894Y273750D01*
X2209606D01*
X2211259Y274193D01*
X2212741Y275049D01*
X2213951Y276259D01*
X2214807Y277741D01*
X2215250Y279394D01*
Y281106D01*
X2214807Y282759D01*
X2213951Y284241D01*
X2212741Y285451D01*
X2211259Y286307D01*
X2209606Y286750D01*
D02*
G37*
G36*
X2229020Y279198D02*
Y273520D01*
X2234698D01*
X2234310Y274967D01*
X2233383Y276573D01*
X2232073Y277883D01*
X2230467Y278810D01*
X2229020Y279198D01*
D02*
G37*
G36*
X2226480D02*
X2225033Y278810D01*
X2223427Y277883D01*
X2222117Y276573D01*
X2221190Y274967D01*
X2220802Y273520D01*
X2226480D01*
Y279198D01*
D02*
G37*
G36*
X2155356Y286500D02*
X2153644D01*
X2151991Y286057D01*
X2150509Y285201D01*
X2149299Y283991D01*
X2148443Y282509D01*
X2148000Y280856D01*
Y279144D01*
X2148443Y277491D01*
X2149299Y276009D01*
X2150509Y274799D01*
X2151991Y273943D01*
X2153644Y273500D01*
X2155356D01*
X2157009Y273943D01*
X2158491Y274799D01*
X2159701Y276009D01*
X2160557Y277491D01*
X2161000Y279144D01*
Y280856D01*
X2160557Y282509D01*
X2159701Y283991D01*
X2158491Y285201D01*
X2157009Y286057D01*
X2155356Y286500D01*
D02*
G37*
G36*
X1966317Y290000D02*
X1963683D01*
X1961140Y289319D01*
X1958860Y288002D01*
X1956998Y286140D01*
X1955681Y283860D01*
X1955000Y281317D01*
Y278683D01*
X1955681Y276140D01*
X1956998Y273860D01*
X1958860Y271998D01*
X1961140Y270681D01*
X1963683Y270000D01*
X1966317D01*
X1968860Y270681D01*
X1971140Y271998D01*
X1973002Y273860D01*
X1974319Y276140D01*
X1975000Y278683D01*
Y281317D01*
X1974319Y283860D01*
X1973002Y286140D01*
X1971140Y288002D01*
X1968860Y289319D01*
X1966317Y290000D01*
D02*
G37*
G36*
X1916317D02*
X1913683D01*
X1911140Y289319D01*
X1908860Y288002D01*
X1906998Y286140D01*
X1905681Y283860D01*
X1905000Y281317D01*
Y278683D01*
X1905681Y276140D01*
X1906998Y273860D01*
X1908860Y271998D01*
X1911140Y270681D01*
X1913683Y270000D01*
X1916317D01*
X1918860Y270681D01*
X1921140Y271998D01*
X1923002Y273860D01*
X1924319Y276140D01*
X1925000Y278683D01*
Y281317D01*
X1924319Y283860D01*
X1923002Y286140D01*
X1921140Y288002D01*
X1918860Y289319D01*
X1916317Y290000D01*
D02*
G37*
G36*
X2234698Y270980D02*
X2229020D01*
Y265302D01*
X2230467Y265690D01*
X2232073Y266617D01*
X2233383Y267927D01*
X2234310Y269533D01*
X2234698Y270980D01*
D02*
G37*
G36*
X2226480D02*
X2220802D01*
X2221190Y269533D01*
X2222117Y267927D01*
X2223427Y266617D01*
X2225033Y265690D01*
X2226480Y265302D01*
Y270980D01*
D02*
G37*
G36*
X1883356Y288250D02*
X1881644D01*
X1879991Y287807D01*
X1878509Y286951D01*
X1877299Y285741D01*
X1876443Y284259D01*
X1876000Y282606D01*
Y280894D01*
X1876443Y279241D01*
X1877299Y277759D01*
X1877712Y277346D01*
X1878283Y276024D01*
X1877712Y274699D01*
X1877300Y274287D01*
X1876444Y272805D01*
X1876001Y271152D01*
Y269440D01*
X1876444Y267787D01*
X1877300Y266305D01*
X1877496Y266109D01*
X1877745Y264068D01*
X1877362Y263555D01*
X1876549Y262741D01*
X1875693Y261259D01*
X1875250Y259606D01*
Y258063D01*
X1875164Y257820D01*
X1873568Y256443D01*
X1873356Y256500D01*
X1871644D01*
X1869991Y256057D01*
X1868509Y255201D01*
X1867299Y253991D01*
X1866443Y252509D01*
X1866000Y250856D01*
Y249144D01*
X1866443Y247491D01*
X1867299Y246009D01*
X1867899Y245409D01*
X1868299Y244125D01*
X1867899Y242841D01*
X1867299Y242241D01*
X1866443Y240759D01*
X1866000Y239106D01*
Y237394D01*
X1866443Y235741D01*
X1867299Y234259D01*
X1868509Y233049D01*
X1869991Y232193D01*
X1870822Y231971D01*
X1871067Y229834D01*
X1870835Y229710D01*
X1867789Y227211D01*
X1865290Y224165D01*
X1863433Y220691D01*
X1862562Y217819D01*
X1860419Y217645D01*
X1859883Y218573D01*
X1858573Y219883D01*
X1856967Y220810D01*
X1855520Y221198D01*
Y214250D01*
X1854250D01*
Y212980D01*
X1847302D01*
X1847690Y211533D01*
X1848617Y209927D01*
X1848977Y209566D01*
X1849906Y208577D01*
X1849049Y206991D01*
X1848193Y205509D01*
X1847750Y203856D01*
Y202144D01*
X1848193Y200491D01*
X1849049Y199009D01*
X1850259Y197799D01*
X1851741Y196943D01*
X1853394Y196500D01*
X1855106D01*
X1856759Y196943D01*
X1858241Y197799D01*
X1859451Y199009D01*
X1860307Y200491D01*
X1860625Y201677D01*
X1862606Y201903D01*
X1862648Y201898D01*
X1863433Y199309D01*
X1865290Y195835D01*
X1867789Y192789D01*
X1870835Y190290D01*
X1874309Y188433D01*
X1878079Y187289D01*
X1882000Y186903D01*
X1885921Y187289D01*
X1889691Y188433D01*
X1893165Y190290D01*
X1896211Y192789D01*
X1898710Y195835D01*
X1900567Y199309D01*
X1901711Y203079D01*
X1902097Y207000D01*
Y213000D01*
X1901711Y216921D01*
X1900567Y220691D01*
X1898710Y224165D01*
X1896211Y227211D01*
X1893165Y229710D01*
X1889691Y231567D01*
X1885921Y232711D01*
X1882000Y233097D01*
X1879080Y232809D01*
X1878559Y233357D01*
X1877961Y234709D01*
X1878557Y235741D01*
X1879000Y237394D01*
Y239106D01*
X1878557Y240759D01*
X1877701Y242241D01*
X1877101Y242841D01*
X1876701Y244125D01*
X1877101Y245409D01*
X1877701Y246009D01*
X1878557Y247491D01*
X1879000Y249144D01*
Y250687D01*
X1879086Y250930D01*
X1880682Y252307D01*
X1880894Y252250D01*
X1882606D01*
X1884259Y252693D01*
X1885741Y253549D01*
X1886951Y254759D01*
X1887807Y256241D01*
X1888250Y257894D01*
Y259606D01*
X1887807Y261259D01*
X1886951Y262741D01*
X1886755Y262937D01*
X1886506Y264978D01*
X1886889Y265491D01*
X1887702Y266305D01*
X1888558Y267787D01*
X1889001Y269440D01*
Y271152D01*
X1888558Y272805D01*
X1887702Y274287D01*
X1887289Y274700D01*
X1886718Y276022D01*
X1887289Y277346D01*
X1887701Y277759D01*
X1888557Y279241D01*
X1889000Y280894D01*
Y282606D01*
X1888557Y284259D01*
X1887701Y285741D01*
X1886491Y286951D01*
X1885009Y287807D01*
X1883356Y288250D01*
D02*
G37*
G36*
X1888268Y327359D02*
Y320411D01*
Y313463D01*
X1889715Y313851D01*
X1891321Y314778D01*
X1892631Y316088D01*
X1893558Y317694D01*
X1893789Y318554D01*
X1895859D01*
X1895943Y318241D01*
X1896799Y316759D01*
X1898009Y315549D01*
X1899491Y314693D01*
X1901144Y314250D01*
X1902856D01*
X1903589Y314446D01*
X1946567Y271468D01*
X1946581Y271108D01*
X1945905Y269302D01*
X1944991Y269057D01*
X1943509Y268201D01*
X1942299Y266991D01*
X1941443Y265509D01*
X1941000Y263856D01*
Y262144D01*
X1941443Y260491D01*
X1942299Y259009D01*
X1943509Y257799D01*
X1944991Y256943D01*
X1946644Y256500D01*
X1948356D01*
X1950009Y256943D01*
X1950212Y257061D01*
X1951676Y255596D01*
X1951193Y254759D01*
X1950750Y253106D01*
Y251394D01*
X1951193Y249741D01*
X1952049Y248259D01*
X1953259Y247049D01*
X1954741Y246193D01*
X1956394Y245750D01*
X1958106D01*
X1959759Y246193D01*
X1961241Y247049D01*
X1962451Y248259D01*
X1963307Y249741D01*
X1963750Y251394D01*
Y253106D01*
X1963307Y254759D01*
X1962451Y256241D01*
X1961241Y257451D01*
X1960584Y257831D01*
Y265500D01*
X1960330Y266776D01*
X1959608Y267857D01*
X1908304Y319161D01*
X1908500Y319894D01*
Y321606D01*
X1908057Y323259D01*
X1907201Y324741D01*
X1905991Y325951D01*
X1904509Y326807D01*
X1902856Y327250D01*
X1901144D01*
X1899491Y326807D01*
X1898009Y325951D01*
X1896799Y324741D01*
X1895943Y323259D01*
X1895768Y322607D01*
X1893698Y322607D01*
X1893558Y323128D01*
X1892631Y324734D01*
X1891321Y326044D01*
X1889715Y326971D01*
X1888268Y327359D01*
D02*
G37*
G36*
X1926606Y253000D02*
X1924894D01*
X1923241Y252557D01*
X1921759Y251701D01*
X1920549Y250491D01*
X1919693Y249009D01*
X1919250Y247356D01*
Y245644D01*
X1919693Y243991D01*
X1920549Y242509D01*
X1921759Y241299D01*
X1923241Y240443D01*
X1924894Y240000D01*
X1926606D01*
X1928259Y240443D01*
X1929741Y241299D01*
X1930951Y242509D01*
X1931807Y243991D01*
X1932250Y245644D01*
Y247356D01*
X1931807Y249009D01*
X1930951Y250491D01*
X1929741Y251701D01*
X1928259Y252557D01*
X1926606Y253000D01*
D02*
G37*
G36*
X1851356Y244750D02*
X1849644D01*
X1847991Y244307D01*
X1846509Y243451D01*
X1845299Y242241D01*
X1844443Y240759D01*
X1844000Y239106D01*
Y237394D01*
X1844443Y235741D01*
X1845299Y234259D01*
X1846509Y233049D01*
X1847991Y232193D01*
X1849644Y231750D01*
X1851356D01*
X1853009Y232193D01*
X1854491Y233049D01*
X1855701Y234259D01*
X1856557Y235741D01*
X1857000Y237394D01*
Y239106D01*
X1856557Y240759D01*
X1855701Y242241D01*
X1854491Y243451D01*
X1853009Y244307D01*
X1851356Y244750D01*
D02*
G37*
G36*
X2179956Y233074D02*
Y227396D01*
X2185634D01*
X2185246Y228843D01*
X2184319Y230448D01*
X2183009Y231759D01*
X2181403Y232686D01*
X2179956Y233074D01*
D02*
G37*
G36*
X2177416D02*
X2175969Y232686D01*
X2174363Y231759D01*
X2173053Y230448D01*
X2172126Y228843D01*
X2171738Y227396D01*
X2177416D01*
Y233074D01*
D02*
G37*
G36*
X2065606Y234750D02*
X2063894D01*
X2062241Y234307D01*
X2060759Y233451D01*
X2059549Y232241D01*
X2058693Y230759D01*
X2058250Y229106D01*
Y227394D01*
X2058693Y225741D01*
X2059549Y224259D01*
X2060759Y223049D01*
X2062241Y222193D01*
X2063894Y221750D01*
X2065606D01*
X2067259Y222193D01*
X2068741Y223049D01*
X2069951Y224259D01*
X2070807Y225741D01*
X2071250Y227394D01*
Y229106D01*
X2070807Y230759D01*
X2069951Y232241D01*
X2068741Y233451D01*
X2067259Y234307D01*
X2065606Y234750D01*
D02*
G37*
G36*
X2185634Y224856D02*
X2179956D01*
Y219178D01*
X2181403Y219566D01*
X2183009Y220492D01*
X2184319Y221803D01*
X2185246Y223408D01*
X2185634Y224856D01*
D02*
G37*
G36*
X2177416D02*
X2171738D01*
X2172126Y223408D01*
X2173053Y221803D01*
X2174363Y220492D01*
X2175969Y219566D01*
X2177416Y219178D01*
Y224856D01*
D02*
G37*
G36*
X2130270Y223698D02*
Y218020D01*
X2135948D01*
X2135560Y219467D01*
X2134633Y221073D01*
X2133323Y222383D01*
X2131717Y223310D01*
X2130270Y223698D01*
D02*
G37*
G36*
X2127730D02*
X2126283Y223310D01*
X2124677Y222383D01*
X2123367Y221073D01*
X2122440Y219467D01*
X2122052Y218020D01*
X2127730D01*
Y223698D01*
D02*
G37*
G36*
X1852980Y221198D02*
X1851533Y220810D01*
X1849927Y219883D01*
X1848617Y218573D01*
X1847690Y216967D01*
X1847302Y215520D01*
X1852980D01*
Y221198D01*
D02*
G37*
G36*
X1761520Y220198D02*
Y214520D01*
X1767198D01*
X1766810Y215967D01*
X1765883Y217573D01*
X1764573Y218883D01*
X1762967Y219810D01*
X1761520Y220198D01*
D02*
G37*
G36*
X1758980D02*
X1757533Y219810D01*
X1755927Y218883D01*
X1754617Y217573D01*
X1753690Y215967D01*
X1753302Y214520D01*
X1758980D01*
Y220198D01*
D02*
G37*
G36*
X2135948Y215480D02*
X2130270D01*
Y209802D01*
X2131717Y210190D01*
X2133323Y211117D01*
X2134633Y212427D01*
X2135560Y214033D01*
X2135948Y215480D01*
D02*
G37*
G36*
X2127730D02*
X2122052D01*
X2122440Y214033D01*
X2123367Y212427D01*
X2124677Y211117D01*
X2126283Y210190D01*
X2127730Y209802D01*
Y215480D01*
D02*
G37*
G36*
X1767198Y211980D02*
X1761520D01*
Y206302D01*
X1762967Y206690D01*
X1764573Y207617D01*
X1765883Y208927D01*
X1766810Y210533D01*
X1767198Y211980D01*
D02*
G37*
G36*
X1758980D02*
X1753302D01*
X1753690Y210533D01*
X1754617Y208927D01*
X1755927Y207617D01*
X1757533Y206690D01*
X1758980Y206302D01*
Y211980D01*
D02*
G37*
G36*
X1761270Y193948D02*
Y188270D01*
X1766948D01*
X1766560Y189717D01*
X1765633Y191323D01*
X1764323Y192633D01*
X1762717Y193560D01*
X1761270Y193948D01*
D02*
G37*
G36*
X1758730D02*
X1757283Y193560D01*
X1755677Y192633D01*
X1754367Y191323D01*
X1753440Y189717D01*
X1753052Y188270D01*
X1758730D01*
Y193948D01*
D02*
G37*
G36*
X1998000Y233097D02*
X1994079Y232711D01*
X1990309Y231567D01*
X1986835Y229710D01*
X1983790Y227211D01*
X1981290Y224165D01*
X1979433Y220691D01*
X1978289Y216921D01*
X1977903Y213000D01*
Y207000D01*
X1978289Y203079D01*
X1979433Y199309D01*
X1981290Y195835D01*
X1983790Y192789D01*
X1986835Y190290D01*
X1990309Y188433D01*
X1994079Y187289D01*
X1998000Y186903D01*
X2001921Y187289D01*
X2005691Y188433D01*
X2009165Y190290D01*
X2012211Y192789D01*
X2014710Y195835D01*
X2016567Y199309D01*
X2017711Y203079D01*
X2018097Y207000D01*
Y213000D01*
X2017711Y216921D01*
X2016567Y220691D01*
X2014710Y224165D01*
X2012211Y227211D01*
X2009165Y229710D01*
X2005691Y231567D01*
X2001921Y232711D01*
X1998000Y233097D01*
D02*
G37*
G36*
X873622Y195040D02*
X873570D01*
Y186270D01*
X882340D01*
Y186322D01*
X881656Y188875D01*
X880334Y191165D01*
X878465Y193034D01*
X876175Y194356D01*
X873622Y195040D01*
D02*
G37*
G36*
X389022D02*
X388970D01*
Y186270D01*
X397740D01*
Y186322D01*
X397056Y188875D01*
X395734Y191165D01*
X393865Y193034D01*
X391575Y194356D01*
X389022Y195040D01*
D02*
G37*
G36*
X386430D02*
X386378D01*
X383825Y194356D01*
X381535Y193034D01*
X379666Y191165D01*
X378344Y188875D01*
X377660Y186322D01*
Y186270D01*
X386430D01*
Y195040D01*
D02*
G37*
G36*
X871030D02*
X870978D01*
X868425Y194356D01*
X866135Y193034D01*
X864266Y191165D01*
X862944Y188875D01*
X862260Y186322D01*
Y186270D01*
X871030D01*
Y195040D01*
D02*
G37*
G36*
X1732106Y194500D02*
X1730394D01*
X1728741Y194057D01*
X1727259Y193201D01*
X1726049Y191991D01*
X1725193Y190509D01*
X1724750Y188856D01*
Y187144D01*
X1725193Y185491D01*
X1726049Y184009D01*
X1727259Y182799D01*
X1728741Y181943D01*
X1730394Y181500D01*
X1732106D01*
X1733759Y181943D01*
X1735241Y182799D01*
X1736451Y184009D01*
X1737307Y185491D01*
X1737750Y187144D01*
Y188856D01*
X1737307Y190509D01*
X1736451Y191991D01*
X1735241Y193201D01*
X1733759Y194057D01*
X1732106Y194500D01*
D02*
G37*
G36*
X1766948Y185730D02*
X1761270D01*
Y180052D01*
X1762717Y180440D01*
X1764323Y181367D01*
X1765633Y182677D01*
X1766560Y184283D01*
X1766948Y185730D01*
D02*
G37*
G36*
X1758730D02*
X1753052D01*
X1753440Y184283D01*
X1754367Y182677D01*
X1755677Y181367D01*
X1757283Y180440D01*
X1758730Y180052D01*
Y185730D01*
D02*
G37*
G36*
X1313356Y189000D02*
X1311644D01*
X1309991Y188557D01*
X1308509Y187701D01*
X1307299Y186491D01*
X1306443Y185009D01*
X1306000Y183356D01*
Y181644D01*
X1306443Y179991D01*
X1307299Y178509D01*
X1308509Y177299D01*
X1309991Y176443D01*
X1311644Y176000D01*
X1313356D01*
X1315009Y176443D01*
X1316491Y177299D01*
X1317701Y178509D01*
X1318557Y179991D01*
X1319000Y181644D01*
Y183356D01*
X1318557Y185009D01*
X1317701Y186491D01*
X1316491Y187701D01*
X1315009Y188557D01*
X1313356Y189000D01*
D02*
G37*
G36*
X898951Y194500D02*
X896449D01*
X894033Y193853D01*
X891867Y192602D01*
X890098Y190833D01*
X888847Y188667D01*
X888200Y186251D01*
Y183749D01*
X888847Y181333D01*
X890098Y179167D01*
X891867Y177398D01*
X894033Y176147D01*
X896449Y175500D01*
X898951D01*
X901367Y176147D01*
X903533Y177398D01*
X905302Y179167D01*
X906553Y181333D01*
X907200Y183749D01*
Y186251D01*
X906553Y188667D01*
X905302Y190833D01*
X903533Y192602D01*
X901367Y193853D01*
X898951Y194500D01*
D02*
G37*
G36*
X363551D02*
X361049D01*
X358633Y193853D01*
X356467Y192602D01*
X354698Y190833D01*
X353447Y188667D01*
X352800Y186251D01*
Y183749D01*
X353447Y181333D01*
X354698Y179167D01*
X356467Y177398D01*
X358633Y176147D01*
X361049Y175500D01*
X363551D01*
X365967Y176147D01*
X368133Y177398D01*
X369902Y179167D01*
X371153Y181333D01*
X371800Y183749D01*
Y186251D01*
X371153Y188667D01*
X369902Y190833D01*
X368133Y192602D01*
X365967Y193853D01*
X363551Y194500D01*
D02*
G37*
G36*
X882340Y183730D02*
X873570D01*
Y174960D01*
X873622D01*
X876175Y175644D01*
X878465Y176966D01*
X880334Y178835D01*
X881656Y181125D01*
X882340Y183678D01*
Y183730D01*
D02*
G37*
G36*
X871030D02*
X862260D01*
Y183678D01*
X862944Y181125D01*
X864266Y178835D01*
X866135Y176966D01*
X868425Y175644D01*
X870978Y174960D01*
X871030D01*
Y183730D01*
D02*
G37*
G36*
X397740D02*
X388970D01*
Y174960D01*
X389022D01*
X391575Y175644D01*
X393865Y176966D01*
X395734Y178835D01*
X397056Y181125D01*
X397740Y183678D01*
Y183730D01*
D02*
G37*
G36*
X386430D02*
X377660D01*
Y183678D01*
X378344Y181125D01*
X379666Y178835D01*
X381535Y176966D01*
X383825Y175644D01*
X386378Y174960D01*
X386430D01*
Y183730D01*
D02*
G37*
G36*
X1588817Y192750D02*
X1586183D01*
X1583640Y192069D01*
X1581360Y190752D01*
X1579498Y188890D01*
X1578181Y186610D01*
X1577500Y184067D01*
Y181434D01*
X1578181Y178890D01*
X1579498Y176610D01*
X1581360Y174748D01*
X1583640Y173431D01*
X1586183Y172750D01*
X1588817D01*
X1591360Y173431D01*
X1593640Y174748D01*
X1595502Y176610D01*
X1596819Y178890D01*
X1597500Y181434D01*
Y184067D01*
X1596819Y186610D01*
X1595502Y188890D01*
X1593640Y190752D01*
X1591360Y192069D01*
X1588817Y192750D01*
D02*
G37*
G36*
X1428816D02*
X1426183D01*
X1423639Y192069D01*
X1421359Y190752D01*
X1419497Y188890D01*
X1418181Y186610D01*
X1417499Y184067D01*
Y181434D01*
X1418181Y178890D01*
X1419497Y176610D01*
X1421359Y174748D01*
X1423639Y173431D01*
X1426183Y172750D01*
X1428816D01*
X1431359Y173431D01*
X1433639Y174748D01*
X1435501Y176610D01*
X1436817Y178890D01*
X1437499Y181434D01*
Y184067D01*
X1436817Y186610D01*
X1435501Y188890D01*
X1433639Y190752D01*
X1431359Y192069D01*
X1428816Y192750D01*
D02*
G37*
G36*
X1268816D02*
X1266182D01*
X1263639Y192069D01*
X1261359Y190752D01*
X1259497Y188890D01*
X1258180Y186610D01*
X1257499Y184067D01*
Y181434D01*
X1258180Y178890D01*
X1259497Y176610D01*
X1261359Y174748D01*
X1263639Y173431D01*
X1266182Y172750D01*
X1268816D01*
X1271359Y173431D01*
X1273639Y174748D01*
X1275501Y176610D01*
X1276817Y178890D01*
X1277499Y181434D01*
Y184067D01*
X1276817Y186610D01*
X1275501Y188890D01*
X1273639Y190752D01*
X1271359Y192069D01*
X1268816Y192750D01*
D02*
G37*
G36*
X1108817D02*
X1106183D01*
X1103640Y192069D01*
X1101360Y190752D01*
X1099498Y188890D01*
X1098182Y186610D01*
X1097500Y184067D01*
Y181434D01*
X1098182Y178890D01*
X1099498Y176610D01*
X1101360Y174748D01*
X1103640Y173431D01*
X1106183Y172750D01*
X1108817D01*
X1111360Y173431D01*
X1113640Y174748D01*
X1115502Y176610D01*
X1116818Y178890D01*
X1117500Y181434D01*
Y184067D01*
X1116818Y186610D01*
X1115502Y188890D01*
X1113640Y190752D01*
X1111360Y192069D01*
X1108817Y192750D01*
D02*
G37*
G36*
X33816D02*
X31184D01*
X28640Y192069D01*
X26360Y190752D01*
X24498Y188890D01*
X23182Y186610D01*
X22500Y184067D01*
Y181434D01*
X23182Y178890D01*
X24498Y176610D01*
X26360Y174748D01*
X28640Y173431D01*
X31184Y172750D01*
X33816D01*
X36360Y173431D01*
X38640Y174748D01*
X40502Y176610D01*
X41818Y178890D01*
X42500Y181434D01*
Y184067D01*
X41818Y186610D01*
X40502Y188890D01*
X38640Y190752D01*
X36360Y192069D01*
X33816Y192750D01*
D02*
G37*
G36*
X1523817Y192500D02*
X1521183D01*
X1518640Y191819D01*
X1516360Y190502D01*
X1514498Y188640D01*
X1513181Y186360D01*
X1512500Y183817D01*
Y181183D01*
X1513181Y178640D01*
X1514498Y176360D01*
X1516360Y174498D01*
X1518640Y173181D01*
X1521183Y172500D01*
X1523817D01*
X1526360Y173181D01*
X1528640Y174498D01*
X1530502Y176360D01*
X1531819Y178640D01*
X1532500Y181183D01*
Y183817D01*
X1531819Y186360D01*
X1530502Y188640D01*
X1528640Y190502D01*
X1526360Y191819D01*
X1523817Y192500D01*
D02*
G37*
G36*
X1363815D02*
X1361183D01*
X1358639Y191819D01*
X1356359Y190502D01*
X1354497Y188640D01*
X1353181Y186360D01*
X1352499Y183817D01*
Y181183D01*
X1353181Y178640D01*
X1354497Y176360D01*
X1356359Y174498D01*
X1358639Y173181D01*
X1361183Y172500D01*
X1363815D01*
X1366359Y173181D01*
X1368639Y174498D01*
X1370501Y176360D01*
X1371817Y178640D01*
X1372499Y181183D01*
Y183817D01*
X1371817Y186360D01*
X1370501Y188640D01*
X1368639Y190502D01*
X1366359Y191819D01*
X1363815Y192500D01*
D02*
G37*
G36*
X1203816D02*
X1201182D01*
X1198639Y191819D01*
X1196359Y190502D01*
X1194497Y188640D01*
X1193180Y186360D01*
X1192499Y183817D01*
Y181183D01*
X1193180Y178640D01*
X1194497Y176360D01*
X1196359Y174498D01*
X1198639Y173181D01*
X1201182Y172500D01*
X1203816D01*
X1206359Y173181D01*
X1208639Y174498D01*
X1210501Y176360D01*
X1211817Y178640D01*
X1212499Y181183D01*
Y183817D01*
X1211817Y186360D01*
X1210501Y188640D01*
X1208639Y190502D01*
X1206359Y191819D01*
X1203816Y192500D01*
D02*
G37*
G36*
X1043817D02*
X1041183D01*
X1038640Y191819D01*
X1036360Y190502D01*
X1034498Y188640D01*
X1033182Y186360D01*
X1032500Y183817D01*
Y181183D01*
X1033182Y178640D01*
X1034498Y176360D01*
X1036360Y174498D01*
X1038640Y173181D01*
X1041183Y172500D01*
X1043817D01*
X1046360Y173181D01*
X1048640Y174498D01*
X1050502Y176360D01*
X1051818Y178640D01*
X1052500Y181183D01*
Y183817D01*
X1051818Y186360D01*
X1050502Y188640D01*
X1048640Y190502D01*
X1046360Y191819D01*
X1043817Y192500D01*
D02*
G37*
G36*
X54106Y184000D02*
X52394D01*
X50741Y183557D01*
X49259Y182701D01*
X48049Y181491D01*
X47193Y180009D01*
X46750Y178356D01*
Y176644D01*
X47193Y174991D01*
X48049Y173509D01*
X49259Y172299D01*
X50741Y171443D01*
X52394Y171000D01*
X54106D01*
X55759Y171443D01*
X57241Y172299D01*
X58451Y173509D01*
X59307Y174991D01*
X59750Y176644D01*
Y178356D01*
X59307Y180009D01*
X58451Y181491D01*
X57241Y182701D01*
X55759Y183557D01*
X54106Y184000D01*
D02*
G37*
G36*
X1451251Y182200D02*
X1448749D01*
X1446333Y181553D01*
X1444167Y180302D01*
X1442398Y178533D01*
X1441147Y176367D01*
X1440500Y173951D01*
Y171449D01*
X1441147Y169033D01*
X1442398Y166867D01*
X1444167Y165098D01*
X1446333Y163847D01*
X1448749Y163200D01*
X1451251D01*
X1453667Y163847D01*
X1455833Y165098D01*
X1457602Y166867D01*
X1458853Y169033D01*
X1459500Y171449D01*
Y173951D01*
X1458853Y176367D01*
X1457602Y178533D01*
X1455833Y180302D01*
X1453667Y181553D01*
X1451251Y182200D01*
D02*
G37*
G36*
X1341251D02*
X1338749D01*
X1336333Y181553D01*
X1334167Y180302D01*
X1332398Y178533D01*
X1331147Y176367D01*
X1330500Y173951D01*
Y171449D01*
X1331147Y169033D01*
X1332398Y166867D01*
X1334167Y165098D01*
X1336333Y163847D01*
X1338749Y163200D01*
X1341251D01*
X1343667Y163847D01*
X1345833Y165098D01*
X1347602Y166867D01*
X1348853Y169033D01*
X1349500Y171449D01*
Y173951D01*
X1348853Y176367D01*
X1347602Y178533D01*
X1345833Y180302D01*
X1343667Y181553D01*
X1341251Y182200D01*
D02*
G37*
G36*
X1291251D02*
X1288749D01*
X1286333Y181553D01*
X1284167Y180302D01*
X1282398Y178533D01*
X1281147Y176367D01*
X1280500Y173951D01*
Y171449D01*
X1281147Y169033D01*
X1282398Y166867D01*
X1284167Y165098D01*
X1286333Y163847D01*
X1288749Y163200D01*
X1291251D01*
X1293667Y163847D01*
X1295833Y165098D01*
X1297602Y166867D01*
X1298853Y169033D01*
X1299500Y171449D01*
Y173951D01*
X1298853Y176367D01*
X1297602Y178533D01*
X1295833Y180302D01*
X1293667Y181553D01*
X1291251Y182200D01*
D02*
G37*
G36*
X1181251D02*
X1178749D01*
X1176333Y181553D01*
X1174167Y180302D01*
X1172398Y178533D01*
X1171147Y176367D01*
X1170500Y173951D01*
Y171449D01*
X1171147Y169033D01*
X1172398Y166867D01*
X1174167Y165098D01*
X1176333Y163847D01*
X1178749Y163200D01*
X1181251D01*
X1183667Y163847D01*
X1185833Y165098D01*
X1187602Y166867D01*
X1188853Y169033D01*
X1189500Y171449D01*
Y173951D01*
X1188853Y176367D01*
X1187602Y178533D01*
X1185833Y180302D01*
X1183667Y181553D01*
X1181251Y182200D01*
D02*
G37*
G36*
X1021251D02*
X1018749D01*
X1016333Y181553D01*
X1014167Y180302D01*
X1012398Y178533D01*
X1011147Y176367D01*
X1010500Y173951D01*
Y171449D01*
X1011147Y169033D01*
X1012398Y166867D01*
X1014167Y165098D01*
X1016333Y163847D01*
X1018749Y163200D01*
X1021251D01*
X1023667Y163847D01*
X1025833Y165098D01*
X1027602Y166867D01*
X1028853Y169033D01*
X1029500Y171449D01*
Y173951D01*
X1028853Y176367D01*
X1027602Y178533D01*
X1025833Y180302D01*
X1023667Y181553D01*
X1021251Y182200D01*
D02*
G37*
G36*
X173622Y170040D02*
X173570D01*
Y161270D01*
X182340D01*
Y161322D01*
X181656Y163875D01*
X180334Y166165D01*
X178465Y168034D01*
X176175Y169356D01*
X173622Y170040D01*
D02*
G37*
G36*
X83622D02*
X83570D01*
Y161270D01*
X92340D01*
Y161322D01*
X91656Y163875D01*
X90334Y166165D01*
X88465Y168034D01*
X86175Y169356D01*
X83622Y170040D01*
D02*
G37*
G36*
X171030D02*
X170978D01*
X168425Y169356D01*
X166135Y168034D01*
X164266Y166165D01*
X162944Y163875D01*
X162260Y161322D01*
Y161270D01*
X171030D01*
Y170040D01*
D02*
G37*
G36*
X81030D02*
X80978D01*
X78425Y169356D01*
X76135Y168034D01*
X74266Y166165D01*
X72944Y163875D01*
X72260Y161322D01*
Y161270D01*
X81030D01*
Y170040D01*
D02*
G37*
G36*
X1063856Y173000D02*
X1062144D01*
X1060491Y172557D01*
X1059009Y171701D01*
X1057799Y170491D01*
X1056943Y169009D01*
X1056500Y167356D01*
Y165644D01*
X1056943Y163991D01*
X1057799Y162509D01*
X1059009Y161299D01*
X1060491Y160443D01*
X1062144Y160000D01*
X1063856D01*
X1065509Y160443D01*
X1066991Y161299D01*
X1068201Y162509D01*
X1069057Y163991D01*
X1069500Y165644D01*
Y167356D01*
X1069057Y169009D01*
X1068201Y170491D01*
X1066991Y171701D01*
X1065509Y172557D01*
X1063856Y173000D01*
D02*
G37*
G36*
X1855106Y182000D02*
X1853394D01*
X1851741Y181557D01*
X1850259Y180701D01*
X1849049Y179491D01*
X1848193Y178009D01*
X1847750Y176356D01*
Y174644D01*
X1848193Y172991D01*
X1849049Y171509D01*
X1850259Y170299D01*
X1850508Y170155D01*
Y167845D01*
X1850259Y167701D01*
X1849049Y166491D01*
X1848193Y165009D01*
X1847750Y163356D01*
Y161644D01*
X1848193Y159991D01*
X1849049Y158509D01*
X1850259Y157299D01*
X1851227Y156740D01*
X1851420Y156014D01*
Y155236D01*
X1851227Y154510D01*
X1850259Y153951D01*
X1849049Y152741D01*
X1848193Y151259D01*
X1847750Y149606D01*
Y147894D01*
X1848193Y146241D01*
X1849049Y144759D01*
X1850259Y143549D01*
X1851741Y142693D01*
X1853394Y142250D01*
X1855106D01*
X1856759Y142693D01*
X1858241Y143549D01*
X1859451Y144759D01*
X1860307Y146241D01*
X1860750Y147894D01*
Y149606D01*
X1860307Y151259D01*
X1859451Y152741D01*
X1858241Y153951D01*
X1857273Y154510D01*
X1857080Y155236D01*
Y156014D01*
X1857273Y156740D01*
X1858241Y157299D01*
X1859451Y158509D01*
X1859750Y159026D01*
X1861750Y158490D01*
Y158394D01*
X1862193Y156741D01*
X1863049Y155259D01*
X1864259Y154049D01*
X1865741Y153193D01*
X1867394Y152750D01*
X1869106D01*
X1870759Y153193D01*
X1872241Y154049D01*
X1873451Y155259D01*
X1874307Y156741D01*
X1874750Y158394D01*
Y160106D01*
X1874307Y161759D01*
X1873451Y163241D01*
X1872241Y164451D01*
X1870759Y165307D01*
X1869106Y165750D01*
X1867394D01*
X1865741Y165307D01*
X1864259Y164451D01*
X1863049Y163241D01*
X1862750Y162724D01*
X1860750Y163260D01*
Y163356D01*
X1860307Y165009D01*
X1859451Y166491D01*
X1858241Y167701D01*
X1857992Y167845D01*
Y170155D01*
X1858241Y170299D01*
X1859451Y171509D01*
X1860307Y172991D01*
X1860750Y174644D01*
Y176356D01*
X1860307Y178009D01*
X1859451Y179491D01*
X1858241Y180701D01*
X1856759Y181557D01*
X1855106Y182000D01*
D02*
G37*
G36*
X973817Y172500D02*
X971183D01*
X968640Y171819D01*
X966360Y170502D01*
X964498Y168640D01*
X963182Y166360D01*
X962500Y163817D01*
Y161183D01*
X963182Y158640D01*
X964498Y156360D01*
X966360Y154498D01*
X968640Y153181D01*
X971183Y152500D01*
X973817D01*
X976360Y153181D01*
X978640Y154498D01*
X980502Y156360D01*
X981818Y158640D01*
X982500Y161183D01*
Y163817D01*
X981818Y166360D01*
X980502Y168640D01*
X978640Y170502D01*
X976360Y171819D01*
X973817Y172500D01*
D02*
G37*
G36*
X353816D02*
X351184D01*
X348640Y171819D01*
X346360Y170502D01*
X344498Y168640D01*
X343181Y166360D01*
X342500Y163817D01*
Y161183D01*
X343181Y158640D01*
X344498Y156360D01*
X346360Y154498D01*
X348640Y153181D01*
X351184Y152500D01*
X353816D01*
X356360Y153181D01*
X358640Y154498D01*
X360502Y156360D01*
X361819Y158640D01*
X362500Y161183D01*
Y163817D01*
X361819Y166360D01*
X360502Y168640D01*
X358640Y170502D01*
X356360Y171819D01*
X353816Y172500D01*
D02*
G37*
G36*
X288817D02*
X286183D01*
X283640Y171819D01*
X281360Y170502D01*
X279498Y168640D01*
X278181Y166360D01*
X277500Y163817D01*
Y161183D01*
X278181Y158640D01*
X279498Y156360D01*
X281360Y154498D01*
X283640Y153181D01*
X286183Y152500D01*
X288817D01*
X291360Y153181D01*
X293640Y154498D01*
X295502Y156360D01*
X296819Y158640D01*
X297500Y161183D01*
Y163817D01*
X296819Y166360D01*
X295502Y168640D01*
X293640Y170502D01*
X291360Y171819D01*
X288817Y172500D01*
D02*
G37*
G36*
X908817Y172250D02*
X906183D01*
X903640Y171569D01*
X901360Y170252D01*
X899498Y168390D01*
X898182Y166110D01*
X897500Y163567D01*
Y160933D01*
X898182Y158390D01*
X899498Y156110D01*
X901360Y154248D01*
X903640Y152931D01*
X906183Y152250D01*
X908817D01*
X911360Y152931D01*
X913640Y154248D01*
X915502Y156110D01*
X916818Y158390D01*
X917500Y160933D01*
Y163567D01*
X916818Y166110D01*
X915502Y168390D01*
X913640Y170252D01*
X911360Y171569D01*
X908817Y172250D01*
D02*
G37*
G36*
X198951Y169500D02*
X196449D01*
X194033Y168853D01*
X191867Y167602D01*
X190098Y165833D01*
X188848Y163667D01*
X188200Y161251D01*
Y158749D01*
X188848Y156333D01*
X190098Y154167D01*
X191867Y152398D01*
X194033Y151147D01*
X196449Y150500D01*
X198951D01*
X201367Y151147D01*
X203533Y152398D01*
X205302Y154167D01*
X206553Y156333D01*
X207200Y158749D01*
Y161251D01*
X206553Y163667D01*
X205302Y165833D01*
X203533Y167602D01*
X201367Y168853D01*
X198951Y169500D01*
D02*
G37*
G36*
X108951D02*
X106449D01*
X104033Y168853D01*
X101867Y167602D01*
X100098Y165833D01*
X98847Y163667D01*
X98200Y161251D01*
Y158749D01*
X98847Y156333D01*
X100098Y154167D01*
X101867Y152398D01*
X104033Y151147D01*
X106449Y150500D01*
X108951D01*
X111367Y151147D01*
X113533Y152398D01*
X115302Y154167D01*
X116552Y156333D01*
X117200Y158749D01*
Y161251D01*
X116552Y163667D01*
X115302Y165833D01*
X113533Y167602D01*
X111367Y168853D01*
X108951Y169500D01*
D02*
G37*
G36*
X182340Y158730D02*
X173570D01*
Y149960D01*
X173622D01*
X176175Y150644D01*
X178465Y151966D01*
X180334Y153835D01*
X181656Y156125D01*
X182340Y158678D01*
Y158730D01*
D02*
G37*
G36*
X171030D02*
X162260D01*
Y158678D01*
X162944Y156125D01*
X164266Y153835D01*
X166135Y151966D01*
X168425Y150644D01*
X170978Y149960D01*
X171030D01*
Y158730D01*
D02*
G37*
G36*
X92340D02*
X83570D01*
Y149960D01*
X83622D01*
X86175Y150644D01*
X88465Y151966D01*
X90334Y153835D01*
X91656Y156125D01*
X92340Y158678D01*
Y158730D01*
D02*
G37*
G36*
X81030D02*
X72260D01*
Y158678D01*
X72944Y156125D01*
X74266Y153835D01*
X76135Y151966D01*
X78425Y150644D01*
X80978Y149960D01*
X81030D01*
Y158730D01*
D02*
G37*
G36*
X1341322Y157340D02*
X1341270D01*
Y148570D01*
X1350040D01*
Y148622D01*
X1349356Y151175D01*
X1348034Y153465D01*
X1346165Y155334D01*
X1343875Y156656D01*
X1341322Y157340D01*
D02*
G37*
G36*
X1021322D02*
X1021270D01*
Y148570D01*
X1030040D01*
Y148622D01*
X1029356Y151175D01*
X1028034Y153465D01*
X1026165Y155334D01*
X1023875Y156656D01*
X1021322Y157340D01*
D02*
G37*
G36*
X1181322D02*
X1181270D01*
Y148570D01*
X1190040D01*
Y148622D01*
X1189356Y151175D01*
X1188034Y153465D01*
X1186165Y155334D01*
X1183875Y156656D01*
X1181322Y157340D01*
D02*
G37*
G36*
X1178730D02*
X1178678D01*
X1176125Y156656D01*
X1173835Y155334D01*
X1171966Y153465D01*
X1170644Y151175D01*
X1169960Y148622D01*
Y148570D01*
X1178730D01*
Y157340D01*
D02*
G37*
G36*
X1018730D02*
X1018678D01*
X1016125Y156656D01*
X1013835Y155334D01*
X1011966Y153465D01*
X1010644Y151175D01*
X1009960Y148622D01*
Y148570D01*
X1018730D01*
Y157340D01*
D02*
G37*
G36*
X1338730D02*
X1338678D01*
X1336125Y156656D01*
X1333835Y155334D01*
X1331966Y153465D01*
X1330644Y151175D01*
X1329960Y148622D01*
Y148570D01*
X1338730D01*
Y157340D01*
D02*
G37*
G36*
X1558356Y159000D02*
X1556644D01*
X1554991Y158557D01*
X1553509Y157701D01*
X1552299Y156491D01*
X1551443Y155009D01*
X1551000Y153356D01*
Y151644D01*
X1551443Y149991D01*
X1552299Y148509D01*
X1553509Y147299D01*
X1554991Y146443D01*
X1556644Y146000D01*
X1558356D01*
X1560009Y146443D01*
X1561491Y147299D01*
X1562701Y148509D01*
X1563557Y149991D01*
X1564000Y151644D01*
Y153356D01*
X1563557Y155009D01*
X1562701Y156491D01*
X1561491Y157701D01*
X1560009Y158557D01*
X1558356Y159000D01*
D02*
G37*
G36*
X1679606Y148250D02*
X1677894D01*
X1676241Y147807D01*
X1674759Y146951D01*
X1674159Y146351D01*
X1672875Y145951D01*
X1671591Y146351D01*
X1670991Y146951D01*
X1669509Y147807D01*
X1667856Y148250D01*
X1666144D01*
X1664491Y147807D01*
X1663009Y146951D01*
X1661799Y145741D01*
X1660943Y144259D01*
X1660500Y142606D01*
Y140894D01*
X1660943Y139241D01*
X1661799Y137759D01*
X1663009Y136549D01*
X1664491Y135693D01*
X1666144Y135250D01*
X1667856D01*
X1669509Y135693D01*
X1670991Y136549D01*
X1671391Y136949D01*
X1673477Y136874D01*
X1674142Y135367D01*
X1673832Y134774D01*
X1673549Y134491D01*
X1672693Y133009D01*
X1672250Y131356D01*
Y129644D01*
X1672693Y127991D01*
X1673549Y126509D01*
X1674759Y125299D01*
X1676241Y124443D01*
X1677894Y124000D01*
X1679606D01*
X1681259Y124443D01*
X1682741Y125299D01*
X1683951Y126509D01*
X1684807Y127991D01*
X1685250Y129644D01*
Y131356D01*
X1684807Y133009D01*
X1683951Y134491D01*
X1683668Y134774D01*
X1682962Y136125D01*
X1683668Y137476D01*
X1683951Y137759D01*
X1684807Y139241D01*
X1685250Y140894D01*
Y142606D01*
X1684807Y144259D01*
X1683951Y145741D01*
X1682741Y146951D01*
X1681259Y147807D01*
X1679606Y148250D01*
D02*
G37*
G36*
X2174106Y157500D02*
X2172394D01*
X2170741Y157057D01*
X2169259Y156201D01*
X2168049Y154991D01*
X2167193Y153509D01*
X2166750Y151856D01*
Y150144D01*
X2167193Y148491D01*
X2168049Y147009D01*
X2169259Y145799D01*
X2170741Y144943D01*
X2172394Y144500D01*
X2174106D01*
X2175759Y144943D01*
X2177241Y145799D01*
X2178451Y147009D01*
X2179307Y148491D01*
X2179750Y150144D01*
Y151856D01*
X2179307Y153509D01*
X2178451Y154991D01*
X2177241Y156201D01*
X2175759Y157057D01*
X2174106Y157500D01*
D02*
G37*
G36*
X2234856Y157250D02*
X2233144D01*
X2231491Y156807D01*
X2230009Y155951D01*
X2228799Y154741D01*
X2227943Y153259D01*
X2227500Y151606D01*
Y149894D01*
X2227943Y148241D01*
X2228799Y146759D01*
X2230009Y145549D01*
X2231491Y144693D01*
X2233144Y144250D01*
X2234856D01*
X2236509Y144693D01*
X2237991Y145549D01*
X2239201Y146759D01*
X2240057Y148241D01*
X2240500Y149894D01*
Y151606D01*
X2240057Y153259D01*
X2239201Y154741D01*
X2237991Y155951D01*
X2236509Y156807D01*
X2234856Y157250D01*
D02*
G37*
G36*
X1815856Y181750D02*
X1814144D01*
X1812491Y181307D01*
X1811009Y180451D01*
X1809799Y179241D01*
X1808943Y177759D01*
X1808500Y176106D01*
Y174394D01*
X1808943Y172741D01*
X1809799Y171259D01*
X1811009Y170049D01*
X1811042Y170030D01*
Y167720D01*
X1811009Y167701D01*
X1809799Y166491D01*
X1808943Y165009D01*
X1808500Y163356D01*
Y161644D01*
X1808943Y159991D01*
X1809799Y158509D01*
X1811009Y157299D01*
X1811475Y157030D01*
Y154720D01*
X1811009Y154451D01*
X1809799Y153241D01*
X1808943Y151759D01*
X1808500Y150106D01*
Y148394D01*
X1808943Y146741D01*
X1809799Y145259D01*
X1811009Y144049D01*
X1812491Y143193D01*
X1814144Y142750D01*
X1815856D01*
X1817509Y143193D01*
X1818991Y144049D01*
X1820201Y145259D01*
X1821057Y146741D01*
X1821500Y148394D01*
Y150106D01*
X1821057Y151759D01*
X1820201Y153241D01*
X1818991Y154451D01*
X1818525Y154720D01*
Y157030D01*
X1818991Y157299D01*
X1820201Y158509D01*
X1821057Y159991D01*
X1821500Y161644D01*
Y163356D01*
X1821057Y165009D01*
X1820201Y166491D01*
X1818991Y167701D01*
X1818958Y167720D01*
Y170030D01*
X1818991Y170049D01*
X1820201Y171259D01*
X1821057Y172741D01*
X1821500Y174394D01*
Y176106D01*
X1821057Y177759D01*
X1820201Y179241D01*
X1818991Y180451D01*
X1817509Y181307D01*
X1815856Y181750D01*
D02*
G37*
G36*
X1588817Y147500D02*
X1586183D01*
X1583640Y146819D01*
X1581360Y145502D01*
X1579498Y143640D01*
X1578355Y141660D01*
X1577329Y141568D01*
X1576238Y141834D01*
X1576057Y142509D01*
X1575201Y143991D01*
X1573991Y145201D01*
X1572509Y146057D01*
X1570856Y146500D01*
X1569144D01*
X1567491Y146057D01*
X1566009Y145201D01*
X1564799Y143991D01*
X1563943Y142509D01*
X1563500Y140856D01*
Y139144D01*
X1563943Y137491D01*
X1564799Y136009D01*
X1566009Y134799D01*
X1567491Y133943D01*
X1569144Y133500D01*
X1570856D01*
X1572509Y133943D01*
X1573991Y134799D01*
X1575201Y136009D01*
X1575500Y136526D01*
X1577140Y136245D01*
X1577535Y136052D01*
X1578181Y133640D01*
X1579498Y131360D01*
X1581360Y129498D01*
X1583640Y128181D01*
X1586183Y127500D01*
X1588817D01*
X1591360Y128181D01*
X1593640Y129498D01*
X1595502Y131360D01*
X1596819Y133640D01*
X1597500Y136184D01*
Y138816D01*
X1596819Y141360D01*
X1595502Y143640D01*
X1593640Y145502D01*
X1591360Y146819D01*
X1588817Y147500D01*
D02*
G37*
G36*
X2115856Y154190D02*
X2114144D01*
X2112491Y153747D01*
X2111009Y152891D01*
X2109799Y151681D01*
X2108943Y150199D01*
X2108500Y148546D01*
Y146834D01*
X2108943Y145181D01*
X2109799Y143699D01*
X2111009Y142489D01*
X2112491Y141633D01*
X2114144Y141190D01*
X2115856D01*
X2117509Y141633D01*
X2118991Y142489D01*
X2120201Y143699D01*
X2121057Y145181D01*
X2121500Y146834D01*
Y148546D01*
X2121057Y150199D01*
X2120201Y151681D01*
X2118991Y152891D01*
X2117509Y153747D01*
X2115856Y154190D01*
D02*
G37*
G36*
X949356Y202000D02*
X947644D01*
X945991Y201557D01*
X944509Y200701D01*
X943299Y199491D01*
X942443Y198009D01*
X942000Y196356D01*
Y194644D01*
X942443Y192991D01*
X943299Y191509D01*
X944509Y190299D01*
X944931Y190055D01*
Y163228D01*
X922522Y140819D01*
X322695D01*
X322451Y141241D01*
X321241Y142451D01*
X319759Y143307D01*
X318106Y143750D01*
X316394D01*
X314741Y143307D01*
X313259Y142451D01*
X312049Y141241D01*
X311193Y139759D01*
X310750Y138106D01*
Y136394D01*
X311193Y134741D01*
X312049Y133259D01*
X313259Y132049D01*
X314741Y131193D01*
X316394Y130750D01*
X318106D01*
X319759Y131193D01*
X321241Y132049D01*
X322451Y133259D01*
X322695Y133681D01*
X924000D01*
X925366Y133953D01*
X926523Y134727D01*
X951023Y159227D01*
X951797Y160384D01*
X952069Y161750D01*
Y190055D01*
X952491Y190299D01*
X953701Y191509D01*
X954557Y192991D01*
X955000Y194644D01*
Y196356D01*
X954557Y198009D01*
X953701Y199491D01*
X952491Y200701D01*
X951009Y201557D01*
X949356Y202000D01*
D02*
G37*
G36*
X1451251Y156800D02*
X1448749D01*
X1446333Y156153D01*
X1444167Y154902D01*
X1442398Y153133D01*
X1441147Y150967D01*
X1440500Y148551D01*
Y146049D01*
X1441147Y143633D01*
X1442398Y141467D01*
X1444167Y139698D01*
X1446333Y138448D01*
X1448749Y137800D01*
X1451251D01*
X1453667Y138448D01*
X1455833Y139698D01*
X1457602Y141467D01*
X1458853Y143633D01*
X1459500Y146049D01*
Y148551D01*
X1458853Y150967D01*
X1457602Y153133D01*
X1455833Y154902D01*
X1453667Y156153D01*
X1451251Y156800D01*
D02*
G37*
G36*
X1291251D02*
X1288749D01*
X1286333Y156153D01*
X1284167Y154902D01*
X1282398Y153133D01*
X1281147Y150967D01*
X1280500Y148551D01*
Y146049D01*
X1281147Y143633D01*
X1282398Y141467D01*
X1284167Y139698D01*
X1286333Y138448D01*
X1288749Y137800D01*
X1291251D01*
X1293667Y138448D01*
X1295833Y139698D01*
X1297602Y141467D01*
X1298853Y143633D01*
X1299500Y146049D01*
Y148551D01*
X1298853Y150967D01*
X1297602Y153133D01*
X1295833Y154902D01*
X1293667Y156153D01*
X1291251Y156800D01*
D02*
G37*
G36*
X1350040Y146030D02*
X1341270D01*
Y137260D01*
X1341322D01*
X1343875Y137944D01*
X1346165Y139266D01*
X1348034Y141135D01*
X1349356Y143425D01*
X1350040Y145978D01*
Y146030D01*
D02*
G37*
G36*
X1338730D02*
X1329960D01*
Y145978D01*
X1330644Y143425D01*
X1331966Y141135D01*
X1333835Y139266D01*
X1336125Y137944D01*
X1338678Y137260D01*
X1338730D01*
Y146030D01*
D02*
G37*
G36*
X1190040D02*
X1181270D01*
Y137260D01*
X1181322D01*
X1183875Y137944D01*
X1186165Y139266D01*
X1188034Y141135D01*
X1189356Y143425D01*
X1190040Y145978D01*
Y146030D01*
D02*
G37*
G36*
X1178730D02*
X1169960D01*
Y145978D01*
X1170644Y143425D01*
X1171966Y141135D01*
X1173835Y139266D01*
X1176125Y137944D01*
X1178678Y137260D01*
X1178730D01*
Y146030D01*
D02*
G37*
G36*
X1030040D02*
X1021270D01*
Y137260D01*
X1021322D01*
X1023875Y137944D01*
X1026165Y139266D01*
X1028034Y141135D01*
X1029356Y143425D01*
X1030040Y145978D01*
Y146030D01*
D02*
G37*
G36*
X1018730D02*
X1009960D01*
Y145978D01*
X1010644Y143425D01*
X1011966Y141135D01*
X1013835Y139266D01*
X1016125Y137944D01*
X1018678Y137260D01*
X1018730D01*
Y146030D01*
D02*
G37*
G36*
X1735856Y149000D02*
X1734144D01*
X1732491Y148557D01*
X1731009Y147701D01*
X1729799Y146491D01*
X1728943Y145009D01*
X1728500Y143356D01*
Y141644D01*
X1728943Y139991D01*
X1729799Y138509D01*
X1731009Y137299D01*
X1732491Y136443D01*
X1734144Y136000D01*
X1735856D01*
X1737509Y136443D01*
X1738991Y137299D01*
X1740201Y138509D01*
X1741057Y139991D01*
X1741500Y141644D01*
Y143356D01*
X1741057Y145009D01*
X1740201Y146491D01*
X1738991Y147701D01*
X1737509Y148557D01*
X1735856Y149000D01*
D02*
G37*
G36*
X1616606Y144250D02*
X1614894D01*
X1613241Y143807D01*
X1611759Y142951D01*
X1610549Y141741D01*
X1609693Y140259D01*
X1609250Y138606D01*
Y136894D01*
X1609693Y135241D01*
X1610549Y133759D01*
X1611759Y132549D01*
X1613241Y131693D01*
X1614894Y131250D01*
X1616606D01*
X1618259Y131693D01*
X1619741Y132549D01*
X1620951Y133759D01*
X1621807Y135241D01*
X1622250Y136894D01*
Y138606D01*
X1621807Y140259D01*
X1620951Y141741D01*
X1619741Y142951D01*
X1618259Y143807D01*
X1616606Y144250D01*
D02*
G37*
G36*
X1546606Y141250D02*
X1544894D01*
X1543241Y140807D01*
X1541759Y139951D01*
X1540549Y138741D01*
X1539693Y137259D01*
X1539250Y135606D01*
Y133894D01*
X1539693Y132241D01*
X1540549Y130759D01*
X1541759Y129549D01*
X1543241Y128693D01*
X1544894Y128250D01*
X1546606D01*
X1548259Y128693D01*
X1549741Y129549D01*
X1550951Y130759D01*
X1551807Y132241D01*
X1552250Y133894D01*
Y135606D01*
X1551807Y137259D01*
X1550951Y138741D01*
X1549741Y139951D01*
X1548259Y140807D01*
X1546606Y141250D01*
D02*
G37*
G36*
X1523817Y147500D02*
X1521183D01*
X1518640Y146819D01*
X1516360Y145502D01*
X1514498Y143640D01*
X1513181Y141360D01*
X1512500Y138816D01*
Y136184D01*
X1513181Y133640D01*
X1514498Y131360D01*
X1514566Y131292D01*
X1492643Y109369D01*
X1491920Y108287D01*
X1491666Y107012D01*
Y-16919D01*
X1491009Y-17299D01*
X1489799Y-18509D01*
X1488943Y-19991D01*
X1488500Y-21644D01*
Y-23356D01*
X1488943Y-25009D01*
X1489799Y-26491D01*
X1491009Y-27701D01*
X1492491Y-28557D01*
X1494144Y-29000D01*
X1495856D01*
X1497509Y-28557D01*
X1498991Y-27701D01*
X1500201Y-26491D01*
X1501057Y-25009D01*
X1501500Y-23356D01*
Y-21644D01*
X1501057Y-19991D01*
X1500201Y-18509D01*
X1498991Y-17299D01*
X1498334Y-16919D01*
Y105631D01*
X1520411Y127707D01*
X1521183Y127500D01*
X1523817D01*
X1526360Y128181D01*
X1528640Y129498D01*
X1530502Y131360D01*
X1531819Y133640D01*
X1532500Y136184D01*
Y138816D01*
X1531819Y141360D01*
X1530502Y143640D01*
X1528640Y145502D01*
X1526360Y146819D01*
X1523817Y147500D01*
D02*
G37*
G36*
X1428816D02*
X1426183D01*
X1423639Y146819D01*
X1421359Y145502D01*
X1419497Y143640D01*
X1418181Y141360D01*
X1417499Y138816D01*
Y136184D01*
X1418181Y133640D01*
X1419497Y131360D01*
X1421359Y129498D01*
X1423639Y128181D01*
X1426183Y127500D01*
X1428816D01*
X1431359Y128181D01*
X1433639Y129498D01*
X1435501Y131360D01*
X1436817Y133640D01*
X1437499Y136184D01*
Y138816D01*
X1436817Y141360D01*
X1435501Y143640D01*
X1433639Y145502D01*
X1431359Y146819D01*
X1428816Y147500D01*
D02*
G37*
G36*
X1268816D02*
X1266182D01*
X1263639Y146819D01*
X1261359Y145502D01*
X1259497Y143640D01*
X1258180Y141360D01*
X1257499Y138816D01*
Y136184D01*
X1258180Y133640D01*
X1259497Y131360D01*
X1261359Y129498D01*
X1263639Y128181D01*
X1266182Y127500D01*
X1268816D01*
X1271359Y128181D01*
X1273639Y129498D01*
X1275501Y131360D01*
X1276817Y133640D01*
X1277499Y136184D01*
Y138816D01*
X1276817Y141360D01*
X1275501Y143640D01*
X1273639Y145502D01*
X1271359Y146819D01*
X1268816Y147500D01*
D02*
G37*
G36*
X1203816D02*
X1201182D01*
X1198639Y146819D01*
X1196359Y145502D01*
X1194497Y143640D01*
X1193180Y141360D01*
X1192499Y138816D01*
Y136184D01*
X1193180Y133640D01*
X1193453Y133169D01*
X1167643Y107359D01*
X1166920Y106277D01*
X1166666Y105001D01*
Y-11729D01*
X1166009Y-12109D01*
X1164799Y-13319D01*
X1163943Y-14801D01*
X1163500Y-16454D01*
Y-18166D01*
X1163943Y-19819D01*
X1164799Y-21301D01*
X1166009Y-22511D01*
X1167491Y-23367D01*
X1169144Y-23810D01*
X1170856D01*
X1172509Y-23367D01*
X1173991Y-22511D01*
X1175201Y-21301D01*
X1176057Y-19819D01*
X1176500Y-18166D01*
Y-16454D01*
X1176057Y-14801D01*
X1175201Y-13319D01*
X1173991Y-12109D01*
X1173334Y-11729D01*
Y103620D01*
X1198168Y128454D01*
X1198639Y128181D01*
X1201182Y127500D01*
X1203816D01*
X1206359Y128181D01*
X1208639Y129498D01*
X1210501Y131360D01*
X1211817Y133640D01*
X1212499Y136184D01*
Y138816D01*
X1211817Y141360D01*
X1210501Y143640D01*
X1208639Y145502D01*
X1206359Y146819D01*
X1203816Y147500D01*
D02*
G37*
G36*
X1108817D02*
X1106183D01*
X1103640Y146819D01*
X1101360Y145502D01*
X1099498Y143640D01*
X1098182Y141360D01*
X1097500Y138816D01*
Y136184D01*
X1098182Y133640D01*
X1099498Y131360D01*
X1101360Y129498D01*
X1103640Y128181D01*
X1106183Y127500D01*
X1108817D01*
X1111360Y128181D01*
X1113640Y129498D01*
X1115502Y131360D01*
X1116818Y133640D01*
X1117500Y136184D01*
Y138816D01*
X1116818Y141360D01*
X1115502Y143640D01*
X1113640Y145502D01*
X1111360Y146819D01*
X1108817Y147500D01*
D02*
G37*
G36*
X1043817D02*
X1041183D01*
X1038640Y146819D01*
X1036360Y145502D01*
X1034498Y143640D01*
X1033182Y141360D01*
X1032500Y138816D01*
Y136184D01*
X1033182Y133640D01*
X1034498Y131360D01*
X1036360Y129498D01*
X1038640Y128181D01*
X1041183Y127500D01*
X1043817D01*
X1046360Y128181D01*
X1048640Y129498D01*
X1050502Y131360D01*
X1051818Y133640D01*
X1052500Y136184D01*
Y138816D01*
X1051818Y141360D01*
X1050502Y143640D01*
X1048640Y145502D01*
X1046360Y146819D01*
X1043817Y147500D01*
D02*
G37*
G36*
X33816D02*
X31184D01*
X28640Y146819D01*
X26360Y145502D01*
X24498Y143640D01*
X23182Y141360D01*
X22500Y138816D01*
Y136184D01*
X23182Y133640D01*
X24498Y131360D01*
X26360Y129498D01*
X28640Y128181D01*
X31184Y127500D01*
X33816D01*
X36360Y128181D01*
X38640Y129498D01*
X40502Y131360D01*
X41818Y133640D01*
X42500Y136184D01*
Y138816D01*
X41818Y141360D01*
X40502Y143640D01*
X38640Y145502D01*
X36360Y146819D01*
X33816Y147500D01*
D02*
G37*
G36*
X1966317Y145000D02*
X1963683D01*
X1961140Y144319D01*
X1958860Y143002D01*
X1956998Y141140D01*
X1955681Y138860D01*
X1955000Y136316D01*
Y133684D01*
X1955681Y131140D01*
X1956998Y128860D01*
X1958860Y126998D01*
X1961140Y125681D01*
X1963683Y125000D01*
X1966317D01*
X1968860Y125681D01*
X1971140Y126998D01*
X1973002Y128860D01*
X1974319Y131140D01*
X1975000Y133684D01*
Y136316D01*
X1974319Y138860D01*
X1973002Y141140D01*
X1971140Y143002D01*
X1968860Y144319D01*
X1966317Y145000D01*
D02*
G37*
G36*
X1942317D02*
X1939684D01*
X1937141Y144319D01*
X1934861Y143002D01*
X1932999Y141140D01*
X1931682Y138860D01*
X1931001Y136316D01*
Y133684D01*
X1931682Y131140D01*
X1932999Y128860D01*
X1934861Y126998D01*
X1937141Y125681D01*
X1939684Y125000D01*
X1942317D01*
X1944861Y125681D01*
X1947141Y126998D01*
X1949003Y128860D01*
X1950319Y131140D01*
X1951001Y133684D01*
Y136316D01*
X1950319Y138860D01*
X1949003Y141140D01*
X1947141Y143002D01*
X1944861Y144319D01*
X1942317Y145000D01*
D02*
G37*
G36*
X1916317D02*
X1913683D01*
X1911140Y144319D01*
X1908860Y143002D01*
X1906998Y141140D01*
X1905681Y138860D01*
X1905000Y136316D01*
Y133684D01*
X1905681Y131140D01*
X1906998Y128860D01*
X1908860Y126998D01*
X1911140Y125681D01*
X1913683Y125000D01*
X1916317D01*
X1918860Y125681D01*
X1921140Y126998D01*
X1923002Y128860D01*
X1924319Y131140D01*
X1925000Y133684D01*
Y136316D01*
X1924319Y138860D01*
X1923002Y141140D01*
X1921140Y143002D01*
X1918860Y144319D01*
X1916317Y145000D01*
D02*
G37*
G36*
X1647606Y148250D02*
X1645894D01*
X1644241Y147807D01*
X1642759Y146951D01*
X1641549Y145741D01*
X1640693Y144259D01*
X1640250Y142606D01*
Y140894D01*
X1640693Y139241D01*
X1641133Y138478D01*
X1639856Y136750D01*
X1638144D01*
X1636491Y136307D01*
X1635009Y135451D01*
X1633799Y134241D01*
X1632943Y132759D01*
X1632500Y131106D01*
Y129394D01*
X1632943Y127741D01*
X1633799Y126259D01*
X1635009Y125049D01*
X1636491Y124193D01*
X1638144Y123750D01*
X1639856D01*
X1641509Y124193D01*
X1642991Y125049D01*
X1644201Y126259D01*
X1645057Y127741D01*
X1645500Y129394D01*
Y131106D01*
X1645057Y132759D01*
X1644617Y133522D01*
X1645894Y135250D01*
X1647606D01*
X1648855Y135585D01*
X1649705Y134794D01*
X1650127Y133944D01*
X1649443Y132759D01*
X1649000Y131106D01*
Y129394D01*
X1649443Y127741D01*
X1650299Y126259D01*
X1651509Y125049D01*
X1652991Y124193D01*
X1654644Y123750D01*
X1656356D01*
X1658009Y124193D01*
X1659491Y125049D01*
X1660701Y126259D01*
X1661557Y127741D01*
X1662000Y129394D01*
Y131106D01*
X1661557Y132759D01*
X1660701Y134241D01*
X1659491Y135451D01*
X1658009Y136307D01*
X1656356Y136750D01*
X1654644D01*
X1653395Y136415D01*
X1652545Y137206D01*
X1652123Y138056D01*
X1652807Y139241D01*
X1653250Y140894D01*
Y142606D01*
X1652807Y144259D01*
X1651951Y145741D01*
X1650741Y146951D01*
X1649259Y147807D01*
X1647606Y148250D01*
D02*
G37*
G36*
X1722606Y133000D02*
X1720894D01*
X1719241Y132557D01*
X1717759Y131701D01*
X1716549Y130491D01*
X1715693Y129009D01*
X1715250Y127356D01*
Y125644D01*
X1715693Y123991D01*
X1716549Y122509D01*
X1717759Y121299D01*
X1719241Y120443D01*
X1720894Y120000D01*
X1722606D01*
X1724259Y120443D01*
X1725741Y121299D01*
X1726951Y122509D01*
X1727807Y123991D01*
X1728250Y125644D01*
Y127356D01*
X1727807Y129009D01*
X1726951Y130491D01*
X1725741Y131701D01*
X1724259Y132557D01*
X1722606Y133000D01*
D02*
G37*
G36*
X135856Y146500D02*
X134144D01*
X132491Y146057D01*
X131009Y145201D01*
X129799Y143991D01*
X128943Y142509D01*
X128500Y140856D01*
Y139144D01*
X128943Y137491D01*
X129799Y136009D01*
X131009Y134799D01*
X132114Y134161D01*
X132177Y132840D01*
X131947Y132031D01*
X130509Y131201D01*
X129299Y129991D01*
X128443Y128509D01*
X128000Y126856D01*
Y125144D01*
X128443Y123491D01*
X129299Y122009D01*
X130509Y120799D01*
X131991Y119943D01*
X133644Y119500D01*
X135356D01*
X137009Y119943D01*
X138491Y120799D01*
X139701Y122009D01*
X140557Y123491D01*
X141000Y125144D01*
Y126856D01*
X140557Y128509D01*
X139701Y129991D01*
X138491Y131201D01*
X137386Y131839D01*
X137323Y133160D01*
X137553Y133968D01*
X138991Y134799D01*
X140201Y136009D01*
X141057Y137491D01*
X141500Y139144D01*
Y140856D01*
X141057Y142509D01*
X140201Y143991D01*
X138991Y145201D01*
X137509Y146057D01*
X135856Y146500D01*
D02*
G37*
G36*
X1887645Y131000D02*
X1885933D01*
X1884280Y130557D01*
X1882798Y129701D01*
X1881588Y128491D01*
X1880732Y127009D01*
X1880289Y125356D01*
Y123644D01*
X1880732Y121991D01*
X1881588Y120509D01*
X1882798Y119299D01*
X1884280Y118443D01*
X1885933Y118000D01*
X1887645D01*
X1889298Y118443D01*
X1890780Y119299D01*
X1891990Y120509D01*
X1892846Y121991D01*
X1893289Y123644D01*
Y125356D01*
X1892846Y127009D01*
X1891990Y128491D01*
X1890780Y129701D01*
X1889298Y130557D01*
X1887645Y131000D01*
D02*
G37*
G36*
X1856270Y121948D02*
Y116270D01*
X1861948D01*
X1861560Y117717D01*
X1860633Y119323D01*
X1859323Y120633D01*
X1857717Y121560D01*
X1856270Y121948D01*
D02*
G37*
G36*
X1853730D02*
X1852283Y121560D01*
X1850677Y120633D01*
X1849367Y119323D01*
X1848440Y117717D01*
X1848052Y116270D01*
X1853730D01*
Y121948D01*
D02*
G37*
G36*
X1755020Y120198D02*
Y114520D01*
X1760698D01*
X1760310Y115967D01*
X1759383Y117573D01*
X1758073Y118883D01*
X1756467Y119810D01*
X1755020Y120198D01*
D02*
G37*
G36*
X1752480D02*
X1751033Y119810D01*
X1749427Y118883D01*
X1748117Y117573D01*
X1747190Y115967D01*
X1746802Y114520D01*
X1752480D01*
Y120198D01*
D02*
G37*
G36*
X1063622Y120040D02*
X1063570D01*
Y111270D01*
X1072340D01*
Y111322D01*
X1071656Y113875D01*
X1070334Y116165D01*
X1068465Y118034D01*
X1066175Y119356D01*
X1063622Y120040D01*
D02*
G37*
G36*
X1061030D02*
X1060978D01*
X1058425Y119356D01*
X1056135Y118034D01*
X1054266Y116165D01*
X1052944Y113875D01*
X1052260Y111322D01*
Y111270D01*
X1061030D01*
Y120040D01*
D02*
G37*
G36*
X1543622D02*
X1543570D01*
Y111270D01*
X1552340D01*
Y111322D01*
X1551656Y113875D01*
X1550334Y116165D01*
X1548465Y118034D01*
X1546175Y119356D01*
X1543622Y120040D01*
D02*
G37*
G36*
X1541030D02*
X1540978D01*
X1538425Y119356D01*
X1536135Y118034D01*
X1534266Y116165D01*
X1532944Y113875D01*
X1532260Y111322D01*
Y111270D01*
X1541030D01*
Y120040D01*
D02*
G37*
G36*
X1223621Y120039D02*
X1223569D01*
Y111269D01*
X1232339D01*
Y111321D01*
X1231655Y113874D01*
X1230333Y116164D01*
X1228464Y118033D01*
X1226174Y119355D01*
X1223621Y120039D01*
D02*
G37*
G36*
X1221029D02*
X1220977D01*
X1218424Y119355D01*
X1216134Y118033D01*
X1214265Y116164D01*
X1212943Y113874D01*
X1212259Y111321D01*
Y111269D01*
X1221029D01*
Y120039D01*
D02*
G37*
G36*
X1861948Y113730D02*
X1856270D01*
Y108052D01*
X1857717Y108440D01*
X1859323Y109367D01*
X1860633Y110677D01*
X1861560Y112283D01*
X1861948Y113730D01*
D02*
G37*
G36*
X1853730D02*
X1848052D01*
X1848440Y112283D01*
X1849367Y110677D01*
X1850677Y109367D01*
X1852283Y108440D01*
X1853730Y108052D01*
Y113730D01*
D02*
G37*
G36*
X1760698Y111980D02*
X1755020D01*
Y106302D01*
X1756467Y106690D01*
X1758073Y107617D01*
X1759383Y108927D01*
X1760310Y110533D01*
X1760698Y111980D01*
D02*
G37*
G36*
X1752480D02*
X1746802D01*
X1747190Y110533D01*
X1748117Y108927D01*
X1749427Y107617D01*
X1751033Y106690D01*
X1752480Y106302D01*
Y111980D01*
D02*
G37*
G36*
X1898856Y117000D02*
X1897144D01*
X1895491Y116557D01*
X1894009Y115701D01*
X1892799Y114491D01*
X1891943Y113009D01*
X1891500Y111356D01*
Y109644D01*
X1891943Y107991D01*
X1892799Y106509D01*
X1894009Y105299D01*
X1895491Y104443D01*
X1897144Y104000D01*
X1898856D01*
X1900509Y104443D01*
X1901991Y105299D01*
X1903201Y106509D01*
X1904057Y107991D01*
X1904500Y109644D01*
Y111356D01*
X1904057Y113009D01*
X1903201Y114491D01*
X1901991Y115701D01*
X1900509Y116557D01*
X1898856Y117000D01*
D02*
G37*
G36*
X1473356Y116500D02*
X1471644D01*
X1469991Y116057D01*
X1468509Y115201D01*
X1467299Y113991D01*
X1466443Y112509D01*
X1466000Y110856D01*
Y109144D01*
X1466443Y107491D01*
X1467299Y106009D01*
X1468509Y104799D01*
X1469991Y103943D01*
X1471644Y103500D01*
X1473356D01*
X1475009Y103943D01*
X1476491Y104799D01*
X1477701Y106009D01*
X1478557Y107491D01*
X1479000Y109144D01*
Y110856D01*
X1478557Y112509D01*
X1477701Y113991D01*
X1476491Y115201D01*
X1475009Y116057D01*
X1473356Y116500D01*
D02*
G37*
G36*
X1568951Y119500D02*
X1566449D01*
X1564033Y118853D01*
X1561867Y117602D01*
X1560098Y115833D01*
X1558847Y113667D01*
X1558200Y111251D01*
Y108749D01*
X1558847Y106333D01*
X1560098Y104167D01*
X1561867Y102398D01*
X1564033Y101147D01*
X1566449Y100500D01*
X1568951D01*
X1571367Y101147D01*
X1573533Y102398D01*
X1575302Y104167D01*
X1576552Y106333D01*
X1577200Y108749D01*
Y111251D01*
X1576552Y113667D01*
X1575302Y115833D01*
X1573533Y117602D01*
X1571367Y118853D01*
X1568951Y119500D01*
D02*
G37*
G36*
X1088951D02*
X1086449D01*
X1084033Y118853D01*
X1081867Y117602D01*
X1080098Y115833D01*
X1078847Y113667D01*
X1078200Y111251D01*
Y108749D01*
X1078847Y106333D01*
X1080098Y104167D01*
X1081867Y102398D01*
X1084033Y101147D01*
X1086449Y100500D01*
X1088951D01*
X1091367Y101147D01*
X1093533Y102398D01*
X1095302Y104167D01*
X1096553Y106333D01*
X1097200Y108749D01*
Y111251D01*
X1096553Y113667D01*
X1095302Y115833D01*
X1093533Y117602D01*
X1091367Y118853D01*
X1088951Y119500D01*
D02*
G37*
G36*
X1363815Y147500D02*
X1361183D01*
X1358639Y146819D01*
X1356359Y145502D01*
X1354497Y143640D01*
X1353181Y141360D01*
X1352499Y138816D01*
Y136184D01*
X1353181Y133640D01*
X1354497Y131360D01*
X1356359Y129498D01*
X1358639Y128181D01*
X1361183Y127500D01*
X1363815D01*
X1366359Y128181D01*
X1366830Y128454D01*
X1372949Y122335D01*
X1374031Y121612D01*
X1375307Y121358D01*
X1378173D01*
X1378436Y119358D01*
X1378424Y119355D01*
X1376134Y118033D01*
X1374265Y116164D01*
X1372943Y113874D01*
X1372259Y111321D01*
Y111269D01*
X1382299D01*
Y109999D01*
X1383569D01*
Y99959D01*
X1383621D01*
X1386174Y100643D01*
X1388464Y101965D01*
X1390333Y103834D01*
X1390373Y103903D01*
X1392373Y103367D01*
Y86632D01*
X1390373Y86096D01*
X1390333Y86165D01*
X1388464Y88034D01*
X1386174Y89356D01*
X1383621Y90040D01*
X1383569D01*
Y80000D01*
Y69960D01*
X1383621D01*
X1386174Y70644D01*
X1388464Y71966D01*
X1390333Y73835D01*
X1390877Y74778D01*
X1390896Y74785D01*
X1393146Y74708D01*
X1393349Y74404D01*
X1404860Y62892D01*
X1405942Y62170D01*
X1407218Y61916D01*
X1428419D01*
X1428799Y61259D01*
X1430009Y60049D01*
X1431491Y59193D01*
X1433144Y58750D01*
X1434856D01*
X1436509Y59193D01*
X1437991Y60049D01*
X1439201Y61259D01*
X1440057Y62741D01*
X1440500Y64394D01*
Y66106D01*
X1440057Y67759D01*
X1439201Y69241D01*
X1437991Y70451D01*
X1436509Y71307D01*
X1434856Y71750D01*
X1433144D01*
X1431491Y71307D01*
X1430009Y70451D01*
X1428799Y69241D01*
X1428419Y68584D01*
X1410040D01*
X1409994Y68709D01*
X1411247Y71115D01*
X1411366Y71147D01*
X1413532Y72398D01*
X1415301Y74167D01*
X1416552Y76333D01*
X1417199Y78749D01*
Y81251D01*
X1416552Y83667D01*
X1415301Y85833D01*
X1413532Y87602D01*
X1411366Y88853D01*
X1408950Y89500D01*
X1406448D01*
X1404032Y88853D01*
X1401866Y87602D01*
X1401041Y86777D01*
X1399041Y87605D01*
Y102394D01*
X1401041Y103222D01*
X1401866Y102397D01*
X1404032Y101146D01*
X1406448Y100499D01*
X1408950D01*
X1411366Y101146D01*
X1413532Y102397D01*
X1415301Y104166D01*
X1416552Y106332D01*
X1417199Y108748D01*
Y111250D01*
X1416552Y113666D01*
X1415301Y115832D01*
X1413532Y117601D01*
X1411366Y118852D01*
X1408950Y119499D01*
X1406448D01*
X1404032Y118852D01*
X1401866Y117601D01*
X1400097Y115832D01*
X1399758Y115245D01*
X1399527Y115099D01*
X1397284Y114960D01*
X1385194Y127050D01*
X1384113Y127773D01*
X1382837Y128026D01*
X1376688D01*
X1371545Y133169D01*
X1371817Y133640D01*
X1372499Y136184D01*
Y138816D01*
X1371817Y141360D01*
X1370501Y143640D01*
X1368639Y145502D01*
X1366359Y146819D01*
X1363815Y147500D01*
D02*
G37*
G36*
X1248950Y119499D02*
X1246448D01*
X1244032Y118852D01*
X1241866Y117601D01*
X1240097Y115832D01*
X1238846Y113666D01*
X1238199Y111250D01*
Y108748D01*
X1238846Y106332D01*
X1240097Y104166D01*
X1241866Y102397D01*
X1244032Y101146D01*
X1246448Y100499D01*
X1248950D01*
X1251366Y101146D01*
X1253532Y102397D01*
X1255301Y104166D01*
X1256552Y106332D01*
X1257199Y108748D01*
Y111250D01*
X1256552Y113666D01*
X1255301Y115832D01*
X1253532Y117601D01*
X1251366Y118852D01*
X1248950Y119499D01*
D02*
G37*
G36*
X1552340Y108730D02*
X1543570D01*
Y99960D01*
X1543622D01*
X1546175Y100644D01*
X1548465Y101966D01*
X1550334Y103835D01*
X1551656Y106125D01*
X1552340Y108678D01*
Y108730D01*
D02*
G37*
G36*
X1541030D02*
X1532260D01*
Y108678D01*
X1532944Y106125D01*
X1534266Y103835D01*
X1536135Y101966D01*
X1538425Y100644D01*
X1540978Y99960D01*
X1541030D01*
Y108730D01*
D02*
G37*
G36*
X1072340Y108730D02*
X1063570D01*
Y99960D01*
X1063622D01*
X1066175Y100644D01*
X1068465Y101966D01*
X1070334Y103835D01*
X1071656Y106125D01*
X1072340Y108678D01*
Y108730D01*
D02*
G37*
G36*
X1061030D02*
X1052260D01*
Y108678D01*
X1052944Y106125D01*
X1054266Y103835D01*
X1056135Y101966D01*
X1058425Y100644D01*
X1060978Y99960D01*
X1061030D01*
Y108730D01*
D02*
G37*
G36*
X1381029Y108729D02*
X1372259D01*
Y108677D01*
X1372943Y106124D01*
X1374265Y103834D01*
X1376134Y101965D01*
X1378424Y100643D01*
X1380977Y99959D01*
X1381029D01*
Y108729D01*
D02*
G37*
G36*
X1232339Y108729D02*
X1223569D01*
Y99959D01*
X1223621D01*
X1226174Y100643D01*
X1228464Y101965D01*
X1230333Y103834D01*
X1231655Y106124D01*
X1232339Y108677D01*
Y108729D01*
D02*
G37*
G36*
X1221029D02*
X1212259D01*
Y108677D01*
X1212943Y106124D01*
X1214265Y103834D01*
X1216134Y101965D01*
X1218424Y100643D01*
X1220977Y99959D01*
X1221029D01*
Y108729D01*
D02*
G37*
G36*
X10106Y112250D02*
X8394D01*
X6741Y111807D01*
X5259Y110951D01*
X4049Y109741D01*
X3193Y108259D01*
X2750Y106606D01*
Y104894D01*
X3193Y103241D01*
X4049Y101759D01*
X5259Y100549D01*
X6741Y99693D01*
X8394Y99250D01*
X10106D01*
X11759Y99693D01*
X13241Y100549D01*
X14451Y101759D01*
X15307Y103241D01*
X15750Y104894D01*
Y106606D01*
X15307Y108259D01*
X14451Y109741D01*
X13241Y110951D01*
X11759Y111807D01*
X10106Y112250D01*
D02*
G37*
G36*
X1646606Y110000D02*
X1644894D01*
X1643241Y109557D01*
X1641759Y108701D01*
X1640549Y107491D01*
X1639693Y106009D01*
X1639250Y104356D01*
Y102644D01*
X1639693Y100991D01*
X1640549Y99509D01*
X1641759Y98299D01*
X1643241Y97443D01*
X1644894Y97000D01*
X1646606D01*
X1648259Y97443D01*
X1649741Y98299D01*
X1650951Y99509D01*
X1651807Y100991D01*
X1652250Y102644D01*
Y104356D01*
X1651807Y106009D01*
X1650951Y107491D01*
X1649741Y108701D01*
X1648259Y109557D01*
X1646606Y110000D01*
D02*
G37*
G36*
X1527856Y97000D02*
X1526144D01*
X1524491Y96557D01*
X1523009Y95701D01*
X1522726Y95418D01*
X1521375Y94712D01*
X1520024Y95418D01*
X1519741Y95701D01*
X1518259Y96557D01*
X1516606Y97000D01*
X1514894D01*
X1513241Y96557D01*
X1511759Y95701D01*
X1510549Y94491D01*
X1509693Y93009D01*
X1509250Y91356D01*
Y89644D01*
X1509693Y87991D01*
X1510549Y86509D01*
X1511759Y85299D01*
X1513241Y84443D01*
X1514894Y84000D01*
X1516606D01*
X1518259Y84443D01*
X1519741Y85299D01*
X1520024Y85582D01*
X1521375Y86288D01*
X1522726Y85582D01*
X1523009Y85299D01*
X1524491Y84443D01*
X1526144Y84000D01*
X1527856D01*
X1529509Y84443D01*
X1530991Y85299D01*
X1532201Y86509D01*
X1533057Y87991D01*
X1533500Y89644D01*
Y91356D01*
X1533057Y93009D01*
X1532201Y94491D01*
X1530991Y95701D01*
X1529509Y96557D01*
X1527856Y97000D01*
D02*
G37*
G36*
X1977856Y107500D02*
X1976144D01*
X1974491Y107057D01*
X1973009Y106201D01*
X1971799Y104991D01*
X1970943Y103509D01*
X1970500Y101856D01*
Y100144D01*
X1970943Y98491D01*
X1971799Y97009D01*
X1973009Y95799D01*
X1974491Y94943D01*
X1976144Y94500D01*
X1977856D01*
X1979509Y94943D01*
X1980991Y95799D01*
X1982201Y97009D01*
X1983057Y98491D01*
X1983500Y100144D01*
Y101856D01*
X1983057Y103509D01*
X1982201Y104991D01*
X1980991Y106201D01*
X1979509Y107057D01*
X1977856Y107500D01*
D02*
G37*
G36*
X33816Y112750D02*
X31184D01*
X28640Y112069D01*
X26360Y110752D01*
X24498Y108890D01*
X23182Y106610D01*
X22500Y104066D01*
Y101433D01*
X23182Y98890D01*
X24498Y96610D01*
X26360Y94748D01*
X28640Y93432D01*
X31184Y92750D01*
X33816D01*
X36360Y93432D01*
X38640Y94748D01*
X40502Y96610D01*
X41818Y98890D01*
X42500Y101433D01*
Y104066D01*
X41818Y106610D01*
X40502Y108890D01*
X38640Y110752D01*
X36360Y112069D01*
X33816Y112750D01*
D02*
G37*
G36*
X1600856Y101500D02*
X1599144D01*
X1597491Y101057D01*
X1596009Y100201D01*
X1594799Y98991D01*
X1593943Y97509D01*
X1593500Y95856D01*
Y94144D01*
X1593943Y92491D01*
X1594799Y91009D01*
X1596009Y89799D01*
X1597491Y88943D01*
X1599144Y88500D01*
X1600856D01*
X1602509Y88943D01*
X1603991Y89799D01*
X1605201Y91009D01*
X1606057Y92491D01*
X1606500Y94144D01*
Y95856D01*
X1606057Y97509D01*
X1605201Y98991D01*
X1603991Y100201D01*
X1602509Y101057D01*
X1600856Y101500D01*
D02*
G37*
G36*
X217356Y101000D02*
X215644D01*
X213991Y100557D01*
X212509Y99701D01*
X211299Y98491D01*
X210443Y97009D01*
X210000Y95356D01*
Y93644D01*
X210443Y91991D01*
X211299Y90509D01*
X212509Y89299D01*
X213991Y88443D01*
X215644Y88000D01*
X217356D01*
X219009Y88443D01*
X220491Y89299D01*
X221701Y90509D01*
X222557Y91991D01*
X223000Y93644D01*
Y95356D01*
X222557Y97009D01*
X221701Y98491D01*
X220491Y99701D01*
X219009Y100557D01*
X217356Y101000D01*
D02*
G37*
G36*
X1762770Y91698D02*
Y86020D01*
X1768448D01*
X1768060Y87467D01*
X1767133Y89073D01*
X1765823Y90383D01*
X1764217Y91310D01*
X1762770Y91698D01*
D02*
G37*
G36*
X1760230D02*
X1758783Y91310D01*
X1757177Y90383D01*
X1755867Y89073D01*
X1754940Y87467D01*
X1754552Y86020D01*
X1760230D01*
Y91698D01*
D02*
G37*
G36*
X173622Y90040D02*
X173570D01*
Y81270D01*
X182340D01*
Y81322D01*
X181656Y83875D01*
X180334Y86165D01*
X178465Y88034D01*
X176175Y89356D01*
X173622Y90040D01*
D02*
G37*
G36*
X83622D02*
X83570D01*
Y81270D01*
X92340D01*
Y81322D01*
X91656Y83875D01*
X90334Y86165D01*
X88465Y88034D01*
X86175Y89356D01*
X83622Y90040D01*
D02*
G37*
G36*
X171030D02*
X170978D01*
X168425Y89356D01*
X166135Y88034D01*
X164266Y86165D01*
X162944Y83875D01*
X162260Y81322D01*
Y81270D01*
X171030D01*
Y90040D01*
D02*
G37*
G36*
X81030D02*
X80978D01*
X78425Y89356D01*
X76135Y88034D01*
X74266Y86165D01*
X72944Y83875D01*
X72260Y81322D01*
Y81270D01*
X81030D01*
Y90040D01*
D02*
G37*
G36*
X1223621D02*
X1223569D01*
Y81270D01*
X1232339D01*
Y81322D01*
X1231655Y83875D01*
X1230333Y86165D01*
X1228464Y88034D01*
X1226174Y89356D01*
X1223621Y90040D01*
D02*
G37*
G36*
X1221029D02*
X1220977D01*
X1218424Y89356D01*
X1216134Y88034D01*
X1214265Y86165D01*
X1212943Y83875D01*
X1212259Y81322D01*
Y81270D01*
X1221029D01*
Y90040D01*
D02*
G37*
G36*
X1063622D02*
X1063570D01*
Y81270D01*
X1072340D01*
Y81322D01*
X1071656Y83875D01*
X1070334Y86165D01*
X1068465Y88034D01*
X1066175Y89356D01*
X1063622Y90040D01*
D02*
G37*
G36*
X1061030D02*
X1060978D01*
X1058425Y89356D01*
X1056135Y88034D01*
X1054266Y86165D01*
X1052944Y83875D01*
X1052260Y81322D01*
Y81270D01*
X1061030D01*
Y90040D01*
D02*
G37*
G36*
X1768448Y83480D02*
X1762770D01*
Y77802D01*
X1764217Y78190D01*
X1765823Y79117D01*
X1767133Y80427D01*
X1768060Y82033D01*
X1768448Y83480D01*
D02*
G37*
G36*
X1760230D02*
X1754552D01*
X1754940Y82033D01*
X1755867Y80427D01*
X1757177Y79117D01*
X1758783Y78190D01*
X1760230Y77802D01*
Y83480D01*
D02*
G37*
G36*
X1622606Y87750D02*
X1620894D01*
X1619241Y87307D01*
X1617759Y86451D01*
X1616549Y85241D01*
X1615693Y83759D01*
X1615250Y82106D01*
Y80394D01*
X1615693Y78741D01*
X1616549Y77259D01*
X1617759Y76049D01*
X1619241Y75193D01*
X1620894Y74750D01*
X1622606D01*
X1624259Y75193D01*
X1625741Y76049D01*
X1626951Y77259D01*
X1627807Y78741D01*
X1628250Y80394D01*
Y82106D01*
X1627807Y83759D01*
X1626951Y85241D01*
X1625741Y86451D01*
X1624259Y87307D01*
X1622606Y87750D01*
D02*
G37*
G36*
X1248950Y89500D02*
X1246448D01*
X1244032Y88853D01*
X1241866Y87602D01*
X1240097Y85833D01*
X1238846Y83667D01*
X1238199Y81251D01*
Y78749D01*
X1238846Y76333D01*
X1240097Y74167D01*
X1241866Y72398D01*
X1244032Y71147D01*
X1246448Y70500D01*
X1248950D01*
X1251366Y71147D01*
X1253532Y72398D01*
X1255301Y74167D01*
X1256552Y76333D01*
X1257199Y78749D01*
Y81251D01*
X1256552Y83667D01*
X1255301Y85833D01*
X1253532Y87602D01*
X1251366Y88853D01*
X1248950Y89500D01*
D02*
G37*
G36*
X1088951D02*
X1086449D01*
X1084033Y88853D01*
X1081867Y87602D01*
X1080098Y85833D01*
X1078847Y83667D01*
X1078200Y81251D01*
Y78749D01*
X1078847Y76333D01*
X1080098Y74167D01*
X1081867Y72398D01*
X1084033Y71147D01*
X1086449Y70500D01*
X1088951D01*
X1091367Y71147D01*
X1093533Y72398D01*
X1095302Y74167D01*
X1096553Y76333D01*
X1097200Y78749D01*
Y81251D01*
X1096553Y83667D01*
X1095302Y85833D01*
X1093533Y87602D01*
X1091367Y88853D01*
X1088951Y89500D01*
D02*
G37*
G36*
X198951D02*
X196449D01*
X194033Y88853D01*
X191867Y87602D01*
X190098Y85833D01*
X188848Y83667D01*
X188200Y81251D01*
Y78749D01*
X188848Y76333D01*
X190098Y74167D01*
X191867Y72398D01*
X194033Y71147D01*
X196449Y70500D01*
X198951D01*
X201367Y71147D01*
X203533Y72398D01*
X205302Y74167D01*
X206553Y76333D01*
X207200Y78749D01*
Y81251D01*
X206553Y83667D01*
X205302Y85833D01*
X203533Y87602D01*
X201367Y88853D01*
X198951Y89500D01*
D02*
G37*
G36*
X1342518Y112000D02*
X1337482D01*
X1332507Y111212D01*
X1327716Y109656D01*
X1323228Y107369D01*
X1319153Y104408D01*
X1315592Y100847D01*
X1312631Y96772D01*
X1310344Y92284D01*
X1308788Y87493D01*
X1308000Y82519D01*
Y77481D01*
X1308788Y72507D01*
X1310344Y67716D01*
X1312631Y63228D01*
X1315592Y59153D01*
X1319153Y55592D01*
X1323228Y52631D01*
X1327716Y50344D01*
X1332507Y48788D01*
X1337482Y48000D01*
X1342518D01*
X1347493Y48788D01*
X1352284Y50344D01*
X1356772Y52631D01*
X1360847Y55592D01*
X1364408Y59153D01*
X1367369Y63228D01*
X1369656Y67716D01*
X1371212Y72507D01*
X1371537Y74560D01*
X1373623Y74946D01*
X1374265Y73835D01*
X1376134Y71966D01*
X1378424Y70644D01*
X1380977Y69960D01*
X1381029D01*
Y80000D01*
Y90040D01*
X1380977D01*
X1378424Y89356D01*
X1376134Y88034D01*
X1374265Y86165D01*
X1373623Y85053D01*
X1371537Y85440D01*
X1371212Y87493D01*
X1369656Y92284D01*
X1367369Y96772D01*
X1364408Y100847D01*
X1360847Y104408D01*
X1356772Y107369D01*
X1352284Y109656D01*
X1347493Y111212D01*
X1342518Y112000D01*
D02*
G37*
G36*
X1232339Y78730D02*
X1223569D01*
Y69960D01*
X1223621D01*
X1226174Y70644D01*
X1228464Y71966D01*
X1230333Y73835D01*
X1231655Y76125D01*
X1232339Y78678D01*
Y78730D01*
D02*
G37*
G36*
X1221029D02*
X1212259D01*
Y78678D01*
X1212943Y76125D01*
X1214265Y73835D01*
X1216134Y71966D01*
X1218424Y70644D01*
X1220977Y69960D01*
X1221029D01*
Y78730D01*
D02*
G37*
G36*
X1072340Y78730D02*
X1063570D01*
Y69960D01*
X1063622D01*
X1066175Y70644D01*
X1068465Y71966D01*
X1070334Y73835D01*
X1071656Y76125D01*
X1072340Y78678D01*
Y78730D01*
D02*
G37*
G36*
X1061030D02*
X1052260D01*
Y78678D01*
X1052944Y76125D01*
X1054266Y73835D01*
X1056135Y71966D01*
X1058425Y70644D01*
X1060978Y69960D01*
X1061030D01*
Y78730D01*
D02*
G37*
G36*
X182340Y78730D02*
X173570D01*
Y69960D01*
X173622D01*
X176175Y70644D01*
X178465Y71966D01*
X180334Y73835D01*
X181656Y76125D01*
X182340Y78678D01*
Y78730D01*
D02*
G37*
G36*
X171030D02*
X162260D01*
Y78678D01*
X162944Y76125D01*
X164266Y73835D01*
X166135Y71966D01*
X168425Y70644D01*
X170978Y69960D01*
X171030D01*
Y78730D01*
D02*
G37*
G36*
X-11980Y67198D02*
Y61520D01*
X-6302D01*
X-6690Y62967D01*
X-7617Y64573D01*
X-8927Y65883D01*
X-10533Y66810D01*
X-11980Y67198D01*
D02*
G37*
G36*
X-14520D02*
X-15967Y66810D01*
X-17573Y65883D01*
X-18883Y64573D01*
X-19810Y62967D01*
X-20198Y61520D01*
X-14520D01*
Y67198D01*
D02*
G37*
G36*
X1756106Y69500D02*
X1754394D01*
X1752741Y69057D01*
X1751259Y68201D01*
X1750049Y66991D01*
X1749193Y65509D01*
X1748750Y63856D01*
Y62144D01*
X1749193Y60491D01*
X1750049Y59009D01*
X1751259Y57799D01*
X1752741Y56943D01*
X1754394Y56500D01*
X1756106D01*
X1757759Y56943D01*
X1759241Y57799D01*
X1760451Y59009D01*
X1761307Y60491D01*
X1761750Y62144D01*
Y63856D01*
X1761307Y65509D01*
X1760451Y66991D01*
X1759241Y68201D01*
X1757759Y69057D01*
X1756106Y69500D01*
D02*
G37*
G36*
X-6302Y58980D02*
X-11980D01*
Y53302D01*
X-10533Y53690D01*
X-8927Y54617D01*
X-7617Y55927D01*
X-6690Y57533D01*
X-6302Y58980D01*
D02*
G37*
G36*
X-14520D02*
X-20198D01*
X-19810Y57533D01*
X-18883Y55927D01*
X-17573Y54617D01*
X-15967Y53690D01*
X-14520Y53302D01*
Y58980D01*
D02*
G37*
G36*
X2138622Y60040D02*
X2138570D01*
Y51270D01*
X2147340D01*
Y51322D01*
X2146656Y53875D01*
X2145334Y56165D01*
X2143465Y58034D01*
X2141175Y59356D01*
X2138622Y60040D01*
D02*
G37*
G36*
X2136030D02*
X2135978D01*
X2133425Y59356D01*
X2131135Y58034D01*
X2129266Y56165D01*
X2127944Y53875D01*
X2127260Y51322D01*
Y51270D01*
X2136030D01*
Y60040D01*
D02*
G37*
G36*
X1063622D02*
X1063570D01*
Y51270D01*
X1072340D01*
Y51322D01*
X1071656Y53875D01*
X1070334Y56165D01*
X1068465Y58034D01*
X1066175Y59356D01*
X1063622Y60040D01*
D02*
G37*
G36*
X1061030D02*
X1060978D01*
X1058425Y59356D01*
X1056135Y58034D01*
X1054266Y56165D01*
X1052944Y53875D01*
X1052260Y51322D01*
Y51270D01*
X1061030D01*
Y60040D01*
D02*
G37*
G36*
X2198622D02*
X2198570D01*
Y51270D01*
X2207340D01*
Y51322D01*
X2206656Y53875D01*
X2205334Y56165D01*
X2203465Y58034D01*
X2201175Y59356D01*
X2198622Y60040D01*
D02*
G37*
G36*
X2196030D02*
X2195978D01*
X2193425Y59356D01*
X2191135Y58034D01*
X2189266Y56165D01*
X2187944Y53875D01*
X2187260Y51322D01*
Y51270D01*
X2196030D01*
Y60040D01*
D02*
G37*
G36*
X1543622D02*
X1543570D01*
Y51270D01*
X1552340D01*
Y51322D01*
X1551656Y53875D01*
X1550334Y56165D01*
X1548465Y58034D01*
X1546175Y59356D01*
X1543622Y60040D01*
D02*
G37*
G36*
X1541030D02*
X1540978D01*
X1538425Y59356D01*
X1536135Y58034D01*
X1534266Y56165D01*
X1532944Y53875D01*
X1532260Y51322D01*
Y51270D01*
X1541030D01*
Y60040D01*
D02*
G37*
G36*
X1383621Y60039D02*
X1383569D01*
Y51269D01*
X1392339D01*
Y51321D01*
X1391655Y53874D01*
X1390333Y56164D01*
X1388464Y58033D01*
X1386174Y59355D01*
X1383621Y60039D01*
D02*
G37*
G36*
X1381029D02*
X1380977D01*
X1378424Y59355D01*
X1376134Y58033D01*
X1374265Y56164D01*
X1372943Y53874D01*
X1372259Y51321D01*
Y51269D01*
X1381029D01*
Y60039D01*
D02*
G37*
G36*
X1223621D02*
X1223569D01*
Y51269D01*
X1232339D01*
Y51321D01*
X1231655Y53874D01*
X1230333Y56164D01*
X1228464Y58033D01*
X1226174Y59355D01*
X1223621Y60039D01*
D02*
G37*
G36*
X1221029D02*
X1220977D01*
X1218424Y59355D01*
X1216134Y58033D01*
X1214265Y56164D01*
X1212943Y53874D01*
X1212259Y51321D01*
Y51269D01*
X1221029D01*
Y60039D01*
D02*
G37*
G36*
X457519Y112000D02*
X452481D01*
X447507Y111212D01*
X442716Y109656D01*
X438228Y107369D01*
X434153Y104408D01*
X430592Y100847D01*
X427631Y96772D01*
X425344Y92284D01*
X423788Y87493D01*
X423000Y82519D01*
Y77481D01*
X423788Y72507D01*
X425344Y67716D01*
X427631Y63228D01*
X430592Y59153D01*
X434153Y55592D01*
X438228Y52631D01*
X442716Y50344D01*
X447507Y48788D01*
X452481Y48000D01*
X457519D01*
X462493Y48788D01*
X467284Y50344D01*
X471772Y52631D01*
X475847Y55592D01*
X479408Y59153D01*
X482369Y63228D01*
X484656Y67716D01*
X486212Y72507D01*
X487000Y77481D01*
Y82519D01*
X486212Y87493D01*
X484656Y92284D01*
X482369Y96772D01*
X479408Y100847D01*
X475847Y104408D01*
X471772Y107369D01*
X467284Y109656D01*
X462493Y111212D01*
X457519Y112000D01*
D02*
G37*
G36*
X-31184Y67500D02*
X-33816D01*
X-36360Y66818D01*
X-38640Y65502D01*
X-40502Y63640D01*
X-41818Y61360D01*
X-42500Y58816D01*
Y56184D01*
X-41818Y53640D01*
X-40502Y51360D01*
X-38640Y49498D01*
X-36360Y48182D01*
X-33816Y47500D01*
X-31184D01*
X-28640Y48182D01*
X-26360Y49498D01*
X-24498Y51360D01*
X-23182Y53640D01*
X-22500Y56184D01*
Y58816D01*
X-23182Y61360D01*
X-24498Y63640D01*
X-26360Y65502D01*
X-28640Y66818D01*
X-31184Y67500D01*
D02*
G37*
G36*
X1479856Y58250D02*
X1478144D01*
X1476491Y57807D01*
X1475009Y56951D01*
X1473799Y55741D01*
X1472943Y54259D01*
X1472500Y52606D01*
Y50894D01*
X1472943Y49241D01*
X1473799Y47759D01*
X1475009Y46549D01*
X1476491Y45693D01*
X1478144Y45250D01*
X1479856D01*
X1481509Y45693D01*
X1482991Y46549D01*
X1484201Y47759D01*
X1485057Y49241D01*
X1485500Y50894D01*
Y52606D01*
X1485057Y54259D01*
X1484201Y55741D01*
X1482991Y56951D01*
X1481509Y57807D01*
X1479856Y58250D01*
D02*
G37*
G36*
X290856Y56500D02*
X289144D01*
X287491Y56057D01*
X286009Y55201D01*
X284799Y53991D01*
X283943Y52509D01*
X283500Y50856D01*
Y49144D01*
X283943Y47491D01*
X284799Y46009D01*
X286009Y44799D01*
X287491Y43943D01*
X289144Y43500D01*
X290856D01*
X292509Y43943D01*
X293991Y44799D01*
X295201Y46009D01*
X296057Y47491D01*
X296500Y49144D01*
Y50856D01*
X296057Y52509D01*
X295201Y53991D01*
X293991Y55201D01*
X292509Y56057D01*
X290856Y56500D01*
D02*
G37*
G36*
X245856D02*
X244144D01*
X242491Y56057D01*
X241009Y55201D01*
X239799Y53991D01*
X238943Y52509D01*
X238500Y50856D01*
Y49144D01*
X238943Y47491D01*
X239799Y46009D01*
X241009Y44799D01*
X242491Y43943D01*
X244144Y43500D01*
X245856D01*
X247509Y43943D01*
X248991Y44799D01*
X250201Y46009D01*
X251057Y47491D01*
X251500Y49144D01*
Y50856D01*
X251057Y52509D01*
X250201Y53991D01*
X248991Y55201D01*
X247509Y56057D01*
X245856Y56500D01*
D02*
G37*
G36*
X1818356Y55750D02*
X1816644D01*
X1814991Y55307D01*
X1813509Y54451D01*
X1812299Y53241D01*
X1811443Y51759D01*
X1811000Y50106D01*
Y48394D01*
X1811443Y46741D01*
X1812299Y45259D01*
X1813509Y44049D01*
X1814991Y43193D01*
X1816644Y42750D01*
X1818356D01*
X1820009Y43193D01*
X1821491Y44049D01*
X1822701Y45259D01*
X1823557Y46741D01*
X1824000Y48394D01*
Y50106D01*
X1823557Y51759D01*
X1822701Y53241D01*
X1821491Y54451D01*
X1820009Y55307D01*
X1818356Y55750D01*
D02*
G37*
G36*
X2223951Y59500D02*
X2221449D01*
X2219033Y58853D01*
X2216867Y57602D01*
X2215098Y55833D01*
X2213847Y53667D01*
X2213200Y51251D01*
Y48749D01*
X2213847Y46333D01*
X2215098Y44167D01*
X2216867Y42398D01*
X2219033Y41147D01*
X2221449Y40500D01*
X2223951D01*
X2226367Y41147D01*
X2228533Y42398D01*
X2230302Y44167D01*
X2231553Y46333D01*
X2232200Y48749D01*
Y51251D01*
X2231553Y53667D01*
X2230302Y55833D01*
X2228533Y57602D01*
X2226367Y58853D01*
X2223951Y59500D01*
D02*
G37*
G36*
X2163951D02*
X2161449D01*
X2159033Y58853D01*
X2156867Y57602D01*
X2155098Y55833D01*
X2153848Y53667D01*
X2153200Y51251D01*
Y48749D01*
X2153848Y46333D01*
X2155098Y44167D01*
X2156867Y42398D01*
X2159033Y41147D01*
X2161449Y40500D01*
X2163951D01*
X2166367Y41147D01*
X2168533Y42398D01*
X2170302Y44167D01*
X2171553Y46333D01*
X2172200Y48749D01*
Y51251D01*
X2171553Y53667D01*
X2170302Y55833D01*
X2168533Y57602D01*
X2166367Y58853D01*
X2163951Y59500D01*
D02*
G37*
G36*
X1568951D02*
X1566449D01*
X1564033Y58853D01*
X1561867Y57602D01*
X1560098Y55833D01*
X1558847Y53667D01*
X1558200Y51251D01*
Y48749D01*
X1558847Y46333D01*
X1560098Y44167D01*
X1561867Y42398D01*
X1564033Y41147D01*
X1566449Y40500D01*
X1568951D01*
X1571367Y41147D01*
X1573533Y42398D01*
X1575302Y44167D01*
X1576552Y46333D01*
X1577200Y48749D01*
Y51251D01*
X1576552Y53667D01*
X1575302Y55833D01*
X1573533Y57602D01*
X1571367Y58853D01*
X1568951Y59500D01*
D02*
G37*
G36*
X1088951D02*
X1086449D01*
X1084033Y58853D01*
X1081867Y57602D01*
X1080098Y55833D01*
X1078847Y53667D01*
X1078200Y51251D01*
Y48749D01*
X1078847Y46333D01*
X1080098Y44167D01*
X1081867Y42398D01*
X1084033Y41147D01*
X1086449Y40500D01*
X1088951D01*
X1091367Y41147D01*
X1093533Y42398D01*
X1095302Y44167D01*
X1096553Y46333D01*
X1097200Y48749D01*
Y51251D01*
X1096553Y53667D01*
X1095302Y55833D01*
X1093533Y57602D01*
X1091367Y58853D01*
X1088951Y59500D01*
D02*
G37*
G36*
X913109Y119500D02*
X906891D01*
X900750Y118527D01*
X894837Y116606D01*
X889297Y113783D01*
X884268Y110129D01*
X879871Y105732D01*
X876217Y100702D01*
X873394Y95163D01*
X871473Y89250D01*
X870500Y83109D01*
Y76891D01*
X871473Y70750D01*
X873394Y64837D01*
X876217Y59297D01*
X879871Y54268D01*
X884268Y49871D01*
X889297Y46217D01*
X894837Y43394D01*
X900750Y41473D01*
X906891Y40500D01*
X913109D01*
X919250Y41473D01*
X925163Y43394D01*
X930703Y46217D01*
X935732Y49871D01*
X940129Y54268D01*
X943783Y59297D01*
X946606Y64837D01*
X948527Y70750D01*
X949500Y76891D01*
Y83109D01*
X948527Y89250D01*
X946606Y95163D01*
X943783Y100702D01*
X940129Y105732D01*
X935732Y110129D01*
X930703Y113783D01*
X925163Y116606D01*
X919250Y118527D01*
X913109Y119500D01*
D02*
G37*
G36*
X713109D02*
X706891D01*
X700750Y118527D01*
X694837Y116606D01*
X689297Y113783D01*
X684268Y110129D01*
X679871Y105732D01*
X676217Y100702D01*
X673394Y95163D01*
X671473Y89250D01*
X670500Y83109D01*
Y76891D01*
X671473Y70750D01*
X673394Y64837D01*
X676217Y59297D01*
X679871Y54268D01*
X684268Y49871D01*
X689297Y46217D01*
X694837Y43394D01*
X700750Y41473D01*
X706891Y40500D01*
X713109D01*
X719250Y41473D01*
X725163Y43394D01*
X730703Y46217D01*
X735732Y49871D01*
X740129Y54268D01*
X743783Y59297D01*
X746606Y64837D01*
X748527Y70750D01*
X749500Y76891D01*
Y83109D01*
X748527Y89250D01*
X746606Y95163D01*
X743783Y100702D01*
X740129Y105732D01*
X735732Y110129D01*
X730703Y113783D01*
X725163Y116606D01*
X719250Y118527D01*
X713109Y119500D01*
D02*
G37*
G36*
X558109D02*
X551891D01*
X545750Y118527D01*
X539837Y116606D01*
X534297Y113783D01*
X529268Y110129D01*
X524871Y105732D01*
X521217Y100702D01*
X518394Y95163D01*
X516473Y89250D01*
X515500Y83109D01*
Y76891D01*
X516473Y70750D01*
X518394Y64837D01*
X521217Y59297D01*
X524871Y54268D01*
X529268Y49871D01*
X534297Y46217D01*
X539837Y43394D01*
X545750Y41473D01*
X551891Y40500D01*
X558109D01*
X564250Y41473D01*
X570163Y43394D01*
X575703Y46217D01*
X580732Y49871D01*
X585129Y54268D01*
X588783Y59297D01*
X591606Y64837D01*
X593527Y70750D01*
X594500Y76891D01*
Y83109D01*
X593527Y89250D01*
X591606Y95163D01*
X588783Y100702D01*
X585129Y105732D01*
X580732Y110129D01*
X575703Y113783D01*
X570163Y116606D01*
X564250Y118527D01*
X558109Y119500D01*
D02*
G37*
G36*
X358109D02*
X351891D01*
X345750Y118527D01*
X339837Y116606D01*
X334297Y113783D01*
X329268Y110129D01*
X324871Y105732D01*
X321217Y100702D01*
X318394Y95163D01*
X316473Y89250D01*
X315500Y83109D01*
Y76891D01*
X316473Y70750D01*
X318394Y64837D01*
X321217Y59297D01*
X324871Y54268D01*
X329268Y49871D01*
X334297Y46217D01*
X339837Y43394D01*
X345750Y41473D01*
X351891Y40500D01*
X358109D01*
X364250Y41473D01*
X370163Y43394D01*
X375703Y46217D01*
X380732Y49871D01*
X385129Y54268D01*
X388783Y59297D01*
X391606Y64837D01*
X393527Y70750D01*
X394500Y76891D01*
Y83109D01*
X393527Y89250D01*
X391606Y95163D01*
X388783Y100702D01*
X385129Y105732D01*
X380732Y110129D01*
X375703Y113783D01*
X370163Y116606D01*
X364250Y118527D01*
X358109Y119500D01*
D02*
G37*
G36*
X1408950Y59499D02*
X1406448D01*
X1404032Y58852D01*
X1401866Y57601D01*
X1400097Y55832D01*
X1398846Y53666D01*
X1398199Y51250D01*
Y48748D01*
X1398846Y46332D01*
X1400097Y44166D01*
X1401866Y42397D01*
X1404032Y41146D01*
X1406448Y40499D01*
X1408950D01*
X1411366Y41146D01*
X1413532Y42397D01*
X1415301Y44166D01*
X1416552Y46332D01*
X1417199Y48748D01*
Y51250D01*
X1416552Y53666D01*
X1415301Y55832D01*
X1413532Y57601D01*
X1411366Y58852D01*
X1408950Y59499D01*
D02*
G37*
G36*
X1248950D02*
X1246448D01*
X1244032Y58852D01*
X1241866Y57601D01*
X1240097Y55832D01*
X1238846Y53666D01*
X1238199Y51250D01*
Y48748D01*
X1238846Y46332D01*
X1240097Y44166D01*
X1241866Y42397D01*
X1244032Y41146D01*
X1246448Y40499D01*
X1248950D01*
X1251366Y41146D01*
X1253532Y42397D01*
X1255301Y44166D01*
X1256552Y46332D01*
X1257199Y48748D01*
Y51250D01*
X1256552Y53666D01*
X1255301Y55832D01*
X1253532Y57601D01*
X1251366Y58852D01*
X1248950Y59499D01*
D02*
G37*
G36*
X2207340Y48730D02*
X2198570D01*
Y39960D01*
X2198622D01*
X2201175Y40644D01*
X2203465Y41966D01*
X2205334Y43835D01*
X2206656Y46125D01*
X2207340Y48678D01*
Y48730D01*
D02*
G37*
G36*
X2196030D02*
X2187260D01*
Y48678D01*
X2187944Y46125D01*
X2189266Y43835D01*
X2191135Y41966D01*
X2193425Y40644D01*
X2195978Y39960D01*
X2196030D01*
Y48730D01*
D02*
G37*
G36*
X2147340Y48730D02*
X2138570D01*
Y39960D01*
X2138622D01*
X2141175Y40644D01*
X2143465Y41966D01*
X2145334Y43835D01*
X2146656Y46125D01*
X2147340Y48678D01*
Y48730D01*
D02*
G37*
G36*
X2136030D02*
X2127260D01*
Y48678D01*
X2127944Y46125D01*
X2129266Y43835D01*
X2131135Y41966D01*
X2133425Y40644D01*
X2135978Y39960D01*
X2136030D01*
Y48730D01*
D02*
G37*
G36*
X1552340Y48730D02*
X1543570D01*
Y39960D01*
X1543622D01*
X1546175Y40644D01*
X1548465Y41966D01*
X1550334Y43835D01*
X1551656Y46125D01*
X1552340Y48678D01*
Y48730D01*
D02*
G37*
G36*
X1541030D02*
X1532260D01*
Y48678D01*
X1532944Y46125D01*
X1534266Y43835D01*
X1536135Y41966D01*
X1538425Y40644D01*
X1540978Y39960D01*
X1541030D01*
Y48730D01*
D02*
G37*
G36*
X1072340Y48730D02*
X1063570D01*
Y39960D01*
X1063622D01*
X1066175Y40644D01*
X1068465Y41966D01*
X1070334Y43835D01*
X1071656Y46125D01*
X1072340Y48678D01*
Y48730D01*
D02*
G37*
G36*
X1061030D02*
X1052260D01*
Y48678D01*
X1052944Y46125D01*
X1054266Y43835D01*
X1056135Y41966D01*
X1058425Y40644D01*
X1060978Y39960D01*
X1061030D01*
Y48730D01*
D02*
G37*
G36*
X1392339Y48729D02*
X1383569D01*
Y39959D01*
X1383621D01*
X1386174Y40643D01*
X1388464Y41965D01*
X1390333Y43834D01*
X1391655Y46124D01*
X1392339Y48677D01*
Y48729D01*
D02*
G37*
G36*
X1381029D02*
X1372259D01*
Y48677D01*
X1372943Y46124D01*
X1374265Y43834D01*
X1376134Y41965D01*
X1378424Y40643D01*
X1380977Y39959D01*
X1381029D01*
Y48729D01*
D02*
G37*
G36*
X1232339Y48729D02*
X1223569D01*
Y39959D01*
X1223621D01*
X1226174Y40643D01*
X1228464Y41965D01*
X1230333Y43834D01*
X1231655Y46124D01*
X1232339Y48677D01*
Y48729D01*
D02*
G37*
G36*
X1221029D02*
X1212259D01*
Y48677D01*
X1212943Y46124D01*
X1214265Y43834D01*
X1216134Y41965D01*
X1218424Y40643D01*
X1220977Y39959D01*
X1221029D01*
Y48729D01*
D02*
G37*
G36*
X225856Y51500D02*
X224144D01*
X222491Y51057D01*
X221009Y50201D01*
X219799Y48991D01*
X218943Y47509D01*
X218500Y45856D01*
Y44144D01*
X218943Y42491D01*
X219799Y41009D01*
X221009Y39799D01*
X222491Y38943D01*
X224144Y38500D01*
X225856D01*
X227509Y38943D01*
X228991Y39799D01*
X230201Y41009D01*
X231057Y42491D01*
X231500Y44144D01*
Y45856D01*
X231057Y47509D01*
X230201Y48991D01*
X228991Y50201D01*
X227509Y51057D01*
X225856Y51500D01*
D02*
G37*
G36*
X1136856Y41250D02*
X1135144D01*
X1133491Y40807D01*
X1132009Y39951D01*
X1130799Y38741D01*
X1129943Y37259D01*
X1129500Y35606D01*
Y33894D01*
X1129943Y32241D01*
X1130799Y30759D01*
X1132009Y29549D01*
X1133491Y28693D01*
X1135144Y28250D01*
X1136856D01*
X1138509Y28693D01*
X1139991Y29549D01*
X1141201Y30759D01*
X1142057Y32241D01*
X1142500Y33894D01*
Y35606D01*
X1142057Y37259D01*
X1141201Y38741D01*
X1139991Y39951D01*
X1138509Y40807D01*
X1136856Y41250D01*
D02*
G37*
G36*
X1860856Y36500D02*
X1859144D01*
X1857491Y36057D01*
X1856009Y35201D01*
X1854799Y33991D01*
X1853943Y32509D01*
X1853500Y30856D01*
Y29144D01*
X1853943Y27491D01*
X1854799Y26009D01*
X1855479Y25328D01*
X1855634Y23615D01*
X1855390Y22846D01*
X1854367Y21823D01*
X1853440Y20217D01*
X1853052Y18770D01*
X1866948D01*
X1866560Y20217D01*
X1865633Y21823D01*
X1864610Y22846D01*
X1864366Y23615D01*
X1864521Y25328D01*
X1865201Y26009D01*
X1866057Y27491D01*
X1866500Y29144D01*
Y30856D01*
X1866057Y32509D01*
X1865201Y33991D01*
X1863991Y35201D01*
X1862509Y36057D01*
X1860856Y36500D01*
D02*
G37*
G36*
X1756520Y22698D02*
Y17020D01*
X1762198D01*
X1761810Y18467D01*
X1760883Y20073D01*
X1759573Y21383D01*
X1757967Y22310D01*
X1756520Y22698D01*
D02*
G37*
G36*
X1753980D02*
X1752533Y22310D01*
X1750927Y21383D01*
X1749617Y20073D01*
X1748690Y18467D01*
X1748302Y17020D01*
X1753980D01*
Y22698D01*
D02*
G37*
G36*
X33827Y32750D02*
X31193D01*
X28650Y32069D01*
X26370Y30752D01*
X24508Y28890D01*
X23191Y26610D01*
X22510Y24067D01*
Y21433D01*
X23191Y18890D01*
X24508Y16610D01*
X26370Y14748D01*
X28650Y13432D01*
X31193Y12750D01*
X33827D01*
X36370Y13432D01*
X38650Y14748D01*
X40512Y16610D01*
X41828Y18890D01*
X42510Y21433D01*
Y24067D01*
X41828Y26610D01*
X40512Y28890D01*
X38650Y30752D01*
X36370Y32069D01*
X33827Y32750D01*
D02*
G37*
G36*
X2213817Y32750D02*
X2211183D01*
X2208640Y32069D01*
X2206360Y30752D01*
X2204498Y28890D01*
X2203181Y26610D01*
X2202500Y24067D01*
Y21433D01*
X2203181Y18890D01*
X2204498Y16610D01*
X2206360Y14748D01*
X2208640Y13432D01*
X2211183Y12750D01*
X2213817D01*
X2216360Y13432D01*
X2218640Y14748D01*
X2220502Y16610D01*
X2221819Y18890D01*
X2222500Y21433D01*
Y24067D01*
X2221819Y26610D01*
X2220502Y28890D01*
X2218640Y30752D01*
X2216360Y32069D01*
X2213817Y32750D01*
D02*
G37*
G36*
X1588817D02*
X1586183D01*
X1583640Y32069D01*
X1581360Y30752D01*
X1579498Y28890D01*
X1578181Y26610D01*
X1577500Y24067D01*
Y21433D01*
X1578181Y18890D01*
X1579498Y16610D01*
X1581360Y14748D01*
X1583640Y13432D01*
X1586183Y12750D01*
X1588817D01*
X1591360Y13432D01*
X1593640Y14748D01*
X1595502Y16610D01*
X1596819Y18890D01*
X1597500Y21433D01*
Y24067D01*
X1596819Y26610D01*
X1595502Y28890D01*
X1593640Y30752D01*
X1591360Y32069D01*
X1588817Y32750D01*
D02*
G37*
G36*
X1428816D02*
X1426183D01*
X1423639Y32069D01*
X1421359Y30752D01*
X1419497Y28890D01*
X1418181Y26610D01*
X1417499Y24067D01*
Y21433D01*
X1418181Y18890D01*
X1419497Y16610D01*
X1421359Y14748D01*
X1423639Y13432D01*
X1426183Y12750D01*
X1428816D01*
X1431359Y13432D01*
X1433639Y14748D01*
X1435501Y16610D01*
X1436817Y18890D01*
X1437499Y21433D01*
Y24067D01*
X1436817Y26610D01*
X1435501Y28890D01*
X1433639Y30752D01*
X1431359Y32069D01*
X1428816Y32750D01*
D02*
G37*
G36*
X1268816D02*
X1266182D01*
X1263639Y32069D01*
X1261359Y30752D01*
X1259497Y28890D01*
X1258180Y26610D01*
X1257499Y24067D01*
Y21433D01*
X1258180Y18890D01*
X1259497Y16610D01*
X1261359Y14748D01*
X1263639Y13432D01*
X1266182Y12750D01*
X1268816D01*
X1271359Y13432D01*
X1273639Y14748D01*
X1275501Y16610D01*
X1276817Y18890D01*
X1277499Y21433D01*
Y24067D01*
X1276817Y26610D01*
X1275501Y28890D01*
X1273639Y30752D01*
X1271359Y32069D01*
X1268816Y32750D01*
D02*
G37*
G36*
X1108817D02*
X1106183D01*
X1103640Y32069D01*
X1101360Y30752D01*
X1099498Y28890D01*
X1098182Y26610D01*
X1097500Y24067D01*
Y21433D01*
X1098182Y18890D01*
X1099498Y16610D01*
X1101360Y14748D01*
X1103640Y13432D01*
X1106183Y12750D01*
X1108817D01*
X1111360Y13432D01*
X1113640Y14748D01*
X1115502Y16610D01*
X1116818Y18890D01*
X1117500Y21433D01*
Y24067D01*
X1116818Y26610D01*
X1115502Y28890D01*
X1113640Y30752D01*
X1111360Y32069D01*
X1108817Y32750D01*
D02*
G37*
G36*
X218817D02*
X216183D01*
X213640Y32069D01*
X211360Y30752D01*
X209498Y28890D01*
X208181Y26610D01*
X207500Y24067D01*
Y21433D01*
X208181Y18890D01*
X209498Y16610D01*
X211360Y14748D01*
X213640Y13432D01*
X216183Y12750D01*
X218817D01*
X221360Y13432D01*
X223640Y14748D01*
X225502Y16610D01*
X226819Y18890D01*
X227500Y21433D01*
Y24067D01*
X226819Y26610D01*
X225502Y28890D01*
X223640Y30752D01*
X221360Y32069D01*
X218817Y32750D01*
D02*
G37*
G36*
X2148817Y32500D02*
X2146183D01*
X2143640Y31818D01*
X2141360Y30502D01*
X2139498Y28640D01*
X2138181Y26360D01*
X2137500Y23816D01*
Y21184D01*
X2138181Y18640D01*
X2139498Y16360D01*
X2141360Y14498D01*
X2143640Y13182D01*
X2146183Y12500D01*
X2148817D01*
X2151360Y13182D01*
X2153640Y14498D01*
X2155502Y16360D01*
X2156819Y18640D01*
X2157500Y21184D01*
Y23816D01*
X2156819Y26360D01*
X2155502Y28640D01*
X2153640Y30502D01*
X2151360Y31818D01*
X2148817Y32500D01*
D02*
G37*
G36*
X1668817D02*
X1666183D01*
X1663640Y31818D01*
X1661360Y30502D01*
X1659498Y28640D01*
X1658181Y26360D01*
X1657500Y23816D01*
Y21184D01*
X1658181Y18640D01*
X1659498Y16360D01*
X1661360Y14498D01*
X1663640Y13182D01*
X1666183Y12500D01*
X1668817D01*
X1671360Y13182D01*
X1673640Y14498D01*
X1675502Y16360D01*
X1676819Y18640D01*
X1677500Y21184D01*
Y23816D01*
X1676819Y26360D01*
X1675502Y28640D01*
X1673640Y30502D01*
X1671360Y31818D01*
X1668817Y32500D01*
D02*
G37*
G36*
X1523817D02*
X1521183D01*
X1518640Y31818D01*
X1516360Y30502D01*
X1514498Y28640D01*
X1513181Y26360D01*
X1512500Y23816D01*
Y21184D01*
X1513181Y18640D01*
X1514498Y16360D01*
X1516360Y14498D01*
X1518640Y13182D01*
X1521183Y12500D01*
X1523817D01*
X1526360Y13182D01*
X1528640Y14498D01*
X1530502Y16360D01*
X1531819Y18640D01*
X1532500Y21184D01*
Y23816D01*
X1531819Y26360D01*
X1530502Y28640D01*
X1528640Y30502D01*
X1526360Y31818D01*
X1523817Y32500D01*
D02*
G37*
G36*
X1363815D02*
X1361183D01*
X1358639Y31818D01*
X1356359Y30502D01*
X1354497Y28640D01*
X1353181Y26360D01*
X1352499Y23816D01*
Y21184D01*
X1353181Y18640D01*
X1354497Y16360D01*
X1356359Y14498D01*
X1358639Y13182D01*
X1361183Y12500D01*
X1363815D01*
X1366359Y13182D01*
X1368639Y14498D01*
X1370501Y16360D01*
X1371817Y18640D01*
X1372499Y21184D01*
Y23816D01*
X1371817Y26360D01*
X1370501Y28640D01*
X1368639Y30502D01*
X1366359Y31818D01*
X1363815Y32500D01*
D02*
G37*
G36*
X1203816D02*
X1201182D01*
X1198639Y31818D01*
X1196359Y30502D01*
X1194497Y28640D01*
X1193180Y26360D01*
X1192499Y23816D01*
Y21184D01*
X1193180Y18640D01*
X1194497Y16360D01*
X1196359Y14498D01*
X1198639Y13182D01*
X1201182Y12500D01*
X1203816D01*
X1206359Y13182D01*
X1208639Y14498D01*
X1210501Y16360D01*
X1211817Y18640D01*
X1212499Y21184D01*
Y23816D01*
X1211817Y26360D01*
X1210501Y28640D01*
X1208639Y30502D01*
X1206359Y31818D01*
X1203816Y32500D01*
D02*
G37*
G36*
X1043817D02*
X1041183D01*
X1038640Y31818D01*
X1036360Y30502D01*
X1034498Y28640D01*
X1033182Y26360D01*
X1032500Y23816D01*
Y21184D01*
X1033182Y18640D01*
X1034498Y16360D01*
X1036360Y14498D01*
X1038640Y13182D01*
X1041183Y12500D01*
X1043817D01*
X1046360Y13182D01*
X1048640Y14498D01*
X1050502Y16360D01*
X1051818Y18640D01*
X1052500Y21184D01*
Y23816D01*
X1051818Y26360D01*
X1050502Y28640D01*
X1048640Y30502D01*
X1046360Y31818D01*
X1043817Y32500D01*
D02*
G37*
G36*
X153816D02*
X151184D01*
X148640Y31818D01*
X146360Y30502D01*
X144498Y28640D01*
X143181Y26360D01*
X142500Y23816D01*
Y21184D01*
X143181Y18640D01*
X144498Y16360D01*
X146360Y14498D01*
X148640Y13182D01*
X151184Y12500D01*
X153816D01*
X156360Y13182D01*
X158640Y14498D01*
X160502Y16360D01*
X161819Y18640D01*
X162500Y21184D01*
Y23816D01*
X161819Y26360D01*
X160502Y28640D01*
X158640Y30502D01*
X156360Y31818D01*
X153816Y32500D01*
D02*
G37*
G36*
X-31174D02*
X-33807D01*
X-36350Y31818D01*
X-38630Y30502D01*
X-40492Y28640D01*
X-41809Y26360D01*
X-42490Y23816D01*
Y21184D01*
X-41809Y18640D01*
X-40492Y16360D01*
X-38630Y14498D01*
X-36350Y13182D01*
X-33807Y12500D01*
X-31174D01*
X-28630Y13182D01*
X-26350Y14498D01*
X-24488Y16360D01*
X-23172Y18640D01*
X-22490Y21184D01*
Y23816D01*
X-23172Y26360D01*
X-24488Y28640D01*
X-26350Y30502D01*
X-28630Y31818D01*
X-31174Y32500D01*
D02*
G37*
G36*
X1866948Y16230D02*
X1861270D01*
Y10552D01*
X1862717Y10940D01*
X1864323Y11867D01*
X1865633Y13177D01*
X1866560Y14783D01*
X1866948Y16230D01*
D02*
G37*
G36*
X1858730D02*
X1853052D01*
X1853440Y14783D01*
X1854367Y13177D01*
X1855677Y11867D01*
X1857283Y10940D01*
X1858730Y10552D01*
Y16230D01*
D02*
G37*
G36*
X1762198Y14480D02*
X1756520D01*
Y8802D01*
X1757967Y9190D01*
X1759573Y10117D01*
X1760883Y11427D01*
X1761810Y13033D01*
X1762198Y14480D01*
D02*
G37*
G36*
X1753980D02*
X1748302D01*
X1748690Y13033D01*
X1749617Y11427D01*
X1750927Y10117D01*
X1752533Y9190D01*
X1753980Y8802D01*
Y14480D01*
D02*
G37*
G36*
X1690606Y20250D02*
X1688894D01*
X1687241Y19807D01*
X1685759Y18951D01*
X1684549Y17741D01*
X1683693Y16259D01*
X1683250Y14606D01*
Y12894D01*
X1683693Y11241D01*
X1684549Y9759D01*
X1685759Y8549D01*
X1687241Y7693D01*
X1688894Y7250D01*
X1690606D01*
X1692259Y7693D01*
X1693741Y8549D01*
X1694951Y9759D01*
X1695807Y11241D01*
X1696250Y12894D01*
Y14606D01*
X1695807Y16259D01*
X1694951Y17741D01*
X1693741Y18951D01*
X1692259Y19807D01*
X1690606Y20250D01*
D02*
G37*
G36*
X1710606Y7000D02*
X1708894D01*
X1707241Y6557D01*
X1705759Y5701D01*
X1704549Y4491D01*
X1703693Y3009D01*
X1703250Y1356D01*
Y-356D01*
X1703307Y-568D01*
X1701930Y-2164D01*
X1701687Y-2250D01*
X1700144D01*
X1698491Y-2693D01*
X1697009Y-3549D01*
X1696726Y-3832D01*
X1695375Y-4538D01*
X1694024Y-3832D01*
X1693741Y-3549D01*
X1692259Y-2693D01*
X1690606Y-2250D01*
X1688894D01*
X1687241Y-2693D01*
X1685759Y-3549D01*
X1684549Y-4759D01*
X1683693Y-6241D01*
X1683250Y-7894D01*
Y-9606D01*
X1683693Y-11259D01*
X1684549Y-12741D01*
X1685759Y-13951D01*
X1687241Y-14807D01*
X1688894Y-15250D01*
X1690606D01*
X1692259Y-14807D01*
X1693741Y-13951D01*
X1694024Y-13668D01*
X1695375Y-12962D01*
X1696726Y-13668D01*
X1697009Y-13951D01*
X1698491Y-14807D01*
X1700144Y-15250D01*
X1701856D01*
X1703509Y-14807D01*
X1704991Y-13951D01*
X1706201Y-12741D01*
X1707057Y-11259D01*
X1707500Y-9606D01*
Y-7894D01*
X1707443Y-7682D01*
X1708820Y-6086D01*
X1709063Y-6000D01*
X1710606D01*
X1712259Y-5557D01*
X1713741Y-4701D01*
X1714951Y-3491D01*
X1715807Y-2009D01*
X1716250Y-356D01*
Y1356D01*
X1715807Y3009D01*
X1714951Y4491D01*
X1713741Y5701D01*
X1712259Y6557D01*
X1710606Y7000D01*
D02*
G37*
G36*
X1673356Y6750D02*
X1671644D01*
X1669991Y6307D01*
X1668509Y5451D01*
X1667299Y4241D01*
X1666443Y2759D01*
X1666000Y1106D01*
Y-606D01*
X1666443Y-2259D01*
X1667299Y-3741D01*
X1668509Y-4951D01*
X1669991Y-5807D01*
X1671644Y-6250D01*
X1673356D01*
X1675009Y-5807D01*
X1676491Y-4951D01*
X1677701Y-3741D01*
X1678557Y-2259D01*
X1679000Y-606D01*
Y1106D01*
X1678557Y2759D01*
X1677701Y4241D01*
X1676491Y5451D01*
X1675009Y6307D01*
X1673356Y6750D01*
D02*
G37*
G36*
X1883356Y-1000D02*
X1881644D01*
X1879991Y-1443D01*
X1878509Y-2299D01*
X1877299Y-3509D01*
X1876443Y-4991D01*
X1876000Y-6644D01*
Y-8356D01*
X1876443Y-10009D01*
X1877299Y-11491D01*
X1878509Y-12701D01*
X1879991Y-13557D01*
X1881644Y-14000D01*
X1883356D01*
X1885009Y-13557D01*
X1886491Y-12701D01*
X1887701Y-11491D01*
X1888557Y-10009D01*
X1889000Y-8356D01*
Y-6644D01*
X1888557Y-4991D01*
X1887701Y-3509D01*
X1886491Y-2299D01*
X1885009Y-1443D01*
X1883356Y-1000D01*
D02*
G37*
G36*
X1796106Y-4000D02*
X1794394D01*
X1792741Y-4443D01*
X1791259Y-5299D01*
X1790049Y-6509D01*
X1789193Y-7991D01*
X1788750Y-9644D01*
Y-11356D01*
X1789193Y-13009D01*
X1790049Y-14491D01*
X1791259Y-15701D01*
X1792741Y-16557D01*
X1794394Y-17000D01*
X1796106D01*
X1797759Y-16557D01*
X1799241Y-15701D01*
X1800451Y-14491D01*
X1801307Y-13009D01*
X1801750Y-11356D01*
Y-9644D01*
X1801307Y-7991D01*
X1800451Y-6509D01*
X1799241Y-5299D01*
X1797759Y-4443D01*
X1796106Y-4000D01*
D02*
G37*
G36*
X1020856Y-8500D02*
X1019144D01*
X1017491Y-8943D01*
X1016009Y-9799D01*
X1014799Y-11009D01*
X1013943Y-12491D01*
X1013500Y-14144D01*
Y-15856D01*
X1013943Y-17509D01*
X1014799Y-18991D01*
X1016009Y-20201D01*
X1017491Y-21057D01*
X1019144Y-21500D01*
X1020856D01*
X1022509Y-21057D01*
X1023991Y-20201D01*
X1025201Y-18991D01*
X1026057Y-17509D01*
X1026500Y-15856D01*
Y-14144D01*
X1026057Y-12491D01*
X1025201Y-11009D01*
X1023991Y-9799D01*
X1022509Y-8943D01*
X1020856Y-8500D01*
D02*
G37*
G36*
X998356D02*
X996644D01*
X994991Y-8943D01*
X993509Y-9799D01*
X992299Y-11009D01*
X991443Y-12491D01*
X991000Y-14144D01*
Y-15856D01*
X991443Y-17509D01*
X992299Y-18991D01*
X993509Y-20201D01*
X994991Y-21057D01*
X996644Y-21500D01*
X998356D01*
X1000009Y-21057D01*
X1001491Y-20201D01*
X1002701Y-18991D01*
X1003557Y-17509D01*
X1004000Y-15856D01*
Y-14144D01*
X1003557Y-12491D01*
X1002701Y-11009D01*
X1001491Y-9799D01*
X1000009Y-8943D01*
X998356Y-8500D01*
D02*
G37*
G36*
X1818356Y-11000D02*
X1816644D01*
X1814991Y-11443D01*
X1813509Y-12299D01*
X1812299Y-13509D01*
X1811443Y-14991D01*
X1811000Y-16644D01*
Y-18356D01*
X1811443Y-20009D01*
X1812299Y-21491D01*
X1813509Y-22701D01*
X1814991Y-23557D01*
X1816644Y-24000D01*
X1818356D01*
X1820009Y-23557D01*
X1821491Y-22701D01*
X1822701Y-21491D01*
X1823557Y-20009D01*
X1824000Y-18356D01*
Y-16644D01*
X1823557Y-14991D01*
X1822701Y-13509D01*
X1821491Y-12299D01*
X1820009Y-11443D01*
X1818356Y-11000D01*
D02*
G37*
G36*
X1860856Y-1000D02*
X1859144D01*
X1857491Y-1443D01*
X1856009Y-2299D01*
X1854799Y-3509D01*
X1853943Y-4991D01*
X1853500Y-6644D01*
Y-8356D01*
X1853943Y-10009D01*
X1854799Y-11491D01*
X1855874Y-12567D01*
X1856009Y-12914D01*
X1856009Y-14586D01*
X1855874Y-14933D01*
X1854799Y-16009D01*
X1853943Y-17491D01*
X1853500Y-19144D01*
Y-20856D01*
X1853943Y-22509D01*
X1854799Y-23991D01*
X1856009Y-25201D01*
X1857491Y-26057D01*
X1859144Y-26500D01*
X1860856D01*
X1862509Y-26057D01*
X1863991Y-25201D01*
X1865201Y-23991D01*
X1866057Y-22509D01*
X1866500Y-20856D01*
Y-19144D01*
X1866057Y-17491D01*
X1865201Y-16009D01*
X1864126Y-14933D01*
X1863991Y-14586D01*
X1863991Y-12914D01*
X1864126Y-12567D01*
X1865201Y-11491D01*
X1866057Y-10009D01*
X1866500Y-8356D01*
Y-6644D01*
X1866057Y-4991D01*
X1865201Y-3509D01*
X1863991Y-2299D01*
X1862509Y-1443D01*
X1860856Y-1000D01*
D02*
G37*
G36*
X1398106Y-15750D02*
X1396394D01*
X1394741Y-16193D01*
X1393259Y-17049D01*
X1392049Y-18259D01*
X1391193Y-19741D01*
X1390750Y-21394D01*
Y-23106D01*
X1391193Y-24759D01*
X1392049Y-26241D01*
X1393259Y-27451D01*
X1394741Y-28307D01*
X1396394Y-28750D01*
X1398106D01*
X1399759Y-28307D01*
X1401241Y-27451D01*
X1402451Y-26241D01*
X1403307Y-24759D01*
X1403750Y-23106D01*
Y-21394D01*
X1403307Y-19741D01*
X1402451Y-18259D01*
X1401241Y-17049D01*
X1399759Y-16193D01*
X1398106Y-15750D01*
D02*
G37*
G36*
X1556106Y-16000D02*
X1554394D01*
X1552741Y-16443D01*
X1551259Y-17299D01*
X1550049Y-18509D01*
X1549193Y-19991D01*
X1548750Y-21644D01*
Y-23356D01*
X1549193Y-25009D01*
X1550049Y-26491D01*
X1551259Y-27701D01*
X1552741Y-28557D01*
X1554394Y-29000D01*
X1556106D01*
X1557759Y-28557D01*
X1559241Y-27701D01*
X1560451Y-26491D01*
X1561307Y-25009D01*
X1561750Y-23356D01*
Y-21644D01*
X1561307Y-19991D01*
X1560451Y-18509D01*
X1559241Y-17299D01*
X1557759Y-16443D01*
X1556106Y-16000D01*
D02*
G37*
G36*
X1456106D02*
X1454394D01*
X1452741Y-16443D01*
X1451259Y-17299D01*
X1450049Y-18509D01*
X1449193Y-19991D01*
X1448750Y-21644D01*
Y-23356D01*
X1449193Y-25009D01*
X1450049Y-26491D01*
X1451259Y-27701D01*
X1452741Y-28557D01*
X1454394Y-29000D01*
X1456106D01*
X1457759Y-28557D01*
X1459241Y-27701D01*
X1460451Y-26491D01*
X1461307Y-25009D01*
X1461750Y-23356D01*
Y-21644D01*
X1461307Y-19991D01*
X1460451Y-18509D01*
X1459241Y-17299D01*
X1457759Y-16443D01*
X1456106Y-16000D01*
D02*
G37*
G36*
X303865Y-18279D02*
X302153D01*
X300500Y-18722D01*
X299018Y-19577D01*
X297808Y-20788D01*
X296952Y-22270D01*
X296509Y-23923D01*
Y-25635D01*
X296952Y-27288D01*
X297808Y-28770D01*
X299018Y-29980D01*
X300500Y-30836D01*
X302153Y-31279D01*
X303865D01*
X305518Y-30836D01*
X307000Y-29980D01*
X308211Y-28770D01*
X309066Y-27288D01*
X309509Y-25635D01*
Y-23923D01*
X309066Y-22270D01*
X308211Y-20788D01*
X307000Y-19577D01*
X305518Y-18722D01*
X303865Y-18279D01*
D02*
G37*
G36*
X635029Y32001D02*
X629992D01*
X625017Y31213D01*
X620227Y29656D01*
X615739Y27369D01*
X611664Y24409D01*
X608102Y20847D01*
X605142Y16772D01*
X602855Y12284D01*
X601299Y7494D01*
X600511Y2519D01*
Y-2518D01*
X601299Y-7493D01*
X602855Y-12283D01*
X605142Y-16771D01*
X608102Y-20846D01*
X611664Y-24408D01*
X615739Y-27368D01*
X620227Y-29655D01*
X625017Y-31212D01*
X629992Y-31999D01*
X635029D01*
X640004Y-31212D01*
X644794Y-29655D01*
X649282Y-27368D01*
X653357Y-24408D01*
X656919Y-20846D01*
X659880Y-16771D01*
X662166Y-12283D01*
X663723Y-7493D01*
X664511Y-2518D01*
Y2519D01*
X663723Y7494D01*
X662166Y12284D01*
X659880Y16772D01*
X656919Y20847D01*
X653357Y24409D01*
X649282Y27369D01*
X644794Y29656D01*
X640004Y31213D01*
X635029Y32001D01*
D02*
G37*
G36*
X2213817Y-12500D02*
X2211183D01*
X2208640Y-13182D01*
X2206360Y-14498D01*
X2204498Y-16360D01*
X2203181Y-18640D01*
X2202500Y-21184D01*
Y-23816D01*
X2203181Y-26360D01*
X2204498Y-28640D01*
X2206360Y-30502D01*
X2208640Y-31818D01*
X2211183Y-32500D01*
X2213817D01*
X2216360Y-31818D01*
X2218640Y-30502D01*
X2220502Y-28640D01*
X2221819Y-26360D01*
X2222500Y-23816D01*
Y-21184D01*
X2221819Y-18640D01*
X2220502Y-16360D01*
X2218640Y-14498D01*
X2216360Y-13182D01*
X2213817Y-12500D01*
D02*
G37*
G36*
X2148817D02*
X2146183D01*
X2143640Y-13182D01*
X2141360Y-14498D01*
X2139498Y-16360D01*
X2138181Y-18640D01*
X2137500Y-21184D01*
Y-23816D01*
X2138181Y-26360D01*
X2139498Y-28640D01*
X2141360Y-30502D01*
X2143640Y-31818D01*
X2146183Y-32500D01*
X2148817D01*
X2151360Y-31818D01*
X2153640Y-30502D01*
X2155502Y-28640D01*
X2156819Y-26360D01*
X2157500Y-23816D01*
Y-21184D01*
X2156819Y-18640D01*
X2155502Y-16360D01*
X2153640Y-14498D01*
X2151360Y-13182D01*
X2148817Y-12500D01*
D02*
G37*
G36*
X1588817D02*
X1586183D01*
X1583640Y-13182D01*
X1581360Y-14498D01*
X1579498Y-16360D01*
X1578181Y-18640D01*
X1577500Y-21184D01*
Y-23816D01*
X1578181Y-26360D01*
X1579498Y-28640D01*
X1581360Y-30502D01*
X1583640Y-31818D01*
X1586183Y-32500D01*
X1588817D01*
X1591360Y-31818D01*
X1593640Y-30502D01*
X1595502Y-28640D01*
X1596819Y-26360D01*
X1597500Y-23816D01*
Y-21184D01*
X1596819Y-18640D01*
X1595502Y-16360D01*
X1593640Y-14498D01*
X1591360Y-13182D01*
X1588817Y-12500D01*
D02*
G37*
G36*
X1523817D02*
X1521183D01*
X1518640Y-13182D01*
X1516360Y-14498D01*
X1514498Y-16360D01*
X1513181Y-18640D01*
X1512500Y-21184D01*
Y-23816D01*
X1513181Y-26360D01*
X1514498Y-28640D01*
X1516360Y-30502D01*
X1518640Y-31818D01*
X1521183Y-32500D01*
X1523817D01*
X1526360Y-31818D01*
X1528640Y-30502D01*
X1530502Y-28640D01*
X1531819Y-26360D01*
X1532500Y-23816D01*
Y-21184D01*
X1531819Y-18640D01*
X1530502Y-16360D01*
X1528640Y-14498D01*
X1526360Y-13182D01*
X1523817Y-12500D01*
D02*
G37*
G36*
X1428816D02*
X1426183D01*
X1423639Y-13182D01*
X1421359Y-14498D01*
X1419497Y-16360D01*
X1418181Y-18640D01*
X1417499Y-21184D01*
Y-23816D01*
X1418181Y-26360D01*
X1419497Y-28640D01*
X1421359Y-30502D01*
X1423639Y-31818D01*
X1426183Y-32500D01*
X1428816D01*
X1431359Y-31818D01*
X1433639Y-30502D01*
X1435501Y-28640D01*
X1436817Y-26360D01*
X1437499Y-23816D01*
Y-21184D01*
X1436817Y-18640D01*
X1435501Y-16360D01*
X1433639Y-14498D01*
X1431359Y-13182D01*
X1428816Y-12500D01*
D02*
G37*
G36*
X1363815D02*
X1361183D01*
X1358639Y-13182D01*
X1356359Y-14498D01*
X1354497Y-16360D01*
X1353181Y-18640D01*
X1352499Y-21184D01*
Y-23816D01*
X1353181Y-26360D01*
X1354497Y-28640D01*
X1356359Y-30502D01*
X1358639Y-31818D01*
X1361183Y-32500D01*
X1363815D01*
X1366359Y-31818D01*
X1368639Y-30502D01*
X1370501Y-28640D01*
X1371817Y-26360D01*
X1372499Y-23816D01*
Y-21184D01*
X1371817Y-18640D01*
X1370501Y-16360D01*
X1368639Y-14498D01*
X1366359Y-13182D01*
X1363815Y-12500D01*
D02*
G37*
G36*
X1268816D02*
X1266182D01*
X1263639Y-13182D01*
X1261359Y-14498D01*
X1259497Y-16360D01*
X1258180Y-18640D01*
X1257499Y-21184D01*
Y-23816D01*
X1258180Y-26360D01*
X1259497Y-28640D01*
X1261359Y-30502D01*
X1263639Y-31818D01*
X1266182Y-32500D01*
X1268816D01*
X1271359Y-31818D01*
X1273639Y-30502D01*
X1275501Y-28640D01*
X1276817Y-26360D01*
X1277499Y-23816D01*
Y-21184D01*
X1276817Y-18640D01*
X1275501Y-16360D01*
X1273639Y-14498D01*
X1271359Y-13182D01*
X1268816Y-12500D01*
D02*
G37*
G36*
X1203816D02*
X1201182D01*
X1198639Y-13182D01*
X1196359Y-14498D01*
X1194497Y-16360D01*
X1193180Y-18640D01*
X1192499Y-21184D01*
Y-23816D01*
X1193180Y-26360D01*
X1194497Y-28640D01*
X1196359Y-30502D01*
X1198639Y-31818D01*
X1201182Y-32500D01*
X1203816D01*
X1206359Y-31818D01*
X1208639Y-30502D01*
X1210501Y-28640D01*
X1211817Y-26360D01*
X1212499Y-23816D01*
Y-21184D01*
X1211817Y-18640D01*
X1210501Y-16360D01*
X1208639Y-14498D01*
X1206359Y-13182D01*
X1203816Y-12500D01*
D02*
G37*
G36*
X1108817D02*
X1106183D01*
X1103640Y-13182D01*
X1101360Y-14498D01*
X1099498Y-16360D01*
X1098182Y-18640D01*
X1097500Y-21184D01*
Y-23816D01*
X1098182Y-26360D01*
X1099498Y-28640D01*
X1101360Y-30502D01*
X1103640Y-31818D01*
X1106183Y-32500D01*
X1108817D01*
X1111360Y-31818D01*
X1113640Y-30502D01*
X1115502Y-28640D01*
X1116818Y-26360D01*
X1117500Y-23816D01*
Y-21184D01*
X1116818Y-18640D01*
X1115502Y-16360D01*
X1113640Y-14498D01*
X1111360Y-13182D01*
X1108817Y-12500D01*
D02*
G37*
G36*
X1043817D02*
X1041183D01*
X1038640Y-13182D01*
X1036360Y-14498D01*
X1034498Y-16360D01*
X1033182Y-18640D01*
X1032500Y-21184D01*
Y-23816D01*
X1033182Y-26360D01*
X1034498Y-28640D01*
X1036360Y-30502D01*
X1038640Y-31818D01*
X1041183Y-32500D01*
X1043817D01*
X1046360Y-31818D01*
X1048640Y-30502D01*
X1050502Y-28640D01*
X1051818Y-26360D01*
X1052500Y-23816D01*
Y-21184D01*
X1051818Y-18640D01*
X1050502Y-16360D01*
X1048640Y-14498D01*
X1046360Y-13182D01*
X1043817Y-12500D01*
D02*
G37*
G36*
X218817D02*
X216183D01*
X213640Y-13182D01*
X211360Y-14498D01*
X209498Y-16360D01*
X208181Y-18640D01*
X207500Y-21184D01*
Y-23816D01*
X208181Y-26360D01*
X209498Y-28640D01*
X211360Y-30502D01*
X213640Y-31818D01*
X216183Y-32500D01*
X218817D01*
X221360Y-31818D01*
X223640Y-30502D01*
X225502Y-28640D01*
X226819Y-26360D01*
X227500Y-23816D01*
Y-21184D01*
X226819Y-18640D01*
X225502Y-16360D01*
X223640Y-14498D01*
X221360Y-13182D01*
X218817Y-12500D01*
D02*
G37*
G36*
X153816D02*
X151184D01*
X148640Y-13182D01*
X146360Y-14498D01*
X144498Y-16360D01*
X143181Y-18640D01*
X142500Y-21184D01*
Y-23816D01*
X143181Y-26360D01*
X144498Y-28640D01*
X146360Y-30502D01*
X148640Y-31818D01*
X151184Y-32500D01*
X153816D01*
X156360Y-31818D01*
X158640Y-30502D01*
X160502Y-28640D01*
X161819Y-26360D01*
X162500Y-23816D01*
Y-21184D01*
X161819Y-18640D01*
X160502Y-16360D01*
X158640Y-14498D01*
X156360Y-13182D01*
X153816Y-12500D01*
D02*
G37*
G36*
X33827D02*
X31193D01*
X28650Y-13182D01*
X26370Y-14498D01*
X24508Y-16360D01*
X23191Y-18640D01*
X22510Y-21184D01*
Y-23816D01*
X23191Y-26360D01*
X24508Y-28640D01*
X26370Y-30502D01*
X28650Y-31818D01*
X31193Y-32500D01*
X33827D01*
X36370Y-31818D01*
X38650Y-30502D01*
X40512Y-28640D01*
X41828Y-26360D01*
X42510Y-23816D01*
Y-21184D01*
X41828Y-18640D01*
X40512Y-16360D01*
X38650Y-14498D01*
X36370Y-13182D01*
X33827Y-12500D01*
D02*
G37*
G36*
X-31174D02*
X-33807D01*
X-36350Y-13182D01*
X-38630Y-14498D01*
X-40492Y-16360D01*
X-41809Y-18640D01*
X-42490Y-21184D01*
Y-23816D01*
X-41809Y-26360D01*
X-40492Y-28640D01*
X-38630Y-30502D01*
X-36350Y-31818D01*
X-33807Y-32500D01*
X-31174D01*
X-28630Y-31818D01*
X-26350Y-30502D01*
X-24488Y-28640D01*
X-23172Y-26360D01*
X-22490Y-23816D01*
Y-21184D01*
X-23172Y-18640D01*
X-24488Y-16360D01*
X-26350Y-14498D01*
X-28630Y-13182D01*
X-31174Y-12500D01*
D02*
G37*
G36*
X1733817Y32500D02*
X1731183D01*
X1728640Y31818D01*
X1726360Y30502D01*
X1724498Y28640D01*
X1723181Y26360D01*
X1722500Y23816D01*
Y21184D01*
X1723181Y18640D01*
X1724498Y16360D01*
X1726360Y14498D01*
X1726434Y14455D01*
X1726799Y11991D01*
X1725943Y10509D01*
X1725500Y8856D01*
Y7144D01*
X1725943Y5491D01*
X1726799Y4009D01*
X1728009Y2799D01*
X1729491Y1943D01*
X1729955Y1819D01*
Y-252D01*
X1729241Y-443D01*
X1727759Y-1299D01*
X1726549Y-2509D01*
X1725693Y-3991D01*
X1725250Y-5644D01*
Y-7356D01*
X1725693Y-9009D01*
X1726549Y-10491D01*
X1727556Y-11498D01*
X1727648Y-12558D01*
X1727482Y-13851D01*
X1726360Y-14498D01*
X1724498Y-16360D01*
X1723181Y-18640D01*
X1722500Y-21184D01*
Y-23817D01*
X1723181Y-26360D01*
X1724498Y-28640D01*
X1726360Y-30502D01*
X1728640Y-31818D01*
X1731183Y-32500D01*
X1733817D01*
X1736360Y-31818D01*
X1738640Y-30502D01*
X1740502Y-28640D01*
X1741819Y-26360D01*
X1742500Y-23817D01*
Y-21184D01*
X1741819Y-18640D01*
X1740502Y-16360D01*
X1738640Y-14498D01*
X1736758Y-13411D01*
X1736570Y-13095D01*
X1736349Y-12139D01*
X1736337Y-11105D01*
X1736951Y-10491D01*
X1737807Y-9009D01*
X1738250Y-7356D01*
Y-5644D01*
X1737807Y-3991D01*
X1736951Y-2509D01*
X1735741Y-1299D01*
X1734259Y-443D01*
X1733795Y-319D01*
Y1752D01*
X1734509Y1943D01*
X1735991Y2799D01*
X1737201Y4009D01*
X1738057Y5491D01*
X1738500Y7144D01*
Y8856D01*
X1738057Y10509D01*
X1737201Y11991D01*
X1737932Y14089D01*
X1738640Y14498D01*
X1740502Y16360D01*
X1741819Y18640D01*
X1742500Y21184D01*
Y23816D01*
X1741819Y26360D01*
X1740502Y28640D01*
X1738640Y30502D01*
X1736360Y31818D01*
X1733817Y32500D01*
D02*
G37*
G36*
X1668817Y-12750D02*
X1666183D01*
X1663640Y-13432D01*
X1661360Y-14748D01*
X1659498Y-16610D01*
X1658181Y-18890D01*
X1657500Y-21433D01*
Y-24067D01*
X1658181Y-26610D01*
X1659498Y-28890D01*
X1661360Y-30752D01*
X1663640Y-32069D01*
X1666183Y-32750D01*
X1668817D01*
X1671360Y-32069D01*
X1673640Y-30752D01*
X1675502Y-28890D01*
X1676819Y-26610D01*
X1677500Y-24067D01*
Y-21433D01*
X1676819Y-18890D01*
X1675502Y-16610D01*
X1673640Y-14748D01*
X1671360Y-13432D01*
X1668817Y-12750D01*
D02*
G37*
G36*
X813109Y39500D02*
X806891D01*
X800750Y38527D01*
X794837Y36606D01*
X789297Y33783D01*
X784268Y30129D01*
X779871Y25733D01*
X776217Y20703D01*
X773394Y15163D01*
X771473Y9250D01*
X770500Y3109D01*
Y-3109D01*
X771473Y-9250D01*
X773394Y-15163D01*
X776217Y-20703D01*
X779871Y-25733D01*
X784268Y-30129D01*
X789297Y-33783D01*
X794837Y-36606D01*
X800750Y-38527D01*
X806891Y-39500D01*
X813109D01*
X819250Y-38527D01*
X825163Y-36606D01*
X830703Y-33783D01*
X835732Y-30129D01*
X840129Y-25733D01*
X843783Y-20703D01*
X846606Y-15163D01*
X848527Y-9250D01*
X849500Y-3109D01*
Y3109D01*
X848527Y9250D01*
X846606Y15163D01*
X843783Y20703D01*
X840129Y25733D01*
X835732Y30129D01*
X830703Y33783D01*
X825163Y36606D01*
X819250Y38527D01*
X813109Y39500D01*
D02*
G37*
G36*
X458109D02*
X451891D01*
X445750Y38527D01*
X439837Y36606D01*
X434297Y33783D01*
X429268Y30129D01*
X424871Y25733D01*
X421217Y20703D01*
X418394Y15163D01*
X416473Y9250D01*
X415500Y3109D01*
Y-3109D01*
X416473Y-9250D01*
X418394Y-15163D01*
X421217Y-20703D01*
X424871Y-25733D01*
X429268Y-30129D01*
X434297Y-33783D01*
X439837Y-36606D01*
X445750Y-38527D01*
X451891Y-39500D01*
X458109D01*
X464250Y-38527D01*
X470163Y-36606D01*
X475703Y-33783D01*
X480732Y-30129D01*
X485129Y-25733D01*
X488783Y-20703D01*
X491606Y-15163D01*
X493527Y-9250D01*
X494500Y-3109D01*
Y3109D01*
X493527Y9250D01*
X491606Y15163D01*
X488783Y20703D01*
X485129Y25733D01*
X480732Y30129D01*
X475703Y33783D01*
X470163Y36606D01*
X464250Y38527D01*
X458109Y39500D01*
D02*
G37*
G36*
X1860856Y-34250D02*
X1859144D01*
X1857491Y-34693D01*
X1856009Y-35549D01*
X1854799Y-36759D01*
X1853943Y-38241D01*
X1853500Y-39894D01*
Y-41606D01*
X1853943Y-43259D01*
X1854799Y-44741D01*
X1856009Y-45951D01*
X1857491Y-46807D01*
X1859144Y-47250D01*
X1860856D01*
X1862509Y-46807D01*
X1863991Y-45951D01*
X1865201Y-44741D01*
X1866057Y-43259D01*
X1866500Y-41606D01*
Y-39894D01*
X1866057Y-38241D01*
X1865201Y-36759D01*
X1863991Y-35549D01*
X1862509Y-34693D01*
X1860856Y-34250D01*
D02*
G37*
G36*
X1750856Y-43500D02*
X1749144D01*
X1747491Y-43943D01*
X1746009Y-44799D01*
X1744799Y-46009D01*
X1743943Y-47491D01*
X1743500Y-49144D01*
Y-49710D01*
X1743340Y-49990D01*
X1741694Y-51179D01*
X1741591Y-51197D01*
X1740856Y-51000D01*
X1739144D01*
X1737491Y-51443D01*
X1736009Y-52299D01*
X1734799Y-53509D01*
X1733943Y-54991D01*
X1733500Y-56644D01*
Y-58356D01*
X1733943Y-60009D01*
X1734799Y-61491D01*
X1736009Y-62701D01*
X1737491Y-63557D01*
X1739144Y-64000D01*
X1740856D01*
X1742509Y-63557D01*
X1743991Y-62701D01*
X1745201Y-61491D01*
X1746057Y-60009D01*
X1746500Y-58356D01*
Y-57790D01*
X1746660Y-57510D01*
X1748306Y-56321D01*
X1748409Y-56303D01*
X1749144Y-56500D01*
X1750856D01*
X1752509Y-56057D01*
X1753991Y-55201D01*
X1755201Y-53991D01*
X1756057Y-52509D01*
X1756500Y-50856D01*
Y-49144D01*
X1756057Y-47491D01*
X1755201Y-46009D01*
X1753991Y-44799D01*
X1752509Y-43943D01*
X1750856Y-43500D01*
D02*
G37*
G36*
X1706856Y-44750D02*
X1705144D01*
X1703491Y-45193D01*
X1702009Y-46049D01*
X1700799Y-47259D01*
X1699943Y-48741D01*
X1699500Y-50394D01*
Y-52106D01*
X1699943Y-53759D01*
X1700799Y-55241D01*
X1702009Y-56451D01*
X1703491Y-57307D01*
X1705144Y-57750D01*
X1706856D01*
X1708509Y-57307D01*
X1709991Y-56451D01*
X1711201Y-55241D01*
X1712057Y-53759D01*
X1712500Y-52106D01*
Y-50394D01*
X1712057Y-48741D01*
X1711201Y-47259D01*
X1709991Y-46049D01*
X1708509Y-45193D01*
X1706856Y-44750D01*
D02*
G37*
G36*
X1816606Y-36000D02*
X1814894D01*
X1813241Y-36443D01*
X1811759Y-37299D01*
X1810549Y-38509D01*
X1809693Y-39991D01*
X1809250Y-41644D01*
Y-43356D01*
X1809693Y-45009D01*
X1810549Y-46491D01*
X1811759Y-47701D01*
X1811792Y-47720D01*
Y-50030D01*
X1811759Y-50049D01*
X1810549Y-51259D01*
X1809693Y-52741D01*
X1809250Y-54394D01*
Y-56106D01*
X1809693Y-57759D01*
X1810549Y-59241D01*
X1811759Y-60451D01*
X1813241Y-61307D01*
X1814894Y-61750D01*
X1816606D01*
X1818259Y-61307D01*
X1819741Y-60451D01*
X1820951Y-59241D01*
X1821807Y-57759D01*
X1822250Y-56106D01*
Y-54394D01*
X1821807Y-52741D01*
X1820951Y-51259D01*
X1819741Y-50049D01*
X1819708Y-50030D01*
Y-47720D01*
X1819741Y-47701D01*
X1820951Y-46491D01*
X1821807Y-45009D01*
X1822250Y-43356D01*
Y-41644D01*
X1821807Y-39991D01*
X1820951Y-38509D01*
X1819741Y-37299D01*
X1818259Y-36443D01*
X1816606Y-36000D01*
D02*
G37*
G36*
X1851606Y-49250D02*
X1849894D01*
X1848241Y-49693D01*
X1846759Y-50549D01*
X1845549Y-51759D01*
X1844693Y-53241D01*
X1844250Y-54894D01*
Y-56606D01*
X1844693Y-58259D01*
X1845549Y-59741D01*
X1846759Y-60951D01*
X1848241Y-61807D01*
X1849894Y-62250D01*
X1851606D01*
X1853259Y-61807D01*
X1854741Y-60951D01*
X1855951Y-59741D01*
X1856807Y-58259D01*
X1857250Y-56606D01*
Y-54894D01*
X1856807Y-53241D01*
X1855951Y-51759D01*
X1854741Y-50549D01*
X1853259Y-49693D01*
X1851606Y-49250D01*
D02*
G37*
G36*
X2082518Y-8000D02*
X2077482D01*
X2072507Y-8788D01*
X2067716Y-10344D01*
X2063228Y-12631D01*
X2059153Y-15592D01*
X2055592Y-19153D01*
X2052631Y-23228D01*
X2050344Y-27716D01*
X2048788Y-32507D01*
X2048000Y-37482D01*
Y-42519D01*
X2048788Y-47493D01*
X2050344Y-52284D01*
X2052631Y-56772D01*
X2055592Y-60847D01*
X2059153Y-64408D01*
X2063228Y-67369D01*
X2067716Y-69656D01*
X2072507Y-71212D01*
X2077482Y-72000D01*
X2082518D01*
X2087493Y-71212D01*
X2092284Y-69656D01*
X2096772Y-67369D01*
X2100847Y-64408D01*
X2104408Y-60847D01*
X2107369Y-56772D01*
X2109656Y-52284D01*
X2111212Y-47493D01*
X2112000Y-42519D01*
Y-37482D01*
X2111212Y-32507D01*
X2109656Y-27716D01*
X2107369Y-23228D01*
X2104408Y-19153D01*
X2100847Y-15592D01*
X2096772Y-12631D01*
X2092284Y-10344D01*
X2087493Y-8788D01*
X2082518Y-8000D01*
D02*
G37*
G36*
X97518D02*
X92481D01*
X87507Y-8788D01*
X82716Y-10344D01*
X78228Y-12631D01*
X74153Y-15592D01*
X70592Y-19153D01*
X67631Y-23228D01*
X65344Y-27716D01*
X63788Y-32507D01*
X63000Y-37482D01*
Y-42519D01*
X63788Y-47493D01*
X65344Y-52284D01*
X67631Y-56772D01*
X70592Y-60847D01*
X74153Y-64408D01*
X78228Y-67369D01*
X82716Y-69656D01*
X87507Y-71212D01*
X92481Y-72000D01*
X97518D01*
X102493Y-71212D01*
X107284Y-69656D01*
X111772Y-67369D01*
X115847Y-64408D01*
X119408Y-60847D01*
X122369Y-56772D01*
X124656Y-52284D01*
X126212Y-47493D01*
X127000Y-42519D01*
Y-37482D01*
X126212Y-32507D01*
X124656Y-27716D01*
X122369Y-23228D01*
X119408Y-19153D01*
X115847Y-15592D01*
X111772Y-12631D01*
X107284Y-10344D01*
X102493Y-8788D01*
X97518Y-8000D01*
D02*
G37*
G36*
X1775856Y-61000D02*
X1774144D01*
X1772491Y-61443D01*
X1771009Y-62299D01*
X1769799Y-63509D01*
X1768943Y-64991D01*
X1768500Y-66644D01*
Y-68356D01*
X1768943Y-70009D01*
X1769799Y-71491D01*
X1771009Y-72701D01*
X1772491Y-73557D01*
X1774144Y-74000D01*
X1775856D01*
X1777509Y-73557D01*
X1778991Y-72701D01*
X1780201Y-71491D01*
X1781057Y-70009D01*
X1781500Y-68356D01*
Y-66644D01*
X1781057Y-64991D01*
X1780201Y-63509D01*
X1778991Y-62299D01*
X1777509Y-61443D01*
X1775856Y-61000D01*
D02*
G37*
G36*
X915856Y-63500D02*
X914144D01*
X912491Y-63943D01*
X911009Y-64799D01*
X909799Y-66009D01*
X908943Y-67491D01*
X908500Y-69144D01*
Y-70856D01*
X908943Y-72509D01*
X909799Y-73991D01*
X911009Y-75201D01*
X912491Y-76057D01*
X914144Y-76500D01*
X915856D01*
X917509Y-76057D01*
X918991Y-75201D01*
X920201Y-73991D01*
X921057Y-72509D01*
X921500Y-70856D01*
Y-69144D01*
X921057Y-67491D01*
X920201Y-66009D01*
X918991Y-64799D01*
X917509Y-63943D01*
X915856Y-63500D01*
D02*
G37*
G36*
X1124356Y-67000D02*
X1122644D01*
X1120991Y-67443D01*
X1119509Y-68299D01*
X1118299Y-69509D01*
X1117443Y-70991D01*
X1117000Y-72644D01*
Y-74356D01*
X1117443Y-76009D01*
X1118299Y-77491D01*
X1119509Y-78701D01*
X1120991Y-79557D01*
X1122644Y-80000D01*
X1124356D01*
X1126009Y-79557D01*
X1127491Y-78701D01*
X1128701Y-77491D01*
X1129557Y-76009D01*
X1130000Y-74356D01*
Y-72644D01*
X1129557Y-70991D01*
X1128701Y-69509D01*
X1127491Y-68299D01*
X1126009Y-67443D01*
X1124356Y-67000D01*
D02*
G37*
G36*
X235856Y-73500D02*
X234144D01*
X232491Y-73943D01*
X231009Y-74799D01*
X229799Y-76009D01*
X228943Y-77491D01*
X228500Y-79144D01*
Y-80856D01*
X228943Y-82509D01*
X229799Y-83991D01*
X231009Y-85201D01*
X232491Y-86057D01*
X234144Y-86500D01*
X235856D01*
X237509Y-86057D01*
X238991Y-85201D01*
X240201Y-83991D01*
X241057Y-82509D01*
X241500Y-80856D01*
Y-79144D01*
X241057Y-77491D01*
X240201Y-76009D01*
X238991Y-74799D01*
X237509Y-73943D01*
X235856Y-73500D01*
D02*
G37*
G36*
X-24144Y-78500D02*
X-25856D01*
X-27509Y-78943D01*
X-28991Y-79799D01*
X-30201Y-81009D01*
X-31057Y-82491D01*
X-31500Y-84144D01*
Y-85856D01*
X-31057Y-87509D01*
X-30201Y-88991D01*
X-28991Y-90201D01*
X-27509Y-91057D01*
X-25856Y-91500D01*
X-24144D01*
X-22491Y-91057D01*
X-21009Y-90201D01*
X-19799Y-88991D01*
X-18943Y-87509D01*
X-18500Y-85856D01*
Y-84144D01*
X-18943Y-82491D01*
X-19799Y-81009D01*
X-21009Y-79799D01*
X-22491Y-78943D01*
X-24144Y-78500D01*
D02*
G37*
%LPD*%
D23*
X1792480Y228520D02*
Y288732D01*
Y228520D02*
X1799250Y221750D01*
X1792730Y213730D02*
X1799625Y220625D01*
X1800000Y221000D01*
X1794250Y290502D02*
Y292250D01*
X1792480Y288732D02*
X1794250Y290502D01*
Y292250D02*
X1851100Y349100D01*
Y387300D01*
X1800500Y114000D02*
Y210273D01*
X1807770Y217543D01*
X1800500Y105238D02*
Y114000D01*
X1807770Y217543D02*
Y226230D01*
X1800500Y105238D02*
X1801770Y103968D01*
X1790816Y26999D02*
Y95818D01*
X1799250Y221000D02*
Y221750D01*
X1800250Y233750D02*
X1807770Y226230D01*
X1792730Y110782D02*
Y213730D01*
X1794000Y99002D02*
Y109512D01*
X1790816Y26999D02*
X1795250Y22565D01*
X1790816Y95818D02*
X1794000Y99002D01*
X1792730Y110782D02*
X1794000Y109512D01*
X1795250Y7500D02*
Y22565D01*
X1801770Y22466D02*
X1807733Y16502D01*
X1801770Y22466D02*
Y103968D01*
X21459Y548210D02*
X1774109D01*
X1851100Y412700D02*
Y471219D01*
X1774109Y548210D02*
X1851100Y471219D01*
X-15000Y511751D02*
X21459Y548210D01*
X-15000Y197000D02*
Y511751D01*
X-12960Y95430D02*
X7132Y75339D01*
X-17500Y93550D02*
X5251Y70799D01*
X53970Y84419D02*
X69159Y69230D01*
X7132Y75339D02*
X50209D01*
X52090Y79879D02*
X67278Y64690D01*
X5251Y70799D02*
X47451D01*
X64500Y53750D01*
X11298Y84419D02*
X53970D01*
X-3880Y99597D02*
X11298Y84419D01*
X9013Y79879D02*
X52090D01*
X-8420Y97311D02*
X9013Y79879D01*
X50209Y75339D02*
X65398Y60150D01*
X69350D02*
X84500Y45000D01*
X69159Y69230D02*
X100270D01*
X65398Y60150D02*
X69350D01*
X67278Y64690D02*
X84810D01*
X-3880Y99597D02*
Y157908D01*
X-17500Y93550D02*
Y151065D01*
X-15000Y197000D02*
X-5000Y187000D01*
X-32646Y399286D02*
X-20000Y386640D01*
Y192359D02*
X-12770Y185129D01*
X-20000Y192359D02*
Y386640D01*
X-12770Y166798D02*
Y185129D01*
X-23217Y156781D02*
X-17500Y151065D01*
X-35719Y156781D02*
X-23217D01*
X-55000Y176063D02*
X-35719Y156781D01*
X-55000Y176063D02*
Y260000D01*
X-75000Y280000D02*
X-55000Y260000D01*
X-75000Y280000D02*
Y367250D01*
X-8420Y97311D02*
Y156028D01*
X-62818Y387766D02*
X-51298Y399286D01*
X-12960Y95430D02*
Y154147D01*
X-17559Y165167D02*
X-8420Y156028D01*
X-22031Y163219D02*
X-12960Y154147D01*
X-17559Y165167D02*
Y183497D01*
X-49750Y178750D02*
Y349298D01*
Y178750D02*
X-34219Y163219D01*
X-22031D01*
X-25250Y191188D02*
Y375598D01*
X-51298Y399286D02*
X-32646D01*
X-25250Y191188D02*
X-17559Y183497D01*
X-75000Y367250D02*
X-66750Y375500D01*
X-62818Y362366D02*
X-49750Y349298D01*
X-37418Y387766D02*
X-25250Y375598D01*
X64500Y45000D02*
Y53750D01*
X84810Y64690D02*
X104500Y45000D01*
X-66750Y375500D02*
X-50552D01*
X-37418Y362366D01*
X100270Y69230D02*
X124500Y45000D01*
X-12770Y166798D02*
X-3880Y157908D01*
X1957250Y252250D02*
Y265500D01*
X1902000Y320750D02*
X1957250Y265500D01*
X1362499Y137500D02*
X1375307Y124692D01*
X1382837D01*
X1395707Y111823D01*
Y76761D02*
Y111823D01*
Y76761D02*
X1407218Y65250D01*
X1434000D01*
X1495000Y107012D02*
X1522500Y134511D01*
Y137500D01*
X1495000Y-22500D02*
Y107012D01*
X1170000Y105001D02*
X1202499Y137500D01*
X1170000Y-17310D02*
Y105001D01*
D24*
X317250Y137250D02*
X924000D01*
X948500Y161750D02*
Y195500D01*
X924000Y137250D02*
X948500Y161750D01*
D26*
X1742500Y372500D02*
D03*
Y437500D02*
D03*
X1697500Y372500D02*
D03*
X1697250Y437500D02*
D03*
X1107500Y182750D02*
D03*
Y137500D02*
D03*
X1042500D02*
D03*
Y182500D02*
D03*
X1107500Y22750D02*
D03*
Y-22500D02*
D03*
X1042500D02*
D03*
Y22500D02*
D03*
X1965000Y135000D02*
D03*
X1941001D02*
D03*
X1915000D02*
D03*
X1965000Y280000D02*
D03*
X1915000D02*
D03*
X2212500Y-22500D02*
D03*
X1667500Y-22750D02*
D03*
X1522500Y22500D02*
D03*
X1362499D02*
D03*
X1202499D02*
D03*
X152500Y-22500D02*
D03*
X32500Y57500D02*
D03*
X1587500Y182750D02*
D03*
X1362499Y182500D02*
D03*
X1202499D02*
D03*
X32500Y137500D02*
D03*
X972500Y162500D02*
D03*
X352500Y207750D02*
D03*
X32510Y-22500D02*
D03*
X2212500Y382500D02*
D03*
X2147500D02*
D03*
Y427500D02*
D03*
X2212500Y427750D02*
D03*
X2212500Y22750D02*
D03*
X2147500Y22500D02*
D03*
Y-22500D02*
D03*
X1732500Y-22500D02*
D03*
X1667500Y22500D02*
D03*
X1732500D02*
D03*
X1522500Y-22500D02*
D03*
X1587500D02*
D03*
Y22750D02*
D03*
X1362499Y-22500D02*
D03*
X1427499D02*
D03*
Y22750D02*
D03*
X1522500Y182500D02*
D03*
X1587500Y137500D02*
D03*
X1522500D02*
D03*
X1202499Y-22500D02*
D03*
X1267499D02*
D03*
Y22750D02*
D03*
X972500Y207500D02*
D03*
X907500D02*
D03*
Y162250D02*
D03*
X1362499Y137500D02*
D03*
X1427499D02*
D03*
Y182750D02*
D03*
X1202499Y137500D02*
D03*
X1267499D02*
D03*
Y182750D02*
D03*
X217500Y22750D02*
D03*
X152500Y22500D02*
D03*
X217500Y-22500D02*
D03*
X32500Y102750D02*
D03*
X-32500Y102500D02*
D03*
Y57500D02*
D03*
X32510Y22750D02*
D03*
X-32490Y22500D02*
D03*
Y-22500D02*
D03*
X287500Y162500D02*
D03*
X352500D02*
D03*
X287500Y207500D02*
D03*
X-32500Y137500D02*
D03*
Y182500D02*
D03*
X32500Y182750D02*
D03*
D27*
X1087700Y110000D02*
D03*
X1062300D02*
D03*
Y50000D02*
D03*
X1087700D02*
D03*
Y80000D02*
D03*
X1062300D02*
D03*
X1020000Y147300D02*
D03*
Y172700D02*
D03*
X1340000Y147300D02*
D03*
Y172700D02*
D03*
X1180000Y147300D02*
D03*
Y172700D02*
D03*
X1825700Y387300D02*
D03*
X1851100Y412700D02*
D03*
X1851100Y387300D02*
D03*
X1876500Y412700D02*
D03*
Y387300D02*
D03*
X1901900D02*
D03*
X1927300Y412700D02*
D03*
X1927300Y387300D02*
D03*
X1952700Y412700D02*
D03*
X1952700Y387300D02*
D03*
X1978100Y412700D02*
D03*
Y387300D02*
D03*
X1901900Y412700D02*
D03*
X2054300Y387300D02*
D03*
X2054300Y412700D02*
D03*
X2028900Y387300D02*
D03*
Y412700D02*
D03*
X2003500Y387300D02*
D03*
X2003500Y412700D02*
D03*
X2137300Y455000D02*
D03*
X2162700D02*
D03*
X2137300Y50000D02*
D03*
X2162700D02*
D03*
X2197300Y455000D02*
D03*
X2222700D02*
D03*
X2197300Y50000D02*
D03*
X2222700D02*
D03*
X1290000Y172700D02*
D03*
Y147300D02*
D03*
X1450000Y172700D02*
D03*
Y147300D02*
D03*
X1542300Y50000D02*
D03*
X1567700D02*
D03*
X1382299Y49999D02*
D03*
X1407699D02*
D03*
Y80000D02*
D03*
X1382299D02*
D03*
X1542300Y110000D02*
D03*
X1567700D02*
D03*
X1382299Y109999D02*
D03*
X1407699D02*
D03*
X1222299Y49999D02*
D03*
X1247699D02*
D03*
Y80000D02*
D03*
X1222299D02*
D03*
X107700Y160000D02*
D03*
X82300D02*
D03*
X1247699Y109999D02*
D03*
X1222299D02*
D03*
X172300Y80000D02*
D03*
X197700D02*
D03*
X172300Y160000D02*
D03*
X197700D02*
D03*
X362300Y185000D02*
D03*
X387700D02*
D03*
X107700Y80000D02*
D03*
X82300D02*
D03*
X897700Y185000D02*
D03*
X872300D02*
D03*
D28*
X1882000Y210000D02*
D03*
X1998000D02*
D03*
D29*
X1825700Y412700D02*
D03*
D30*
X-37418Y336966D02*
D03*
Y362366D02*
D03*
X-62818Y463966D02*
D03*
X-37418D02*
D03*
X-62818Y438566D02*
D03*
X-37418D02*
D03*
X-62818Y413166D02*
D03*
X-37418D02*
D03*
X-62818Y387766D02*
D03*
X-37418D02*
D03*
X-62818Y362366D02*
D03*
Y336966D02*
D03*
Y311566D02*
D03*
X-37418D02*
D03*
X-62818Y286166D02*
D03*
D31*
X-37418D02*
D03*
D32*
X1784710Y232500D02*
D03*
X1800500Y114000D02*
D03*
X1794000Y100750D02*
D03*
X1761500Y84750D02*
D03*
X1800250Y233750D02*
D03*
X1800000Y221000D02*
D03*
X1854250Y214250D02*
D03*
X1794250Y292250D02*
D03*
X1807733Y16502D02*
D03*
X1975250Y334750D02*
D03*
X1942000Y349250D02*
D03*
X2208750Y280250D02*
D03*
X2154500Y280000D02*
D03*
X2129000Y216750D02*
D03*
X2227750Y272250D02*
D03*
X2234000Y150750D02*
D03*
X2173250Y151000D02*
D03*
X2178686Y226126D02*
D03*
X1990250Y374000D02*
D03*
X2094250Y321750D02*
D03*
X2064750Y228250D02*
D03*
X1545750Y134750D02*
D03*
X1615750Y137750D02*
D03*
X1868250Y159250D02*
D03*
X1898000Y110500D02*
D03*
X1645750Y103500D02*
D03*
X1479000Y51750D02*
D03*
X1397250Y-22250D02*
D03*
X1555250Y-22500D02*
D03*
X1706000Y-51250D02*
D03*
X1775000Y-67500D02*
D03*
X53250Y177500D02*
D03*
X64500Y45000D02*
D03*
X84500Y45000D02*
D03*
X104500D02*
D03*
X124500D02*
D03*
X9250Y105750D02*
D03*
X-13250Y60250D02*
D03*
X216500Y94500D02*
D03*
X-5000Y187000D02*
D03*
X1758135Y317502D02*
D03*
X1741250Y294500D02*
D03*
X1758184Y360998D02*
D03*
X1777482Y355500D02*
D03*
X1902000Y320750D02*
D03*
X1957250Y252250D02*
D03*
X1886789Y124500D02*
D03*
X134500Y126000D02*
D03*
X1755250Y15750D02*
D03*
X2014500Y305500D02*
D03*
X2053500Y335250D02*
D03*
X2047000Y306250D02*
D03*
X317250Y137250D02*
D03*
X948500Y195500D02*
D03*
X1756500Y294500D02*
D03*
X1947500Y263000D02*
D03*
X1860000Y-40750D02*
D03*
X1731250Y188000D02*
D03*
X1760250Y213250D02*
D03*
X1760000Y187000D02*
D03*
X1527000Y90500D02*
D03*
X1621750Y81250D02*
D03*
X1881750Y258750D02*
D03*
X1882500Y281750D02*
D03*
X1857500Y283250D02*
D03*
X1867750Y297000D02*
D03*
X1882501Y270296D02*
D03*
X1872500Y250000D02*
D03*
X1850500Y238250D02*
D03*
X1872500D02*
D03*
X1854250Y203000D02*
D03*
X1925750Y246500D02*
D03*
X1735000Y142500D02*
D03*
X1815000Y162500D02*
D03*
Y175250D02*
D03*
X1434000Y65250D02*
D03*
X1455250Y-22500D02*
D03*
X1639000Y130250D02*
D03*
X1646750Y141750D02*
D03*
X1655500Y130250D02*
D03*
X1667000Y141750D02*
D03*
X1678750D02*
D03*
Y130500D02*
D03*
X1063000Y166500D02*
D03*
X1515750Y90500D02*
D03*
X1854250Y148750D02*
D03*
Y162500D02*
D03*
Y175500D02*
D03*
X1689750Y13750D02*
D03*
X1721750Y126500D02*
D03*
X1753750Y113250D02*
D03*
X1815000Y149250D02*
D03*
X1136000Y34750D02*
D03*
X1123500Y-73500D02*
D03*
X1731750Y-6500D02*
D03*
X1732000Y8000D02*
D03*
X1672500Y250D02*
D03*
X1689750Y-8750D02*
D03*
X1701000D02*
D03*
X1709750Y500D02*
D03*
X1850750Y-55750D02*
D03*
X1815750Y-55250D02*
D03*
Y-42500D02*
D03*
X1977000Y101000D02*
D03*
X1817500Y49250D02*
D03*
X1755250Y63000D02*
D03*
X1810750Y33000D02*
D03*
X1795250Y-10500D02*
D03*
Y7500D02*
D03*
X1557500Y152500D02*
D03*
X1860000Y30000D02*
D03*
Y17500D02*
D03*
X1312500Y182500D02*
D03*
X1570000Y140000D02*
D03*
X1817500Y-17500D02*
D03*
X1882500Y-7500D02*
D03*
X1860000D02*
D03*
Y-20000D02*
D03*
X1750000Y-50000D02*
D03*
X1740000Y-57500D02*
D03*
X1495000Y-22500D02*
D03*
X1472500Y110000D02*
D03*
X997500Y-15000D02*
D03*
X1020000D02*
D03*
X1855000Y115000D02*
D03*
Y315000D02*
D03*
X1800000Y340000D02*
D03*
X1886998Y320411D02*
D03*
X1600000Y95000D02*
D03*
X1170000Y-17310D02*
D03*
X915000Y-70000D02*
D03*
X2115000Y147690D02*
D03*
X2055000Y315000D02*
D03*
X225000Y45000D02*
D03*
X245000Y50000D02*
D03*
X135000Y140000D02*
D03*
X303009Y-24779D02*
D03*
X290000Y50000D02*
D03*
X235000Y-80000D02*
D03*
X-25000Y-85000D02*
D03*
D33*
X632511Y0D02*
D03*
X455000Y80000D02*
D03*
X1340000D02*
D03*
X2080000Y510000D02*
D03*
Y-40000D02*
D03*
X95000D02*
D03*
X-52489Y505589D02*
D03*
M02*
