G04*
G04 #@! TF.GenerationSoftware,Altium Limited,Altium Designer,25.8.1 (18)*
G04*
G04 Layer_Physical_Order=2*
G04 Layer_Color=10066410*
%FSLAX44Y44*%
%MOMM*%
G71*
G04*
G04 #@! TF.SameCoordinates,4735BC6C-472E-4BDB-949C-0D940F0CBE95*
G04*
G04*
G04 #@! TF.FilePolarity,Positive*
G04*
G01*
G75*
%ADD10C,0.2000*%
%ADD23C,0.2540*%
%ADD26C,1.6000*%
%ADD27C,1.5000*%
%ADD28O,3.6000X4.2000*%
%ADD29R,1.5000X1.5000*%
%ADD30C,1.6500*%
%ADD31R,1.6500X1.6500*%
%ADD32C,0.9000*%
%ADD33C,6.0000*%
G36*
X2272016Y566253D02*
X2274435Y566015D01*
X2276286Y565453D01*
X2277991Y564542D01*
X2279487Y563315D01*
X2280713Y561820D01*
X2281625Y560115D01*
X2282186Y558264D01*
X2282425Y555844D01*
Y-95665D01*
X2282186Y-98085D01*
X2281625Y-99936D01*
X2280713Y-101641D01*
X2279487Y-103136D01*
X2277992Y-104363D01*
X2276286Y-105275D01*
X2274435Y-105836D01*
X2272016Y-106074D01*
X-109494Y-106074D01*
X-111913Y-105836D01*
X-113764Y-105274D01*
X-115470Y-104363D01*
X-116965Y-103136D01*
X-118191Y-101641D01*
X-119103Y-99936D01*
X-119664Y-98085D01*
X-119903Y-95665D01*
Y555844D01*
X-119664Y558264D01*
X-119103Y560115D01*
X-118191Y561820D01*
X-116965Y563315D01*
X-115470Y564542D01*
X-113764Y565454D01*
X-111913Y566015D01*
X-109494Y566253D01*
X2272016Y566253D01*
D02*
G37*
%LPC*%
G36*
X2082561Y542540D02*
X2081270D01*
Y511270D01*
X2112540D01*
Y512561D01*
X2111739Y517620D01*
X2110156Y522491D01*
X2107831Y527055D01*
X2104820Y531198D01*
X2101198Y534820D01*
X2097055Y537831D01*
X2092491Y540156D01*
X2087620Y541739D01*
X2082561Y542540D01*
D02*
G37*
G36*
X2078730D02*
X2077439D01*
X2072380Y541739D01*
X2067509Y540156D01*
X2062945Y537831D01*
X2058802Y534820D01*
X2055180Y531198D01*
X2052169Y527055D01*
X2049844Y522491D01*
X2048261Y517620D01*
X2047460Y512561D01*
Y511270D01*
X2078730D01*
Y542540D01*
D02*
G37*
G36*
X-49928Y538129D02*
X-51219D01*
Y506859D01*
X-19949D01*
Y508150D01*
X-20751Y513209D01*
X-22333Y518080D01*
X-24659Y522644D01*
X-27669Y526788D01*
X-31291Y530410D01*
X-35435Y533420D01*
X-39998Y535745D01*
X-44869Y537328D01*
X-49928Y538129D01*
D02*
G37*
G36*
X-53759D02*
X-55050D01*
X-60109Y537328D01*
X-64980Y535745D01*
X-69544Y533420D01*
X-73688Y530410D01*
X-77309Y526788D01*
X-80320Y522644D01*
X-82645Y518080D01*
X-84228Y513209D01*
X-85029Y508150D01*
Y506859D01*
X-53759D01*
Y538129D01*
D02*
G37*
G36*
X1654511Y534176D02*
X40511D01*
X40096Y534121D01*
X37570Y533872D01*
X34743Y533015D01*
X32137Y531622D01*
X29853Y529747D01*
X27978Y527463D01*
X26586Y524857D01*
X25728Y522030D01*
X25511Y519828D01*
X25414Y519089D01*
Y496336D01*
X18750Y496336D01*
X18335Y496282D01*
X15809Y496033D01*
X12982Y495175D01*
X10376Y493782D01*
X8092Y491908D01*
X6217Y489624D01*
X4825Y487018D01*
X3967Y484190D01*
X3718Y481664D01*
X3664Y481250D01*
Y264929D01*
X3718Y264515D01*
X3967Y261988D01*
X4825Y259160D01*
X6217Y256555D01*
X8092Y254271D01*
X10376Y252396D01*
X12982Y251003D01*
X15809Y250146D01*
X18336Y249897D01*
X18750Y249842D01*
X25416D01*
X25424Y227085D01*
X25480Y226664D01*
X25728Y224149D01*
X26586Y221321D01*
X27978Y218715D01*
X29853Y216431D01*
X32137Y214557D01*
X34743Y213164D01*
X37570Y212306D01*
X40096Y212057D01*
X40511Y212003D01*
X276346Y212003D01*
X277818Y210003D01*
X277500Y208817D01*
Y206183D01*
X278181Y203640D01*
X279498Y201360D01*
X281360Y199498D01*
X283640Y198181D01*
X286183Y197500D01*
X288817D01*
X291360Y198181D01*
X293640Y199498D01*
X295502Y201360D01*
X296819Y203640D01*
X297500Y206183D01*
Y208817D01*
X297182Y210003D01*
X298654Y212003D01*
X340657D01*
X342192Y210003D01*
X341960Y209138D01*
Y209020D01*
X363040D01*
Y209138D01*
X362808Y210003D01*
X364343Y212003D01*
X896346Y212003D01*
X897818Y210003D01*
X897500Y208817D01*
Y206183D01*
X898182Y203640D01*
X899498Y201360D01*
X901360Y199498D01*
X903640Y198181D01*
X906183Y197500D01*
X908817D01*
X911360Y198181D01*
X913640Y199498D01*
X915502Y201360D01*
X916818Y203640D01*
X917500Y206183D01*
Y208817D01*
X917182Y210003D01*
X918654Y212003D01*
X961346D01*
X962818Y210003D01*
X962500Y208817D01*
Y206183D01*
X963182Y203640D01*
X964498Y201360D01*
X966360Y199498D01*
X968640Y198181D01*
X971183Y197500D01*
X973817D01*
X976360Y198181D01*
X978640Y199498D01*
X980502Y201360D01*
X981818Y203640D01*
X982500Y206183D01*
Y208817D01*
X982182Y210003D01*
X983654Y212003D01*
X1654511Y212003D01*
X1654925Y212058D01*
X1657451Y212306D01*
X1660279Y213164D01*
X1662884Y214557D01*
X1665168Y216431D01*
X1667043Y218715D01*
X1668436Y221321D01*
X1669294Y224149D01*
X1669510Y226351D01*
X1669608Y227089D01*
Y249842D01*
X1676272Y249842D01*
X1676686Y249897D01*
X1679212Y250146D01*
X1682039Y251003D01*
X1684645Y252396D01*
X1686929Y254271D01*
X1688804Y256555D01*
X1690197Y259161D01*
X1691054Y261988D01*
X1691303Y264514D01*
X1691358Y264929D01*
Y362190D01*
X1693358Y363345D01*
X1693640Y363181D01*
X1696183Y362500D01*
X1698817D01*
X1701360Y363181D01*
X1703640Y364498D01*
X1705502Y366360D01*
X1706819Y368640D01*
X1707500Y371184D01*
Y373816D01*
X1706819Y376360D01*
X1705502Y378640D01*
X1703640Y380502D01*
X1701360Y381819D01*
X1698817Y382500D01*
X1696183D01*
X1693640Y381819D01*
X1693358Y381655D01*
X1691358Y382810D01*
Y426731D01*
X1692791Y427559D01*
X1693358Y427631D01*
X1695862Y426960D01*
X1695980D01*
Y437500D01*
Y448040D01*
X1695862D01*
X1693358Y447369D01*
X1692791Y447441D01*
X1691358Y448269D01*
Y481250D01*
X1691303Y481665D01*
X1691054Y484191D01*
X1690213Y486964D01*
X1690304Y487130D01*
X1691655Y488532D01*
X1692260Y488281D01*
X1695738Y487589D01*
X1699283D01*
X1702761Y488281D01*
X1706037Y489638D01*
X1708985Y491608D01*
X1711492Y494115D01*
X1713462Y497063D01*
X1714819Y500339D01*
X1715511Y503817D01*
Y507362D01*
X1714819Y510840D01*
X1713462Y514116D01*
X1711492Y517064D01*
X1708985Y519571D01*
X1706037Y521541D01*
X1702761Y522898D01*
X1699283Y523589D01*
X1695738D01*
X1692260Y522898D01*
X1688984Y521541D01*
X1686036Y519571D01*
X1683529Y517064D01*
X1681559Y514116D01*
X1680202Y510840D01*
X1679511Y507362D01*
Y503817D01*
X1680202Y500339D01*
X1681394Y497461D01*
X1680735Y496391D01*
X1680002Y495793D01*
X1679212Y496033D01*
X1676686Y496282D01*
X1676272Y496336D01*
X1669608D01*
Y519090D01*
X1669510Y519827D01*
X1669294Y522030D01*
X1668436Y524857D01*
X1667043Y527463D01*
X1665168Y529747D01*
X1662885Y531622D01*
X1660279Y533015D01*
X1657451Y533872D01*
X1654924Y534121D01*
X1654511Y534176D01*
D02*
G37*
G36*
X2112540Y508730D02*
X2081270D01*
Y477460D01*
X2082561D01*
X2087620Y478261D01*
X2092491Y479844D01*
X2097055Y482169D01*
X2101198Y485180D01*
X2104820Y488802D01*
X2107831Y492945D01*
X2110156Y497509D01*
X2111739Y502380D01*
X2112540Y507439D01*
Y508730D01*
D02*
G37*
G36*
X2078730D02*
X2047460D01*
Y507439D01*
X2048261Y502380D01*
X2049844Y497509D01*
X2052169Y492945D01*
X2055180Y488802D01*
X2058802Y485180D01*
X2062945Y482169D01*
X2067509Y479844D01*
X2072380Y478261D01*
X2077439Y477460D01*
X2078730D01*
Y508730D01*
D02*
G37*
G36*
X-19949Y504319D02*
X-51219D01*
Y473049D01*
X-49928D01*
X-44869Y473851D01*
X-44706Y473904D01*
X-43712Y472168D01*
X-45620Y470260D01*
X-46970Y467923D01*
X-47668Y465316D01*
Y462617D01*
X-46970Y460010D01*
X-45620Y457673D01*
X-43712Y455764D01*
X-41375Y454415D01*
X-38768Y453716D01*
X-36069D01*
X-33462Y454415D01*
X-31124Y455764D01*
X-29216Y457673D01*
X-27867Y460010D01*
X-27168Y462617D01*
Y465316D01*
X-27867Y467923D01*
X-29216Y470260D01*
X-31124Y472168D01*
X-33462Y473518D01*
X-36069Y474216D01*
X-37982D01*
X-38462Y476216D01*
X-35435Y477759D01*
X-31291Y480769D01*
X-27669Y484391D01*
X-24659Y488535D01*
X-22333Y493098D01*
X-20751Y497970D01*
X-19949Y503028D01*
Y504319D01*
D02*
G37*
G36*
X-53759D02*
X-85029D01*
Y503028D01*
X-84228Y497970D01*
X-82645Y493098D01*
X-80320Y488535D01*
X-77309Y484391D01*
X-73688Y480769D01*
X-69544Y477759D01*
X-65798Y475850D01*
X-66022Y473719D01*
X-66775Y473518D01*
X-69112Y472168D01*
X-71020Y470260D01*
X-72370Y467923D01*
X-73068Y465316D01*
Y462617D01*
X-72370Y460010D01*
X-71020Y457673D01*
X-69112Y455764D01*
X-66775Y454415D01*
X-64168Y453716D01*
X-61469D01*
X-58862Y454415D01*
X-56525Y455764D01*
X-54616Y457673D01*
X-53267Y460010D01*
X-52568Y462617D01*
Y465316D01*
X-53267Y467923D01*
X-54616Y470260D01*
X-55443Y471087D01*
X-55277Y471916D01*
X-54577Y473049D01*
X-53759D01*
Y504319D01*
D02*
G37*
G36*
X2223951Y464500D02*
X2221449D01*
X2219033Y463853D01*
X2216867Y462602D01*
X2215098Y460833D01*
X2213847Y458667D01*
X2213200Y456251D01*
Y453749D01*
X2213847Y451333D01*
X2215098Y449167D01*
X2216867Y447398D01*
X2219033Y446147D01*
X2221449Y445500D01*
X2223951D01*
X2226367Y446147D01*
X2228533Y447398D01*
X2230302Y449167D01*
X2231553Y451333D01*
X2232200Y453749D01*
Y456251D01*
X2231553Y458667D01*
X2230302Y460833D01*
X2228533Y462602D01*
X2226367Y463853D01*
X2223951Y464500D01*
D02*
G37*
G36*
X2198551D02*
X2196049D01*
X2193633Y463853D01*
X2191467Y462602D01*
X2189698Y460833D01*
X2188447Y458667D01*
X2187800Y456251D01*
Y453749D01*
X2188447Y451333D01*
X2189698Y449167D01*
X2191467Y447398D01*
X2193633Y446147D01*
X2196049Y445500D01*
X2198551D01*
X2200967Y446147D01*
X2203133Y447398D01*
X2204902Y449167D01*
X2206153Y451333D01*
X2206800Y453749D01*
Y456251D01*
X2206153Y458667D01*
X2204902Y460833D01*
X2203133Y462602D01*
X2200967Y463853D01*
X2198551Y464500D01*
D02*
G37*
G36*
X2163951D02*
X2161449D01*
X2159033Y463853D01*
X2156867Y462602D01*
X2155098Y460833D01*
X2153847Y458667D01*
X2153200Y456251D01*
Y453749D01*
X2153847Y451333D01*
X2155098Y449167D01*
X2156867Y447398D01*
X2159033Y446147D01*
X2161449Y445500D01*
X2163951D01*
X2166367Y446147D01*
X2168533Y447398D01*
X2170302Y449167D01*
X2171553Y451333D01*
X2172200Y453749D01*
Y456251D01*
X2171553Y458667D01*
X2170302Y460833D01*
X2168533Y462602D01*
X2166367Y463853D01*
X2163951Y464500D01*
D02*
G37*
G36*
X2138551D02*
X2136049D01*
X2133633Y463853D01*
X2131467Y462602D01*
X2129698Y460833D01*
X2128447Y458667D01*
X2127800Y456251D01*
Y453749D01*
X2128447Y451333D01*
X2129698Y449167D01*
X2131467Y447398D01*
X2133633Y446147D01*
X2136049Y445500D01*
X2138551D01*
X2140967Y446147D01*
X2143133Y447398D01*
X2144902Y449167D01*
X2146153Y451333D01*
X2146800Y453749D01*
Y456251D01*
X2146153Y458667D01*
X2144902Y460833D01*
X2143133Y462602D01*
X2140967Y463853D01*
X2138551Y464500D01*
D02*
G37*
G36*
X1698638Y448040D02*
X1698520D01*
Y438770D01*
X1707790D01*
Y438888D01*
X1707072Y441568D01*
X1705684Y443972D01*
X1703722Y445934D01*
X1701318Y447322D01*
X1698638Y448040D01*
D02*
G37*
G36*
X-61469Y448816D02*
X-64168D01*
X-66775Y448118D01*
X-69112Y446768D01*
X-71020Y444860D01*
X-72370Y442523D01*
X-73068Y439916D01*
Y437217D01*
X-72370Y434610D01*
X-71020Y432273D01*
X-69112Y430364D01*
X-66775Y429015D01*
X-64168Y428316D01*
X-61469D01*
X-58862Y429015D01*
X-56525Y430364D01*
X-54616Y432273D01*
X-53267Y434610D01*
X-52568Y437217D01*
Y439916D01*
X-53267Y442523D01*
X-54616Y444860D01*
X-56525Y446768D01*
X-58862Y448118D01*
X-61469Y448816D01*
D02*
G37*
G36*
X1743817Y447500D02*
X1741183D01*
X1738640Y446819D01*
X1736360Y445502D01*
X1734498Y443640D01*
X1733181Y441360D01*
X1732500Y438816D01*
Y436184D01*
X1733181Y433640D01*
X1734498Y431360D01*
X1736360Y429498D01*
X1738640Y428181D01*
X1741183Y427500D01*
X1743817D01*
X1746360Y428181D01*
X1748640Y429498D01*
X1750502Y431360D01*
X1751819Y433640D01*
X1752500Y436184D01*
Y438816D01*
X1751819Y441360D01*
X1750502Y443640D01*
X1748640Y445502D01*
X1746360Y446819D01*
X1743817Y447500D01*
D02*
G37*
G36*
X1707790Y436230D02*
X1698520D01*
Y426960D01*
X1698638D01*
X1701318Y427678D01*
X1703722Y429066D01*
X1705684Y431028D01*
X1707072Y433432D01*
X1707790Y436112D01*
Y436230D01*
D02*
G37*
G36*
X2213817Y437750D02*
X2211183D01*
X2208640Y437068D01*
X2206360Y435752D01*
X2204498Y433890D01*
X2203181Y431610D01*
X2202500Y429067D01*
Y426433D01*
X2203181Y423890D01*
X2204498Y421610D01*
X2206360Y419748D01*
X2208640Y418432D01*
X2211183Y417750D01*
X2213817D01*
X2216360Y418432D01*
X2218640Y419748D01*
X2220502Y421610D01*
X2221819Y423890D01*
X2222500Y426433D01*
Y429067D01*
X2221819Y431610D01*
X2220502Y433890D01*
X2218640Y435752D01*
X2216360Y437068D01*
X2213817Y437750D01*
D02*
G37*
G36*
X2148817Y437500D02*
X2146183D01*
X2143640Y436819D01*
X2141360Y435502D01*
X2139498Y433640D01*
X2138181Y431360D01*
X2137500Y428816D01*
Y426184D01*
X2138181Y423640D01*
X2139498Y421360D01*
X2141360Y419498D01*
X2143640Y418181D01*
X2146183Y417500D01*
X2148817D01*
X2151360Y418181D01*
X2153640Y419498D01*
X2155502Y421360D01*
X2156819Y423640D01*
X2157500Y426184D01*
Y428816D01*
X2156819Y431360D01*
X2155502Y433640D01*
X2153640Y435502D01*
X2151360Y436819D01*
X2148817Y437500D01*
D02*
G37*
G36*
X2055622Y422740D02*
X2055570D01*
Y413970D01*
X2064340D01*
Y414022D01*
X2063656Y416575D01*
X2062334Y418865D01*
X2060465Y420734D01*
X2058175Y422056D01*
X2055622Y422740D01*
D02*
G37*
G36*
X2053030D02*
X2052978D01*
X2050425Y422056D01*
X2048135Y420734D01*
X2046266Y418865D01*
X2044944Y416575D01*
X2044260Y414022D01*
Y413970D01*
X2053030D01*
Y422740D01*
D02*
G37*
G36*
X2004751Y422200D02*
X2002249D01*
X1999833Y421553D01*
X1997667Y420302D01*
X1995898Y418533D01*
X1994647Y416367D01*
X1994000Y413951D01*
Y411449D01*
X1994647Y409033D01*
X1995898Y406867D01*
X1997667Y405098D01*
X1999833Y403847D01*
X2002249Y403200D01*
X2004751D01*
X2007167Y403847D01*
X2009333Y405098D01*
X2011102Y406867D01*
X2012353Y409033D01*
X2013000Y411449D01*
Y413951D01*
X2012353Y416367D01*
X2011102Y418533D01*
X2009333Y420302D01*
X2007167Y421553D01*
X2004751Y422200D01*
D02*
G37*
G36*
X1777788Y556084D02*
X19579D01*
X18303Y555830D01*
X17221Y555108D01*
X-11682Y526205D01*
X-12405Y525123D01*
X-12658Y523847D01*
Y445228D01*
X-26675Y431212D01*
X-27582Y431258D01*
X-28331Y432365D01*
X-28510Y433496D01*
X-27867Y434610D01*
X-27168Y437217D01*
Y439916D01*
X-27867Y442523D01*
X-29216Y444860D01*
X-31124Y446768D01*
X-33462Y448118D01*
X-36069Y448816D01*
X-38768D01*
X-41375Y448118D01*
X-43712Y446768D01*
X-45620Y444860D01*
X-46970Y442523D01*
X-47668Y439916D01*
Y437217D01*
X-46970Y434610D01*
X-45620Y432273D01*
X-43712Y430364D01*
X-43601Y427991D01*
X-52420Y419171D01*
X-54450D01*
X-54616Y419460D01*
X-56525Y421368D01*
X-58862Y422718D01*
X-61469Y423416D01*
X-64168D01*
X-66775Y422718D01*
X-69112Y421368D01*
X-71020Y419460D01*
X-72370Y417123D01*
X-73068Y414516D01*
Y411817D01*
X-72370Y409210D01*
X-71020Y406873D01*
X-69112Y404964D01*
X-66775Y403615D01*
X-64168Y402916D01*
X-61469D01*
X-58862Y403615D01*
X-56525Y404964D01*
X-54616Y406873D01*
X-53267Y409210D01*
X-52568Y411817D01*
Y412503D01*
X-51039D01*
X-49763Y412757D01*
X-49668Y412821D01*
X-47668Y411817D01*
X-46970Y409210D01*
X-45620Y406873D01*
X-43712Y404964D01*
X-41375Y403615D01*
X-38768Y402916D01*
X-36069D01*
X-33462Y403615D01*
X-31124Y404964D01*
X-29216Y406873D01*
X-27867Y409210D01*
X-27168Y411817D01*
Y414516D01*
X-27867Y417123D01*
X-28189Y417681D01*
X-26697Y419172D01*
X-23537D01*
X-22261Y419426D01*
X-21180Y420149D01*
X-2427Y438902D01*
X-1704Y439983D01*
X-1450Y441259D01*
Y520586D01*
X22840Y544876D01*
X1772728D01*
X1889501Y428102D01*
X1890583Y427380D01*
X1891859Y427126D01*
X1933559D01*
X1944020Y416665D01*
X1943848Y416367D01*
X1943200Y413951D01*
Y411449D01*
X1943848Y409033D01*
X1945098Y406867D01*
X1946867Y405098D01*
X1949033Y403847D01*
X1951449Y403200D01*
X1953951D01*
X1956367Y403847D01*
X1958533Y405098D01*
X1960302Y406867D01*
X1961553Y409033D01*
X1962200Y411449D01*
Y413951D01*
X1961553Y416367D01*
X1960302Y418533D01*
X1958533Y420302D01*
X1956367Y421553D01*
X1953951Y422200D01*
X1951449D01*
X1949033Y421553D01*
X1948735Y421380D01*
X1940297Y429818D01*
X1941062Y431666D01*
X1954419D01*
X1969420Y416665D01*
X1969247Y416367D01*
X1968600Y413951D01*
Y411449D01*
X1969247Y409033D01*
X1970498Y406867D01*
X1972267Y405098D01*
X1974433Y403847D01*
X1976849Y403200D01*
X1979351D01*
X1981767Y403847D01*
X1983933Y405098D01*
X1985702Y406867D01*
X1986953Y409033D01*
X1987600Y411449D01*
Y413951D01*
X1986953Y416367D01*
X1985702Y418533D01*
X1983933Y420302D01*
X1981767Y421553D01*
X1979351Y422200D01*
X1976849D01*
X1974433Y421553D01*
X1974135Y421380D01*
X1958158Y437357D01*
X1957076Y438080D01*
X1955800Y438334D01*
X1896919D01*
X1780146Y555107D01*
X1779064Y555830D01*
X1777788Y556084D01*
D02*
G37*
G36*
X1903151Y422200D02*
X1900649D01*
X1898233Y421553D01*
X1896067Y420302D01*
X1894298Y418533D01*
X1893047Y416367D01*
X1892400Y413951D01*
Y411449D01*
X1893047Y409033D01*
X1894298Y406867D01*
X1896067Y405098D01*
X1898233Y403847D01*
X1900649Y403200D01*
X1903151D01*
X1905567Y403847D01*
X1907733Y405098D01*
X1909502Y406867D01*
X1910753Y409033D01*
X1911400Y411449D01*
Y413951D01*
X1910753Y416367D01*
X1909502Y418533D01*
X1907733Y420302D01*
X1905567Y421553D01*
X1903151Y422200D01*
D02*
G37*
G36*
X1877751D02*
X1875249D01*
X1872833Y421553D01*
X1870667Y420302D01*
X1868898Y418533D01*
X1867647Y416367D01*
X1867000Y413951D01*
Y411449D01*
X1867647Y409033D01*
X1868898Y406867D01*
X1870667Y405098D01*
X1872833Y403847D01*
X1875249Y403200D01*
X1877751D01*
X1880167Y403847D01*
X1882333Y405098D01*
X1884102Y406867D01*
X1885353Y409033D01*
X1886000Y411449D01*
Y413951D01*
X1885353Y416367D01*
X1884102Y418533D01*
X1882333Y420302D01*
X1880167Y421553D01*
X1877751Y422200D01*
D02*
G37*
G36*
X1852351D02*
X1849849D01*
X1847433Y421553D01*
X1845267Y420302D01*
X1843498Y418533D01*
X1842247Y416367D01*
X1841600Y413951D01*
Y411449D01*
X1842247Y409033D01*
X1843498Y406867D01*
X1845267Y405098D01*
X1847433Y403847D01*
X1849849Y403200D01*
X1852351D01*
X1854767Y403847D01*
X1856933Y405098D01*
X1858702Y406867D01*
X1859953Y409033D01*
X1860600Y411449D01*
Y413951D01*
X1859953Y416367D01*
X1858702Y418533D01*
X1856933Y420302D01*
X1854767Y421553D01*
X1852351Y422200D01*
D02*
G37*
G36*
X1835200D02*
X1816200D01*
Y403200D01*
X1835200D01*
Y422200D01*
D02*
G37*
G36*
X2030151Y422200D02*
X2027649D01*
X2025233Y421553D01*
X2023067Y420302D01*
X2021298Y418533D01*
X2020047Y416367D01*
X2019400Y413951D01*
Y411449D01*
X2020047Y409033D01*
X2021298Y406867D01*
X2023067Y405098D01*
X2025233Y403847D01*
X2027649Y403200D01*
X2030151D01*
X2032567Y403847D01*
X2034733Y405098D01*
X2036502Y406867D01*
X2037753Y409033D01*
X2038400Y411449D01*
Y413951D01*
X2037753Y416367D01*
X2036502Y418533D01*
X2034733Y420302D01*
X2032567Y421553D01*
X2030151Y422200D01*
D02*
G37*
G36*
X1928551D02*
X1926049D01*
X1923633Y421553D01*
X1921467Y420302D01*
X1919698Y418533D01*
X1918448Y416367D01*
X1917800Y413951D01*
Y411449D01*
X1918448Y409033D01*
X1919698Y406867D01*
X1921467Y405098D01*
X1923633Y403847D01*
X1926049Y403200D01*
X1928551D01*
X1930967Y403847D01*
X1933133Y405098D01*
X1934902Y406867D01*
X1936153Y409033D01*
X1936800Y411449D01*
Y413951D01*
X1936153Y416367D01*
X1934902Y418533D01*
X1933133Y420302D01*
X1930967Y421553D01*
X1928551Y422200D01*
D02*
G37*
G36*
X2064340Y411430D02*
X2055570D01*
Y402660D01*
X2055622D01*
X2058175Y403344D01*
X2060465Y404666D01*
X2062334Y406535D01*
X2063656Y408825D01*
X2064340Y411378D01*
Y411430D01*
D02*
G37*
G36*
X2053030D02*
X2044260D01*
Y411378D01*
X2044944Y408825D01*
X2046266Y406535D01*
X2048135Y404666D01*
X2050425Y403344D01*
X2052978Y402660D01*
X2053030D01*
Y411430D01*
D02*
G37*
G36*
X2055622Y397340D02*
X2055570D01*
Y388570D01*
X2064340D01*
Y388622D01*
X2063656Y391175D01*
X2062334Y393465D01*
X2060465Y395334D01*
X2058175Y396656D01*
X2055622Y397340D01*
D02*
G37*
G36*
X2053030D02*
X2052978D01*
X2050425Y396656D01*
X2048135Y395334D01*
X2046266Y393465D01*
X2044944Y391175D01*
X2044260Y388622D01*
Y388570D01*
X2053030D01*
Y397340D01*
D02*
G37*
G36*
X2213888Y393040D02*
X2213770D01*
Y383770D01*
X2223040D01*
Y383888D01*
X2222322Y386568D01*
X2220934Y388972D01*
X2218972Y390934D01*
X2216568Y392322D01*
X2213888Y393040D01*
D02*
G37*
G36*
X2211230D02*
X2211112D01*
X2208432Y392322D01*
X2206028Y390934D01*
X2204066Y388972D01*
X2202678Y386568D01*
X2201960Y383888D01*
Y383770D01*
X2211230D01*
Y393040D01*
D02*
G37*
G36*
X1953951Y396800D02*
X1951449D01*
X1949033Y396153D01*
X1946867Y394902D01*
X1945098Y393133D01*
X1943847Y390967D01*
X1943200Y388551D01*
Y386049D01*
X1943847Y383633D01*
X1945098Y381467D01*
X1946867Y379698D01*
X1949033Y378447D01*
X1951449Y377800D01*
X1953951D01*
X1956367Y378447D01*
X1958533Y379698D01*
X1960302Y381467D01*
X1961552Y383633D01*
X1962200Y386049D01*
Y388551D01*
X1961552Y390967D01*
X1960302Y393133D01*
X1958533Y394902D01*
X1956367Y396153D01*
X1953951Y396800D01*
D02*
G37*
G36*
X1852351D02*
X1849849D01*
X1847433Y396153D01*
X1845267Y394902D01*
X1843498Y393133D01*
X1842247Y390967D01*
X1841600Y388551D01*
Y386049D01*
X1842247Y383633D01*
X1843498Y381467D01*
X1845267Y379698D01*
X1847433Y378447D01*
X1849849Y377800D01*
X1852351D01*
X1854767Y378447D01*
X1856933Y379698D01*
X1858702Y381467D01*
X1859953Y383633D01*
X1860600Y386049D01*
Y388551D01*
X1859953Y390967D01*
X1858702Y393133D01*
X1856933Y394902D01*
X1854767Y396153D01*
X1852351Y396800D01*
D02*
G37*
G36*
X1826951D02*
X1824449D01*
X1822033Y396153D01*
X1819867Y394902D01*
X1818098Y393133D01*
X1816847Y390967D01*
X1816200Y388551D01*
Y386049D01*
X1816847Y383633D01*
X1818098Y381467D01*
X1819867Y379698D01*
X1822033Y378447D01*
X1824449Y377800D01*
X1826951D01*
X1829367Y378447D01*
X1831533Y379698D01*
X1833302Y381467D01*
X1834552Y383633D01*
X1835200Y386049D01*
Y388551D01*
X1834552Y390967D01*
X1833302Y393133D01*
X1831533Y394902D01*
X1829367Y396153D01*
X1826951Y396800D01*
D02*
G37*
G36*
X2030151Y396800D02*
X2027649D01*
X2025233Y396152D01*
X2023067Y394902D01*
X2021298Y393133D01*
X2020047Y390967D01*
X2019400Y388551D01*
Y386049D01*
X2020047Y383633D01*
X2021298Y381467D01*
X2023067Y379698D01*
X2025233Y378447D01*
X2027649Y377800D01*
X2030151D01*
X2032567Y378447D01*
X2034733Y379698D01*
X2036502Y381467D01*
X2037753Y383633D01*
X2038400Y386049D01*
Y388551D01*
X2037753Y390967D01*
X2036502Y393133D01*
X2034733Y394902D01*
X2032567Y396152D01*
X2030151Y396800D01*
D02*
G37*
G36*
X1903151D02*
X1900649D01*
X1898233Y396152D01*
X1896067Y394902D01*
X1894298Y393133D01*
X1893047Y390967D01*
X1892400Y388551D01*
Y386049D01*
X1893047Y383633D01*
X1894298Y381467D01*
X1896067Y379698D01*
X1898233Y378447D01*
X1900649Y377800D01*
X1903151D01*
X1905567Y378447D01*
X1907733Y379698D01*
X1909502Y381467D01*
X1910753Y383633D01*
X1911400Y386049D01*
Y388551D01*
X1910753Y390967D01*
X1909502Y393133D01*
X1907733Y394902D01*
X1905567Y396152D01*
X1903151Y396800D01*
D02*
G37*
G36*
X1877751D02*
X1875249D01*
X1872833Y396152D01*
X1870667Y394902D01*
X1868898Y393133D01*
X1867647Y390967D01*
X1867000Y388551D01*
Y386049D01*
X1867647Y383633D01*
X1868898Y381467D01*
X1870667Y379698D01*
X1872833Y378447D01*
X1875249Y377800D01*
X1877751D01*
X1880167Y378447D01*
X1882333Y379698D01*
X1884102Y381467D01*
X1885353Y383633D01*
X1886000Y386049D01*
Y388551D01*
X1885353Y390967D01*
X1884102Y393133D01*
X1882333Y394902D01*
X1880167Y396152D01*
X1877751Y396800D01*
D02*
G37*
G36*
X2004751Y396800D02*
X2002249D01*
X1999833Y396152D01*
X1997667Y394902D01*
X1995898Y393133D01*
X1994648Y390967D01*
X1994000Y388551D01*
Y386049D01*
X1994648Y383633D01*
X1995898Y381467D01*
X1997667Y379698D01*
X1999833Y378447D01*
X2002249Y377800D01*
X2004751D01*
X2007167Y378447D01*
X2009333Y379698D01*
X2011102Y381467D01*
X2012353Y383633D01*
X2013000Y386049D01*
Y388551D01*
X2012353Y390967D01*
X2011102Y393133D01*
X2009333Y394902D01*
X2007167Y396152D01*
X2004751Y396800D01*
D02*
G37*
G36*
X1928551D02*
X1926049D01*
X1923633Y396152D01*
X1921467Y394902D01*
X1919698Y393133D01*
X1918447Y390967D01*
X1917800Y388551D01*
Y386049D01*
X1918447Y383633D01*
X1919698Y381467D01*
X1921467Y379698D01*
X1923633Y378447D01*
X1926049Y377800D01*
X1928551D01*
X1930967Y378447D01*
X1933133Y379698D01*
X1934902Y381467D01*
X1936153Y383633D01*
X1936800Y386049D01*
Y388551D01*
X1936153Y390967D01*
X1934902Y393133D01*
X1933133Y394902D01*
X1930967Y396152D01*
X1928551Y396800D01*
D02*
G37*
G36*
X-36069Y398016D02*
X-38768D01*
X-41375Y397318D01*
X-43712Y395968D01*
X-45620Y394060D01*
X-46970Y391723D01*
X-47668Y389116D01*
Y386417D01*
X-46970Y383810D01*
X-45620Y381473D01*
X-43712Y379564D01*
X-41375Y378215D01*
X-38768Y377516D01*
X-36069D01*
X-33462Y378215D01*
X-31124Y379564D01*
X-29216Y381473D01*
X-27867Y383810D01*
X-27168Y386417D01*
Y389116D01*
X-27867Y391723D01*
X-29216Y394060D01*
X-31124Y395968D01*
X-33462Y397318D01*
X-36069Y398016D01*
D02*
G37*
G36*
X-61469D02*
X-64168D01*
X-66775Y397318D01*
X-69112Y395968D01*
X-71020Y394060D01*
X-72370Y391723D01*
X-73068Y389116D01*
Y386417D01*
X-72370Y383810D01*
X-71020Y381473D01*
X-69112Y379564D01*
X-66775Y378215D01*
X-64168Y377516D01*
X-61469D01*
X-58862Y378215D01*
X-56525Y379564D01*
X-54616Y381473D01*
X-53267Y383810D01*
X-52568Y386417D01*
Y389116D01*
X-53267Y391723D01*
X-54616Y394060D01*
X-56525Y395968D01*
X-58862Y397318D01*
X-61469Y398016D01*
D02*
G37*
G36*
X2064340Y386030D02*
X2055570D01*
Y377260D01*
X2055622D01*
X2058175Y377944D01*
X2060465Y379266D01*
X2062334Y381135D01*
X2063656Y383425D01*
X2064340Y385978D01*
Y386030D01*
D02*
G37*
G36*
X2053030D02*
X2044260D01*
Y385978D01*
X2044944Y383425D01*
X2046266Y381135D01*
X2048135Y379266D01*
X2050425Y377944D01*
X2052978Y377260D01*
X2053030D01*
Y386030D01*
D02*
G37*
G36*
X2148817Y392500D02*
X2146183D01*
X2143640Y391819D01*
X2141360Y390502D01*
X2139498Y388640D01*
X2138181Y386360D01*
X2137500Y383816D01*
Y381184D01*
X2138181Y378640D01*
X2139498Y376360D01*
X2141360Y374498D01*
X2143640Y373181D01*
X2146183Y372500D01*
X2148817D01*
X2151360Y373181D01*
X2153640Y374498D01*
X2155502Y376360D01*
X2156819Y378640D01*
X2157500Y381184D01*
Y383816D01*
X2156819Y386360D01*
X2155502Y388640D01*
X2153640Y390502D01*
X2151360Y391819D01*
X2148817Y392500D01*
D02*
G37*
G36*
X2223040Y381230D02*
X2213770D01*
Y371960D01*
X2213888D01*
X2216568Y372678D01*
X2218972Y374066D01*
X2220934Y376028D01*
X2222322Y378432D01*
X2223040Y381112D01*
Y381230D01*
D02*
G37*
G36*
X2211230D02*
X2201960D01*
Y381112D01*
X2202678Y378432D01*
X2204066Y376028D01*
X2206028Y374066D01*
X2208432Y372678D01*
X2211112Y371960D01*
X2211230D01*
Y381230D01*
D02*
G37*
G36*
X1979351Y396800D02*
X1976849D01*
X1974433Y396152D01*
X1972267Y394902D01*
X1970498Y393133D01*
X1969247Y390967D01*
X1968600Y388551D01*
Y386049D01*
X1969247Y383633D01*
X1970498Y381467D01*
X1972267Y379698D01*
X1974433Y378447D01*
X1976849Y377800D01*
X1979351D01*
X1981767Y378447D01*
X1983368Y379372D01*
X1983804Y379624D01*
X1985136Y378230D01*
X1985049Y377991D01*
X1984916Y377761D01*
X1984193Y376509D01*
X1983750Y374856D01*
Y373144D01*
X1984193Y371491D01*
X1985049Y370009D01*
X1986259Y368799D01*
X1987741Y367943D01*
X1989394Y367500D01*
X1991106D01*
X1992759Y367943D01*
X1994241Y368799D01*
X1995451Y370009D01*
X1996307Y371491D01*
X1996750Y373144D01*
Y374856D01*
X1996307Y376509D01*
X1995451Y377991D01*
X1994241Y379201D01*
X1992759Y380057D01*
X1991106Y380500D01*
X1989394D01*
X1987741Y380057D01*
X1986824Y379527D01*
X1986259Y379201D01*
X1984855Y380620D01*
X1985702Y381467D01*
X1986953Y383633D01*
X1987600Y386049D01*
Y388551D01*
X1986953Y390967D01*
X1985702Y393133D01*
X1983933Y394902D01*
X1981767Y396152D01*
X1979351Y396800D01*
D02*
G37*
G36*
X1759454Y367946D02*
Y362268D01*
X1765132D01*
X1764744Y363715D01*
X1763817Y365321D01*
X1762506Y366631D01*
X1760901Y367558D01*
X1759454Y367946D01*
D02*
G37*
G36*
X1756914D02*
X1755466Y367558D01*
X1753861Y366631D01*
X1752550Y365321D01*
X1751623Y363715D01*
X1751236Y362268D01*
X1756914D01*
Y367946D01*
D02*
G37*
G36*
X1778752Y362448D02*
Y356770D01*
X1784430D01*
X1784043Y358217D01*
X1783116Y359823D01*
X1781805Y361133D01*
X1780200Y362060D01*
X1778752Y362448D01*
D02*
G37*
G36*
X1776212D02*
X1774765Y362060D01*
X1773160Y361133D01*
X1771849Y359823D01*
X1770922Y358217D01*
X1770534Y356770D01*
X1776212D01*
Y362448D01*
D02*
G37*
G36*
X1765132Y359728D02*
X1759454D01*
Y354050D01*
X1760901Y354438D01*
X1762506Y355365D01*
X1763817Y356675D01*
X1764744Y358281D01*
X1765132Y359728D01*
D02*
G37*
G36*
X1743817Y382500D02*
X1741183D01*
X1738640Y381819D01*
X1736360Y380502D01*
X1734498Y378640D01*
X1733181Y376360D01*
X1732500Y373816D01*
Y371184D01*
X1733181Y368640D01*
X1734498Y366360D01*
X1736360Y364498D01*
X1738640Y363181D01*
X1739166Y363041D01*
Y360119D01*
X1739420Y358843D01*
X1740143Y357761D01*
X1795491Y302412D01*
X1796573Y301690D01*
X1797849Y301436D01*
X1860496D01*
X1861692Y299510D01*
X1861673Y299436D01*
X1861250Y297856D01*
Y296144D01*
X1861693Y294491D01*
X1862549Y293009D01*
X1863759Y291799D01*
X1865241Y290943D01*
X1866894Y290500D01*
X1868606D01*
X1870259Y290943D01*
X1871741Y291799D01*
X1872951Y293009D01*
X1873807Y294491D01*
X1874250Y296144D01*
Y297856D01*
X1873827Y299436D01*
X1873808Y299510D01*
X1875004Y301436D01*
X1904787D01*
X1913851Y292372D01*
X1913015Y290380D01*
X1910932Y289822D01*
X1908528Y288434D01*
X1906566Y286472D01*
X1905178Y284068D01*
X1904460Y281388D01*
Y281270D01*
X1915000D01*
Y280000D01*
X1916270D01*
Y269460D01*
X1916388D01*
X1919068Y270178D01*
X1921472Y271566D01*
X1923434Y273528D01*
X1924822Y275932D01*
X1925380Y278015D01*
X1927372Y278851D01*
X1941289Y264934D01*
X1941000Y263856D01*
Y262144D01*
X1941443Y260491D01*
X1942299Y259009D01*
X1943509Y257799D01*
X1944991Y256943D01*
X1946644Y256500D01*
X1948356D01*
X1950009Y256943D01*
X1950212Y257061D01*
X1951676Y255596D01*
X1951193Y254759D01*
X1950750Y253106D01*
Y251394D01*
X1951193Y249741D01*
X1952049Y248259D01*
X1953259Y247049D01*
X1954741Y246193D01*
X1956394Y245750D01*
X1958106D01*
X1959759Y246193D01*
X1961241Y247049D01*
X1962451Y248259D01*
X1963307Y249741D01*
X1963750Y251394D01*
Y253106D01*
X1963307Y254759D01*
X1962451Y256241D01*
X1961241Y257451D01*
X1959759Y258307D01*
X1958106Y258750D01*
X1956394D01*
X1954741Y258307D01*
X1954538Y258190D01*
X1953073Y259654D01*
X1953557Y260491D01*
X1954000Y262144D01*
Y263856D01*
X1953557Y265509D01*
X1952701Y266991D01*
X1951491Y268201D01*
X1950009Y269057D01*
X1948356Y269500D01*
X1946644D01*
X1946257Y269396D01*
X1908526Y307127D01*
X1907444Y307850D01*
X1906168Y308104D01*
X1860020D01*
X1859567Y308850D01*
X1859296Y310104D01*
X1860201Y311009D01*
X1861057Y312491D01*
X1861500Y314144D01*
Y315856D01*
X1861057Y317509D01*
X1860201Y318991D01*
X1858991Y320201D01*
X1857509Y321057D01*
X1855856Y321500D01*
X1854144D01*
X1852491Y321057D01*
X1851009Y320201D01*
X1849799Y318991D01*
X1848943Y317509D01*
X1848500Y315856D01*
Y314144D01*
X1848943Y312491D01*
X1849799Y311009D01*
X1850704Y310104D01*
X1850433Y308850D01*
X1849980Y308104D01*
X1799230D01*
X1754653Y352681D01*
X1755056Y353553D01*
X1755819Y354343D01*
X1756914Y354050D01*
Y359728D01*
X1751236D01*
X1751529Y358634D01*
X1750738Y357871D01*
X1749867Y357467D01*
X1746206Y361128D01*
X1746309Y362502D01*
X1746461Y363240D01*
X1748640Y364498D01*
X1750502Y366360D01*
X1751819Y368640D01*
X1752500Y371184D01*
Y373816D01*
X1751819Y376360D01*
X1750502Y378640D01*
X1748640Y380502D01*
X1746360Y381819D01*
X1743817Y382500D01*
D02*
G37*
G36*
X-36069Y372616D02*
X-38768D01*
X-41375Y371918D01*
X-43712Y370568D01*
X-45620Y368660D01*
X-46970Y366323D01*
X-47668Y363716D01*
Y361017D01*
X-46970Y358410D01*
X-45620Y356073D01*
X-43712Y354164D01*
X-41375Y352815D01*
X-38768Y352116D01*
X-36069D01*
X-33462Y352815D01*
X-31124Y354164D01*
X-29216Y356073D01*
X-27867Y358410D01*
X-27168Y361017D01*
Y363716D01*
X-27867Y366323D01*
X-29216Y368660D01*
X-31124Y370568D01*
X-33462Y371918D01*
X-36069Y372616D01*
D02*
G37*
G36*
X-61469D02*
X-64168D01*
X-66775Y371918D01*
X-69112Y370568D01*
X-71020Y368660D01*
X-72370Y366323D01*
X-73068Y363716D01*
Y361017D01*
X-72370Y358410D01*
X-71020Y356073D01*
X-69112Y354164D01*
X-66775Y352815D01*
X-64168Y352116D01*
X-61469D01*
X-58862Y352815D01*
X-56525Y354164D01*
X-54616Y356073D01*
X-53267Y358410D01*
X-52568Y361017D01*
Y363716D01*
X-53267Y366323D01*
X-54616Y368660D01*
X-56525Y370568D01*
X-58862Y371918D01*
X-61469Y372616D01*
D02*
G37*
G36*
X1784430Y354230D02*
X1778752D01*
Y348552D01*
X1780200Y348940D01*
X1781805Y349867D01*
X1783116Y351177D01*
X1784043Y352783D01*
X1784430Y354230D01*
D02*
G37*
G36*
X1776212D02*
X1770534D01*
X1770922Y352783D01*
X1771849Y351177D01*
X1773160Y349867D01*
X1774765Y348940D01*
X1776212Y348552D01*
Y354230D01*
D02*
G37*
G36*
X1942856Y355750D02*
X1941144D01*
X1939491Y355307D01*
X1938009Y354451D01*
X1936799Y353241D01*
X1935943Y351759D01*
X1935500Y350106D01*
Y348394D01*
X1935943Y346741D01*
X1936799Y345259D01*
X1938009Y344049D01*
X1939491Y343193D01*
X1941144Y342750D01*
X1942856D01*
X1944509Y343193D01*
X1945991Y344049D01*
X1947201Y345259D01*
X1948057Y346741D01*
X1948500Y348394D01*
Y350106D01*
X1948057Y351759D01*
X1947201Y353241D01*
X1945991Y354451D01*
X1944509Y355307D01*
X1942856Y355750D01*
D02*
G37*
G36*
X-35998Y347756D02*
X-36148D01*
Y338236D01*
X-26628D01*
Y338387D01*
X-27363Y341131D01*
X-28784Y343591D01*
X-30793Y345601D01*
X-33253Y347021D01*
X-35998Y347756D01*
D02*
G37*
G36*
X-38688D02*
X-38839D01*
X-41583Y347021D01*
X-44043Y345601D01*
X-46052Y343591D01*
X-47473Y341131D01*
X-48208Y338387D01*
Y338236D01*
X-38688D01*
Y347756D01*
D02*
G37*
G36*
X1800856Y346500D02*
X1799144D01*
X1797491Y346057D01*
X1796009Y345201D01*
X1794799Y343991D01*
X1793943Y342509D01*
X1793500Y340856D01*
Y339144D01*
X1793943Y337491D01*
X1794799Y336009D01*
X1796009Y334799D01*
X1797491Y333943D01*
X1799144Y333500D01*
X1800856D01*
X1802509Y333943D01*
X1803991Y334799D01*
X1805201Y336009D01*
X1806057Y337491D01*
X1806500Y339144D01*
Y340856D01*
X1806057Y342509D01*
X1805201Y343991D01*
X1803991Y345201D01*
X1802509Y346057D01*
X1800856Y346500D01*
D02*
G37*
G36*
X2054356Y341750D02*
X2052644D01*
X2050991Y341307D01*
X2049509Y340451D01*
X2048299Y339241D01*
X2047443Y337759D01*
X2047000Y336106D01*
Y334394D01*
X2047443Y332741D01*
X2048299Y331259D01*
X2049509Y330049D01*
X2050991Y329193D01*
X2052644Y328750D01*
X2054356D01*
X2056009Y329193D01*
X2057491Y330049D01*
X2058701Y331259D01*
X2059557Y332741D01*
X2060000Y334394D01*
Y336106D01*
X2059557Y337759D01*
X2058701Y339241D01*
X2057491Y340451D01*
X2056009Y341307D01*
X2054356Y341750D01*
D02*
G37*
G36*
X1976106Y341250D02*
X1974394D01*
X1972741Y340807D01*
X1971259Y339951D01*
X1970049Y338741D01*
X1969193Y337259D01*
X1968750Y335606D01*
Y333894D01*
X1969193Y332241D01*
X1970049Y330759D01*
X1971259Y329549D01*
X1972741Y328693D01*
X1974394Y328250D01*
X1976106D01*
X1977759Y328693D01*
X1979241Y329549D01*
X1980451Y330759D01*
X1981307Y332241D01*
X1981750Y333894D01*
Y335606D01*
X1981307Y337259D01*
X1980451Y338741D01*
X1979241Y339951D01*
X1977759Y340807D01*
X1976106Y341250D01*
D02*
G37*
G36*
X-61469Y347216D02*
X-64168D01*
X-66775Y346518D01*
X-69112Y345168D01*
X-71020Y343260D01*
X-72370Y340923D01*
X-73068Y338316D01*
Y335617D01*
X-72370Y333010D01*
X-71020Y330673D01*
X-69112Y328764D01*
X-66775Y327415D01*
X-64168Y326716D01*
X-61469D01*
X-58862Y327415D01*
X-56525Y328764D01*
X-54616Y330673D01*
X-53267Y333010D01*
X-52568Y335617D01*
Y338316D01*
X-53267Y340923D01*
X-54616Y343260D01*
X-56525Y345168D01*
X-58862Y346518D01*
X-61469Y347216D01*
D02*
G37*
G36*
X-26628Y335696D02*
X-36148D01*
Y326176D01*
X-35998D01*
X-33253Y326912D01*
X-30793Y328332D01*
X-28784Y330341D01*
X-27363Y332802D01*
X-26628Y335546D01*
Y335696D01*
D02*
G37*
G36*
X-38688D02*
X-48208D01*
Y335546D01*
X-47473Y332802D01*
X-46052Y330341D01*
X-44043Y328332D01*
X-41583Y326912D01*
X-38839Y326176D01*
X-38688D01*
Y335696D01*
D02*
G37*
G36*
X2095106Y328250D02*
X2093394D01*
X2091741Y327807D01*
X2090259Y326951D01*
X2089049Y325741D01*
X2088193Y324259D01*
X2087750Y322606D01*
Y320894D01*
X2088193Y319241D01*
X2089049Y317759D01*
X2090259Y316549D01*
X2091741Y315693D01*
X2093394Y315250D01*
X2095106D01*
X2096759Y315693D01*
X2098241Y316549D01*
X2099451Y317759D01*
X2100307Y319241D01*
X2100750Y320894D01*
Y322606D01*
X2100307Y324259D01*
X2099451Y325741D01*
X2098241Y326951D01*
X2096759Y327807D01*
X2095106Y328250D01*
D02*
G37*
G36*
X1902856Y327250D02*
X1901144D01*
X1899491Y326807D01*
X1898009Y325951D01*
X1896799Y324741D01*
X1895943Y323259D01*
X1895500Y321606D01*
Y319894D01*
X1895943Y318241D01*
X1896799Y316759D01*
X1898009Y315549D01*
X1899491Y314693D01*
X1901144Y314250D01*
X1902856D01*
X1904509Y314693D01*
X1905991Y315549D01*
X1907201Y316759D01*
X1908057Y318241D01*
X1908500Y319894D01*
Y321606D01*
X1908057Y323259D01*
X1907201Y324741D01*
X1905991Y325951D01*
X1904509Y326807D01*
X1902856Y327250D01*
D02*
G37*
G36*
X1887854Y326911D02*
X1886142D01*
X1884489Y326468D01*
X1883007Y325612D01*
X1881797Y324402D01*
X1880941Y322920D01*
X1880498Y321267D01*
Y319555D01*
X1880941Y317902D01*
X1881797Y316420D01*
X1883007Y315210D01*
X1884489Y314354D01*
X1886142Y313911D01*
X1887854D01*
X1889507Y314354D01*
X1890989Y315210D01*
X1892199Y316420D01*
X1893055Y317902D01*
X1893498Y319555D01*
Y321267D01*
X1893055Y322920D01*
X1892199Y324402D01*
X1890989Y325612D01*
X1889507Y326468D01*
X1887854Y326911D01*
D02*
G37*
G36*
X1758990Y324002D02*
X1757279D01*
X1755626Y323559D01*
X1754144Y322703D01*
X1752933Y321493D01*
X1752078Y320011D01*
X1751635Y318358D01*
Y316646D01*
X1752078Y314993D01*
X1752933Y313511D01*
X1754144Y312301D01*
X1755626Y311445D01*
X1757279Y311002D01*
X1758990D01*
X1760643Y311445D01*
X1762126Y312301D01*
X1763336Y313511D01*
X1764192Y314993D01*
X1764635Y316646D01*
Y318358D01*
X1764192Y320011D01*
X1763336Y321493D01*
X1762126Y322703D01*
X1760643Y323559D01*
X1758990Y324002D01*
D02*
G37*
G36*
X-61469Y321816D02*
X-64168D01*
X-66775Y321118D01*
X-69112Y319768D01*
X-71020Y317860D01*
X-72370Y315523D01*
X-73068Y312916D01*
Y310217D01*
X-72370Y307610D01*
X-71020Y305273D01*
X-69112Y303364D01*
X-66775Y302015D01*
X-64168Y301316D01*
X-61469D01*
X-58862Y302015D01*
X-56525Y303364D01*
X-54616Y305273D01*
X-53267Y307610D01*
X-52568Y310217D01*
Y312916D01*
X-53267Y315523D01*
X-54616Y317860D01*
X-56525Y319768D01*
X-58862Y321118D01*
X-61469Y321816D01*
D02*
G37*
G36*
X-36069D02*
X-38768D01*
X-41375Y321118D01*
X-43712Y319768D01*
X-45620Y317860D01*
X-46970Y315523D01*
X-47668Y312916D01*
Y310217D01*
X-46970Y307610D01*
X-45620Y305273D01*
X-43712Y303364D01*
X-42172Y302475D01*
X-42708Y300475D01*
X-51568D01*
X-51568Y300475D01*
X-52739Y300242D01*
X-53731Y299579D01*
X-53731Y299579D01*
X-58057Y295253D01*
X-58862Y295718D01*
X-61469Y296416D01*
X-64168D01*
X-66775Y295718D01*
X-69112Y294368D01*
X-71020Y292460D01*
X-72370Y290123D01*
X-73068Y287516D01*
Y284817D01*
X-72370Y282210D01*
X-71020Y279873D01*
X-69112Y277964D01*
X-66775Y276615D01*
X-64168Y275916D01*
X-61469D01*
X-58862Y276615D01*
X-58057Y277080D01*
X-53731Y272754D01*
X-53731Y272754D01*
X-52739Y272090D01*
X-51568Y271858D01*
X-27088D01*
X-27088Y271857D01*
X-25918Y272090D01*
X-24925Y272754D01*
X-23087Y274592D01*
X-23087Y274592D01*
X-22424Y275584D01*
X-22191Y276754D01*
X-22191Y276755D01*
Y294833D01*
X-22424Y296003D01*
X-23087Y296996D01*
X-23087Y296996D01*
X-25671Y299579D01*
X-26663Y300242D01*
X-27833Y300475D01*
X-27834Y300475D01*
X-32129D01*
X-32665Y302475D01*
X-31124Y303364D01*
X-29216Y305273D01*
X-27867Y307610D01*
X-27168Y310217D01*
Y312916D01*
X-27867Y315523D01*
X-29216Y317860D01*
X-31124Y319768D01*
X-33462Y321118D01*
X-36069Y321816D01*
D02*
G37*
G36*
X2055856Y321500D02*
X2054144D01*
X2052491Y321057D01*
X2051009Y320201D01*
X2049799Y318991D01*
X2048943Y317509D01*
X2048500Y315856D01*
Y314648D01*
X2048263Y313950D01*
X2046803Y312750D01*
X2046144D01*
X2044491Y312307D01*
X2043009Y311451D01*
X2041799Y310241D01*
X2040943Y308759D01*
X2040500Y307106D01*
Y305394D01*
X2040943Y303741D01*
X2041799Y302259D01*
X2043009Y301049D01*
X2044491Y300193D01*
X2046144Y299750D01*
X2047856D01*
X2049509Y300193D01*
X2050991Y301049D01*
X2052201Y302259D01*
X2053057Y303741D01*
X2053500Y305394D01*
Y306602D01*
X2053737Y307301D01*
X2055197Y308500D01*
X2055856D01*
X2057509Y308943D01*
X2058991Y309799D01*
X2060201Y311009D01*
X2061057Y312491D01*
X2061500Y314144D01*
Y315856D01*
X2061057Y317509D01*
X2060201Y318991D01*
X2058991Y320201D01*
X2057509Y321057D01*
X2055856Y321500D01*
D02*
G37*
G36*
X2015356Y312000D02*
X2013644D01*
X2011991Y311557D01*
X2010509Y310701D01*
X2009299Y309491D01*
X2008443Y308009D01*
X2008000Y306356D01*
Y304644D01*
X2008443Y302991D01*
X2009299Y301509D01*
X2010509Y300299D01*
X2011991Y299443D01*
X2013644Y299000D01*
X2015356D01*
X2017009Y299443D01*
X2018491Y300299D01*
X2019701Y301509D01*
X2020557Y302991D01*
X2021000Y304644D01*
Y306356D01*
X2020557Y308009D01*
X2019701Y309491D01*
X2018491Y310701D01*
X2017009Y311557D01*
X2015356Y312000D01*
D02*
G37*
G36*
X1739980Y301448D02*
X1738533Y301060D01*
X1736927Y300133D01*
X1735617Y298823D01*
X1734690Y297217D01*
X1734302Y295770D01*
X1739980D01*
Y301448D01*
D02*
G37*
G36*
X1742520D02*
Y294500D01*
Y287552D01*
X1743967Y287940D01*
X1745573Y288867D01*
X1746883Y290177D01*
X1747810Y291783D01*
X1748119Y292936D01*
X1750190Y292936D01*
X1750443Y291991D01*
X1751299Y290509D01*
X1752509Y289299D01*
X1753991Y288443D01*
X1755644Y288000D01*
X1757356D01*
X1759009Y288443D01*
X1760491Y289299D01*
X1761701Y290509D01*
X1762557Y291991D01*
X1763000Y293644D01*
Y295356D01*
X1762557Y297009D01*
X1761701Y298491D01*
X1760491Y299701D01*
X1759009Y300557D01*
X1757356Y301000D01*
X1755644D01*
X1753991Y300557D01*
X1752509Y299701D01*
X1751299Y298491D01*
X1750443Y297009D01*
X1750190Y296064D01*
X1748119Y296064D01*
X1747810Y297217D01*
X1746883Y298823D01*
X1745573Y300133D01*
X1743967Y301060D01*
X1742520Y301448D01*
D02*
G37*
G36*
X1739980Y293230D02*
X1734302D01*
X1734690Y291783D01*
X1735617Y290177D01*
X1736927Y288867D01*
X1738533Y287940D01*
X1739980Y287552D01*
Y293230D01*
D02*
G37*
G36*
X1795106Y298750D02*
X1793394D01*
X1791741Y298307D01*
X1790259Y297451D01*
X1789049Y296241D01*
X1788193Y294759D01*
X1787750Y293106D01*
Y291394D01*
X1788193Y289741D01*
X1789049Y288259D01*
X1790259Y287049D01*
X1791741Y286193D01*
X1793394Y285750D01*
X1795106D01*
X1796759Y286193D01*
X1798241Y287049D01*
X1799451Y288259D01*
X1800307Y289741D01*
X1800750Y291394D01*
Y293106D01*
X1800307Y294759D01*
X1799451Y296241D01*
X1798241Y297451D01*
X1796759Y298307D01*
X1795106Y298750D01*
D02*
G37*
G36*
X1858356Y289750D02*
X1856644D01*
X1854991Y289307D01*
X1853509Y288451D01*
X1852299Y287241D01*
X1851443Y285759D01*
X1851000Y284106D01*
Y282394D01*
X1851443Y280741D01*
X1852299Y279259D01*
X1853509Y278049D01*
X1854991Y277193D01*
X1856644Y276750D01*
X1858356D01*
X1860009Y277193D01*
X1861491Y278049D01*
X1862701Y279259D01*
X1863557Y280741D01*
X1864000Y282394D01*
Y284106D01*
X1863557Y285759D01*
X1862701Y287241D01*
X1861491Y288451D01*
X1860009Y289307D01*
X1858356Y289750D01*
D02*
G37*
G36*
X2209606Y286750D02*
X2207894D01*
X2206241Y286307D01*
X2204759Y285451D01*
X2203549Y284241D01*
X2202693Y282759D01*
X2202250Y281106D01*
Y279394D01*
X2202693Y277741D01*
X2203549Y276259D01*
X2204759Y275049D01*
X2206241Y274193D01*
X2207894Y273750D01*
X2209606D01*
X2211259Y274193D01*
X2212741Y275049D01*
X2213951Y276259D01*
X2214807Y277741D01*
X2215250Y279394D01*
Y281106D01*
X2214807Y282759D01*
X2213951Y284241D01*
X2212741Y285451D01*
X2211259Y286307D01*
X2209606Y286750D01*
D02*
G37*
G36*
X2155356Y286500D02*
X2153644D01*
X2151991Y286057D01*
X2150509Y285201D01*
X2149299Y283991D01*
X2148443Y282509D01*
X2148000Y280856D01*
Y279144D01*
X2148443Y277491D01*
X2149299Y276009D01*
X2150509Y274799D01*
X2151991Y273943D01*
X2153644Y273500D01*
X2155356D01*
X2157009Y273943D01*
X2158491Y274799D01*
X2159701Y276009D01*
X2160557Y277491D01*
X2161000Y279144D01*
Y280856D01*
X2160557Y282509D01*
X2159701Y283991D01*
X2158491Y285201D01*
X2157009Y286057D01*
X2155356Y286500D01*
D02*
G37*
G36*
X1966317Y290000D02*
X1963683D01*
X1961140Y289319D01*
X1958860Y288002D01*
X1956998Y286140D01*
X1955681Y283860D01*
X1955000Y281317D01*
Y278683D01*
X1955681Y276140D01*
X1956998Y273860D01*
X1958860Y271998D01*
X1961140Y270681D01*
X1963683Y270000D01*
X1966317D01*
X1968860Y270681D01*
X1971140Y271998D01*
X1973002Y273860D01*
X1974319Y276140D01*
X1975000Y278683D01*
Y281317D01*
X1974319Y283860D01*
X1973002Y286140D01*
X1971140Y288002D01*
X1968860Y289319D01*
X1966317Y290000D01*
D02*
G37*
G36*
X1913730Y278730D02*
X1904460D01*
Y278612D01*
X1905178Y275932D01*
X1906566Y273528D01*
X1908528Y271566D01*
X1910932Y270178D01*
X1913612Y269460D01*
X1913730D01*
Y278730D01*
D02*
G37*
G36*
X2228606Y278750D02*
X2226894D01*
X2225241Y278307D01*
X2223759Y277451D01*
X2222549Y276241D01*
X2221693Y274759D01*
X2221250Y273106D01*
Y271394D01*
X2221693Y269741D01*
X2222549Y268259D01*
X2223759Y267049D01*
X2225241Y266193D01*
X2226894Y265750D01*
X2228606D01*
X2230259Y266193D01*
X2231741Y267049D01*
X2232951Y268259D01*
X2233807Y269741D01*
X2234250Y271394D01*
Y273106D01*
X2233807Y274759D01*
X2232951Y276241D01*
X2231741Y277451D01*
X2230259Y278307D01*
X2228606Y278750D01*
D02*
G37*
G36*
X1883356Y288250D02*
X1881644D01*
X1879991Y287807D01*
X1878509Y286951D01*
X1877299Y285741D01*
X1876443Y284259D01*
X1876000Y282606D01*
Y280894D01*
X1876443Y279241D01*
X1877299Y277759D01*
X1877712Y277346D01*
X1878283Y276024D01*
X1877712Y274699D01*
X1877300Y274287D01*
X1876444Y272805D01*
X1876001Y271152D01*
Y269440D01*
X1876444Y267787D01*
X1877300Y266305D01*
X1877496Y266109D01*
X1877745Y264068D01*
X1877362Y263555D01*
X1876549Y262741D01*
X1875693Y261259D01*
X1875250Y259606D01*
Y258063D01*
X1875164Y257820D01*
X1873568Y256443D01*
X1873356Y256500D01*
X1871644D01*
X1869991Y256057D01*
X1868509Y255201D01*
X1867299Y253991D01*
X1866443Y252509D01*
X1866000Y250856D01*
Y249144D01*
X1866443Y247491D01*
X1867299Y246009D01*
X1867899Y245409D01*
X1868299Y244125D01*
X1867899Y242841D01*
X1867299Y242241D01*
X1866443Y240759D01*
X1866000Y239106D01*
Y237394D01*
X1866443Y235741D01*
X1867299Y234259D01*
X1868509Y233049D01*
X1869991Y232193D01*
X1870822Y231971D01*
X1871067Y229834D01*
X1870835Y229710D01*
X1867789Y227211D01*
X1865290Y224165D01*
X1863433Y220691D01*
X1862289Y216921D01*
X1860466Y216772D01*
X1860270Y216823D01*
X1859451Y218241D01*
X1858241Y219451D01*
X1856759Y220307D01*
X1855106Y220750D01*
X1853394D01*
X1851741Y220307D01*
X1850259Y219451D01*
X1849049Y218241D01*
X1848193Y216759D01*
X1847750Y215106D01*
Y213394D01*
X1848193Y211741D01*
X1849049Y210259D01*
X1849332Y209976D01*
X1850038Y208625D01*
X1849332Y207274D01*
X1849049Y206991D01*
X1848193Y205509D01*
X1847750Y203856D01*
Y202144D01*
X1848193Y200491D01*
X1849049Y199009D01*
X1850259Y197799D01*
X1851741Y196943D01*
X1853394Y196500D01*
X1855106D01*
X1856759Y196943D01*
X1858241Y197799D01*
X1859451Y199009D01*
X1860307Y200491D01*
X1860625Y201677D01*
X1862606Y201903D01*
X1862648Y201898D01*
X1863433Y199309D01*
X1865290Y195835D01*
X1867789Y192789D01*
X1870835Y190290D01*
X1874309Y188433D01*
X1878079Y187289D01*
X1882000Y186903D01*
X1885921Y187289D01*
X1889691Y188433D01*
X1893165Y190290D01*
X1896211Y192789D01*
X1898710Y195835D01*
X1900567Y199309D01*
X1901711Y203079D01*
X1902097Y207000D01*
Y213000D01*
X1901711Y216921D01*
X1900567Y220691D01*
X1898710Y224165D01*
X1896211Y227211D01*
X1893165Y229710D01*
X1889691Y231567D01*
X1885921Y232711D01*
X1882000Y233097D01*
X1879080Y232809D01*
X1878559Y233357D01*
X1877961Y234709D01*
X1878557Y235741D01*
X1879000Y237394D01*
Y239106D01*
X1878557Y240759D01*
X1877701Y242241D01*
X1877101Y242841D01*
X1876701Y244125D01*
X1877101Y245409D01*
X1877701Y246009D01*
X1878557Y247491D01*
X1879000Y249144D01*
Y250687D01*
X1879086Y250930D01*
X1880682Y252307D01*
X1880894Y252250D01*
X1882606D01*
X1884259Y252693D01*
X1885741Y253549D01*
X1886951Y254759D01*
X1887807Y256241D01*
X1888250Y257894D01*
Y259606D01*
X1887807Y261259D01*
X1886951Y262741D01*
X1886755Y262937D01*
X1886506Y264978D01*
X1886889Y265491D01*
X1887702Y266305D01*
X1888558Y267787D01*
X1889001Y269440D01*
Y271152D01*
X1888558Y272805D01*
X1887702Y274287D01*
X1887289Y274700D01*
X1886718Y276022D01*
X1887289Y277346D01*
X1887701Y277759D01*
X1888557Y279241D01*
X1889000Y280894D01*
Y282606D01*
X1888557Y284259D01*
X1887701Y285741D01*
X1886491Y286951D01*
X1885009Y287807D01*
X1883356Y288250D01*
D02*
G37*
G36*
X1926606Y253000D02*
X1924894D01*
X1923241Y252557D01*
X1921759Y251701D01*
X1920549Y250491D01*
X1919693Y249009D01*
X1919250Y247356D01*
Y245644D01*
X1919693Y243991D01*
X1920549Y242509D01*
X1921759Y241299D01*
X1923241Y240443D01*
X1924894Y240000D01*
X1926606D01*
X1928259Y240443D01*
X1929741Y241299D01*
X1930951Y242509D01*
X1931807Y243991D01*
X1932250Y245644D01*
Y247356D01*
X1931807Y249009D01*
X1930951Y250491D01*
X1929741Y251701D01*
X1928259Y252557D01*
X1926606Y253000D01*
D02*
G37*
G36*
X1851770Y245198D02*
Y239520D01*
X1857448D01*
X1857060Y240967D01*
X1856133Y242573D01*
X1854823Y243883D01*
X1853217Y244810D01*
X1851770Y245198D01*
D02*
G37*
G36*
X1849230D02*
X1847783Y244810D01*
X1846177Y243883D01*
X1844867Y242573D01*
X1843940Y240967D01*
X1843552Y239520D01*
X1849230D01*
Y245198D01*
D02*
G37*
G36*
X1785980Y239448D02*
Y233770D01*
X1791658D01*
X1791270Y235217D01*
X1790343Y236823D01*
X1789033Y238133D01*
X1787427Y239060D01*
X1785980Y239448D01*
D02*
G37*
G36*
X1783440D02*
X1781993Y239060D01*
X1780387Y238133D01*
X1779077Y236823D01*
X1778150Y235217D01*
X1777762Y233770D01*
X1783440D01*
Y239448D01*
D02*
G37*
G36*
X1857448Y236980D02*
X1851770D01*
Y231302D01*
X1853217Y231690D01*
X1854823Y232617D01*
X1856133Y233927D01*
X1857060Y235533D01*
X1857448Y236980D01*
D02*
G37*
G36*
X1849230D02*
X1843552D01*
X1843940Y235533D01*
X1844867Y233927D01*
X1846177Y232617D01*
X1847783Y231690D01*
X1849230Y231302D01*
Y236980D01*
D02*
G37*
G36*
X2066020Y235198D02*
Y229520D01*
X2071698D01*
X2071310Y230967D01*
X2070383Y232573D01*
X2069073Y233883D01*
X2067467Y234810D01*
X2066020Y235198D01*
D02*
G37*
G36*
X2063480D02*
X2062033Y234810D01*
X2060427Y233883D01*
X2059117Y232573D01*
X2058190Y230967D01*
X2057802Y229520D01*
X2063480D01*
Y235198D01*
D02*
G37*
G36*
X1791658Y231230D02*
X1785980D01*
Y225552D01*
X1787427Y225940D01*
X1789033Y226867D01*
X1790343Y228177D01*
X1791270Y229783D01*
X1791658Y231230D01*
D02*
G37*
G36*
X1783440D02*
X1777762D01*
X1778150Y229783D01*
X1779077Y228177D01*
X1780387Y226867D01*
X1781993Y225940D01*
X1783440Y225552D01*
Y231230D01*
D02*
G37*
G36*
X2071698Y226980D02*
X2066020D01*
Y221302D01*
X2067467Y221690D01*
X2069073Y222617D01*
X2070383Y223927D01*
X2071310Y225533D01*
X2071698Y226980D01*
D02*
G37*
G36*
X2063480D02*
X2057802D01*
X2058190Y225533D01*
X2059117Y223927D01*
X2060427Y222617D01*
X2062033Y221690D01*
X2063480Y221302D01*
Y226980D01*
D02*
G37*
G36*
X2179542Y232626D02*
X2177830D01*
X2176177Y232183D01*
X2174695Y231327D01*
X2173485Y230117D01*
X2172629Y228635D01*
X2172186Y226982D01*
Y225270D01*
X2172629Y223617D01*
X2173485Y222135D01*
X2174695Y220924D01*
X2176177Y220069D01*
X2177830Y219626D01*
X2179542D01*
X2181195Y220069D01*
X2182677Y220924D01*
X2183887Y222135D01*
X2184743Y223617D01*
X2185186Y225270D01*
Y226982D01*
X2184743Y228635D01*
X2183887Y230117D01*
X2182677Y231327D01*
X2181195Y232183D01*
X2179542Y232626D01*
D02*
G37*
G36*
X1801106Y240250D02*
X1799394D01*
X1797741Y239807D01*
X1796259Y238951D01*
X1795049Y237741D01*
X1794193Y236259D01*
X1793750Y234606D01*
Y232894D01*
X1794193Y231241D01*
X1795049Y229759D01*
X1796259Y228549D01*
X1796167Y226292D01*
X1796009Y226201D01*
X1794799Y224991D01*
X1793943Y223509D01*
X1793500Y221856D01*
Y220144D01*
X1793943Y218491D01*
X1794799Y217009D01*
X1796009Y215799D01*
X1797491Y214943D01*
X1799144Y214500D01*
X1800856D01*
X1802509Y214943D01*
X1803991Y215799D01*
X1805201Y217009D01*
X1806057Y218491D01*
X1806500Y220144D01*
Y221856D01*
X1806057Y223509D01*
X1805201Y224991D01*
X1803991Y226201D01*
X1804083Y228458D01*
X1804241Y228549D01*
X1805451Y229759D01*
X1806307Y231241D01*
X1806750Y232894D01*
Y234606D01*
X1806307Y236259D01*
X1805451Y237741D01*
X1804241Y238951D01*
X1802759Y239807D01*
X1801106Y240250D01*
D02*
G37*
G36*
X2129856Y223250D02*
X2128144D01*
X2126491Y222807D01*
X2125009Y221951D01*
X2123799Y220741D01*
X2122943Y219259D01*
X2122500Y217606D01*
Y215894D01*
X2122943Y214241D01*
X2123799Y212759D01*
X2125009Y211549D01*
X2126491Y210693D01*
X2128144Y210250D01*
X2129856D01*
X2131509Y210693D01*
X2132991Y211549D01*
X2134201Y212759D01*
X2135057Y214241D01*
X2135500Y215894D01*
Y217606D01*
X2135057Y219259D01*
X2134201Y220741D01*
X2132991Y221951D01*
X2131509Y222807D01*
X2129856Y223250D01*
D02*
G37*
G36*
X1761106Y219750D02*
X1759394D01*
X1757741Y219307D01*
X1756259Y218451D01*
X1755049Y217241D01*
X1754193Y215759D01*
X1753750Y214106D01*
Y212394D01*
X1754193Y210741D01*
X1755049Y209259D01*
X1756259Y208049D01*
X1757741Y207193D01*
X1759394Y206750D01*
X1761106D01*
X1762759Y207193D01*
X1764241Y208049D01*
X1765451Y209259D01*
X1766307Y210741D01*
X1766750Y212394D01*
Y214106D01*
X1766307Y215759D01*
X1765451Y217241D01*
X1764241Y218451D01*
X1762759Y219307D01*
X1761106Y219750D01*
D02*
G37*
G36*
X363040Y206480D02*
X353770D01*
Y197210D01*
X353888D01*
X356568Y197928D01*
X358972Y199316D01*
X360934Y201278D01*
X362322Y203682D01*
X363040Y206362D01*
Y206480D01*
D02*
G37*
G36*
X351230D02*
X341960D01*
Y206362D01*
X342678Y203682D01*
X344066Y201278D01*
X346028Y199316D01*
X348432Y197928D01*
X351112Y197210D01*
X351230D01*
Y206480D01*
D02*
G37*
G36*
X1732520Y194948D02*
Y189270D01*
X1738198D01*
X1737810Y190717D01*
X1736883Y192323D01*
X1735573Y193633D01*
X1733967Y194560D01*
X1732520Y194948D01*
D02*
G37*
G36*
X1729980D02*
X1728533Y194560D01*
X1726927Y193633D01*
X1725617Y192323D01*
X1724690Y190717D01*
X1724302Y189270D01*
X1729980D01*
Y194948D01*
D02*
G37*
G36*
X949356Y202000D02*
X947644D01*
X945991Y201557D01*
X944509Y200701D01*
X943299Y199491D01*
X942443Y198009D01*
X942000Y196356D01*
Y194644D01*
X942443Y192991D01*
X943299Y191509D01*
X944509Y190299D01*
X945991Y189443D01*
X947644Y189000D01*
X949356D01*
X951009Y189443D01*
X952491Y190299D01*
X953701Y191509D01*
X954557Y192991D01*
X955000Y194644D01*
Y196356D01*
X954557Y198009D01*
X953701Y199491D01*
X952491Y200701D01*
X951009Y201557D01*
X949356Y202000D01*
D02*
G37*
G36*
X1998000Y233097D02*
X1994079Y232711D01*
X1990309Y231567D01*
X1986835Y229710D01*
X1983790Y227211D01*
X1981290Y224165D01*
X1979433Y220691D01*
X1978289Y216921D01*
X1977903Y213000D01*
Y207000D01*
X1978289Y203079D01*
X1979433Y199309D01*
X1981290Y195835D01*
X1983790Y192789D01*
X1986835Y190290D01*
X1990309Y188433D01*
X1994079Y187289D01*
X1998000Y186903D01*
X2001921Y187289D01*
X2005691Y188433D01*
X2009165Y190290D01*
X2012211Y192789D01*
X2014710Y195835D01*
X2016567Y199309D01*
X2017711Y203079D01*
X2018097Y207000D01*
Y213000D01*
X2017711Y216921D01*
X2016567Y220691D01*
X2014710Y224165D01*
X2012211Y227211D01*
X2009165Y229710D01*
X2005691Y231567D01*
X2001921Y232711D01*
X1998000Y233097D01*
D02*
G37*
G36*
X1588888Y193290D02*
X1588770D01*
Y184020D01*
X1598040D01*
Y184138D01*
X1597322Y186818D01*
X1595934Y189222D01*
X1593972Y191184D01*
X1591568Y192572D01*
X1588888Y193290D01*
D02*
G37*
G36*
X1586230D02*
X1586112D01*
X1583432Y192572D01*
X1581028Y191184D01*
X1579066Y189222D01*
X1577678Y186818D01*
X1576960Y184138D01*
Y184020D01*
X1586230D01*
Y193290D01*
D02*
G37*
G36*
X1428887D02*
X1428769D01*
Y184020D01*
X1438039D01*
Y184138D01*
X1437321Y186818D01*
X1435933Y189222D01*
X1433971Y191184D01*
X1431567Y192572D01*
X1428887Y193290D01*
D02*
G37*
G36*
X1426229D02*
X1426111D01*
X1423431Y192572D01*
X1421027Y191184D01*
X1419065Y189222D01*
X1417677Y186818D01*
X1416959Y184138D01*
Y184020D01*
X1426229D01*
Y193290D01*
D02*
G37*
G36*
X1268887D02*
X1268769D01*
Y184020D01*
X1278039D01*
Y184138D01*
X1277321Y186818D01*
X1275933Y189222D01*
X1273971Y191184D01*
X1271567Y192572D01*
X1268887Y193290D01*
D02*
G37*
G36*
X1266229D02*
X1266111D01*
X1263431Y192572D01*
X1261027Y191184D01*
X1259065Y189222D01*
X1257677Y186818D01*
X1256959Y184138D01*
Y184020D01*
X1266229D01*
Y193290D01*
D02*
G37*
G36*
X1108888D02*
X1108770D01*
Y184020D01*
X1118040D01*
Y184138D01*
X1117322Y186818D01*
X1115934Y189222D01*
X1113972Y191184D01*
X1111568Y192572D01*
X1108888Y193290D01*
D02*
G37*
G36*
X1106230D02*
X1106112D01*
X1103432Y192572D01*
X1101028Y191184D01*
X1099066Y189222D01*
X1097678Y186818D01*
X1096960Y184138D01*
Y184020D01*
X1106230D01*
Y193290D01*
D02*
G37*
G36*
X1738198Y186730D02*
X1732520D01*
Y181052D01*
X1733967Y181440D01*
X1735573Y182367D01*
X1736883Y183677D01*
X1737810Y185283D01*
X1738198Y186730D01*
D02*
G37*
G36*
X1729980D02*
X1724302D01*
X1724690Y185283D01*
X1725617Y183677D01*
X1726927Y182367D01*
X1728533Y181440D01*
X1729980Y181052D01*
Y186730D01*
D02*
G37*
G36*
X1760856Y193500D02*
X1759144D01*
X1757491Y193057D01*
X1756009Y192201D01*
X1754799Y190991D01*
X1753943Y189509D01*
X1753500Y187856D01*
Y186144D01*
X1753943Y184491D01*
X1754799Y183009D01*
X1756009Y181799D01*
X1757491Y180943D01*
X1759144Y180500D01*
X1760856D01*
X1762509Y180943D01*
X1763991Y181799D01*
X1765201Y183009D01*
X1766057Y184491D01*
X1766500Y186144D01*
Y187856D01*
X1766057Y189509D01*
X1765201Y190991D01*
X1763991Y192201D01*
X1762509Y193057D01*
X1760856Y193500D01*
D02*
G37*
G36*
X-4144D02*
X-5856D01*
X-7509Y193057D01*
X-8991Y192201D01*
X-10201Y190991D01*
X-11057Y189509D01*
X-11500Y187856D01*
Y186144D01*
X-11057Y184491D01*
X-10201Y183009D01*
X-8991Y181799D01*
X-7509Y180943D01*
X-5856Y180500D01*
X-4144D01*
X-2491Y180943D01*
X-1009Y181799D01*
X201Y183009D01*
X1057Y184491D01*
X1500Y186144D01*
Y187856D01*
X1057Y189509D01*
X201Y190991D01*
X-1009Y192201D01*
X-2491Y193057D01*
X-4144Y193500D01*
D02*
G37*
G36*
X54520Y184448D02*
Y178770D01*
X60198D01*
X59810Y180217D01*
X58883Y181823D01*
X57573Y183133D01*
X55967Y184060D01*
X54520Y184448D01*
D02*
G37*
G36*
X51980D02*
X50533Y184060D01*
X48927Y183133D01*
X47617Y181823D01*
X46690Y180217D01*
X46302Y178770D01*
X51980D01*
Y184448D01*
D02*
G37*
G36*
X1313356Y189000D02*
X1311644D01*
X1309991Y188557D01*
X1308509Y187701D01*
X1307299Y186491D01*
X1306443Y185009D01*
X1306000Y183356D01*
Y181644D01*
X1306443Y179991D01*
X1307299Y178509D01*
X1308509Y177299D01*
X1309991Y176443D01*
X1311644Y176000D01*
X1313356D01*
X1315009Y176443D01*
X1316491Y177299D01*
X1317701Y178509D01*
X1318557Y179991D01*
X1319000Y181644D01*
Y183356D01*
X1318557Y185009D01*
X1317701Y186491D01*
X1316491Y187701D01*
X1315009Y188557D01*
X1313356Y189000D01*
D02*
G37*
G36*
X898951Y194500D02*
X896449D01*
X894033Y193853D01*
X891867Y192602D01*
X890098Y190833D01*
X888847Y188667D01*
X888200Y186251D01*
Y183749D01*
X888847Y181333D01*
X890098Y179167D01*
X891867Y177398D01*
X894033Y176147D01*
X896449Y175500D01*
X898951D01*
X901367Y176147D01*
X903533Y177398D01*
X905302Y179167D01*
X906553Y181333D01*
X907200Y183749D01*
Y186251D01*
X906553Y188667D01*
X905302Y190833D01*
X903533Y192602D01*
X901367Y193853D01*
X898951Y194500D01*
D02*
G37*
G36*
X873551D02*
X871049D01*
X868633Y193853D01*
X866467Y192602D01*
X864698Y190833D01*
X863447Y188667D01*
X862800Y186251D01*
Y183749D01*
X863447Y181333D01*
X864698Y179167D01*
X866467Y177398D01*
X868633Y176147D01*
X871049Y175500D01*
X873551D01*
X875967Y176147D01*
X878133Y177398D01*
X879902Y179167D01*
X881153Y181333D01*
X881800Y183749D01*
Y186251D01*
X881153Y188667D01*
X879902Y190833D01*
X878133Y192602D01*
X875967Y193853D01*
X873551Y194500D01*
D02*
G37*
G36*
X388951D02*
X386449D01*
X384033Y193853D01*
X381867Y192602D01*
X380098Y190833D01*
X378847Y188667D01*
X378200Y186251D01*
Y183749D01*
X378847Y181333D01*
X380098Y179167D01*
X381867Y177398D01*
X384033Y176147D01*
X386449Y175500D01*
X388951D01*
X391367Y176147D01*
X393533Y177398D01*
X395302Y179167D01*
X396553Y181333D01*
X397200Y183749D01*
Y186251D01*
X396553Y188667D01*
X395302Y190833D01*
X393533Y192602D01*
X391367Y193853D01*
X388951Y194500D01*
D02*
G37*
G36*
X363551D02*
X361049D01*
X358633Y193853D01*
X356467Y192602D01*
X354698Y190833D01*
X353447Y188667D01*
X352800Y186251D01*
Y183749D01*
X353447Y181333D01*
X354698Y179167D01*
X356467Y177398D01*
X358633Y176147D01*
X361049Y175500D01*
X363551D01*
X365967Y176147D01*
X368133Y177398D01*
X369902Y179167D01*
X371153Y181333D01*
X371800Y183749D01*
Y186251D01*
X371153Y188667D01*
X369902Y190833D01*
X368133Y192602D01*
X365967Y193853D01*
X363551Y194500D01*
D02*
G37*
G36*
X1291322Y182740D02*
X1291270D01*
Y173970D01*
X1300040D01*
Y174022D01*
X1299356Y176575D01*
X1298034Y178865D01*
X1296165Y180734D01*
X1293875Y182056D01*
X1291322Y182740D01*
D02*
G37*
G36*
X1451322D02*
X1451270D01*
Y173970D01*
X1460040D01*
Y174022D01*
X1459356Y176575D01*
X1458034Y178865D01*
X1456165Y180734D01*
X1453875Y182056D01*
X1451322Y182740D01*
D02*
G37*
G36*
X1448730D02*
X1448678D01*
X1446125Y182056D01*
X1443835Y180734D01*
X1441966Y178865D01*
X1440644Y176575D01*
X1439960Y174022D01*
Y173970D01*
X1448730D01*
Y182740D01*
D02*
G37*
G36*
X1288730D02*
X1288678D01*
X1286125Y182056D01*
X1283835Y180734D01*
X1281966Y178865D01*
X1280644Y176575D01*
X1279960Y174022D01*
Y173970D01*
X1288730D01*
Y182740D01*
D02*
G37*
G36*
X33816Y192750D02*
X31184D01*
X28640Y192069D01*
X26360Y190752D01*
X24498Y188890D01*
X23182Y186610D01*
X22500Y184067D01*
Y181434D01*
X23182Y178890D01*
X24498Y176610D01*
X26360Y174748D01*
X28640Y173431D01*
X31184Y172750D01*
X33816D01*
X36360Y173431D01*
X38640Y174748D01*
X40502Y176610D01*
X41818Y178890D01*
X42500Y181434D01*
Y184067D01*
X41818Y186610D01*
X40502Y188890D01*
X38640Y190752D01*
X36360Y192069D01*
X33816Y192750D01*
D02*
G37*
G36*
X1523817Y192500D02*
X1521183D01*
X1518640Y191819D01*
X1516360Y190502D01*
X1514498Y188640D01*
X1513181Y186360D01*
X1512500Y183817D01*
Y181183D01*
X1513181Y178640D01*
X1514498Y176360D01*
X1516360Y174498D01*
X1518640Y173181D01*
X1521183Y172500D01*
X1523817D01*
X1526360Y173181D01*
X1528640Y174498D01*
X1530502Y176360D01*
X1531819Y178640D01*
X1532500Y181183D01*
Y183817D01*
X1531819Y186360D01*
X1530502Y188640D01*
X1528640Y190502D01*
X1526360Y191819D01*
X1523817Y192500D01*
D02*
G37*
G36*
X1363815D02*
X1361183D01*
X1358639Y191819D01*
X1356359Y190502D01*
X1354497Y188640D01*
X1353181Y186360D01*
X1352499Y183817D01*
Y181183D01*
X1353181Y178640D01*
X1354497Y176360D01*
X1356359Y174498D01*
X1358639Y173181D01*
X1361183Y172500D01*
X1363815D01*
X1366359Y173181D01*
X1368639Y174498D01*
X1370501Y176360D01*
X1371817Y178640D01*
X1372499Y181183D01*
Y183817D01*
X1371817Y186360D01*
X1370501Y188640D01*
X1368639Y190502D01*
X1366359Y191819D01*
X1363815Y192500D01*
D02*
G37*
G36*
X1203816D02*
X1201182D01*
X1198639Y191819D01*
X1196359Y190502D01*
X1194497Y188640D01*
X1193180Y186360D01*
X1192499Y183817D01*
Y181183D01*
X1193180Y178640D01*
X1194497Y176360D01*
X1196359Y174498D01*
X1198639Y173181D01*
X1201182Y172500D01*
X1203816D01*
X1206359Y173181D01*
X1208639Y174498D01*
X1210501Y176360D01*
X1211817Y178640D01*
X1212499Y181183D01*
Y183817D01*
X1211817Y186360D01*
X1210501Y188640D01*
X1208639Y190502D01*
X1206359Y191819D01*
X1203816Y192500D01*
D02*
G37*
G36*
X1043817D02*
X1041183D01*
X1038640Y191819D01*
X1036360Y190502D01*
X1034498Y188640D01*
X1033182Y186360D01*
X1032500Y183817D01*
Y181183D01*
X1033182Y178640D01*
X1034498Y176360D01*
X1036360Y174498D01*
X1038640Y173181D01*
X1041183Y172500D01*
X1043817D01*
X1046360Y173181D01*
X1048640Y174498D01*
X1050502Y176360D01*
X1051818Y178640D01*
X1052500Y181183D01*
Y183817D01*
X1051818Y186360D01*
X1050502Y188640D01*
X1048640Y190502D01*
X1046360Y191819D01*
X1043817Y192500D01*
D02*
G37*
G36*
X-31184D02*
X-33816D01*
X-36360Y191819D01*
X-38640Y190502D01*
X-40502Y188640D01*
X-41818Y186360D01*
X-42500Y183817D01*
Y181183D01*
X-41818Y178640D01*
X-40502Y176360D01*
X-38640Y174498D01*
X-36360Y173181D01*
X-33816Y172500D01*
X-31184D01*
X-28640Y173181D01*
X-26360Y174498D01*
X-24498Y176360D01*
X-23182Y178640D01*
X-22500Y181183D01*
Y183817D01*
X-23182Y186360D01*
X-24498Y188640D01*
X-26360Y190502D01*
X-28640Y191819D01*
X-31184Y192500D01*
D02*
G37*
G36*
X1598040Y181480D02*
X1588770D01*
Y172210D01*
X1588888D01*
X1591568Y172928D01*
X1593972Y174316D01*
X1595934Y176278D01*
X1597322Y178682D01*
X1598040Y181362D01*
Y181480D01*
D02*
G37*
G36*
X1586230D02*
X1576960D01*
Y181362D01*
X1577678Y178682D01*
X1579066Y176278D01*
X1581028Y174316D01*
X1583432Y172928D01*
X1586112Y172210D01*
X1586230D01*
Y181480D01*
D02*
G37*
G36*
X1438039D02*
X1428769D01*
Y172210D01*
X1428887D01*
X1431567Y172928D01*
X1433971Y174316D01*
X1435933Y176278D01*
X1437321Y178682D01*
X1438039Y181362D01*
Y181480D01*
D02*
G37*
G36*
X1426229D02*
X1416959D01*
Y181362D01*
X1417677Y178682D01*
X1419065Y176278D01*
X1421027Y174316D01*
X1423431Y172928D01*
X1426111Y172210D01*
X1426229D01*
Y181480D01*
D02*
G37*
G36*
X1278039D02*
X1268769D01*
Y172210D01*
X1268887D01*
X1271567Y172928D01*
X1273971Y174316D01*
X1275933Y176278D01*
X1277321Y178682D01*
X1278039Y181362D01*
Y181480D01*
D02*
G37*
G36*
X1266229D02*
X1256959D01*
Y181362D01*
X1257677Y178682D01*
X1259065Y176278D01*
X1261027Y174316D01*
X1263431Y172928D01*
X1266111Y172210D01*
X1266229D01*
Y181480D01*
D02*
G37*
G36*
X1118040D02*
X1108770D01*
Y172210D01*
X1108888D01*
X1111568Y172928D01*
X1113972Y174316D01*
X1115934Y176278D01*
X1117322Y178682D01*
X1118040Y181362D01*
Y181480D01*
D02*
G37*
G36*
X1106230D02*
X1096960D01*
Y181362D01*
X1097678Y178682D01*
X1099066Y176278D01*
X1101028Y174316D01*
X1103432Y172928D01*
X1106112Y172210D01*
X1106230D01*
Y181480D01*
D02*
G37*
G36*
X60198Y176230D02*
X54520D01*
Y170552D01*
X55967Y170940D01*
X57573Y171867D01*
X58883Y173177D01*
X59810Y174783D01*
X60198Y176230D01*
D02*
G37*
G36*
X51980D02*
X46302D01*
X46690Y174783D01*
X47617Y173177D01*
X48927Y171867D01*
X50533Y170940D01*
X51980Y170552D01*
Y176230D01*
D02*
G37*
G36*
X973888Y173040D02*
X973770D01*
Y163770D01*
X983040D01*
Y163888D01*
X982322Y166568D01*
X980934Y168972D01*
X978972Y170934D01*
X976568Y172322D01*
X973888Y173040D01*
D02*
G37*
G36*
X971230D02*
X971112D01*
X968432Y172322D01*
X966028Y170934D01*
X964066Y168972D01*
X962678Y166568D01*
X961960Y163888D01*
Y163770D01*
X971230D01*
Y173040D01*
D02*
G37*
G36*
X1341251Y182200D02*
X1338749D01*
X1336333Y181553D01*
X1334167Y180302D01*
X1332398Y178533D01*
X1331147Y176367D01*
X1330500Y173951D01*
Y171449D01*
X1331147Y169033D01*
X1332398Y166867D01*
X1334167Y165098D01*
X1336333Y163847D01*
X1338749Y163200D01*
X1341251D01*
X1343667Y163847D01*
X1345833Y165098D01*
X1347602Y166867D01*
X1348853Y169033D01*
X1349500Y171449D01*
Y173951D01*
X1348853Y176367D01*
X1347602Y178533D01*
X1345833Y180302D01*
X1343667Y181553D01*
X1341251Y182200D01*
D02*
G37*
G36*
X1181251D02*
X1178749D01*
X1176333Y181553D01*
X1174167Y180302D01*
X1172398Y178533D01*
X1171147Y176367D01*
X1170500Y173951D01*
Y171449D01*
X1171147Y169033D01*
X1172398Y166867D01*
X1174167Y165098D01*
X1176333Y163847D01*
X1178749Y163200D01*
X1181251D01*
X1183667Y163847D01*
X1185833Y165098D01*
X1187602Y166867D01*
X1188853Y169033D01*
X1189500Y171449D01*
Y173951D01*
X1188853Y176367D01*
X1187602Y178533D01*
X1185833Y180302D01*
X1183667Y181553D01*
X1181251Y182200D01*
D02*
G37*
G36*
X1021251D02*
X1018749D01*
X1016333Y181553D01*
X1014167Y180302D01*
X1012398Y178533D01*
X1011147Y176367D01*
X1010500Y173951D01*
Y171449D01*
X1011147Y169033D01*
X1012398Y166867D01*
X1014167Y165098D01*
X1016333Y163847D01*
X1018749Y163200D01*
X1021251D01*
X1023667Y163847D01*
X1025833Y165098D01*
X1027602Y166867D01*
X1028853Y169033D01*
X1029500Y171449D01*
Y173951D01*
X1028853Y176367D01*
X1027602Y178533D01*
X1025833Y180302D01*
X1023667Y181553D01*
X1021251Y182200D01*
D02*
G37*
G36*
X1460040Y171430D02*
X1451270D01*
Y162660D01*
X1451322D01*
X1453875Y163344D01*
X1456165Y164666D01*
X1458034Y166535D01*
X1459356Y168825D01*
X1460040Y171378D01*
Y171430D01*
D02*
G37*
G36*
X1448730D02*
X1439960D01*
Y171378D01*
X1440644Y168825D01*
X1441966Y166535D01*
X1443835Y164666D01*
X1446125Y163344D01*
X1448678Y162660D01*
X1448730D01*
Y171430D01*
D02*
G37*
G36*
X1300040D02*
X1291270D01*
Y162660D01*
X1291322D01*
X1293875Y163344D01*
X1296165Y164666D01*
X1298034Y166535D01*
X1299356Y168825D01*
X1300040Y171378D01*
Y171430D01*
D02*
G37*
G36*
X1288730D02*
X1279960D01*
Y171378D01*
X1280644Y168825D01*
X1281966Y166535D01*
X1283835Y164666D01*
X1286125Y163344D01*
X1288678Y162660D01*
X1288730D01*
Y171430D01*
D02*
G37*
G36*
X1869520Y166198D02*
Y160520D01*
X1875198D01*
X1874810Y161967D01*
X1873883Y163573D01*
X1872573Y164883D01*
X1870967Y165810D01*
X1869520Y166198D01*
D02*
G37*
G36*
X1063856Y173000D02*
X1062144D01*
X1060491Y172557D01*
X1059009Y171701D01*
X1057799Y170491D01*
X1056943Y169009D01*
X1056500Y167356D01*
Y165644D01*
X1056943Y163991D01*
X1057799Y162509D01*
X1059009Y161299D01*
X1060491Y160443D01*
X1062144Y160000D01*
X1063856D01*
X1065509Y160443D01*
X1066991Y161299D01*
X1068201Y162509D01*
X1069057Y163991D01*
X1069500Y165644D01*
Y167356D01*
X1069057Y169009D01*
X1068201Y170491D01*
X1066991Y171701D01*
X1065509Y172557D01*
X1063856Y173000D01*
D02*
G37*
G36*
X353816Y172500D02*
X351184D01*
X348640Y171819D01*
X346360Y170502D01*
X344498Y168640D01*
X343181Y166360D01*
X342500Y163817D01*
Y161183D01*
X343181Y158640D01*
X344498Y156360D01*
X346360Y154498D01*
X348640Y153181D01*
X351184Y152500D01*
X353816D01*
X356360Y153181D01*
X358640Y154498D01*
X360502Y156360D01*
X361819Y158640D01*
X362500Y161183D01*
Y163817D01*
X361819Y166360D01*
X360502Y168640D01*
X358640Y170502D01*
X356360Y171819D01*
X353816Y172500D01*
D02*
G37*
G36*
X288817D02*
X286183D01*
X283640Y171819D01*
X281360Y170502D01*
X279498Y168640D01*
X278181Y166360D01*
X277500Y163817D01*
Y161183D01*
X278181Y158640D01*
X279498Y156360D01*
X281360Y154498D01*
X283640Y153181D01*
X286183Y152500D01*
X288817D01*
X291360Y153181D01*
X293640Y154498D01*
X295502Y156360D01*
X296819Y158640D01*
X297500Y161183D01*
Y163817D01*
X296819Y166360D01*
X295502Y168640D01*
X293640Y170502D01*
X291360Y171819D01*
X288817Y172500D01*
D02*
G37*
G36*
X1875198Y157980D02*
X1869520D01*
Y152302D01*
X1870967Y152690D01*
X1872573Y153617D01*
X1873883Y154927D01*
X1874810Y156533D01*
X1875198Y157980D01*
D02*
G37*
G36*
X1855106Y182000D02*
X1853394D01*
X1851741Y181557D01*
X1850259Y180701D01*
X1849049Y179491D01*
X1848193Y178009D01*
X1847750Y176356D01*
Y174644D01*
X1848193Y172991D01*
X1849049Y171509D01*
X1850259Y170299D01*
X1850508Y170155D01*
Y167845D01*
X1850259Y167701D01*
X1849049Y166491D01*
X1848193Y165009D01*
X1847750Y163356D01*
Y161644D01*
X1848193Y159991D01*
X1849049Y158509D01*
X1850259Y157299D01*
X1851227Y156740D01*
X1851420Y156014D01*
Y155236D01*
X1851227Y154510D01*
X1850259Y153951D01*
X1849049Y152741D01*
X1848193Y151259D01*
X1847750Y149606D01*
Y147894D01*
X1848193Y146241D01*
X1849049Y144759D01*
X1850259Y143549D01*
X1851741Y142693D01*
X1853394Y142250D01*
X1855106D01*
X1856759Y142693D01*
X1858241Y143549D01*
X1859451Y144759D01*
X1860307Y146241D01*
X1860750Y147894D01*
Y149606D01*
X1860307Y151259D01*
X1859451Y152741D01*
X1858241Y153951D01*
X1857273Y154510D01*
X1857080Y155236D01*
Y156014D01*
X1857273Y156740D01*
X1858241Y157299D01*
X1859226Y158284D01*
X1860011Y158299D01*
X1861351Y157799D01*
X1861690Y156533D01*
X1862617Y154927D01*
X1863927Y153617D01*
X1865533Y152690D01*
X1866980Y152302D01*
Y159250D01*
Y166198D01*
X1865533Y165810D01*
X1863927Y164883D01*
X1862647Y163603D01*
X1862640Y163603D01*
X1862448Y163610D01*
X1860570Y164028D01*
X1860307Y165009D01*
X1859451Y166491D01*
X1858241Y167701D01*
X1857992Y167845D01*
Y170155D01*
X1858241Y170299D01*
X1859451Y171509D01*
X1860307Y172991D01*
X1860750Y174644D01*
Y176356D01*
X1860307Y178009D01*
X1859451Y179491D01*
X1858241Y180701D01*
X1856759Y181557D01*
X1855106Y182000D01*
D02*
G37*
G36*
X2174520Y157948D02*
Y152270D01*
X2180198D01*
X2179810Y153717D01*
X2178883Y155323D01*
X2177573Y156633D01*
X2175967Y157560D01*
X2174520Y157948D01*
D02*
G37*
G36*
X2171980D02*
X2170533Y157560D01*
X2168927Y156633D01*
X2167617Y155323D01*
X2166690Y153717D01*
X2166302Y152270D01*
X2171980D01*
Y157948D01*
D02*
G37*
G36*
X908817Y172250D02*
X906183D01*
X903640Y171569D01*
X901360Y170252D01*
X899498Y168390D01*
X898182Y166110D01*
X897500Y163567D01*
Y160933D01*
X898182Y158390D01*
X899498Y156110D01*
X901360Y154248D01*
X903640Y152931D01*
X906183Y152250D01*
X908817D01*
X911360Y152931D01*
X913640Y154248D01*
X915502Y156110D01*
X916818Y158390D01*
X917500Y160933D01*
Y163567D01*
X916818Y166110D01*
X915502Y168390D01*
X913640Y170252D01*
X911360Y171569D01*
X908817Y172250D01*
D02*
G37*
G36*
X2235270Y157698D02*
Y152020D01*
X2240948D01*
X2240560Y153467D01*
X2239633Y155073D01*
X2238323Y156383D01*
X2236717Y157310D01*
X2235270Y157698D01*
D02*
G37*
G36*
X2232730D02*
X2231283Y157310D01*
X2229677Y156383D01*
X2228367Y155073D01*
X2227440Y153467D01*
X2227052Y152020D01*
X2232730D01*
Y157698D01*
D02*
G37*
G36*
X983040Y161230D02*
X973770D01*
Y151960D01*
X973888D01*
X976568Y152678D01*
X978972Y154066D01*
X980934Y156028D01*
X982322Y158432D01*
X983040Y161112D01*
Y161230D01*
D02*
G37*
G36*
X971230D02*
X961960D01*
Y161112D01*
X962678Y158432D01*
X964066Y156028D01*
X966028Y154066D01*
X968432Y152678D01*
X971112Y151960D01*
X971230D01*
Y161230D01*
D02*
G37*
G36*
X1815856Y181750D02*
X1814144D01*
X1812491Y181307D01*
X1811009Y180451D01*
X1809799Y179241D01*
X1808943Y177759D01*
X1808500Y176106D01*
Y174394D01*
X1808943Y172741D01*
X1809799Y171259D01*
X1811009Y170049D01*
X1811042Y170030D01*
Y167720D01*
X1811009Y167701D01*
X1809799Y166491D01*
X1808943Y165009D01*
X1808500Y163356D01*
Y161644D01*
X1808943Y159991D01*
X1809799Y158509D01*
X1811009Y157299D01*
X1810935Y155032D01*
X1810677Y154883D01*
X1809367Y153573D01*
X1808440Y151967D01*
X1808052Y150520D01*
X1821948D01*
X1821560Y151967D01*
X1820633Y153573D01*
X1819323Y154883D01*
X1819065Y155032D01*
X1818991Y157299D01*
X1820201Y158509D01*
X1821057Y159991D01*
X1821500Y161644D01*
Y163356D01*
X1821057Y165009D01*
X1820201Y166491D01*
X1818991Y167701D01*
X1818958Y167720D01*
Y170030D01*
X1818991Y170049D01*
X1820201Y171259D01*
X1821057Y172741D01*
X1821500Y174394D01*
Y176106D01*
X1821057Y177759D01*
X1820201Y179241D01*
X1818991Y180451D01*
X1817509Y181307D01*
X1815856Y181750D01*
D02*
G37*
G36*
X198951Y169500D02*
X196449D01*
X194033Y168853D01*
X191867Y167602D01*
X190098Y165833D01*
X188848Y163667D01*
X188200Y161251D01*
Y158749D01*
X188848Y156333D01*
X190098Y154167D01*
X191867Y152398D01*
X194033Y151147D01*
X196449Y150500D01*
X198951D01*
X201367Y151147D01*
X203533Y152398D01*
X205302Y154167D01*
X206553Y156333D01*
X207200Y158749D01*
Y161251D01*
X206553Y163667D01*
X205302Y165833D01*
X203533Y167602D01*
X201367Y168853D01*
X198951Y169500D01*
D02*
G37*
G36*
X173551D02*
X171049D01*
X168633Y168853D01*
X166467Y167602D01*
X164698Y165833D01*
X163447Y163667D01*
X162800Y161251D01*
Y158749D01*
X163447Y156333D01*
X164698Y154167D01*
X166467Y152398D01*
X168633Y151147D01*
X171049Y150500D01*
X173551D01*
X175967Y151147D01*
X178133Y152398D01*
X179902Y154167D01*
X181153Y156333D01*
X181800Y158749D01*
Y161251D01*
X181153Y163667D01*
X179902Y165833D01*
X178133Y167602D01*
X175967Y168853D01*
X173551Y169500D01*
D02*
G37*
G36*
X108951D02*
X106449D01*
X104033Y168853D01*
X101867Y167602D01*
X100098Y165833D01*
X98847Y163667D01*
X98200Y161251D01*
Y158749D01*
X98847Y156333D01*
X100098Y154167D01*
X101867Y152398D01*
X104033Y151147D01*
X106449Y150500D01*
X108951D01*
X111367Y151147D01*
X113533Y152398D01*
X115302Y154167D01*
X116552Y156333D01*
X117200Y158749D01*
Y161251D01*
X116552Y163667D01*
X115302Y165833D01*
X113533Y167602D01*
X111367Y168853D01*
X108951Y169500D01*
D02*
G37*
G36*
X83551D02*
X81049D01*
X78633Y168853D01*
X76467Y167602D01*
X74698Y165833D01*
X73447Y163667D01*
X72800Y161251D01*
Y158749D01*
X73447Y156333D01*
X74698Y154167D01*
X76467Y152398D01*
X78633Y151147D01*
X81049Y150500D01*
X83551D01*
X85967Y151147D01*
X88133Y152398D01*
X89902Y154167D01*
X91152Y156333D01*
X91800Y158749D01*
Y161251D01*
X91152Y163667D01*
X89902Y165833D01*
X88133Y167602D01*
X85967Y168853D01*
X83551Y169500D01*
D02*
G37*
G36*
X1558356Y159000D02*
X1556644D01*
X1554991Y158557D01*
X1553509Y157701D01*
X1552299Y156491D01*
X1551443Y155009D01*
X1551000Y153356D01*
Y151644D01*
X1551443Y149991D01*
X1552299Y148509D01*
X1553509Y147299D01*
X1554991Y146443D01*
X1556644Y146000D01*
X1558356D01*
X1560009Y146443D01*
X1561491Y147299D01*
X1562701Y148509D01*
X1563557Y149991D01*
X1564000Y151644D01*
Y153356D01*
X1563557Y155009D01*
X1562701Y156491D01*
X1561491Y157701D01*
X1560009Y158557D01*
X1558356Y159000D01*
D02*
G37*
G36*
X1679606Y148250D02*
X1677894D01*
X1676241Y147807D01*
X1674759Y146951D01*
X1674159Y146351D01*
X1672875Y145951D01*
X1671591Y146351D01*
X1670991Y146951D01*
X1669509Y147807D01*
X1667856Y148250D01*
X1666144D01*
X1664491Y147807D01*
X1663009Y146951D01*
X1661799Y145741D01*
X1660943Y144259D01*
X1660500Y142606D01*
Y140894D01*
X1660943Y139241D01*
X1661799Y137759D01*
X1663009Y136549D01*
X1664491Y135693D01*
X1666144Y135250D01*
X1667856D01*
X1669509Y135693D01*
X1670991Y136549D01*
X1671391Y136949D01*
X1673477Y136874D01*
X1674142Y135367D01*
X1673832Y134774D01*
X1673549Y134491D01*
X1672693Y133009D01*
X1672250Y131356D01*
Y129644D01*
X1672693Y127991D01*
X1673549Y126509D01*
X1674759Y125299D01*
X1676241Y124443D01*
X1677894Y124000D01*
X1679606D01*
X1681259Y124443D01*
X1682741Y125299D01*
X1683951Y126509D01*
X1684807Y127991D01*
X1685250Y129644D01*
Y131356D01*
X1684807Y133009D01*
X1683951Y134491D01*
X1683668Y134774D01*
X1682962Y136125D01*
X1683668Y137476D01*
X1683951Y137759D01*
X1684807Y139241D01*
X1685250Y140894D01*
Y142606D01*
X1684807Y144259D01*
X1683951Y145741D01*
X1682741Y146951D01*
X1681259Y147807D01*
X1679606Y148250D01*
D02*
G37*
G36*
X2180198Y149730D02*
X2174520D01*
Y144052D01*
X2175967Y144440D01*
X2177573Y145367D01*
X2178883Y146677D01*
X2179810Y148283D01*
X2180198Y149730D01*
D02*
G37*
G36*
X2171980D02*
X2166302D01*
X2166690Y148283D01*
X2167617Y146677D01*
X2168927Y145367D01*
X2170533Y144440D01*
X2171980Y144052D01*
Y149730D01*
D02*
G37*
G36*
X2240948Y149480D02*
X2235270D01*
Y143802D01*
X2236717Y144190D01*
X2238323Y145117D01*
X2239633Y146427D01*
X2240560Y148033D01*
X2240948Y149480D01*
D02*
G37*
G36*
X2232730D02*
X2227052D01*
X2227440Y148033D01*
X2228367Y146427D01*
X2229677Y145117D01*
X2231283Y144190D01*
X2232730Y143802D01*
Y149480D01*
D02*
G37*
G36*
X1821948Y147980D02*
X1816270D01*
Y142302D01*
X1817717Y142690D01*
X1819323Y143617D01*
X1820633Y144927D01*
X1821560Y146533D01*
X1821948Y147980D01*
D02*
G37*
G36*
X1813730D02*
X1808052D01*
X1808440Y146533D01*
X1809367Y144927D01*
X1810677Y143617D01*
X1812283Y142690D01*
X1813730Y142302D01*
Y147980D01*
D02*
G37*
G36*
X1588817Y147500D02*
X1586183D01*
X1583640Y146819D01*
X1581360Y145502D01*
X1579498Y143640D01*
X1578355Y141660D01*
X1577329Y141568D01*
X1576238Y141834D01*
X1576057Y142509D01*
X1575201Y143991D01*
X1573991Y145201D01*
X1572509Y146057D01*
X1570856Y146500D01*
X1569144D01*
X1567491Y146057D01*
X1566009Y145201D01*
X1564799Y143991D01*
X1563943Y142509D01*
X1563500Y140856D01*
Y139144D01*
X1563943Y137491D01*
X1564799Y136009D01*
X1566009Y134799D01*
X1567491Y133943D01*
X1569144Y133500D01*
X1570856D01*
X1572509Y133943D01*
X1573991Y134799D01*
X1575201Y136009D01*
X1575500Y136526D01*
X1577140Y136245D01*
X1577535Y136052D01*
X1578181Y133640D01*
X1579498Y131360D01*
X1581360Y129498D01*
X1583640Y128181D01*
X1586183Y127500D01*
X1588817D01*
X1591360Y128181D01*
X1593640Y129498D01*
X1595502Y131360D01*
X1596819Y133640D01*
X1597500Y136184D01*
Y138816D01*
X1596819Y141360D01*
X1595502Y143640D01*
X1593640Y145502D01*
X1591360Y146819D01*
X1588817Y147500D01*
D02*
G37*
G36*
X2115856Y154190D02*
X2114144D01*
X2112491Y153747D01*
X2111009Y152891D01*
X2109799Y151681D01*
X2108943Y150199D01*
X2108500Y148546D01*
Y146834D01*
X2108943Y145181D01*
X2109799Y143699D01*
X2111009Y142489D01*
X2112491Y141633D01*
X2114144Y141190D01*
X2115856D01*
X2117509Y141633D01*
X2118991Y142489D01*
X2120201Y143699D01*
X2121057Y145181D01*
X2121500Y146834D01*
Y148546D01*
X2121057Y150199D01*
X2120201Y151681D01*
X2118991Y152891D01*
X2117509Y153747D01*
X2115856Y154190D01*
D02*
G37*
G36*
X1617020Y144698D02*
Y139020D01*
X1622698D01*
X1622310Y140467D01*
X1621383Y142073D01*
X1620073Y143383D01*
X1618467Y144310D01*
X1617020Y144698D01*
D02*
G37*
G36*
X1614480D02*
X1613033Y144310D01*
X1611427Y143383D01*
X1610117Y142073D01*
X1609190Y140467D01*
X1608802Y139020D01*
X1614480D01*
Y144698D01*
D02*
G37*
G36*
X33888Y148040D02*
X33770D01*
Y138770D01*
X43040D01*
Y138888D01*
X42322Y141568D01*
X40934Y143972D01*
X38972Y145934D01*
X36568Y147322D01*
X33888Y148040D01*
D02*
G37*
G36*
X31230D02*
X31112D01*
X28432Y147322D01*
X26028Y145934D01*
X24066Y143972D01*
X22678Y141568D01*
X21960Y138888D01*
Y138770D01*
X31230D01*
Y148040D01*
D02*
G37*
G36*
X1451251Y156800D02*
X1448749D01*
X1446333Y156153D01*
X1444167Y154902D01*
X1442398Y153133D01*
X1441147Y150967D01*
X1440500Y148551D01*
Y146049D01*
X1441147Y143633D01*
X1442398Y141467D01*
X1444167Y139698D01*
X1446333Y138448D01*
X1448749Y137800D01*
X1451251D01*
X1453667Y138448D01*
X1455833Y139698D01*
X1457602Y141467D01*
X1458853Y143633D01*
X1459500Y146049D01*
Y148551D01*
X1458853Y150967D01*
X1457602Y153133D01*
X1455833Y154902D01*
X1453667Y156153D01*
X1451251Y156800D01*
D02*
G37*
G36*
X1341251D02*
X1338749D01*
X1336333Y156153D01*
X1334167Y154902D01*
X1332398Y153133D01*
X1331147Y150967D01*
X1330500Y148551D01*
Y146049D01*
X1331147Y143633D01*
X1332398Y141467D01*
X1334167Y139698D01*
X1336333Y138448D01*
X1338749Y137800D01*
X1341251D01*
X1343667Y138448D01*
X1345833Y139698D01*
X1347602Y141467D01*
X1348853Y143633D01*
X1349500Y146049D01*
Y148551D01*
X1348853Y150967D01*
X1347602Y153133D01*
X1345833Y154902D01*
X1343667Y156153D01*
X1341251Y156800D01*
D02*
G37*
G36*
X1291251D02*
X1288749D01*
X1286333Y156153D01*
X1284167Y154902D01*
X1282398Y153133D01*
X1281147Y150967D01*
X1280500Y148551D01*
Y146049D01*
X1281147Y143633D01*
X1282398Y141467D01*
X1284167Y139698D01*
X1286333Y138448D01*
X1288749Y137800D01*
X1291251D01*
X1293667Y138448D01*
X1295833Y139698D01*
X1297602Y141467D01*
X1298853Y143633D01*
X1299500Y146049D01*
Y148551D01*
X1298853Y150967D01*
X1297602Y153133D01*
X1295833Y154902D01*
X1293667Y156153D01*
X1291251Y156800D01*
D02*
G37*
G36*
X1181251D02*
X1178749D01*
X1176333Y156153D01*
X1174167Y154902D01*
X1172398Y153133D01*
X1171147Y150967D01*
X1170500Y148551D01*
Y146049D01*
X1171147Y143633D01*
X1172398Y141467D01*
X1174167Y139698D01*
X1176333Y138448D01*
X1178749Y137800D01*
X1181251D01*
X1183667Y138448D01*
X1185833Y139698D01*
X1187602Y141467D01*
X1188853Y143633D01*
X1189500Y146049D01*
Y148551D01*
X1188853Y150967D01*
X1187602Y153133D01*
X1185833Y154902D01*
X1183667Y156153D01*
X1181251Y156800D01*
D02*
G37*
G36*
X1021251D02*
X1018749D01*
X1016333Y156153D01*
X1014167Y154902D01*
X1012398Y153133D01*
X1011147Y150967D01*
X1010500Y148551D01*
Y146049D01*
X1011147Y143633D01*
X1012398Y141467D01*
X1014167Y139698D01*
X1016333Y138448D01*
X1018749Y137800D01*
X1021251D01*
X1023667Y138448D01*
X1025833Y139698D01*
X1027602Y141467D01*
X1028853Y143633D01*
X1029500Y146049D01*
Y148551D01*
X1028853Y150967D01*
X1027602Y153133D01*
X1025833Y154902D01*
X1023667Y156153D01*
X1021251Y156800D01*
D02*
G37*
G36*
X1942388Y145540D02*
X1942271D01*
Y136270D01*
X1951541D01*
Y136388D01*
X1950822Y139068D01*
X1949435Y141472D01*
X1947473Y143434D01*
X1945069Y144822D01*
X1942388Y145540D01*
D02*
G37*
G36*
X1939731D02*
X1939613D01*
X1936933Y144822D01*
X1934529Y143434D01*
X1932567Y141472D01*
X1931179Y139068D01*
X1930461Y136388D01*
Y136270D01*
X1939731D01*
Y145540D01*
D02*
G37*
G36*
X1547020Y141698D02*
Y136020D01*
X1552698D01*
X1552310Y137467D01*
X1551383Y139073D01*
X1550073Y140383D01*
X1548467Y141310D01*
X1547020Y141698D01*
D02*
G37*
G36*
X1544480D02*
X1543033Y141310D01*
X1541427Y140383D01*
X1540117Y139073D01*
X1539190Y137467D01*
X1538802Y136020D01*
X1544480D01*
Y141698D01*
D02*
G37*
G36*
X1735856Y149000D02*
X1734144D01*
X1732491Y148557D01*
X1731009Y147701D01*
X1729799Y146491D01*
X1728943Y145009D01*
X1728500Y143356D01*
Y141644D01*
X1728943Y139991D01*
X1729799Y138509D01*
X1731009Y137299D01*
X1732491Y136443D01*
X1734144Y136000D01*
X1735856D01*
X1737509Y136443D01*
X1738991Y137299D01*
X1740201Y138509D01*
X1741057Y139991D01*
X1741500Y141644D01*
Y143356D01*
X1741057Y145009D01*
X1740201Y146491D01*
X1738991Y147701D01*
X1737509Y148557D01*
X1735856Y149000D01*
D02*
G37*
G36*
X1622698Y136480D02*
X1617020D01*
Y130802D01*
X1618467Y131190D01*
X1620073Y132117D01*
X1621383Y133427D01*
X1622310Y135033D01*
X1622698Y136480D01*
D02*
G37*
G36*
X1614480D02*
X1608802D01*
X1609190Y135033D01*
X1610117Y133427D01*
X1611427Y132117D01*
X1613033Y131190D01*
X1614480Y130802D01*
Y136480D01*
D02*
G37*
G36*
X318106Y143750D02*
X316394D01*
X314741Y143307D01*
X313259Y142451D01*
X312049Y141241D01*
X311193Y139759D01*
X310750Y138106D01*
Y136394D01*
X311193Y134741D01*
X312049Y133259D01*
X313259Y132049D01*
X314741Y131193D01*
X316394Y130750D01*
X318106D01*
X319759Y131193D01*
X321241Y132049D01*
X322451Y133259D01*
X323307Y134741D01*
X323750Y136394D01*
Y138106D01*
X323307Y139759D01*
X322451Y141241D01*
X321241Y142451D01*
X319759Y143307D01*
X318106Y143750D01*
D02*
G37*
G36*
X1552698Y133480D02*
X1547020D01*
Y127802D01*
X1548467Y128190D01*
X1550073Y129117D01*
X1551383Y130427D01*
X1552310Y132033D01*
X1552698Y133480D01*
D02*
G37*
G36*
X1544480D02*
X1538802D01*
X1539190Y132033D01*
X1540117Y130427D01*
X1541427Y129117D01*
X1543033Y128190D01*
X1544480Y127802D01*
Y133480D01*
D02*
G37*
G36*
X1723020Y133448D02*
Y127770D01*
X1728698D01*
X1728310Y129217D01*
X1727383Y130823D01*
X1726073Y132133D01*
X1724467Y133060D01*
X1723020Y133448D01*
D02*
G37*
G36*
X1720480D02*
X1719033Y133060D01*
X1717427Y132133D01*
X1716117Y130823D01*
X1715190Y129217D01*
X1714802Y127770D01*
X1720480D01*
Y133448D01*
D02*
G37*
G36*
X1523817Y147500D02*
X1521183D01*
X1518640Y146819D01*
X1516360Y145502D01*
X1514498Y143640D01*
X1513181Y141360D01*
X1512500Y138816D01*
Y136184D01*
X1513181Y133640D01*
X1514498Y131360D01*
X1516360Y129498D01*
X1518640Y128181D01*
X1521183Y127500D01*
X1523817D01*
X1526360Y128181D01*
X1528640Y129498D01*
X1530502Y131360D01*
X1531819Y133640D01*
X1532500Y136184D01*
Y138816D01*
X1531819Y141360D01*
X1530502Y143640D01*
X1528640Y145502D01*
X1526360Y146819D01*
X1523817Y147500D01*
D02*
G37*
G36*
X1428816D02*
X1426183D01*
X1423639Y146819D01*
X1421359Y145502D01*
X1419497Y143640D01*
X1418181Y141360D01*
X1417499Y138816D01*
Y136184D01*
X1418181Y133640D01*
X1419497Y131360D01*
X1421359Y129498D01*
X1423639Y128181D01*
X1426183Y127500D01*
X1428816D01*
X1431359Y128181D01*
X1433639Y129498D01*
X1435501Y131360D01*
X1436817Y133640D01*
X1437499Y136184D01*
Y138816D01*
X1436817Y141360D01*
X1435501Y143640D01*
X1433639Y145502D01*
X1431359Y146819D01*
X1428816Y147500D01*
D02*
G37*
G36*
X1363815D02*
X1361183D01*
X1358639Y146819D01*
X1356359Y145502D01*
X1354497Y143640D01*
X1353181Y141360D01*
X1352499Y138816D01*
Y136184D01*
X1353181Y133640D01*
X1354497Y131360D01*
X1356359Y129498D01*
X1358639Y128181D01*
X1361183Y127500D01*
X1363815D01*
X1366359Y128181D01*
X1368639Y129498D01*
X1370501Y131360D01*
X1371817Y133640D01*
X1372499Y136184D01*
Y138816D01*
X1371817Y141360D01*
X1370501Y143640D01*
X1368639Y145502D01*
X1366359Y146819D01*
X1363815Y147500D01*
D02*
G37*
G36*
X1268816D02*
X1266182D01*
X1263639Y146819D01*
X1261359Y145502D01*
X1259497Y143640D01*
X1258180Y141360D01*
X1257499Y138816D01*
Y136184D01*
X1258180Y133640D01*
X1259497Y131360D01*
X1261359Y129498D01*
X1263639Y128181D01*
X1266182Y127500D01*
X1268816D01*
X1271359Y128181D01*
X1273639Y129498D01*
X1275501Y131360D01*
X1276817Y133640D01*
X1277499Y136184D01*
Y138816D01*
X1276817Y141360D01*
X1275501Y143640D01*
X1273639Y145502D01*
X1271359Y146819D01*
X1268816Y147500D01*
D02*
G37*
G36*
X1203816D02*
X1201182D01*
X1198639Y146819D01*
X1196359Y145502D01*
X1194497Y143640D01*
X1193180Y141360D01*
X1192499Y138816D01*
Y136184D01*
X1193180Y133640D01*
X1194497Y131360D01*
X1196359Y129498D01*
X1198639Y128181D01*
X1201182Y127500D01*
X1203816D01*
X1206359Y128181D01*
X1208639Y129498D01*
X1210501Y131360D01*
X1211817Y133640D01*
X1212499Y136184D01*
Y138816D01*
X1211817Y141360D01*
X1210501Y143640D01*
X1208639Y145502D01*
X1206359Y146819D01*
X1203816Y147500D01*
D02*
G37*
G36*
X1108817D02*
X1106183D01*
X1103640Y146819D01*
X1101360Y145502D01*
X1099498Y143640D01*
X1098182Y141360D01*
X1097500Y138816D01*
Y136184D01*
X1098182Y133640D01*
X1099498Y131360D01*
X1101360Y129498D01*
X1103640Y128181D01*
X1106183Y127500D01*
X1108817D01*
X1111360Y128181D01*
X1113640Y129498D01*
X1115502Y131360D01*
X1116818Y133640D01*
X1117500Y136184D01*
Y138816D01*
X1116818Y141360D01*
X1115502Y143640D01*
X1113640Y145502D01*
X1111360Y146819D01*
X1108817Y147500D01*
D02*
G37*
G36*
X1043817D02*
X1041183D01*
X1038640Y146819D01*
X1036360Y145502D01*
X1034498Y143640D01*
X1033182Y141360D01*
X1032500Y138816D01*
Y136184D01*
X1033182Y133640D01*
X1034498Y131360D01*
X1036360Y129498D01*
X1038640Y128181D01*
X1041183Y127500D01*
X1043817D01*
X1046360Y128181D01*
X1048640Y129498D01*
X1050502Y131360D01*
X1051818Y133640D01*
X1052500Y136184D01*
Y138816D01*
X1051818Y141360D01*
X1050502Y143640D01*
X1048640Y145502D01*
X1046360Y146819D01*
X1043817Y147500D01*
D02*
G37*
G36*
X-31184D02*
X-33816D01*
X-36360Y146819D01*
X-38640Y145502D01*
X-40502Y143640D01*
X-41818Y141360D01*
X-42500Y138816D01*
Y136184D01*
X-41818Y133640D01*
X-40502Y131360D01*
X-38640Y129498D01*
X-36360Y128181D01*
X-33816Y127500D01*
X-31184D01*
X-28640Y128181D01*
X-26360Y129498D01*
X-24498Y131360D01*
X-23182Y133640D01*
X-22500Y136184D01*
Y138816D01*
X-23182Y141360D01*
X-24498Y143640D01*
X-26360Y145502D01*
X-28640Y146819D01*
X-31184Y147500D01*
D02*
G37*
G36*
X43040Y136230D02*
X33770D01*
Y126960D01*
X33888D01*
X36568Y127678D01*
X38972Y129066D01*
X40934Y131028D01*
X42322Y133432D01*
X43040Y136112D01*
Y136230D01*
D02*
G37*
G36*
X31230D02*
X21960D01*
Y136112D01*
X22678Y133432D01*
X24066Y131028D01*
X26028Y129066D01*
X28432Y127678D01*
X31112Y126960D01*
X31230D01*
Y136230D01*
D02*
G37*
G36*
X1966317Y145000D02*
X1963683D01*
X1961140Y144319D01*
X1958860Y143002D01*
X1956998Y141140D01*
X1955681Y138860D01*
X1955000Y136316D01*
Y133684D01*
X1955681Y131140D01*
X1956998Y128860D01*
X1958860Y126998D01*
X1961140Y125681D01*
X1963683Y125000D01*
X1966317D01*
X1968860Y125681D01*
X1971140Y126998D01*
X1973002Y128860D01*
X1974319Y131140D01*
X1975000Y133684D01*
Y136316D01*
X1974319Y138860D01*
X1973002Y141140D01*
X1971140Y143002D01*
X1968860Y144319D01*
X1966317Y145000D01*
D02*
G37*
G36*
X1916317D02*
X1913683D01*
X1911140Y144319D01*
X1908860Y143002D01*
X1906998Y141140D01*
X1905681Y138860D01*
X1905000Y136316D01*
Y133684D01*
X1905681Y131140D01*
X1906998Y128860D01*
X1908860Y126998D01*
X1911140Y125681D01*
X1913683Y125000D01*
X1916317D01*
X1918860Y125681D01*
X1921140Y126998D01*
X1923002Y128860D01*
X1924319Y131140D01*
X1925000Y133684D01*
Y136316D01*
X1924319Y138860D01*
X1923002Y141140D01*
X1921140Y143002D01*
X1918860Y144319D01*
X1916317Y145000D01*
D02*
G37*
G36*
X1951541Y133730D02*
X1942271D01*
Y124460D01*
X1942388D01*
X1945069Y125178D01*
X1947473Y126566D01*
X1949435Y128528D01*
X1950822Y130932D01*
X1951541Y133612D01*
Y133730D01*
D02*
G37*
G36*
X1939731D02*
X1930461D01*
Y133612D01*
X1931179Y130932D01*
X1932567Y128528D01*
X1934529Y126566D01*
X1936933Y125178D01*
X1939613Y124460D01*
X1939731D01*
Y133730D01*
D02*
G37*
G36*
X1647606Y148250D02*
X1645894D01*
X1644241Y147807D01*
X1642759Y146951D01*
X1641549Y145741D01*
X1640693Y144259D01*
X1640250Y142606D01*
Y140894D01*
X1640693Y139241D01*
X1641133Y138478D01*
X1639856Y136750D01*
X1638144D01*
X1636491Y136307D01*
X1635009Y135451D01*
X1633799Y134241D01*
X1632943Y132759D01*
X1632500Y131106D01*
Y129394D01*
X1632943Y127741D01*
X1633799Y126259D01*
X1635009Y125049D01*
X1636491Y124193D01*
X1638144Y123750D01*
X1639856D01*
X1641509Y124193D01*
X1642991Y125049D01*
X1644201Y126259D01*
X1645057Y127741D01*
X1645500Y129394D01*
Y131106D01*
X1645057Y132759D01*
X1644617Y133522D01*
X1645894Y135250D01*
X1647606D01*
X1648855Y135585D01*
X1649705Y134794D01*
X1650127Y133944D01*
X1649443Y132759D01*
X1649000Y131106D01*
Y129394D01*
X1649443Y127741D01*
X1650299Y126259D01*
X1651509Y125049D01*
X1652991Y124193D01*
X1654644Y123750D01*
X1656356D01*
X1658009Y124193D01*
X1659491Y125049D01*
X1660701Y126259D01*
X1661557Y127741D01*
X1662000Y129394D01*
Y131106D01*
X1661557Y132759D01*
X1660701Y134241D01*
X1659491Y135451D01*
X1658009Y136307D01*
X1656356Y136750D01*
X1654644D01*
X1653395Y136415D01*
X1652545Y137206D01*
X1652123Y138056D01*
X1652807Y139241D01*
X1653250Y140894D01*
Y142606D01*
X1652807Y144259D01*
X1651951Y145741D01*
X1650741Y146951D01*
X1649259Y147807D01*
X1647606Y148250D01*
D02*
G37*
G36*
X1728698Y125230D02*
X1723020D01*
Y119552D01*
X1724467Y119940D01*
X1726073Y120867D01*
X1727383Y122177D01*
X1728310Y123783D01*
X1728698Y125230D01*
D02*
G37*
G36*
X1720480D02*
X1714802D01*
X1715190Y123783D01*
X1716117Y122177D01*
X1717427Y120867D01*
X1719033Y119940D01*
X1720480Y119552D01*
Y125230D01*
D02*
G37*
G36*
X135856Y146500D02*
X134144D01*
X132491Y146057D01*
X131009Y145201D01*
X129799Y143991D01*
X128943Y142509D01*
X128500Y140856D01*
Y139144D01*
X128943Y137491D01*
X129799Y136009D01*
X131009Y134799D01*
X132114Y134161D01*
X132177Y132840D01*
X131947Y132031D01*
X130509Y131201D01*
X129299Y129991D01*
X128443Y128509D01*
X128000Y126856D01*
Y125144D01*
X128443Y123491D01*
X129299Y122009D01*
X130509Y120799D01*
X131991Y119943D01*
X133644Y119500D01*
X135356D01*
X137009Y119943D01*
X138491Y120799D01*
X139701Y122009D01*
X140557Y123491D01*
X141000Y125144D01*
Y126856D01*
X140557Y128509D01*
X139701Y129991D01*
X138491Y131201D01*
X137386Y131839D01*
X137323Y133160D01*
X137553Y133968D01*
X138991Y134799D01*
X140201Y136009D01*
X141057Y137491D01*
X141500Y139144D01*
Y140856D01*
X141057Y142509D01*
X140201Y143991D01*
X138991Y145201D01*
X137509Y146057D01*
X135856Y146500D01*
D02*
G37*
G36*
X1887645Y131000D02*
X1885933D01*
X1884280Y130557D01*
X1882798Y129701D01*
X1881588Y128491D01*
X1880732Y127009D01*
X1880289Y125356D01*
Y123644D01*
X1880732Y121991D01*
X1881588Y120509D01*
X1882798Y119299D01*
X1884280Y118443D01*
X1885933Y118000D01*
X1887645D01*
X1889298Y118443D01*
X1890780Y119299D01*
X1891990Y120509D01*
X1892846Y121991D01*
X1893289Y123644D01*
Y125356D01*
X1892846Y127009D01*
X1891990Y128491D01*
X1890780Y129701D01*
X1889298Y130557D01*
X1887645Y131000D01*
D02*
G37*
G36*
X1899270Y117448D02*
Y111770D01*
X1904948D01*
X1904560Y113217D01*
X1903633Y114823D01*
X1902323Y116133D01*
X1900717Y117060D01*
X1899270Y117448D01*
D02*
G37*
G36*
X1896730D02*
X1895283Y117060D01*
X1893677Y116133D01*
X1892367Y114823D01*
X1891440Y113217D01*
X1891052Y111770D01*
X1896730D01*
Y117448D01*
D02*
G37*
G36*
X1855856Y121500D02*
X1854144D01*
X1852491Y121057D01*
X1851009Y120201D01*
X1849799Y118991D01*
X1848943Y117509D01*
X1848500Y115856D01*
Y114144D01*
X1848943Y112491D01*
X1849799Y111009D01*
X1851009Y109799D01*
X1852491Y108943D01*
X1854144Y108500D01*
X1855856D01*
X1857509Y108943D01*
X1858991Y109799D01*
X1860201Y111009D01*
X1861057Y112491D01*
X1861500Y114144D01*
Y115856D01*
X1861057Y117509D01*
X1860201Y118991D01*
X1858991Y120201D01*
X1857509Y121057D01*
X1855856Y121500D01*
D02*
G37*
G36*
X1801356Y120500D02*
X1799644D01*
X1797991Y120057D01*
X1796509Y119201D01*
X1795299Y117991D01*
X1794443Y116509D01*
X1794000Y114856D01*
Y113144D01*
X1794443Y111491D01*
X1795299Y110009D01*
X1796401Y108906D01*
X1796406Y108712D01*
X1795016Y107207D01*
X1794856Y107250D01*
X1793144D01*
X1791491Y106807D01*
X1790009Y105951D01*
X1788799Y104741D01*
X1787943Y103259D01*
X1787500Y101606D01*
Y99894D01*
X1787943Y98241D01*
X1788799Y96759D01*
X1790009Y95549D01*
X1791491Y94693D01*
X1793144Y94250D01*
X1794856D01*
X1796509Y94693D01*
X1797991Y95549D01*
X1799201Y96759D01*
X1800057Y98241D01*
X1800500Y99894D01*
Y101606D01*
X1800057Y103259D01*
X1799201Y104741D01*
X1798099Y105844D01*
X1798094Y106038D01*
X1799484Y107543D01*
X1799644Y107500D01*
X1801356D01*
X1803009Y107943D01*
X1804491Y108799D01*
X1805701Y110009D01*
X1806557Y111491D01*
X1807000Y113144D01*
Y114856D01*
X1806557Y116509D01*
X1805701Y117991D01*
X1804491Y119201D01*
X1803009Y120057D01*
X1801356Y120500D01*
D02*
G37*
G36*
X1754606Y119750D02*
X1752894D01*
X1751241Y119307D01*
X1749759Y118451D01*
X1748549Y117241D01*
X1747693Y115759D01*
X1747250Y114106D01*
Y112394D01*
X1747693Y110741D01*
X1748549Y109259D01*
X1749759Y108049D01*
X1751241Y107193D01*
X1752894Y106750D01*
X1754606D01*
X1756259Y107193D01*
X1757741Y108049D01*
X1758951Y109259D01*
X1759807Y110741D01*
X1760250Y112394D01*
Y114106D01*
X1759807Y115759D01*
X1758951Y117241D01*
X1757741Y118451D01*
X1756259Y119307D01*
X1754606Y119750D01*
D02*
G37*
G36*
X1647020Y110448D02*
Y104770D01*
X1652698D01*
X1652310Y106217D01*
X1651383Y107823D01*
X1650073Y109133D01*
X1648467Y110060D01*
X1647020Y110448D01*
D02*
G37*
G36*
X1644480D02*
X1643033Y110060D01*
X1641427Y109133D01*
X1640117Y107823D01*
X1639190Y106217D01*
X1638802Y104770D01*
X1644480D01*
Y110448D01*
D02*
G37*
G36*
X1904948Y109230D02*
X1899270D01*
Y103552D01*
X1900717Y103940D01*
X1902323Y104867D01*
X1903633Y106177D01*
X1904560Y107783D01*
X1904948Y109230D01*
D02*
G37*
G36*
X1896730D02*
X1891052D01*
X1891440Y107783D01*
X1892367Y106177D01*
X1893677Y104867D01*
X1895283Y103940D01*
X1896730Y103552D01*
Y109230D01*
D02*
G37*
G36*
X1473356Y116500D02*
X1471644D01*
X1469991Y116057D01*
X1468509Y115201D01*
X1467299Y113991D01*
X1466443Y112509D01*
X1466000Y110856D01*
Y109144D01*
X1466443Y107491D01*
X1467299Y106009D01*
X1468509Y104799D01*
X1469991Y103943D01*
X1471644Y103500D01*
X1473356D01*
X1475009Y103943D01*
X1476491Y104799D01*
X1477701Y106009D01*
X1478557Y107491D01*
X1479000Y109144D01*
Y110856D01*
X1478557Y112509D01*
X1477701Y113991D01*
X1476491Y115201D01*
X1475009Y116057D01*
X1473356Y116500D01*
D02*
G37*
G36*
X1568951Y119500D02*
X1566449D01*
X1564033Y118853D01*
X1561867Y117602D01*
X1560098Y115833D01*
X1558847Y113667D01*
X1558200Y111251D01*
Y108749D01*
X1558847Y106333D01*
X1560098Y104167D01*
X1561867Y102398D01*
X1564033Y101147D01*
X1566449Y100500D01*
X1568951D01*
X1571367Y101147D01*
X1573533Y102398D01*
X1575302Y104167D01*
X1576552Y106333D01*
X1577200Y108749D01*
Y111251D01*
X1576552Y113667D01*
X1575302Y115833D01*
X1573533Y117602D01*
X1571367Y118853D01*
X1568951Y119500D01*
D02*
G37*
G36*
X1543551D02*
X1541049D01*
X1538633Y118853D01*
X1536467Y117602D01*
X1534698Y115833D01*
X1533447Y113667D01*
X1532800Y111251D01*
Y108749D01*
X1533447Y106333D01*
X1534698Y104167D01*
X1536467Y102398D01*
X1538633Y101147D01*
X1541049Y100500D01*
X1543551D01*
X1545967Y101147D01*
X1548133Y102398D01*
X1549902Y104167D01*
X1551152Y106333D01*
X1551800Y108749D01*
Y111251D01*
X1551152Y113667D01*
X1549902Y115833D01*
X1548133Y117602D01*
X1545967Y118853D01*
X1543551Y119500D01*
D02*
G37*
G36*
X1088951D02*
X1086449D01*
X1084033Y118853D01*
X1081867Y117602D01*
X1080098Y115833D01*
X1078847Y113667D01*
X1078200Y111251D01*
Y108749D01*
X1078847Y106333D01*
X1080098Y104167D01*
X1081867Y102398D01*
X1084033Y101147D01*
X1086449Y100500D01*
X1088951D01*
X1091367Y101147D01*
X1093533Y102398D01*
X1095302Y104167D01*
X1096553Y106333D01*
X1097200Y108749D01*
Y111251D01*
X1096553Y113667D01*
X1095302Y115833D01*
X1093533Y117602D01*
X1091367Y118853D01*
X1088951Y119500D01*
D02*
G37*
G36*
X1063551D02*
X1061049D01*
X1058633Y118853D01*
X1056467Y117602D01*
X1054698Y115833D01*
X1053447Y113667D01*
X1052800Y111251D01*
Y108749D01*
X1053447Y106333D01*
X1054698Y104167D01*
X1056467Y102398D01*
X1058633Y101147D01*
X1061049Y100500D01*
X1063551D01*
X1065967Y101147D01*
X1068133Y102398D01*
X1069902Y104167D01*
X1071153Y106333D01*
X1071800Y108749D01*
Y111251D01*
X1071153Y113667D01*
X1069902Y115833D01*
X1068133Y117602D01*
X1065967Y118853D01*
X1063551Y119500D01*
D02*
G37*
G36*
X1408950Y119499D02*
X1406448D01*
X1404032Y118852D01*
X1401866Y117601D01*
X1400097Y115832D01*
X1398846Y113666D01*
X1398199Y111250D01*
Y108748D01*
X1398846Y106332D01*
X1400097Y104166D01*
X1401866Y102397D01*
X1404032Y101146D01*
X1406448Y100499D01*
X1408950D01*
X1411366Y101146D01*
X1413532Y102397D01*
X1415301Y104166D01*
X1416552Y106332D01*
X1417199Y108748D01*
Y111250D01*
X1416552Y113666D01*
X1415301Y115832D01*
X1413532Y117601D01*
X1411366Y118852D01*
X1408950Y119499D01*
D02*
G37*
G36*
X1383550D02*
X1381048D01*
X1378632Y118852D01*
X1376466Y117601D01*
X1374697Y115832D01*
X1373447Y113666D01*
X1372799Y111250D01*
Y108748D01*
X1373447Y106332D01*
X1374697Y104166D01*
X1376466Y102397D01*
X1378632Y101146D01*
X1381048Y100499D01*
X1383550D01*
X1385966Y101146D01*
X1388132Y102397D01*
X1389901Y104166D01*
X1391152Y106332D01*
X1391799Y108748D01*
Y111250D01*
X1391152Y113666D01*
X1389901Y115832D01*
X1388132Y117601D01*
X1385966Y118852D01*
X1383550Y119499D01*
D02*
G37*
G36*
X1248950D02*
X1246448D01*
X1244032Y118852D01*
X1241866Y117601D01*
X1240097Y115832D01*
X1238846Y113666D01*
X1238199Y111250D01*
Y108748D01*
X1238846Y106332D01*
X1240097Y104166D01*
X1241866Y102397D01*
X1244032Y101146D01*
X1246448Y100499D01*
X1248950D01*
X1251366Y101146D01*
X1253532Y102397D01*
X1255301Y104166D01*
X1256552Y106332D01*
X1257199Y108748D01*
Y111250D01*
X1256552Y113666D01*
X1255301Y115832D01*
X1253532Y117601D01*
X1251366Y118852D01*
X1248950Y119499D01*
D02*
G37*
G36*
X1223550D02*
X1221048D01*
X1218632Y118852D01*
X1216466Y117601D01*
X1214697Y115832D01*
X1213446Y113666D01*
X1212799Y111250D01*
Y108748D01*
X1213446Y106332D01*
X1214697Y104166D01*
X1216466Y102397D01*
X1218632Y101146D01*
X1221048Y100499D01*
X1223550D01*
X1225966Y101146D01*
X1228132Y102397D01*
X1229901Y104166D01*
X1231152Y106332D01*
X1231799Y108748D01*
Y111250D01*
X1231152Y113666D01*
X1229901Y115832D01*
X1228132Y117601D01*
X1225966Y118852D01*
X1223550Y119499D01*
D02*
G37*
G36*
X10106Y112250D02*
X8394D01*
X6741Y111807D01*
X5259Y110951D01*
X4049Y109741D01*
X3193Y108259D01*
X2750Y106606D01*
Y104894D01*
X3193Y103241D01*
X4049Y101759D01*
X5259Y100549D01*
X6741Y99693D01*
X8394Y99250D01*
X10106D01*
X11759Y99693D01*
X13241Y100549D01*
X14451Y101759D01*
X15307Y103241D01*
X15750Y104894D01*
Y106606D01*
X15307Y108259D01*
X14451Y109741D01*
X13241Y110951D01*
X11759Y111807D01*
X10106Y112250D01*
D02*
G37*
G36*
X1652698Y102230D02*
X1647020D01*
Y96552D01*
X1648467Y96940D01*
X1650073Y97867D01*
X1651383Y99177D01*
X1652310Y100783D01*
X1652698Y102230D01*
D02*
G37*
G36*
X1644480D02*
X1638802D01*
X1639190Y100783D01*
X1640117Y99177D01*
X1641427Y97867D01*
X1643033Y96940D01*
X1644480Y96552D01*
Y102230D01*
D02*
G37*
G36*
X217770Y101448D02*
Y95770D01*
X223448D01*
X223060Y97217D01*
X222133Y98823D01*
X220823Y100133D01*
X219217Y101060D01*
X217770Y101448D01*
D02*
G37*
G36*
X215230D02*
X213783Y101060D01*
X212177Y100133D01*
X210867Y98823D01*
X209940Y97217D01*
X209552Y95770D01*
X215230D01*
Y101448D01*
D02*
G37*
G36*
X1527856Y97000D02*
X1526144D01*
X1524491Y96557D01*
X1523009Y95701D01*
X1522726Y95418D01*
X1521375Y94712D01*
X1520024Y95418D01*
X1519741Y95701D01*
X1518259Y96557D01*
X1516606Y97000D01*
X1514894D01*
X1513241Y96557D01*
X1511759Y95701D01*
X1510549Y94491D01*
X1509693Y93009D01*
X1509250Y91356D01*
Y89644D01*
X1509693Y87991D01*
X1510549Y86509D01*
X1511759Y85299D01*
X1513241Y84443D01*
X1514894Y84000D01*
X1516606D01*
X1518259Y84443D01*
X1519741Y85299D01*
X1520024Y85582D01*
X1521375Y86288D01*
X1522726Y85582D01*
X1523009Y85299D01*
X1524491Y84443D01*
X1526144Y84000D01*
X1527856D01*
X1529509Y84443D01*
X1530991Y85299D01*
X1532201Y86509D01*
X1533057Y87991D01*
X1533500Y89644D01*
Y91356D01*
X1533057Y93009D01*
X1532201Y94491D01*
X1530991Y95701D01*
X1529509Y96557D01*
X1527856Y97000D01*
D02*
G37*
G36*
X1977856Y107500D02*
X1976144D01*
X1974491Y107057D01*
X1973009Y106201D01*
X1971799Y104991D01*
X1970943Y103509D01*
X1970500Y101856D01*
Y100144D01*
X1970943Y98491D01*
X1971799Y97009D01*
X1973009Y95799D01*
X1974491Y94943D01*
X1976144Y94500D01*
X1977856D01*
X1979509Y94943D01*
X1980991Y95799D01*
X1982201Y97009D01*
X1983057Y98491D01*
X1983500Y100144D01*
Y101856D01*
X1983057Y103509D01*
X1982201Y104991D01*
X1980991Y106201D01*
X1979509Y107057D01*
X1977856Y107500D01*
D02*
G37*
G36*
X33816Y112750D02*
X31184D01*
X28640Y112069D01*
X26360Y110752D01*
X24498Y108890D01*
X23182Y106610D01*
X22500Y104066D01*
Y101433D01*
X23182Y98890D01*
X24498Y96610D01*
X26360Y94748D01*
X28640Y93432D01*
X31184Y92750D01*
X33816D01*
X36360Y93432D01*
X38640Y94748D01*
X40502Y96610D01*
X41818Y98890D01*
X42500Y101433D01*
Y104066D01*
X41818Y106610D01*
X40502Y108890D01*
X38640Y110752D01*
X36360Y112069D01*
X33816Y112750D01*
D02*
G37*
G36*
X-31184Y112500D02*
X-33816D01*
X-36360Y111819D01*
X-38640Y110502D01*
X-40502Y108640D01*
X-41818Y106360D01*
X-42500Y103816D01*
Y101184D01*
X-41818Y98640D01*
X-40502Y96360D01*
X-38640Y94498D01*
X-36360Y93181D01*
X-33816Y92500D01*
X-31184D01*
X-28640Y93181D01*
X-26360Y94498D01*
X-24498Y96360D01*
X-23182Y98640D01*
X-22500Y101184D01*
Y103816D01*
X-23182Y106360D01*
X-24498Y108640D01*
X-26360Y110502D01*
X-28640Y111819D01*
X-31184Y112500D01*
D02*
G37*
G36*
X1600856Y101500D02*
X1599144D01*
X1597491Y101057D01*
X1596009Y100201D01*
X1594799Y98991D01*
X1593943Y97509D01*
X1593500Y95856D01*
Y94144D01*
X1593943Y92491D01*
X1594799Y91009D01*
X1596009Y89799D01*
X1597491Y88943D01*
X1599144Y88500D01*
X1600856D01*
X1602509Y88943D01*
X1603991Y89799D01*
X1605201Y91009D01*
X1606057Y92491D01*
X1606500Y94144D01*
Y95856D01*
X1606057Y97509D01*
X1605201Y98991D01*
X1603991Y100201D01*
X1602509Y101057D01*
X1600856Y101500D01*
D02*
G37*
G36*
X223448Y93230D02*
X217770D01*
Y87552D01*
X219217Y87940D01*
X220823Y88867D01*
X222133Y90177D01*
X223060Y91783D01*
X223448Y93230D01*
D02*
G37*
G36*
X215230D02*
X209552D01*
X209940Y91783D01*
X210867Y90177D01*
X212177Y88867D01*
X213783Y87940D01*
X215230Y87552D01*
Y93230D01*
D02*
G37*
G36*
X1338730Y112540D02*
X1337439D01*
X1332380Y111739D01*
X1327509Y110156D01*
X1322945Y107831D01*
X1318802Y104820D01*
X1315180Y101198D01*
X1312169Y97055D01*
X1309844Y92491D01*
X1308261Y87620D01*
X1307460Y82561D01*
Y81270D01*
X1338730D01*
Y112540D01*
D02*
G37*
G36*
X457561D02*
X456270D01*
Y81270D01*
X487540D01*
Y82561D01*
X486739Y87620D01*
X485156Y92491D01*
X482831Y97055D01*
X479820Y101198D01*
X476198Y104820D01*
X472055Y107831D01*
X467491Y110156D01*
X462620Y111739D01*
X457561Y112540D01*
D02*
G37*
G36*
X453730D02*
X452439D01*
X447380Y111739D01*
X442509Y110156D01*
X437945Y107831D01*
X433802Y104820D01*
X430180Y101198D01*
X427169Y97055D01*
X424844Y92491D01*
X423261Y87620D01*
X422460Y82561D01*
Y81270D01*
X453730D01*
Y112540D01*
D02*
G37*
G36*
X1762356Y91250D02*
X1760644D01*
X1758991Y90807D01*
X1757509Y89951D01*
X1756299Y88741D01*
X1755443Y87259D01*
X1755000Y85606D01*
Y83894D01*
X1755443Y82241D01*
X1756299Y80759D01*
X1757509Y79549D01*
X1758991Y78693D01*
X1760644Y78250D01*
X1762356D01*
X1764009Y78693D01*
X1765491Y79549D01*
X1766701Y80759D01*
X1767557Y82241D01*
X1768000Y83894D01*
Y85606D01*
X1767557Y87259D01*
X1766701Y88741D01*
X1765491Y89951D01*
X1764009Y90807D01*
X1762356Y91250D01*
D02*
G37*
G36*
X1622606Y87750D02*
X1620894D01*
X1619241Y87307D01*
X1617759Y86451D01*
X1616549Y85241D01*
X1615693Y83759D01*
X1615250Y82106D01*
Y80394D01*
X1615693Y78741D01*
X1616549Y77259D01*
X1617759Y76049D01*
X1619241Y75193D01*
X1620894Y74750D01*
X1622606D01*
X1624259Y75193D01*
X1625741Y76049D01*
X1626951Y77259D01*
X1627807Y78741D01*
X1628250Y80394D01*
Y82106D01*
X1627807Y83759D01*
X1626951Y85241D01*
X1625741Y86451D01*
X1624259Y87307D01*
X1622606Y87750D01*
D02*
G37*
G36*
X1408950Y89500D02*
X1406448D01*
X1404032Y88853D01*
X1401866Y87602D01*
X1400097Y85833D01*
X1398846Y83667D01*
X1398199Y81251D01*
Y78749D01*
X1398846Y76333D01*
X1400097Y74167D01*
X1401866Y72398D01*
X1404032Y71147D01*
X1406448Y70500D01*
X1408950D01*
X1411366Y71147D01*
X1413532Y72398D01*
X1415301Y74167D01*
X1416552Y76333D01*
X1417199Y78749D01*
Y81251D01*
X1416552Y83667D01*
X1415301Y85833D01*
X1413532Y87602D01*
X1411366Y88853D01*
X1408950Y89500D01*
D02*
G37*
G36*
X1342561Y112540D02*
X1341270D01*
Y80000D01*
Y47460D01*
X1342561D01*
X1347620Y48261D01*
X1352491Y49844D01*
X1357055Y52169D01*
X1361198Y55180D01*
X1364820Y58802D01*
X1367831Y62945D01*
X1370156Y67509D01*
X1371739Y72380D01*
X1372101Y74664D01*
X1374187Y75051D01*
X1374697Y74167D01*
X1376466Y72398D01*
X1378632Y71147D01*
X1381048Y70500D01*
X1383550D01*
X1385966Y71147D01*
X1388132Y72398D01*
X1389901Y74167D01*
X1391152Y76333D01*
X1391799Y78749D01*
Y81251D01*
X1391152Y83667D01*
X1389901Y85833D01*
X1388132Y87602D01*
X1385966Y88853D01*
X1383550Y89500D01*
X1381048D01*
X1378632Y88853D01*
X1376466Y87602D01*
X1374697Y85833D01*
X1374187Y84949D01*
X1372101Y85336D01*
X1371739Y87620D01*
X1370156Y92491D01*
X1367831Y97055D01*
X1364820Y101198D01*
X1361198Y104820D01*
X1357055Y107831D01*
X1352491Y110156D01*
X1347620Y111739D01*
X1342561Y112540D01*
D02*
G37*
G36*
X1248950Y89500D02*
X1246448D01*
X1244032Y88853D01*
X1241866Y87602D01*
X1240097Y85833D01*
X1238846Y83667D01*
X1238199Y81251D01*
Y78749D01*
X1238846Y76333D01*
X1240097Y74167D01*
X1241866Y72398D01*
X1244032Y71147D01*
X1246448Y70500D01*
X1248950D01*
X1251366Y71147D01*
X1253532Y72398D01*
X1255301Y74167D01*
X1256552Y76333D01*
X1257199Y78749D01*
Y81251D01*
X1256552Y83667D01*
X1255301Y85833D01*
X1253532Y87602D01*
X1251366Y88853D01*
X1248950Y89500D01*
D02*
G37*
G36*
X1223550D02*
X1221048D01*
X1218632Y88853D01*
X1216466Y87602D01*
X1214697Y85833D01*
X1213446Y83667D01*
X1212799Y81251D01*
Y78749D01*
X1213446Y76333D01*
X1214697Y74167D01*
X1216466Y72398D01*
X1218632Y71147D01*
X1221048Y70500D01*
X1223550D01*
X1225966Y71147D01*
X1228132Y72398D01*
X1229901Y74167D01*
X1231152Y76333D01*
X1231799Y78749D01*
Y81251D01*
X1231152Y83667D01*
X1229901Y85833D01*
X1228132Y87602D01*
X1225966Y88853D01*
X1223550Y89500D01*
D02*
G37*
G36*
X1088951D02*
X1086449D01*
X1084033Y88853D01*
X1081867Y87602D01*
X1080098Y85833D01*
X1078847Y83667D01*
X1078200Y81251D01*
Y78749D01*
X1078847Y76333D01*
X1080098Y74167D01*
X1081867Y72398D01*
X1084033Y71147D01*
X1086449Y70500D01*
X1088951D01*
X1091367Y71147D01*
X1093533Y72398D01*
X1095302Y74167D01*
X1096553Y76333D01*
X1097200Y78749D01*
Y81251D01*
X1096553Y83667D01*
X1095302Y85833D01*
X1093533Y87602D01*
X1091367Y88853D01*
X1088951Y89500D01*
D02*
G37*
G36*
X1063551D02*
X1061049D01*
X1058633Y88853D01*
X1056467Y87602D01*
X1054698Y85833D01*
X1053447Y83667D01*
X1052800Y81251D01*
Y78749D01*
X1053447Y76333D01*
X1054698Y74167D01*
X1056467Y72398D01*
X1058633Y71147D01*
X1061049Y70500D01*
X1063551D01*
X1065967Y71147D01*
X1068133Y72398D01*
X1069902Y74167D01*
X1071153Y76333D01*
X1071800Y78749D01*
Y81251D01*
X1071153Y83667D01*
X1069902Y85833D01*
X1068133Y87602D01*
X1065967Y88853D01*
X1063551Y89500D01*
D02*
G37*
G36*
X198951D02*
X196449D01*
X194033Y88853D01*
X191867Y87602D01*
X190098Y85833D01*
X188848Y83667D01*
X188200Y81251D01*
Y78749D01*
X188848Y76333D01*
X190098Y74167D01*
X191867Y72398D01*
X194033Y71147D01*
X196449Y70500D01*
X198951D01*
X201367Y71147D01*
X203533Y72398D01*
X205302Y74167D01*
X206553Y76333D01*
X207200Y78749D01*
Y81251D01*
X206553Y83667D01*
X205302Y85833D01*
X203533Y87602D01*
X201367Y88853D01*
X198951Y89500D01*
D02*
G37*
G36*
X173551D02*
X171049D01*
X168633Y88853D01*
X166467Y87602D01*
X164698Y85833D01*
X163447Y83667D01*
X162800Y81251D01*
Y78749D01*
X163447Y76333D01*
X164698Y74167D01*
X166467Y72398D01*
X168633Y71147D01*
X171049Y70500D01*
X173551D01*
X175967Y71147D01*
X178133Y72398D01*
X179902Y74167D01*
X181153Y76333D01*
X181800Y78749D01*
Y81251D01*
X181153Y83667D01*
X179902Y85833D01*
X178133Y87602D01*
X175967Y88853D01*
X173551Y89500D01*
D02*
G37*
G36*
X108951D02*
X106449D01*
X104033Y88853D01*
X101867Y87602D01*
X100098Y85833D01*
X98847Y83667D01*
X98200Y81251D01*
Y78749D01*
X98847Y76333D01*
X100098Y74167D01*
X101867Y72398D01*
X104033Y71147D01*
X106449Y70500D01*
X108951D01*
X111367Y71147D01*
X113533Y72398D01*
X115302Y74167D01*
X116552Y76333D01*
X117200Y78749D01*
Y81251D01*
X116552Y83667D01*
X115302Y85833D01*
X113533Y87602D01*
X111367Y88853D01*
X108951Y89500D01*
D02*
G37*
G36*
X83551D02*
X81049D01*
X78633Y88853D01*
X76467Y87602D01*
X74698Y85833D01*
X73447Y83667D01*
X72800Y81251D01*
Y78749D01*
X73447Y76333D01*
X74698Y74167D01*
X76467Y72398D01*
X78633Y71147D01*
X81049Y70500D01*
X83551D01*
X85967Y71147D01*
X88133Y72398D01*
X89902Y74167D01*
X91152Y76333D01*
X91800Y78749D01*
Y81251D01*
X91152Y83667D01*
X89902Y85833D01*
X88133Y87602D01*
X85967Y88853D01*
X83551Y89500D01*
D02*
G37*
G36*
X1756520Y69948D02*
Y64270D01*
X1762198D01*
X1761810Y65717D01*
X1760883Y67323D01*
X1759573Y68633D01*
X1757967Y69560D01*
X1756520Y69948D01*
D02*
G37*
G36*
X1753980D02*
X1752533Y69560D01*
X1750927Y68633D01*
X1749617Y67323D01*
X1748690Y65717D01*
X1748302Y64270D01*
X1753980D01*
Y69948D01*
D02*
G37*
G36*
X33888Y68040D02*
X33770D01*
Y58770D01*
X43040D01*
Y58888D01*
X42322Y61568D01*
X40934Y63972D01*
X38972Y65934D01*
X36568Y67322D01*
X33888Y68040D01*
D02*
G37*
G36*
X31230D02*
X31112D01*
X28432Y67322D01*
X26028Y65934D01*
X24066Y63972D01*
X22678Y61568D01*
X21960Y58888D01*
Y58770D01*
X31230D01*
Y68040D01*
D02*
G37*
G36*
X1434856Y71750D02*
X1433144D01*
X1431491Y71307D01*
X1430009Y70451D01*
X1428799Y69241D01*
X1427943Y67759D01*
X1427500Y66106D01*
Y64394D01*
X1427943Y62741D01*
X1428799Y61259D01*
X1430009Y60049D01*
X1431491Y59193D01*
X1433144Y58750D01*
X1434856D01*
X1436509Y59193D01*
X1437991Y60049D01*
X1439201Y61259D01*
X1440057Y62741D01*
X1440500Y64394D01*
Y66106D01*
X1440057Y67759D01*
X1439201Y69241D01*
X1437991Y70451D01*
X1436509Y71307D01*
X1434856Y71750D01*
D02*
G37*
G36*
X1762198Y61730D02*
X1756520D01*
Y56052D01*
X1757967Y56440D01*
X1759573Y57367D01*
X1760883Y58677D01*
X1761810Y60283D01*
X1762198Y61730D01*
D02*
G37*
G36*
X1753980D02*
X1748302D01*
X1748690Y60283D01*
X1749617Y58677D01*
X1750927Y57367D01*
X1752533Y56440D01*
X1753980Y56052D01*
Y61730D01*
D02*
G37*
G36*
X-12394Y66750D02*
X-14106D01*
X-15759Y66307D01*
X-17241Y65451D01*
X-18451Y64241D01*
X-19307Y62759D01*
X-19750Y61106D01*
Y59394D01*
X-19307Y57741D01*
X-18451Y56259D01*
X-17241Y55049D01*
X-15759Y54193D01*
X-14106Y53750D01*
X-12394D01*
X-10741Y54193D01*
X-9259Y55049D01*
X-8049Y56259D01*
X-7193Y57741D01*
X-6750Y59394D01*
Y61106D01*
X-7193Y62759D01*
X-8049Y64241D01*
X-9259Y65451D01*
X-10741Y66307D01*
X-12394Y66750D01*
D02*
G37*
G36*
X1480270Y58698D02*
Y53020D01*
X1485948D01*
X1485560Y54467D01*
X1484633Y56073D01*
X1483323Y57383D01*
X1481717Y58310D01*
X1480270Y58698D01*
D02*
G37*
G36*
X1477730D02*
X1476283Y58310D01*
X1474677Y57383D01*
X1473367Y56073D01*
X1472440Y54467D01*
X1472052Y53020D01*
X1477730D01*
Y58698D01*
D02*
G37*
G36*
X1818770Y56198D02*
Y50520D01*
X1824448D01*
X1824060Y51967D01*
X1823133Y53573D01*
X1821823Y54883D01*
X1820217Y55810D01*
X1818770Y56198D01*
D02*
G37*
G36*
X1816230D02*
X1814783Y55810D01*
X1813177Y54883D01*
X1811867Y53573D01*
X1810940Y51967D01*
X1810552Y50520D01*
X1816230D01*
Y56198D01*
D02*
G37*
G36*
X-31184Y67500D02*
X-33816D01*
X-36360Y66818D01*
X-38640Y65502D01*
X-40502Y63640D01*
X-41818Y61360D01*
X-42500Y58816D01*
Y56184D01*
X-41818Y53640D01*
X-40502Y51360D01*
X-38640Y49498D01*
X-36360Y48182D01*
X-33816Y47500D01*
X-31184D01*
X-28640Y48182D01*
X-26360Y49498D01*
X-24498Y51360D01*
X-23182Y53640D01*
X-22500Y56184D01*
Y58816D01*
X-23182Y61360D01*
X-24498Y63640D01*
X-26360Y65502D01*
X-28640Y66818D01*
X-31184Y67500D01*
D02*
G37*
G36*
X1338730Y78730D02*
X1307460D01*
Y77439D01*
X1308261Y72380D01*
X1309844Y67509D01*
X1312169Y62945D01*
X1315180Y58802D01*
X1318802Y55180D01*
X1322945Y52169D01*
X1327509Y49844D01*
X1332380Y48261D01*
X1337439Y47460D01*
X1338730D01*
Y78730D01*
D02*
G37*
G36*
X487540D02*
X456270D01*
Y47460D01*
X457561D01*
X462620Y48261D01*
X467491Y49844D01*
X472055Y52169D01*
X476198Y55180D01*
X479820Y58802D01*
X482831Y62945D01*
X485156Y67509D01*
X486739Y72380D01*
X487540Y77439D01*
Y78730D01*
D02*
G37*
G36*
X453730D02*
X422460D01*
Y77439D01*
X423261Y72380D01*
X424844Y67509D01*
X427169Y62945D01*
X430180Y58802D01*
X433802Y55180D01*
X437945Y52169D01*
X442509Y49844D01*
X447380Y48261D01*
X452439Y47460D01*
X453730D01*
Y78730D01*
D02*
G37*
G36*
X43040Y56230D02*
X33770D01*
Y46960D01*
X33888D01*
X36568Y47678D01*
X38972Y49066D01*
X40934Y51028D01*
X42322Y53432D01*
X43040Y56112D01*
Y56230D01*
D02*
G37*
G36*
X31230D02*
X21960D01*
Y56112D01*
X22678Y53432D01*
X24066Y51028D01*
X26028Y49066D01*
X28432Y47678D01*
X31112Y46960D01*
X31230D01*
Y56230D01*
D02*
G37*
G36*
X1485948Y50480D02*
X1480270D01*
Y44802D01*
X1481717Y45190D01*
X1483323Y46117D01*
X1484633Y47427D01*
X1485560Y49033D01*
X1485948Y50480D01*
D02*
G37*
G36*
X1477730D02*
X1472052D01*
X1472440Y49033D01*
X1473367Y47427D01*
X1474677Y46117D01*
X1476283Y45190D01*
X1477730Y44802D01*
Y50480D01*
D02*
G37*
G36*
X290856Y56500D02*
X289144D01*
X287491Y56057D01*
X286009Y55201D01*
X284799Y53991D01*
X283943Y52509D01*
X283500Y50856D01*
Y49144D01*
X283943Y47491D01*
X284799Y46009D01*
X286009Y44799D01*
X287491Y43943D01*
X289144Y43500D01*
X290856D01*
X292509Y43943D01*
X293991Y44799D01*
X295201Y46009D01*
X296057Y47491D01*
X296500Y49144D01*
Y50856D01*
X296057Y52509D01*
X295201Y53991D01*
X293991Y55201D01*
X292509Y56057D01*
X290856Y56500D01*
D02*
G37*
G36*
X245856D02*
X244144D01*
X242491Y56057D01*
X241009Y55201D01*
X239799Y53991D01*
X238943Y52509D01*
X238500Y50856D01*
Y49144D01*
X238943Y47491D01*
X239799Y46009D01*
X241009Y44799D01*
X242491Y43943D01*
X244144Y43500D01*
X245856D01*
X247509Y43943D01*
X248991Y44799D01*
X250201Y46009D01*
X251057Y47491D01*
X251500Y49144D01*
Y50856D01*
X251057Y52509D01*
X250201Y53991D01*
X248991Y55201D01*
X247509Y56057D01*
X245856Y56500D01*
D02*
G37*
G36*
X1824448Y47980D02*
X1818770D01*
Y42302D01*
X1820217Y42690D01*
X1821823Y43617D01*
X1823133Y44927D01*
X1824060Y46533D01*
X1824448Y47980D01*
D02*
G37*
G36*
X1816230D02*
X1810552D01*
X1810940Y46533D01*
X1811867Y44927D01*
X1813177Y43617D01*
X1814783Y42690D01*
X1816230Y42302D01*
Y47980D01*
D02*
G37*
G36*
X2223951Y59500D02*
X2221449D01*
X2219033Y58853D01*
X2216867Y57602D01*
X2215098Y55833D01*
X2213847Y53667D01*
X2213200Y51251D01*
Y48749D01*
X2213847Y46333D01*
X2215098Y44167D01*
X2216867Y42398D01*
X2219033Y41147D01*
X2221449Y40500D01*
X2223951D01*
X2226367Y41147D01*
X2228533Y42398D01*
X2230302Y44167D01*
X2231553Y46333D01*
X2232200Y48749D01*
Y51251D01*
X2231553Y53667D01*
X2230302Y55833D01*
X2228533Y57602D01*
X2226367Y58853D01*
X2223951Y59500D01*
D02*
G37*
G36*
X2198551D02*
X2196049D01*
X2193633Y58853D01*
X2191467Y57602D01*
X2189698Y55833D01*
X2188447Y53667D01*
X2187800Y51251D01*
Y48749D01*
X2188447Y46333D01*
X2189698Y44167D01*
X2191467Y42398D01*
X2193633Y41147D01*
X2196049Y40500D01*
X2198551D01*
X2200967Y41147D01*
X2203133Y42398D01*
X2204902Y44167D01*
X2206153Y46333D01*
X2206800Y48749D01*
Y51251D01*
X2206153Y53667D01*
X2204902Y55833D01*
X2203133Y57602D01*
X2200967Y58853D01*
X2198551Y59500D01*
D02*
G37*
G36*
X2163951D02*
X2161449D01*
X2159033Y58853D01*
X2156867Y57602D01*
X2155098Y55833D01*
X2153848Y53667D01*
X2153200Y51251D01*
Y48749D01*
X2153848Y46333D01*
X2155098Y44167D01*
X2156867Y42398D01*
X2159033Y41147D01*
X2161449Y40500D01*
X2163951D01*
X2166367Y41147D01*
X2168533Y42398D01*
X2170302Y44167D01*
X2171553Y46333D01*
X2172200Y48749D01*
Y51251D01*
X2171553Y53667D01*
X2170302Y55833D01*
X2168533Y57602D01*
X2166367Y58853D01*
X2163951Y59500D01*
D02*
G37*
G36*
X2138551D02*
X2136049D01*
X2133633Y58853D01*
X2131467Y57602D01*
X2129698Y55833D01*
X2128447Y53667D01*
X2127800Y51251D01*
Y48749D01*
X2128447Y46333D01*
X2129698Y44167D01*
X2131467Y42398D01*
X2133633Y41147D01*
X2136049Y40500D01*
X2138551D01*
X2140967Y41147D01*
X2143133Y42398D01*
X2144902Y44167D01*
X2146153Y46333D01*
X2146800Y48749D01*
Y51251D01*
X2146153Y53667D01*
X2144902Y55833D01*
X2143133Y57602D01*
X2140967Y58853D01*
X2138551Y59500D01*
D02*
G37*
G36*
X1568951D02*
X1566449D01*
X1564033Y58853D01*
X1561867Y57602D01*
X1560098Y55833D01*
X1558847Y53667D01*
X1558200Y51251D01*
Y48749D01*
X1558847Y46333D01*
X1560098Y44167D01*
X1561867Y42398D01*
X1564033Y41147D01*
X1566449Y40500D01*
X1568951D01*
X1571367Y41147D01*
X1573533Y42398D01*
X1575302Y44167D01*
X1576552Y46333D01*
X1577200Y48749D01*
Y51251D01*
X1576552Y53667D01*
X1575302Y55833D01*
X1573533Y57602D01*
X1571367Y58853D01*
X1568951Y59500D01*
D02*
G37*
G36*
X1543551D02*
X1541049D01*
X1538633Y58853D01*
X1536467Y57602D01*
X1534698Y55833D01*
X1533447Y53667D01*
X1532800Y51251D01*
Y48749D01*
X1533447Y46333D01*
X1534698Y44167D01*
X1536467Y42398D01*
X1538633Y41147D01*
X1541049Y40500D01*
X1543551D01*
X1545967Y41147D01*
X1548133Y42398D01*
X1549902Y44167D01*
X1551152Y46333D01*
X1551800Y48749D01*
Y51251D01*
X1551152Y53667D01*
X1549902Y55833D01*
X1548133Y57602D01*
X1545967Y58853D01*
X1543551Y59500D01*
D02*
G37*
G36*
X1088951D02*
X1086449D01*
X1084033Y58853D01*
X1081867Y57602D01*
X1080098Y55833D01*
X1078847Y53667D01*
X1078200Y51251D01*
Y48749D01*
X1078847Y46333D01*
X1080098Y44167D01*
X1081867Y42398D01*
X1084033Y41147D01*
X1086449Y40500D01*
X1088951D01*
X1091367Y41147D01*
X1093533Y42398D01*
X1095302Y44167D01*
X1096553Y46333D01*
X1097200Y48749D01*
Y51251D01*
X1096553Y53667D01*
X1095302Y55833D01*
X1093533Y57602D01*
X1091367Y58853D01*
X1088951Y59500D01*
D02*
G37*
G36*
X1063551D02*
X1061049D01*
X1058633Y58853D01*
X1056467Y57602D01*
X1054698Y55833D01*
X1053447Y53667D01*
X1052800Y51251D01*
Y48749D01*
X1053447Y46333D01*
X1054698Y44167D01*
X1056467Y42398D01*
X1058633Y41147D01*
X1061049Y40500D01*
X1063551D01*
X1065967Y41147D01*
X1068133Y42398D01*
X1069902Y44167D01*
X1071153Y46333D01*
X1071800Y48749D01*
Y51251D01*
X1071153Y53667D01*
X1069902Y55833D01*
X1068133Y57602D01*
X1065967Y58853D01*
X1063551Y59500D01*
D02*
G37*
G36*
X913109Y119500D02*
X906891D01*
X900750Y118527D01*
X894837Y116606D01*
X889297Y113783D01*
X884268Y110129D01*
X879871Y105732D01*
X876217Y100702D01*
X873394Y95163D01*
X871473Y89250D01*
X870500Y83109D01*
Y76891D01*
X871473Y70750D01*
X873394Y64837D01*
X876217Y59297D01*
X879871Y54268D01*
X884268Y49871D01*
X889297Y46217D01*
X894837Y43394D01*
X900750Y41473D01*
X906891Y40500D01*
X913109D01*
X919250Y41473D01*
X925163Y43394D01*
X930703Y46217D01*
X935732Y49871D01*
X940129Y54268D01*
X943783Y59297D01*
X946606Y64837D01*
X948527Y70750D01*
X949500Y76891D01*
Y83109D01*
X948527Y89250D01*
X946606Y95163D01*
X943783Y100702D01*
X940129Y105732D01*
X935732Y110129D01*
X930703Y113783D01*
X925163Y116606D01*
X919250Y118527D01*
X913109Y119500D01*
D02*
G37*
G36*
X713109D02*
X706891D01*
X700750Y118527D01*
X694837Y116606D01*
X689297Y113783D01*
X684268Y110129D01*
X679871Y105732D01*
X676217Y100702D01*
X673394Y95163D01*
X671473Y89250D01*
X670500Y83109D01*
Y76891D01*
X671473Y70750D01*
X673394Y64837D01*
X676217Y59297D01*
X679871Y54268D01*
X684268Y49871D01*
X689297Y46217D01*
X694837Y43394D01*
X700750Y41473D01*
X706891Y40500D01*
X713109D01*
X719250Y41473D01*
X725163Y43394D01*
X730703Y46217D01*
X735732Y49871D01*
X740129Y54268D01*
X743783Y59297D01*
X746606Y64837D01*
X748527Y70750D01*
X749500Y76891D01*
Y83109D01*
X748527Y89250D01*
X746606Y95163D01*
X743783Y100702D01*
X740129Y105732D01*
X735732Y110129D01*
X730703Y113783D01*
X725163Y116606D01*
X719250Y118527D01*
X713109Y119500D01*
D02*
G37*
G36*
X558109D02*
X551891D01*
X545750Y118527D01*
X539837Y116606D01*
X534297Y113783D01*
X529268Y110129D01*
X524871Y105732D01*
X521217Y100702D01*
X518394Y95163D01*
X516473Y89250D01*
X515500Y83109D01*
Y76891D01*
X516473Y70750D01*
X518394Y64837D01*
X521217Y59297D01*
X524871Y54268D01*
X529268Y49871D01*
X534297Y46217D01*
X539837Y43394D01*
X545750Y41473D01*
X551891Y40500D01*
X558109D01*
X564250Y41473D01*
X570163Y43394D01*
X575703Y46217D01*
X580732Y49871D01*
X585129Y54268D01*
X588783Y59297D01*
X591606Y64837D01*
X593527Y70750D01*
X594500Y76891D01*
Y83109D01*
X593527Y89250D01*
X591606Y95163D01*
X588783Y100702D01*
X585129Y105732D01*
X580732Y110129D01*
X575703Y113783D01*
X570163Y116606D01*
X564250Y118527D01*
X558109Y119500D01*
D02*
G37*
G36*
X358109D02*
X351891D01*
X345750Y118527D01*
X339837Y116606D01*
X334297Y113783D01*
X329268Y110129D01*
X324871Y105732D01*
X321217Y100702D01*
X318394Y95163D01*
X316473Y89250D01*
X315500Y83109D01*
Y76891D01*
X316473Y70750D01*
X318394Y64837D01*
X321217Y59297D01*
X324871Y54268D01*
X329268Y49871D01*
X334297Y46217D01*
X339837Y43394D01*
X345750Y41473D01*
X351891Y40500D01*
X358109D01*
X364250Y41473D01*
X370163Y43394D01*
X375703Y46217D01*
X380732Y49871D01*
X385129Y54268D01*
X388783Y59297D01*
X391606Y64837D01*
X393527Y70750D01*
X394500Y76891D01*
Y83109D01*
X393527Y89250D01*
X391606Y95163D01*
X388783Y100702D01*
X385129Y105732D01*
X380732Y110129D01*
X375703Y113783D01*
X370163Y116606D01*
X364250Y118527D01*
X358109Y119500D01*
D02*
G37*
G36*
X1408950Y59499D02*
X1406448D01*
X1404032Y58852D01*
X1401866Y57601D01*
X1400097Y55832D01*
X1398846Y53666D01*
X1398199Y51250D01*
Y48748D01*
X1398846Y46332D01*
X1400097Y44166D01*
X1401866Y42397D01*
X1404032Y41146D01*
X1406448Y40499D01*
X1408950D01*
X1411366Y41146D01*
X1413532Y42397D01*
X1415301Y44166D01*
X1416552Y46332D01*
X1417199Y48748D01*
Y51250D01*
X1416552Y53666D01*
X1415301Y55832D01*
X1413532Y57601D01*
X1411366Y58852D01*
X1408950Y59499D01*
D02*
G37*
G36*
X1383550D02*
X1381048D01*
X1378632Y58852D01*
X1376466Y57601D01*
X1374697Y55832D01*
X1373447Y53666D01*
X1372799Y51250D01*
Y48748D01*
X1373447Y46332D01*
X1374697Y44166D01*
X1376466Y42397D01*
X1378632Y41146D01*
X1381048Y40499D01*
X1383550D01*
X1385966Y41146D01*
X1388132Y42397D01*
X1389901Y44166D01*
X1391152Y46332D01*
X1391799Y48748D01*
Y51250D01*
X1391152Y53666D01*
X1389901Y55832D01*
X1388132Y57601D01*
X1385966Y58852D01*
X1383550Y59499D01*
D02*
G37*
G36*
X1248950D02*
X1246448D01*
X1244032Y58852D01*
X1241866Y57601D01*
X1240097Y55832D01*
X1238846Y53666D01*
X1238199Y51250D01*
Y48748D01*
X1238846Y46332D01*
X1240097Y44166D01*
X1241866Y42397D01*
X1244032Y41146D01*
X1246448Y40499D01*
X1248950D01*
X1251366Y41146D01*
X1253532Y42397D01*
X1255301Y44166D01*
X1256552Y46332D01*
X1257199Y48748D01*
Y51250D01*
X1256552Y53666D01*
X1255301Y55832D01*
X1253532Y57601D01*
X1251366Y58852D01*
X1248950Y59499D01*
D02*
G37*
G36*
X1223550D02*
X1221048D01*
X1218632Y58852D01*
X1216466Y57601D01*
X1214697Y55832D01*
X1213446Y53666D01*
X1212799Y51250D01*
Y48748D01*
X1213446Y46332D01*
X1214697Y44166D01*
X1216466Y42397D01*
X1218632Y41146D01*
X1221048Y40499D01*
X1223550D01*
X1225966Y41146D01*
X1228132Y42397D01*
X1229901Y44166D01*
X1231152Y46332D01*
X1231799Y48748D01*
Y51250D01*
X1231152Y53666D01*
X1229901Y55832D01*
X1228132Y57601D01*
X1225966Y58852D01*
X1223550Y59499D01*
D02*
G37*
G36*
X65356Y51500D02*
X63644D01*
X61991Y51057D01*
X60509Y50201D01*
X59299Y48991D01*
X58443Y47509D01*
X58000Y45856D01*
Y44144D01*
X58443Y42491D01*
X59299Y41009D01*
X60509Y39799D01*
X61991Y38943D01*
X63644Y38500D01*
X65356D01*
X67009Y38943D01*
X68491Y39799D01*
X69701Y41009D01*
X70557Y42491D01*
X71000Y44144D01*
Y45856D01*
X70557Y47509D01*
X69701Y48991D01*
X68491Y50201D01*
X67009Y51057D01*
X65356Y51500D01*
D02*
G37*
G36*
X225856Y51500D02*
X224144D01*
X222491Y51057D01*
X221009Y50201D01*
X219799Y48991D01*
X218943Y47509D01*
X218500Y45856D01*
Y44144D01*
X218943Y42491D01*
X219799Y41009D01*
X221009Y39799D01*
X222491Y38943D01*
X224144Y38500D01*
X225856D01*
X227509Y38943D01*
X228991Y39799D01*
X230201Y41009D01*
X231057Y42491D01*
X231500Y44144D01*
Y45856D01*
X231057Y47509D01*
X230201Y48991D01*
X228991Y50201D01*
X227509Y51057D01*
X225856Y51500D01*
D02*
G37*
G36*
X125356D02*
X123644D01*
X121991Y51057D01*
X120509Y50201D01*
X119299Y48991D01*
X118443Y47509D01*
X118000Y45856D01*
Y44144D01*
X118443Y42491D01*
X119299Y41009D01*
X120509Y39799D01*
X121991Y38943D01*
X123644Y38500D01*
X125356D01*
X127009Y38943D01*
X128491Y39799D01*
X129701Y41009D01*
X130557Y42491D01*
X131000Y44144D01*
Y45856D01*
X130557Y47509D01*
X129701Y48991D01*
X128491Y50201D01*
X127009Y51057D01*
X125356Y51500D01*
D02*
G37*
G36*
X105356D02*
X103644D01*
X101991Y51057D01*
X100509Y50201D01*
X99299Y48991D01*
X98443Y47509D01*
X98000Y45856D01*
Y44144D01*
X98443Y42491D01*
X99299Y41009D01*
X100509Y39799D01*
X101991Y38943D01*
X103644Y38500D01*
X105356D01*
X107009Y38943D01*
X108491Y39799D01*
X109701Y41009D01*
X110557Y42491D01*
X111000Y44144D01*
Y45856D01*
X110557Y47509D01*
X109701Y48991D01*
X108491Y50201D01*
X107009Y51057D01*
X105356Y51500D01*
D02*
G37*
G36*
X85356D02*
X83644D01*
X81991Y51057D01*
X80509Y50201D01*
X79299Y48991D01*
X78443Y47509D01*
X78000Y45856D01*
Y44144D01*
X78443Y42491D01*
X79299Y41009D01*
X80509Y39799D01*
X81991Y38943D01*
X83644Y38500D01*
X85356D01*
X87009Y38943D01*
X88491Y39799D01*
X89701Y41009D01*
X90557Y42491D01*
X91000Y44144D01*
Y45856D01*
X90557Y47509D01*
X89701Y48991D01*
X88491Y50201D01*
X87009Y51057D01*
X85356Y51500D01*
D02*
G37*
G36*
X1812020Y39948D02*
Y34270D01*
X1817698D01*
X1817310Y35717D01*
X1816383Y37323D01*
X1815073Y38633D01*
X1813467Y39560D01*
X1812020Y39948D01*
D02*
G37*
G36*
X1809480D02*
X1808033Y39560D01*
X1806427Y38633D01*
X1805117Y37323D01*
X1804190Y35717D01*
X1803802Y34270D01*
X1809480D01*
Y39948D01*
D02*
G37*
G36*
X1817698Y31730D02*
X1812020D01*
Y26052D01*
X1813467Y26440D01*
X1815073Y27367D01*
X1816383Y28677D01*
X1817310Y30283D01*
X1817698Y31730D01*
D02*
G37*
G36*
X1809480D02*
X1803802D01*
X1804190Y30283D01*
X1805117Y28677D01*
X1806427Y27367D01*
X1808033Y26440D01*
X1809480Y26052D01*
Y31730D01*
D02*
G37*
G36*
X1523888Y33040D02*
X1523770D01*
Y23770D01*
X1533040D01*
Y23888D01*
X1532322Y26568D01*
X1530934Y28972D01*
X1528972Y30934D01*
X1526568Y32322D01*
X1523888Y33040D01*
D02*
G37*
G36*
X1521230D02*
X1521112D01*
X1518432Y32322D01*
X1516028Y30934D01*
X1514066Y28972D01*
X1512678Y26568D01*
X1511960Y23888D01*
Y23770D01*
X1521230D01*
Y33040D01*
D02*
G37*
G36*
X1363887D02*
X1363769D01*
Y23770D01*
X1373039D01*
Y23888D01*
X1372321Y26568D01*
X1370933Y28972D01*
X1368971Y30934D01*
X1366567Y32322D01*
X1363887Y33040D01*
D02*
G37*
G36*
X1361229D02*
X1361111D01*
X1358431Y32322D01*
X1356027Y30934D01*
X1354065Y28972D01*
X1352677Y26568D01*
X1351959Y23888D01*
Y23770D01*
X1361229D01*
Y33040D01*
D02*
G37*
G36*
X1203887D02*
X1203769D01*
Y23770D01*
X1213039D01*
Y23888D01*
X1212321Y26568D01*
X1210933Y28972D01*
X1208971Y30934D01*
X1206567Y32322D01*
X1203887Y33040D01*
D02*
G37*
G36*
X1201229D02*
X1201111D01*
X1198431Y32322D01*
X1196027Y30934D01*
X1194065Y28972D01*
X1192677Y26568D01*
X1191959Y23888D01*
Y23770D01*
X1201229D01*
Y33040D01*
D02*
G37*
G36*
X1043888D02*
X1043770D01*
Y23770D01*
X1053040D01*
Y23888D01*
X1052322Y26568D01*
X1050934Y28972D01*
X1048972Y30934D01*
X1046568Y32322D01*
X1043888Y33040D01*
D02*
G37*
G36*
X1041230D02*
X1041112D01*
X1038432Y32322D01*
X1036028Y30934D01*
X1034066Y28972D01*
X1032678Y26568D01*
X1031960Y23888D01*
Y23770D01*
X1041230D01*
Y33040D01*
D02*
G37*
G36*
X33827Y32750D02*
X31193D01*
X28650Y32069D01*
X26370Y30752D01*
X24508Y28890D01*
X23191Y26610D01*
X22510Y24067D01*
Y21433D01*
X23191Y18890D01*
X24508Y16610D01*
X26370Y14748D01*
X28650Y13432D01*
X31193Y12750D01*
X33827D01*
X36370Y13432D01*
X38650Y14748D01*
X40512Y16610D01*
X41828Y18890D01*
X42510Y21433D01*
Y24067D01*
X41828Y26610D01*
X40512Y28890D01*
X38650Y30752D01*
X36370Y32069D01*
X33827Y32750D01*
D02*
G37*
G36*
X2213817Y32750D02*
X2211183D01*
X2208640Y32069D01*
X2206360Y30752D01*
X2204498Y28890D01*
X2203181Y26610D01*
X2202500Y24067D01*
Y21433D01*
X2203181Y18890D01*
X2204498Y16610D01*
X2206360Y14748D01*
X2208640Y13432D01*
X2211183Y12750D01*
X2213817D01*
X2216360Y13432D01*
X2218640Y14748D01*
X2220502Y16610D01*
X2221819Y18890D01*
X2222500Y21433D01*
Y24067D01*
X2221819Y26610D01*
X2220502Y28890D01*
X2218640Y30752D01*
X2216360Y32069D01*
X2213817Y32750D01*
D02*
G37*
G36*
X1588817D02*
X1586183D01*
X1583640Y32069D01*
X1581360Y30752D01*
X1579498Y28890D01*
X1578181Y26610D01*
X1577500Y24067D01*
Y21433D01*
X1578181Y18890D01*
X1579498Y16610D01*
X1581360Y14748D01*
X1583640Y13432D01*
X1586183Y12750D01*
X1588817D01*
X1591360Y13432D01*
X1593640Y14748D01*
X1595502Y16610D01*
X1596819Y18890D01*
X1597500Y21433D01*
Y24067D01*
X1596819Y26610D01*
X1595502Y28890D01*
X1593640Y30752D01*
X1591360Y32069D01*
X1588817Y32750D01*
D02*
G37*
G36*
X1428816D02*
X1426183D01*
X1423639Y32069D01*
X1421359Y30752D01*
X1419497Y28890D01*
X1418181Y26610D01*
X1417499Y24067D01*
Y21433D01*
X1418181Y18890D01*
X1419497Y16610D01*
X1421359Y14748D01*
X1423639Y13432D01*
X1426183Y12750D01*
X1428816D01*
X1431359Y13432D01*
X1433639Y14748D01*
X1435501Y16610D01*
X1436817Y18890D01*
X1437499Y21433D01*
Y24067D01*
X1436817Y26610D01*
X1435501Y28890D01*
X1433639Y30752D01*
X1431359Y32069D01*
X1428816Y32750D01*
D02*
G37*
G36*
X1268816D02*
X1266182D01*
X1263639Y32069D01*
X1261359Y30752D01*
X1259497Y28890D01*
X1258180Y26610D01*
X1257499Y24067D01*
Y21433D01*
X1258180Y18890D01*
X1259497Y16610D01*
X1261359Y14748D01*
X1263639Y13432D01*
X1266182Y12750D01*
X1268816D01*
X1271359Y13432D01*
X1273639Y14748D01*
X1275501Y16610D01*
X1276817Y18890D01*
X1277499Y21433D01*
Y24067D01*
X1276817Y26610D01*
X1275501Y28890D01*
X1273639Y30752D01*
X1271359Y32069D01*
X1268816Y32750D01*
D02*
G37*
G36*
X1108817D02*
X1106183D01*
X1103640Y32069D01*
X1101360Y30752D01*
X1099498Y28890D01*
X1098182Y26610D01*
X1097500Y24067D01*
Y21433D01*
X1098182Y18890D01*
X1099498Y16610D01*
X1101360Y14748D01*
X1103640Y13432D01*
X1106183Y12750D01*
X1108817D01*
X1111360Y13432D01*
X1113640Y14748D01*
X1115502Y16610D01*
X1116818Y18890D01*
X1117500Y21433D01*
Y24067D01*
X1116818Y26610D01*
X1115502Y28890D01*
X1113640Y30752D01*
X1111360Y32069D01*
X1108817Y32750D01*
D02*
G37*
G36*
X218817D02*
X216183D01*
X213640Y32069D01*
X211360Y30752D01*
X209498Y28890D01*
X208181Y26610D01*
X207500Y24067D01*
Y21433D01*
X208181Y18890D01*
X209498Y16610D01*
X211360Y14748D01*
X213640Y13432D01*
X216183Y12750D01*
X218817D01*
X221360Y13432D01*
X223640Y14748D01*
X225502Y16610D01*
X226819Y18890D01*
X227500Y21433D01*
Y24067D01*
X226819Y26610D01*
X225502Y28890D01*
X223640Y30752D01*
X221360Y32069D01*
X218817Y32750D01*
D02*
G37*
G36*
X2148817Y32500D02*
X2146183D01*
X2143640Y31818D01*
X2141360Y30502D01*
X2139498Y28640D01*
X2138181Y26360D01*
X2137500Y23816D01*
Y21184D01*
X2138181Y18640D01*
X2139498Y16360D01*
X2141360Y14498D01*
X2143640Y13182D01*
X2146183Y12500D01*
X2148817D01*
X2151360Y13182D01*
X2153640Y14498D01*
X2155502Y16360D01*
X2156819Y18640D01*
X2157500Y21184D01*
Y23816D01*
X2156819Y26360D01*
X2155502Y28640D01*
X2153640Y30502D01*
X2151360Y31818D01*
X2148817Y32500D01*
D02*
G37*
G36*
X1668817D02*
X1666183D01*
X1663640Y31818D01*
X1661360Y30502D01*
X1659498Y28640D01*
X1658181Y26360D01*
X1657500Y23816D01*
Y21184D01*
X1658181Y18640D01*
X1659498Y16360D01*
X1661360Y14498D01*
X1663640Y13182D01*
X1666183Y12500D01*
X1668817D01*
X1671360Y13182D01*
X1673640Y14498D01*
X1675502Y16360D01*
X1676819Y18640D01*
X1677500Y21184D01*
Y23816D01*
X1676819Y26360D01*
X1675502Y28640D01*
X1673640Y30502D01*
X1671360Y31818D01*
X1668817Y32500D01*
D02*
G37*
G36*
X153816D02*
X151184D01*
X148640Y31818D01*
X146360Y30502D01*
X144498Y28640D01*
X143181Y26360D01*
X142500Y23816D01*
Y21184D01*
X143181Y18640D01*
X144498Y16360D01*
X146360Y14498D01*
X148640Y13182D01*
X151184Y12500D01*
X153816D01*
X156360Y13182D01*
X158640Y14498D01*
X160502Y16360D01*
X161819Y18640D01*
X162500Y21184D01*
Y23816D01*
X161819Y26360D01*
X160502Y28640D01*
X158640Y30502D01*
X156360Y31818D01*
X153816Y32500D01*
D02*
G37*
G36*
X-31174D02*
X-33807D01*
X-36350Y31818D01*
X-38630Y30502D01*
X-40492Y28640D01*
X-41809Y26360D01*
X-42490Y23816D01*
Y21184D01*
X-41809Y18640D01*
X-40492Y16360D01*
X-38630Y14498D01*
X-36350Y13182D01*
X-33807Y12500D01*
X-31174D01*
X-28630Y13182D01*
X-26350Y14498D01*
X-24488Y16360D01*
X-23172Y18640D01*
X-22490Y21184D01*
Y23816D01*
X-23172Y26360D01*
X-24488Y28640D01*
X-26350Y30502D01*
X-28630Y31818D01*
X-31174Y32500D01*
D02*
G37*
G36*
X1533040Y21230D02*
X1523770D01*
Y11960D01*
X1523888D01*
X1526568Y12678D01*
X1528972Y14066D01*
X1530934Y16028D01*
X1532322Y18432D01*
X1533040Y21112D01*
Y21230D01*
D02*
G37*
G36*
X1521230D02*
X1511960D01*
Y21112D01*
X1512678Y18432D01*
X1514066Y16028D01*
X1516028Y14066D01*
X1518432Y12678D01*
X1521112Y11960D01*
X1521230D01*
Y21230D01*
D02*
G37*
G36*
X1373039D02*
X1363769D01*
Y11960D01*
X1363887D01*
X1366567Y12678D01*
X1368971Y14066D01*
X1370933Y16028D01*
X1372321Y18432D01*
X1373039Y21112D01*
Y21230D01*
D02*
G37*
G36*
X1361229D02*
X1351959D01*
Y21112D01*
X1352677Y18432D01*
X1354065Y16028D01*
X1356027Y14066D01*
X1358431Y12678D01*
X1361111Y11960D01*
X1361229D01*
Y21230D01*
D02*
G37*
G36*
X1213039D02*
X1203769D01*
Y11960D01*
X1203887D01*
X1206567Y12678D01*
X1208971Y14066D01*
X1210933Y16028D01*
X1212321Y18432D01*
X1213039Y21112D01*
Y21230D01*
D02*
G37*
G36*
X1201229D02*
X1191959D01*
Y21112D01*
X1192677Y18432D01*
X1194065Y16028D01*
X1196027Y14066D01*
X1198431Y12678D01*
X1201111Y11960D01*
X1201229D01*
Y21230D01*
D02*
G37*
G36*
X1053040D02*
X1043770D01*
Y11960D01*
X1043888D01*
X1046568Y12678D01*
X1048972Y14066D01*
X1050934Y16028D01*
X1052322Y18432D01*
X1053040Y21112D01*
Y21230D01*
D02*
G37*
G36*
X1041230D02*
X1031960D01*
Y21112D01*
X1032678Y18432D01*
X1034066Y16028D01*
X1036028Y14066D01*
X1038432Y12678D01*
X1041112Y11960D01*
X1041230D01*
Y21230D01*
D02*
G37*
G36*
X1860856Y36500D02*
X1859144D01*
X1857491Y36057D01*
X1856009Y35201D01*
X1854799Y33991D01*
X1853943Y32509D01*
X1853500Y30856D01*
Y29144D01*
X1853943Y27491D01*
X1854799Y26009D01*
X1855874Y24933D01*
X1856009Y24587D01*
X1856009Y22913D01*
X1855874Y22567D01*
X1854799Y21491D01*
X1853943Y20009D01*
X1853500Y18356D01*
Y16644D01*
X1853943Y14991D01*
X1854799Y13509D01*
X1856009Y12299D01*
X1857491Y11443D01*
X1859144Y11000D01*
X1860856D01*
X1862509Y11443D01*
X1863991Y12299D01*
X1865201Y13509D01*
X1866057Y14991D01*
X1866500Y16644D01*
Y18356D01*
X1866057Y20009D01*
X1865201Y21491D01*
X1864126Y22567D01*
X1863991Y22913D01*
X1863991Y24587D01*
X1864126Y24933D01*
X1865201Y26009D01*
X1866057Y27491D01*
X1866500Y29144D01*
Y30856D01*
X1866057Y32509D01*
X1865201Y33991D01*
X1863991Y35201D01*
X1862509Y36057D01*
X1860856Y36500D01*
D02*
G37*
G36*
X1808589Y23002D02*
X1806877D01*
X1805224Y22559D01*
X1803742Y21704D01*
X1802532Y20494D01*
X1801676Y19011D01*
X1801233Y17358D01*
Y15647D01*
X1801676Y13994D01*
X1802532Y12511D01*
X1803742Y11301D01*
X1805224Y10445D01*
X1806877Y10002D01*
X1808589D01*
X1810242Y10445D01*
X1811724Y11301D01*
X1812934Y12511D01*
X1813790Y13994D01*
X1814233Y15647D01*
Y17358D01*
X1813790Y19011D01*
X1812934Y20494D01*
X1811724Y21704D01*
X1810242Y22559D01*
X1808589Y23002D01*
D02*
G37*
G36*
X1756106Y22250D02*
X1754394D01*
X1752741Y21807D01*
X1751259Y20951D01*
X1750049Y19741D01*
X1749193Y18259D01*
X1748750Y16606D01*
Y14894D01*
X1749193Y13241D01*
X1750049Y11759D01*
X1751259Y10549D01*
X1752741Y9693D01*
X1754394Y9250D01*
X1756106D01*
X1757759Y9693D01*
X1759241Y10549D01*
X1760451Y11759D01*
X1761307Y13241D01*
X1761750Y14894D01*
Y16606D01*
X1761307Y18259D01*
X1760451Y19741D01*
X1759241Y20951D01*
X1757759Y21807D01*
X1756106Y22250D01*
D02*
G37*
G36*
X1690606Y20250D02*
X1688894D01*
X1687241Y19807D01*
X1685759Y18951D01*
X1684549Y17741D01*
X1683693Y16259D01*
X1683250Y14606D01*
Y12894D01*
X1683693Y11241D01*
X1684549Y9759D01*
X1685759Y8549D01*
X1687241Y7693D01*
X1688894Y7250D01*
X1690606D01*
X1692259Y7693D01*
X1693741Y8549D01*
X1694951Y9759D01*
X1695807Y11241D01*
X1696250Y12894D01*
Y14606D01*
X1695807Y16259D01*
X1694951Y17741D01*
X1693741Y18951D01*
X1692259Y19807D01*
X1690606Y20250D01*
D02*
G37*
G36*
X635072Y32541D02*
X633781D01*
Y1270D01*
X665051D01*
Y2562D01*
X664249Y7620D01*
X662667Y12492D01*
X660341Y17055D01*
X657331Y21199D01*
X653709Y24821D01*
X649565Y27831D01*
X645002Y30157D01*
X640130Y31739D01*
X635072Y32541D01*
D02*
G37*
G36*
X631241D02*
X629950D01*
X624891Y31739D01*
X620020Y30157D01*
X615456Y27831D01*
X611312Y24821D01*
X607691Y21199D01*
X604680Y17055D01*
X602355Y12492D01*
X600772Y7620D01*
X599971Y2562D01*
Y1270D01*
X631241D01*
Y32541D01*
D02*
G37*
G36*
X1796106Y14000D02*
X1794394D01*
X1792741Y13557D01*
X1791259Y12701D01*
X1790049Y11491D01*
X1789193Y10009D01*
X1788750Y8356D01*
Y6644D01*
X1789193Y4991D01*
X1790049Y3509D01*
X1791259Y2299D01*
X1792741Y1443D01*
X1794394Y1000D01*
X1796106D01*
X1797759Y1443D01*
X1799241Y2299D01*
X1800451Y3509D01*
X1801307Y4991D01*
X1801750Y6644D01*
Y8356D01*
X1801307Y10009D01*
X1800451Y11491D01*
X1799241Y12701D01*
X1797759Y13557D01*
X1796106Y14000D01*
D02*
G37*
G36*
X1710606Y7000D02*
X1708894D01*
X1707241Y6557D01*
X1705759Y5701D01*
X1704549Y4491D01*
X1703693Y3009D01*
X1703250Y1356D01*
Y-356D01*
X1703307Y-568D01*
X1701930Y-2164D01*
X1701687Y-2250D01*
X1700144D01*
X1698491Y-2693D01*
X1697009Y-3549D01*
X1696726Y-3832D01*
X1695375Y-4538D01*
X1694024Y-3832D01*
X1693741Y-3549D01*
X1692259Y-2693D01*
X1690606Y-2250D01*
X1688894D01*
X1687241Y-2693D01*
X1685759Y-3549D01*
X1684549Y-4759D01*
X1683693Y-6241D01*
X1683250Y-7894D01*
Y-9606D01*
X1683693Y-11259D01*
X1684549Y-12741D01*
X1685759Y-13951D01*
X1687241Y-14807D01*
X1688894Y-15250D01*
X1690606D01*
X1692259Y-14807D01*
X1693741Y-13951D01*
X1694024Y-13668D01*
X1695375Y-12962D01*
X1696726Y-13668D01*
X1697009Y-13951D01*
X1698491Y-14807D01*
X1700144Y-15250D01*
X1701856D01*
X1703509Y-14807D01*
X1704991Y-13951D01*
X1706201Y-12741D01*
X1707057Y-11259D01*
X1707500Y-9606D01*
Y-7894D01*
X1707443Y-7682D01*
X1708820Y-6086D01*
X1709063Y-6000D01*
X1710606D01*
X1712259Y-5557D01*
X1713741Y-4701D01*
X1714951Y-3491D01*
X1715807Y-2009D01*
X1716250Y-356D01*
Y1356D01*
X1715807Y3009D01*
X1714951Y4491D01*
X1713741Y5701D01*
X1712259Y6557D01*
X1710606Y7000D01*
D02*
G37*
G36*
X1673356Y6750D02*
X1671644D01*
X1669991Y6307D01*
X1668509Y5451D01*
X1667299Y4241D01*
X1666443Y2759D01*
X1666000Y1106D01*
Y-606D01*
X1666443Y-2259D01*
X1667299Y-3741D01*
X1668509Y-4951D01*
X1669991Y-5807D01*
X1671644Y-6250D01*
X1673356D01*
X1675009Y-5807D01*
X1676491Y-4951D01*
X1677701Y-3741D01*
X1678557Y-2259D01*
X1679000Y-606D01*
Y1106D01*
X1678557Y2759D01*
X1677701Y4241D01*
X1676491Y5451D01*
X1675009Y6307D01*
X1673356Y6750D01*
D02*
G37*
G36*
X1796520Y-3552D02*
Y-9230D01*
X1802198D01*
X1801810Y-7783D01*
X1800883Y-6177D01*
X1799573Y-4867D01*
X1797967Y-3940D01*
X1796520Y-3552D01*
D02*
G37*
G36*
X1793980D02*
X1792533Y-3940D01*
X1790927Y-4867D01*
X1789617Y-6177D01*
X1788690Y-7783D01*
X1788302Y-9230D01*
X1793980D01*
Y-3552D01*
D02*
G37*
G36*
X1883356Y-1000D02*
X1881644D01*
X1879991Y-1443D01*
X1878509Y-2299D01*
X1877299Y-3509D01*
X1876443Y-4991D01*
X1876000Y-6644D01*
Y-8356D01*
X1876443Y-10009D01*
X1877299Y-11491D01*
X1878509Y-12701D01*
X1879991Y-13557D01*
X1881644Y-14000D01*
X1883356D01*
X1885009Y-13557D01*
X1886491Y-12701D01*
X1887701Y-11491D01*
X1888557Y-10009D01*
X1889000Y-8356D01*
Y-6644D01*
X1888557Y-4991D01*
X1887701Y-3509D01*
X1886491Y-2299D01*
X1885009Y-1443D01*
X1883356Y-1000D01*
D02*
G37*
G36*
X1802198Y-11770D02*
X1796520D01*
Y-17448D01*
X1797967Y-17060D01*
X1799573Y-16133D01*
X1800883Y-14823D01*
X1801810Y-13217D01*
X1802198Y-11770D01*
D02*
G37*
G36*
X1793980D02*
X1788302D01*
X1788690Y-13217D01*
X1789617Y-14823D01*
X1790927Y-16133D01*
X1792533Y-17060D01*
X1793980Y-17448D01*
Y-11770D01*
D02*
G37*
G36*
X1398520Y-15302D02*
Y-20980D01*
X1404198D01*
X1403810Y-19533D01*
X1402883Y-17927D01*
X1401573Y-16617D01*
X1399967Y-15690D01*
X1398520Y-15302D01*
D02*
G37*
G36*
X1395980D02*
X1394533Y-15690D01*
X1392927Y-16617D01*
X1391617Y-17927D01*
X1390690Y-19533D01*
X1390302Y-20980D01*
X1395980D01*
Y-15302D01*
D02*
G37*
G36*
X2213888Y-11960D02*
X2213770D01*
Y-21230D01*
X2223040D01*
Y-21112D01*
X2222322Y-18432D01*
X2220934Y-16028D01*
X2218972Y-14066D01*
X2216568Y-12678D01*
X2213888Y-11960D01*
D02*
G37*
G36*
X2211230D02*
X2211112D01*
X2208432Y-12678D01*
X2206028Y-14066D01*
X2204066Y-16028D01*
X2202678Y-18432D01*
X2201960Y-21112D01*
Y-21230D01*
X2211230D01*
Y-11960D01*
D02*
G37*
G36*
X1556520Y-15552D02*
Y-21230D01*
X1562198D01*
X1561810Y-19783D01*
X1560883Y-18177D01*
X1559573Y-16867D01*
X1557967Y-15940D01*
X1556520Y-15552D01*
D02*
G37*
G36*
X1553980D02*
X1552533Y-15940D01*
X1550927Y-16867D01*
X1549617Y-18177D01*
X1548690Y-19783D01*
X1548302Y-21230D01*
X1553980D01*
Y-15552D01*
D02*
G37*
G36*
X153888Y-11960D02*
X153770D01*
Y-21230D01*
X163040D01*
Y-21112D01*
X162322Y-18432D01*
X160934Y-16028D01*
X158972Y-14066D01*
X156568Y-12678D01*
X153888Y-11960D01*
D02*
G37*
G36*
X151230D02*
X151112D01*
X148432Y-12678D01*
X146028Y-14066D01*
X144066Y-16028D01*
X142678Y-18432D01*
X141960Y-21112D01*
Y-21230D01*
X151230D01*
Y-11960D01*
D02*
G37*
G36*
X33898D02*
X33780D01*
Y-21230D01*
X43050D01*
Y-21112D01*
X42332Y-18432D01*
X40944Y-16028D01*
X38982Y-14066D01*
X36578Y-12678D01*
X33898Y-11960D01*
D02*
G37*
G36*
X31240D02*
X31122D01*
X28442Y-12678D01*
X26038Y-14066D01*
X24076Y-16028D01*
X22688Y-18432D01*
X21970Y-21112D01*
Y-21230D01*
X31240D01*
Y-11960D01*
D02*
G37*
G36*
X1668888Y-12210D02*
X1668770D01*
Y-21480D01*
X1678040D01*
Y-21362D01*
X1677322Y-18682D01*
X1675934Y-16278D01*
X1673972Y-14316D01*
X1671568Y-12928D01*
X1668888Y-12210D01*
D02*
G37*
G36*
X1666230D02*
X1666112D01*
X1663432Y-12928D01*
X1661028Y-14316D01*
X1659066Y-16278D01*
X1657678Y-18682D01*
X1656960Y-21362D01*
Y-21480D01*
X1666230D01*
Y-12210D01*
D02*
G37*
G36*
X1020856Y-8500D02*
X1019144D01*
X1017491Y-8943D01*
X1016009Y-9799D01*
X1014799Y-11009D01*
X1013943Y-12491D01*
X1013500Y-14144D01*
Y-15856D01*
X1013943Y-17509D01*
X1014799Y-18991D01*
X1016009Y-20201D01*
X1017491Y-21057D01*
X1019144Y-21500D01*
X1020856D01*
X1022509Y-21057D01*
X1023991Y-20201D01*
X1025201Y-18991D01*
X1026057Y-17509D01*
X1026500Y-15856D01*
Y-14144D01*
X1026057Y-12491D01*
X1025201Y-11009D01*
X1023991Y-9799D01*
X1022509Y-8943D01*
X1020856Y-8500D01*
D02*
G37*
G36*
X998356D02*
X996644D01*
X994991Y-8943D01*
X993509Y-9799D01*
X992299Y-11009D01*
X991443Y-12491D01*
X991000Y-14144D01*
Y-15856D01*
X991443Y-17509D01*
X992299Y-18991D01*
X993509Y-20201D01*
X994991Y-21057D01*
X996644Y-21500D01*
X998356D01*
X1000009Y-21057D01*
X1001491Y-20201D01*
X1002701Y-18991D01*
X1003557Y-17509D01*
X1004000Y-15856D01*
Y-14144D01*
X1003557Y-12491D01*
X1002701Y-11009D01*
X1001491Y-9799D01*
X1000009Y-8943D01*
X998356Y-8500D01*
D02*
G37*
G36*
X1170856Y-10810D02*
X1169144D01*
X1167491Y-11253D01*
X1166009Y-12109D01*
X1164799Y-13319D01*
X1163943Y-14801D01*
X1163500Y-16454D01*
Y-18166D01*
X1163943Y-19819D01*
X1164799Y-21301D01*
X1166009Y-22511D01*
X1167491Y-23367D01*
X1169144Y-23810D01*
X1170856D01*
X1172509Y-23367D01*
X1173991Y-22511D01*
X1175201Y-21301D01*
X1176057Y-19819D01*
X1176500Y-18166D01*
Y-16454D01*
X1176057Y-14801D01*
X1175201Y-13319D01*
X1173991Y-12109D01*
X1172509Y-11253D01*
X1170856Y-10810D01*
D02*
G37*
G36*
X1818356Y-11000D02*
X1816644D01*
X1814991Y-11443D01*
X1813509Y-12299D01*
X1812299Y-13509D01*
X1811443Y-14991D01*
X1811000Y-16644D01*
Y-18356D01*
X1811443Y-20009D01*
X1812299Y-21491D01*
X1813509Y-22701D01*
X1814991Y-23557D01*
X1816644Y-24000D01*
X1818356D01*
X1820009Y-23557D01*
X1821491Y-22701D01*
X1822701Y-21491D01*
X1823557Y-20009D01*
X1824000Y-18356D01*
Y-16644D01*
X1823557Y-14991D01*
X1822701Y-13509D01*
X1821491Y-12299D01*
X1820009Y-11443D01*
X1818356Y-11000D01*
D02*
G37*
G36*
X1860856Y-1000D02*
X1859144D01*
X1857491Y-1443D01*
X1856009Y-2299D01*
X1854799Y-3509D01*
X1853943Y-4991D01*
X1853500Y-6644D01*
Y-8356D01*
X1853943Y-10009D01*
X1854799Y-11491D01*
X1855874Y-12567D01*
X1856009Y-12914D01*
X1856009Y-14586D01*
X1855874Y-14933D01*
X1854799Y-16009D01*
X1853943Y-17491D01*
X1853500Y-19144D01*
Y-20856D01*
X1853943Y-22509D01*
X1854799Y-23991D01*
X1856009Y-25201D01*
X1857491Y-26057D01*
X1859144Y-26500D01*
X1860856D01*
X1862509Y-26057D01*
X1863991Y-25201D01*
X1865201Y-23991D01*
X1866057Y-22509D01*
X1866500Y-20856D01*
Y-19144D01*
X1866057Y-17491D01*
X1865201Y-16009D01*
X1864126Y-14933D01*
X1863991Y-14586D01*
X1863991Y-12914D01*
X1864126Y-12567D01*
X1865201Y-11491D01*
X1866057Y-10009D01*
X1866500Y-8356D01*
Y-6644D01*
X1866057Y-4991D01*
X1865201Y-3509D01*
X1863991Y-2299D01*
X1862509Y-1443D01*
X1860856Y-1000D01*
D02*
G37*
G36*
X1495856Y-16000D02*
X1494144D01*
X1492491Y-16443D01*
X1491009Y-17299D01*
X1489799Y-18509D01*
X1488943Y-19991D01*
X1488500Y-21644D01*
Y-23356D01*
X1488943Y-25009D01*
X1489799Y-26491D01*
X1491009Y-27701D01*
X1492491Y-28557D01*
X1494144Y-29000D01*
X1495856D01*
X1497509Y-28557D01*
X1498991Y-27701D01*
X1500201Y-26491D01*
X1501057Y-25009D01*
X1501500Y-23356D01*
Y-21644D01*
X1501057Y-19991D01*
X1500201Y-18509D01*
X1498991Y-17299D01*
X1497509Y-16443D01*
X1495856Y-16000D01*
D02*
G37*
G36*
X1456106D02*
X1454394D01*
X1452741Y-16443D01*
X1451259Y-17299D01*
X1450049Y-18509D01*
X1449193Y-19991D01*
X1448750Y-21644D01*
Y-23356D01*
X1449193Y-25009D01*
X1450049Y-26491D01*
X1451259Y-27701D01*
X1452741Y-28557D01*
X1454394Y-29000D01*
X1456106D01*
X1457759Y-28557D01*
X1459241Y-27701D01*
X1460451Y-26491D01*
X1461307Y-25009D01*
X1461750Y-23356D01*
Y-21644D01*
X1461307Y-19991D01*
X1460451Y-18509D01*
X1459241Y-17299D01*
X1457759Y-16443D01*
X1456106Y-16000D01*
D02*
G37*
G36*
X1404198Y-23520D02*
X1398520D01*
Y-29198D01*
X1399967Y-28810D01*
X1401573Y-27883D01*
X1402883Y-26573D01*
X1403810Y-24967D01*
X1404198Y-23520D01*
D02*
G37*
G36*
X1395980D02*
X1390302D01*
X1390690Y-24967D01*
X1391617Y-26573D01*
X1392927Y-27883D01*
X1394533Y-28810D01*
X1395980Y-29198D01*
Y-23520D01*
D02*
G37*
G36*
X1562198Y-23770D02*
X1556520D01*
Y-29448D01*
X1557967Y-29060D01*
X1559573Y-28133D01*
X1560883Y-26823D01*
X1561810Y-25217D01*
X1562198Y-23770D01*
D02*
G37*
G36*
X1553980D02*
X1548302D01*
X1548690Y-25217D01*
X1549617Y-26823D01*
X1550927Y-28133D01*
X1552533Y-29060D01*
X1553980Y-29448D01*
Y-23770D01*
D02*
G37*
G36*
X303865Y-18279D02*
X302153D01*
X300500Y-18722D01*
X299018Y-19577D01*
X297808Y-20788D01*
X296952Y-22270D01*
X296509Y-23923D01*
Y-25635D01*
X296952Y-27288D01*
X297808Y-28770D01*
X299018Y-29980D01*
X300500Y-30836D01*
X302153Y-31279D01*
X303865D01*
X305518Y-30836D01*
X307000Y-29980D01*
X308211Y-28770D01*
X309066Y-27288D01*
X309509Y-25635D01*
Y-23923D01*
X309066Y-22270D01*
X308211Y-20788D01*
X307000Y-19577D01*
X305518Y-18722D01*
X303865Y-18279D01*
D02*
G37*
G36*
X2148817Y-12500D02*
X2146183D01*
X2143640Y-13182D01*
X2141360Y-14498D01*
X2139498Y-16360D01*
X2138181Y-18640D01*
X2137500Y-21184D01*
Y-23816D01*
X2138181Y-26360D01*
X2139498Y-28640D01*
X2141360Y-30502D01*
X2143640Y-31818D01*
X2146183Y-32500D01*
X2148817D01*
X2151360Y-31818D01*
X2153640Y-30502D01*
X2155502Y-28640D01*
X2156819Y-26360D01*
X2157500Y-23816D01*
Y-21184D01*
X2156819Y-18640D01*
X2155502Y-16360D01*
X2153640Y-14498D01*
X2151360Y-13182D01*
X2148817Y-12500D01*
D02*
G37*
G36*
X1588817D02*
X1586183D01*
X1583640Y-13182D01*
X1581360Y-14498D01*
X1579498Y-16360D01*
X1578181Y-18640D01*
X1577500Y-21184D01*
Y-23816D01*
X1578181Y-26360D01*
X1579498Y-28640D01*
X1581360Y-30502D01*
X1583640Y-31818D01*
X1586183Y-32500D01*
X1588817D01*
X1591360Y-31818D01*
X1593640Y-30502D01*
X1595502Y-28640D01*
X1596819Y-26360D01*
X1597500Y-23816D01*
Y-21184D01*
X1596819Y-18640D01*
X1595502Y-16360D01*
X1593640Y-14498D01*
X1591360Y-13182D01*
X1588817Y-12500D01*
D02*
G37*
G36*
X1523817D02*
X1521183D01*
X1518640Y-13182D01*
X1516360Y-14498D01*
X1514498Y-16360D01*
X1513181Y-18640D01*
X1512500Y-21184D01*
Y-23816D01*
X1513181Y-26360D01*
X1514498Y-28640D01*
X1516360Y-30502D01*
X1518640Y-31818D01*
X1521183Y-32500D01*
X1523817D01*
X1526360Y-31818D01*
X1528640Y-30502D01*
X1530502Y-28640D01*
X1531819Y-26360D01*
X1532500Y-23816D01*
Y-21184D01*
X1531819Y-18640D01*
X1530502Y-16360D01*
X1528640Y-14498D01*
X1526360Y-13182D01*
X1523817Y-12500D01*
D02*
G37*
G36*
X1428816D02*
X1426183D01*
X1423639Y-13182D01*
X1421359Y-14498D01*
X1419497Y-16360D01*
X1418181Y-18640D01*
X1417499Y-21184D01*
Y-23816D01*
X1418181Y-26360D01*
X1419497Y-28640D01*
X1421359Y-30502D01*
X1423639Y-31818D01*
X1426183Y-32500D01*
X1428816D01*
X1431359Y-31818D01*
X1433639Y-30502D01*
X1435501Y-28640D01*
X1436817Y-26360D01*
X1437499Y-23816D01*
Y-21184D01*
X1436817Y-18640D01*
X1435501Y-16360D01*
X1433639Y-14498D01*
X1431359Y-13182D01*
X1428816Y-12500D01*
D02*
G37*
G36*
X1363815D02*
X1361183D01*
X1358639Y-13182D01*
X1356359Y-14498D01*
X1354497Y-16360D01*
X1353181Y-18640D01*
X1352499Y-21184D01*
Y-23816D01*
X1353181Y-26360D01*
X1354497Y-28640D01*
X1356359Y-30502D01*
X1358639Y-31818D01*
X1361183Y-32500D01*
X1363815D01*
X1366359Y-31818D01*
X1368639Y-30502D01*
X1370501Y-28640D01*
X1371817Y-26360D01*
X1372499Y-23816D01*
Y-21184D01*
X1371817Y-18640D01*
X1370501Y-16360D01*
X1368639Y-14498D01*
X1366359Y-13182D01*
X1363815Y-12500D01*
D02*
G37*
G36*
X1268816D02*
X1266182D01*
X1263639Y-13182D01*
X1261359Y-14498D01*
X1259497Y-16360D01*
X1258180Y-18640D01*
X1257499Y-21184D01*
Y-23816D01*
X1258180Y-26360D01*
X1259497Y-28640D01*
X1261359Y-30502D01*
X1263639Y-31818D01*
X1266182Y-32500D01*
X1268816D01*
X1271359Y-31818D01*
X1273639Y-30502D01*
X1275501Y-28640D01*
X1276817Y-26360D01*
X1277499Y-23816D01*
Y-21184D01*
X1276817Y-18640D01*
X1275501Y-16360D01*
X1273639Y-14498D01*
X1271359Y-13182D01*
X1268816Y-12500D01*
D02*
G37*
G36*
X1203816D02*
X1201182D01*
X1198639Y-13182D01*
X1196359Y-14498D01*
X1194497Y-16360D01*
X1193180Y-18640D01*
X1192499Y-21184D01*
Y-23816D01*
X1193180Y-26360D01*
X1194497Y-28640D01*
X1196359Y-30502D01*
X1198639Y-31818D01*
X1201182Y-32500D01*
X1203816D01*
X1206359Y-31818D01*
X1208639Y-30502D01*
X1210501Y-28640D01*
X1211817Y-26360D01*
X1212499Y-23816D01*
Y-21184D01*
X1211817Y-18640D01*
X1210501Y-16360D01*
X1208639Y-14498D01*
X1206359Y-13182D01*
X1203816Y-12500D01*
D02*
G37*
G36*
X1108817D02*
X1106183D01*
X1103640Y-13182D01*
X1101360Y-14498D01*
X1099498Y-16360D01*
X1098182Y-18640D01*
X1097500Y-21184D01*
Y-23816D01*
X1098182Y-26360D01*
X1099498Y-28640D01*
X1101360Y-30502D01*
X1103640Y-31818D01*
X1106183Y-32500D01*
X1108817D01*
X1111360Y-31818D01*
X1113640Y-30502D01*
X1115502Y-28640D01*
X1116818Y-26360D01*
X1117500Y-23816D01*
Y-21184D01*
X1116818Y-18640D01*
X1115502Y-16360D01*
X1113640Y-14498D01*
X1111360Y-13182D01*
X1108817Y-12500D01*
D02*
G37*
G36*
X1043817D02*
X1041183D01*
X1038640Y-13182D01*
X1036360Y-14498D01*
X1034498Y-16360D01*
X1033182Y-18640D01*
X1032500Y-21184D01*
Y-23816D01*
X1033182Y-26360D01*
X1034498Y-28640D01*
X1036360Y-30502D01*
X1038640Y-31818D01*
X1041183Y-32500D01*
X1043817D01*
X1046360Y-31818D01*
X1048640Y-30502D01*
X1050502Y-28640D01*
X1051818Y-26360D01*
X1052500Y-23816D01*
Y-21184D01*
X1051818Y-18640D01*
X1050502Y-16360D01*
X1048640Y-14498D01*
X1046360Y-13182D01*
X1043817Y-12500D01*
D02*
G37*
G36*
X218817D02*
X216183D01*
X213640Y-13182D01*
X211360Y-14498D01*
X209498Y-16360D01*
X208181Y-18640D01*
X207500Y-21184D01*
Y-23816D01*
X208181Y-26360D01*
X209498Y-28640D01*
X211360Y-30502D01*
X213640Y-31818D01*
X216183Y-32500D01*
X218817D01*
X221360Y-31818D01*
X223640Y-30502D01*
X225502Y-28640D01*
X226819Y-26360D01*
X227500Y-23816D01*
Y-21184D01*
X226819Y-18640D01*
X225502Y-16360D01*
X223640Y-14498D01*
X221360Y-13182D01*
X218817Y-12500D01*
D02*
G37*
G36*
X-31174D02*
X-33807D01*
X-36350Y-13182D01*
X-38630Y-14498D01*
X-40492Y-16360D01*
X-41809Y-18640D01*
X-42490Y-21184D01*
Y-23816D01*
X-41809Y-26360D01*
X-40492Y-28640D01*
X-38630Y-30502D01*
X-36350Y-31818D01*
X-33807Y-32500D01*
X-31174D01*
X-28630Y-31818D01*
X-26350Y-30502D01*
X-24488Y-28640D01*
X-23172Y-26360D01*
X-22490Y-23816D01*
Y-21184D01*
X-23172Y-18640D01*
X-24488Y-16360D01*
X-26350Y-14498D01*
X-28630Y-13182D01*
X-31174Y-12500D01*
D02*
G37*
G36*
X1733817Y32500D02*
X1731183D01*
X1728640Y31818D01*
X1726360Y30502D01*
X1724498Y28640D01*
X1723181Y26360D01*
X1722500Y23816D01*
Y21184D01*
X1723181Y18640D01*
X1724498Y16360D01*
X1726360Y14498D01*
X1726434Y14455D01*
X1726799Y11991D01*
X1725943Y10509D01*
X1725500Y8856D01*
Y7144D01*
X1725943Y5491D01*
X1726799Y4009D01*
X1728009Y2799D01*
X1729491Y1943D01*
X1729955Y1819D01*
Y-252D01*
X1729241Y-443D01*
X1727759Y-1299D01*
X1726549Y-2509D01*
X1725693Y-3991D01*
X1725250Y-5644D01*
Y-7356D01*
X1725693Y-9009D01*
X1726549Y-10491D01*
X1727556Y-11498D01*
X1727648Y-12558D01*
X1727482Y-13851D01*
X1726360Y-14498D01*
X1724498Y-16360D01*
X1723181Y-18640D01*
X1722500Y-21184D01*
Y-23817D01*
X1723181Y-26360D01*
X1724498Y-28640D01*
X1726360Y-30502D01*
X1728640Y-31818D01*
X1731183Y-32500D01*
X1733817D01*
X1736360Y-31818D01*
X1738640Y-30502D01*
X1740502Y-28640D01*
X1741819Y-26360D01*
X1742500Y-23817D01*
Y-21184D01*
X1741819Y-18640D01*
X1740502Y-16360D01*
X1738640Y-14498D01*
X1736758Y-13411D01*
X1736570Y-13095D01*
X1736349Y-12139D01*
X1736337Y-11105D01*
X1736951Y-10491D01*
X1737807Y-9009D01*
X1738250Y-7356D01*
Y-5644D01*
X1737807Y-3991D01*
X1736951Y-2509D01*
X1735741Y-1299D01*
X1734259Y-443D01*
X1733795Y-319D01*
Y1752D01*
X1734509Y1943D01*
X1735991Y2799D01*
X1737201Y4009D01*
X1738057Y5491D01*
X1738500Y7144D01*
Y8856D01*
X1738057Y10509D01*
X1737201Y11991D01*
X1737932Y14089D01*
X1738640Y14498D01*
X1740502Y16360D01*
X1741819Y18640D01*
X1742500Y21184D01*
Y23816D01*
X1741819Y26360D01*
X1740502Y28640D01*
X1738640Y30502D01*
X1736360Y31818D01*
X1733817Y32500D01*
D02*
G37*
G36*
X665051Y-1269D02*
X633781D01*
Y-32540D01*
X635072D01*
X640130Y-31738D01*
X645002Y-30155D01*
X649565Y-27830D01*
X653709Y-24820D01*
X657331Y-21198D01*
X660341Y-17054D01*
X662667Y-12491D01*
X664249Y-7619D01*
X665051Y-2560D01*
Y-1269D01*
D02*
G37*
G36*
X631241D02*
X599971D01*
Y-2560D01*
X600772Y-7619D01*
X602355Y-12491D01*
X604680Y-17054D01*
X607691Y-21198D01*
X611312Y-24820D01*
X615456Y-27830D01*
X620020Y-30155D01*
X624891Y-31738D01*
X629950Y-32540D01*
X631241D01*
Y-1269D01*
D02*
G37*
G36*
X2223040Y-23770D02*
X2213770D01*
Y-33040D01*
X2213888D01*
X2216568Y-32322D01*
X2218972Y-30934D01*
X2220934Y-28972D01*
X2222322Y-26568D01*
X2223040Y-23888D01*
Y-23770D01*
D02*
G37*
G36*
X2211230D02*
X2201960D01*
Y-23888D01*
X2202678Y-26568D01*
X2204066Y-28972D01*
X2206028Y-30934D01*
X2208432Y-32322D01*
X2211112Y-33040D01*
X2211230D01*
Y-23770D01*
D02*
G37*
G36*
X163040D02*
X153770D01*
Y-33040D01*
X153888D01*
X156568Y-32322D01*
X158972Y-30934D01*
X160934Y-28972D01*
X162322Y-26568D01*
X163040Y-23888D01*
Y-23770D01*
D02*
G37*
G36*
X151230D02*
X141960D01*
Y-23888D01*
X142678Y-26568D01*
X144066Y-28972D01*
X146028Y-30934D01*
X148432Y-32322D01*
X151112Y-33040D01*
X151230D01*
Y-23770D01*
D02*
G37*
G36*
X43050D02*
X33780D01*
Y-33040D01*
X33898D01*
X36578Y-32322D01*
X38982Y-30934D01*
X40944Y-28972D01*
X42332Y-26568D01*
X43050Y-23888D01*
Y-23770D01*
D02*
G37*
G36*
X31240D02*
X21970D01*
Y-23888D01*
X22688Y-26568D01*
X24076Y-28972D01*
X26038Y-30934D01*
X28442Y-32322D01*
X31122Y-33040D01*
X31240D01*
Y-23770D01*
D02*
G37*
G36*
X1678040Y-24020D02*
X1668770D01*
Y-33290D01*
X1668888D01*
X1671568Y-32572D01*
X1673972Y-31184D01*
X1675934Y-29222D01*
X1677322Y-26818D01*
X1678040Y-24138D01*
Y-24020D01*
D02*
G37*
G36*
X1666230D02*
X1656960D01*
Y-24138D01*
X1657678Y-26818D01*
X1659066Y-29222D01*
X1661028Y-31184D01*
X1663432Y-32572D01*
X1666112Y-33290D01*
X1666230D01*
Y-24020D01*
D02*
G37*
G36*
X2082561Y-7460D02*
X2081270D01*
Y-38730D01*
X2112540D01*
Y-37439D01*
X2111739Y-32380D01*
X2110156Y-27509D01*
X2107831Y-22945D01*
X2104820Y-18802D01*
X2101198Y-15180D01*
X2097055Y-12169D01*
X2092491Y-9844D01*
X2087620Y-8261D01*
X2082561Y-7460D01*
D02*
G37*
G36*
X2078730D02*
X2077439D01*
X2072380Y-8261D01*
X2067509Y-9844D01*
X2062945Y-12169D01*
X2058802Y-15180D01*
X2055180Y-18802D01*
X2052169Y-22945D01*
X2049844Y-27509D01*
X2048261Y-32380D01*
X2047460Y-37439D01*
Y-38730D01*
X2078730D01*
Y-7460D01*
D02*
G37*
G36*
X97561D02*
X96270D01*
Y-38730D01*
X127540D01*
Y-37439D01*
X126739Y-32380D01*
X125156Y-27509D01*
X122831Y-22945D01*
X119820Y-18802D01*
X116198Y-15180D01*
X112055Y-12169D01*
X107491Y-9844D01*
X102620Y-8261D01*
X97561Y-7460D01*
D02*
G37*
G36*
X93730D02*
X92439D01*
X87380Y-8261D01*
X82509Y-9844D01*
X77945Y-12169D01*
X73802Y-15180D01*
X70180Y-18802D01*
X67169Y-22945D01*
X64844Y-27509D01*
X63261Y-32380D01*
X62460Y-37439D01*
Y-38730D01*
X93730D01*
Y-7460D01*
D02*
G37*
G36*
X813109Y39500D02*
X806891D01*
X800750Y38527D01*
X794837Y36606D01*
X789297Y33783D01*
X784268Y30129D01*
X779871Y25733D01*
X776217Y20703D01*
X773394Y15163D01*
X771473Y9250D01*
X770500Y3109D01*
Y-3109D01*
X771473Y-9250D01*
X773394Y-15163D01*
X776217Y-20703D01*
X779871Y-25733D01*
X784268Y-30129D01*
X789297Y-33783D01*
X794837Y-36606D01*
X800750Y-38527D01*
X806891Y-39500D01*
X813109D01*
X819250Y-38527D01*
X825163Y-36606D01*
X830703Y-33783D01*
X835732Y-30129D01*
X840129Y-25733D01*
X843783Y-20703D01*
X846606Y-15163D01*
X848527Y-9250D01*
X849500Y-3109D01*
Y3109D01*
X848527Y9250D01*
X846606Y15163D01*
X843783Y20703D01*
X840129Y25733D01*
X835732Y30129D01*
X830703Y33783D01*
X825163Y36606D01*
X819250Y38527D01*
X813109Y39500D01*
D02*
G37*
G36*
X458109D02*
X451891D01*
X445750Y38527D01*
X439837Y36606D01*
X434297Y33783D01*
X429268Y30129D01*
X424871Y25733D01*
X421217Y20703D01*
X418394Y15163D01*
X416473Y9250D01*
X415500Y3109D01*
Y-3109D01*
X416473Y-9250D01*
X418394Y-15163D01*
X421217Y-20703D01*
X424871Y-25733D01*
X429268Y-30129D01*
X434297Y-33783D01*
X439837Y-36606D01*
X445750Y-38527D01*
X451891Y-39500D01*
X458109D01*
X464250Y-38527D01*
X470163Y-36606D01*
X475703Y-33783D01*
X480732Y-30129D01*
X485129Y-25733D01*
X488783Y-20703D01*
X491606Y-15163D01*
X493527Y-9250D01*
X494500Y-3109D01*
Y3109D01*
X493527Y9250D01*
X491606Y15163D01*
X488783Y20703D01*
X485129Y25733D01*
X480732Y30129D01*
X475703Y33783D01*
X470163Y36606D01*
X464250Y38527D01*
X458109Y39500D01*
D02*
G37*
G36*
X1860856Y-34250D02*
X1859144D01*
X1857491Y-34693D01*
X1856009Y-35549D01*
X1854799Y-36759D01*
X1853943Y-38241D01*
X1853500Y-39894D01*
Y-41606D01*
X1853943Y-43259D01*
X1854799Y-44741D01*
X1856009Y-45951D01*
X1857491Y-46807D01*
X1859144Y-47250D01*
X1860856D01*
X1862509Y-46807D01*
X1863991Y-45951D01*
X1865201Y-44741D01*
X1866057Y-43259D01*
X1866500Y-41606D01*
Y-39894D01*
X1866057Y-38241D01*
X1865201Y-36759D01*
X1863991Y-35549D01*
X1862509Y-34693D01*
X1860856Y-34250D01*
D02*
G37*
G36*
X1707270Y-44302D02*
Y-49980D01*
X1712948D01*
X1712560Y-48533D01*
X1711633Y-46927D01*
X1710323Y-45617D01*
X1708717Y-44690D01*
X1707270Y-44302D01*
D02*
G37*
G36*
X1704730D02*
X1703283Y-44690D01*
X1701677Y-45617D01*
X1700367Y-46927D01*
X1699440Y-48533D01*
X1699052Y-49980D01*
X1704730D01*
Y-44302D01*
D02*
G37*
G36*
X1750856Y-43500D02*
X1749144D01*
X1747491Y-43943D01*
X1746009Y-44799D01*
X1744799Y-46009D01*
X1743943Y-47491D01*
X1743500Y-49144D01*
Y-49710D01*
X1743340Y-49990D01*
X1741694Y-51179D01*
X1741591Y-51197D01*
X1740856Y-51000D01*
X1739144D01*
X1737491Y-51443D01*
X1736009Y-52299D01*
X1734799Y-53509D01*
X1733943Y-54991D01*
X1733500Y-56644D01*
Y-58356D01*
X1733943Y-60009D01*
X1734799Y-61491D01*
X1736009Y-62701D01*
X1737491Y-63557D01*
X1739144Y-64000D01*
X1740856D01*
X1742509Y-63557D01*
X1743991Y-62701D01*
X1745201Y-61491D01*
X1746057Y-60009D01*
X1746500Y-58356D01*
Y-57790D01*
X1746660Y-57510D01*
X1748306Y-56321D01*
X1748409Y-56303D01*
X1749144Y-56500D01*
X1750856D01*
X1752509Y-56057D01*
X1753991Y-55201D01*
X1755201Y-53991D01*
X1756057Y-52509D01*
X1756500Y-50856D01*
Y-49144D01*
X1756057Y-47491D01*
X1755201Y-46009D01*
X1753991Y-44799D01*
X1752509Y-43943D01*
X1750856Y-43500D01*
D02*
G37*
G36*
X1852020Y-48802D02*
Y-54480D01*
X1857698D01*
X1857310Y-53033D01*
X1856383Y-51427D01*
X1855073Y-50117D01*
X1853467Y-49190D01*
X1852020Y-48802D01*
D02*
G37*
G36*
X1849480D02*
X1848033Y-49190D01*
X1846427Y-50117D01*
X1845117Y-51427D01*
X1844190Y-53033D01*
X1843802Y-54480D01*
X1849480D01*
Y-48802D01*
D02*
G37*
G36*
X1712948Y-52520D02*
X1707270D01*
Y-58198D01*
X1708717Y-57810D01*
X1710323Y-56883D01*
X1711633Y-55573D01*
X1712560Y-53967D01*
X1712948Y-52520D01*
D02*
G37*
G36*
X1704730D02*
X1699052D01*
X1699440Y-53967D01*
X1700367Y-55573D01*
X1701677Y-56883D01*
X1703283Y-57810D01*
X1704730Y-58198D01*
Y-52520D01*
D02*
G37*
G36*
X1816606Y-36000D02*
X1814894D01*
X1813241Y-36443D01*
X1811759Y-37299D01*
X1810549Y-38509D01*
X1809693Y-39991D01*
X1809250Y-41644D01*
Y-43356D01*
X1809693Y-45009D01*
X1810549Y-46491D01*
X1811759Y-47701D01*
X1811792Y-47720D01*
Y-50030D01*
X1811759Y-50049D01*
X1810549Y-51259D01*
X1809693Y-52741D01*
X1809250Y-54394D01*
Y-56106D01*
X1809693Y-57759D01*
X1810549Y-59241D01*
X1811759Y-60451D01*
X1813241Y-61307D01*
X1814894Y-61750D01*
X1816606D01*
X1818259Y-61307D01*
X1819741Y-60451D01*
X1820951Y-59241D01*
X1821807Y-57759D01*
X1822250Y-56106D01*
Y-54394D01*
X1821807Y-52741D01*
X1820951Y-51259D01*
X1819741Y-50049D01*
X1819708Y-50030D01*
Y-47720D01*
X1819741Y-47701D01*
X1820951Y-46491D01*
X1821807Y-45009D01*
X1822250Y-43356D01*
Y-41644D01*
X1821807Y-39991D01*
X1820951Y-38509D01*
X1819741Y-37299D01*
X1818259Y-36443D01*
X1816606Y-36000D01*
D02*
G37*
G36*
X1857698Y-57020D02*
X1852020D01*
Y-62698D01*
X1853467Y-62310D01*
X1855073Y-61383D01*
X1856383Y-60073D01*
X1857310Y-58467D01*
X1857698Y-57020D01*
D02*
G37*
G36*
X1849480D02*
X1843802D01*
X1844190Y-58467D01*
X1845117Y-60073D01*
X1846427Y-61383D01*
X1848033Y-62310D01*
X1849480Y-62698D01*
Y-57020D01*
D02*
G37*
G36*
X1776270Y-60552D02*
Y-66230D01*
X1781948D01*
X1781560Y-64783D01*
X1780633Y-63177D01*
X1779323Y-61867D01*
X1777717Y-60940D01*
X1776270Y-60552D01*
D02*
G37*
G36*
X1773730D02*
X1772283Y-60940D01*
X1770677Y-61867D01*
X1769367Y-63177D01*
X1768440Y-64783D01*
X1768052Y-66230D01*
X1773730D01*
Y-60552D01*
D02*
G37*
G36*
X1136856Y41250D02*
X1135144D01*
X1133491Y40807D01*
X1132009Y39951D01*
X1130799Y38741D01*
X1129943Y37259D01*
X1129500Y35606D01*
Y33894D01*
X1129943Y32241D01*
X1130799Y30759D01*
X1132009Y29549D01*
X1132666Y29169D01*
Y-59619D01*
X1125089Y-67196D01*
X1124356Y-67000D01*
X1122644D01*
X1120991Y-67443D01*
X1119509Y-68299D01*
X1118299Y-69509D01*
X1117443Y-70991D01*
X1117000Y-72644D01*
Y-74356D01*
X1117443Y-76009D01*
X1118299Y-77491D01*
X1119509Y-78701D01*
X1120991Y-79557D01*
X1122644Y-80000D01*
X1124356D01*
X1126009Y-79557D01*
X1127491Y-78701D01*
X1128701Y-77491D01*
X1129557Y-76009D01*
X1130000Y-74356D01*
Y-72644D01*
X1129804Y-71911D01*
X1138357Y-63358D01*
X1139080Y-62276D01*
X1139334Y-61000D01*
Y29169D01*
X1139991Y29549D01*
X1141201Y30759D01*
X1142057Y32241D01*
X1142500Y33894D01*
Y35606D01*
X1142057Y37259D01*
X1141201Y38741D01*
X1139991Y39951D01*
X1138509Y40807D01*
X1136856Y41250D01*
D02*
G37*
G36*
X2112540Y-41270D02*
X2081270D01*
Y-72540D01*
X2082561D01*
X2087620Y-71739D01*
X2092491Y-70156D01*
X2097055Y-67831D01*
X2101198Y-64820D01*
X2104820Y-61198D01*
X2107831Y-57055D01*
X2110156Y-52491D01*
X2111739Y-47620D01*
X2112540Y-42561D01*
Y-41270D01*
D02*
G37*
G36*
X2078730D02*
X2047460D01*
Y-42561D01*
X2048261Y-47620D01*
X2049844Y-52491D01*
X2052169Y-57055D01*
X2055180Y-61198D01*
X2058802Y-64820D01*
X2062945Y-67831D01*
X2067509Y-70156D01*
X2072380Y-71739D01*
X2077439Y-72540D01*
X2078730D01*
Y-41270D01*
D02*
G37*
G36*
X127540D02*
X96270D01*
Y-72540D01*
X97561D01*
X102620Y-71739D01*
X107491Y-70156D01*
X112055Y-67831D01*
X116198Y-64820D01*
X119820Y-61198D01*
X122831Y-57055D01*
X125156Y-52491D01*
X126739Y-47620D01*
X127540Y-42561D01*
Y-41270D01*
D02*
G37*
G36*
X93730D02*
X62460D01*
Y-42561D01*
X63261Y-47620D01*
X64844Y-52491D01*
X67169Y-57055D01*
X70180Y-61198D01*
X73802Y-64820D01*
X77945Y-67831D01*
X82509Y-70156D01*
X87380Y-71739D01*
X92439Y-72540D01*
X93730D01*
Y-41270D01*
D02*
G37*
G36*
X1781948Y-68770D02*
X1776270D01*
Y-74448D01*
X1777717Y-74060D01*
X1779323Y-73133D01*
X1780633Y-71823D01*
X1781560Y-70217D01*
X1781948Y-68770D01*
D02*
G37*
G36*
X1773730D02*
X1768052D01*
X1768440Y-70217D01*
X1769367Y-71823D01*
X1770677Y-73133D01*
X1772283Y-74060D01*
X1773730Y-74448D01*
Y-68770D01*
D02*
G37*
G36*
X915856Y-63500D02*
X914144D01*
X912491Y-63943D01*
X911009Y-64799D01*
X909799Y-66009D01*
X908943Y-67491D01*
X908500Y-69144D01*
Y-70856D01*
X908943Y-72509D01*
X909799Y-73991D01*
X911009Y-75201D01*
X912491Y-76057D01*
X914144Y-76500D01*
X915856D01*
X917509Y-76057D01*
X918991Y-75201D01*
X920201Y-73991D01*
X921057Y-72509D01*
X921500Y-70856D01*
Y-69144D01*
X921057Y-67491D01*
X920201Y-66009D01*
X918991Y-64799D01*
X917509Y-63943D01*
X915856Y-63500D01*
D02*
G37*
G36*
X235856Y-73500D02*
X234144D01*
X232491Y-73943D01*
X231009Y-74799D01*
X229799Y-76009D01*
X228943Y-77491D01*
X228500Y-79144D01*
Y-80856D01*
X228943Y-82509D01*
X229799Y-83991D01*
X231009Y-85201D01*
X232491Y-86057D01*
X234144Y-86500D01*
X235856D01*
X237509Y-86057D01*
X238991Y-85201D01*
X240201Y-83991D01*
X241057Y-82509D01*
X241500Y-80856D01*
Y-79144D01*
X241057Y-77491D01*
X240201Y-76009D01*
X238991Y-74799D01*
X237509Y-73943D01*
X235856Y-73500D01*
D02*
G37*
G36*
X-24144Y-78500D02*
X-25856D01*
X-27509Y-78943D01*
X-28991Y-79799D01*
X-30201Y-81009D01*
X-31057Y-82491D01*
X-31500Y-84144D01*
Y-85856D01*
X-31057Y-87509D01*
X-30201Y-88991D01*
X-28991Y-90201D01*
X-27509Y-91057D01*
X-25856Y-91500D01*
X-24144D01*
X-22491Y-91057D01*
X-21009Y-90201D01*
X-19799Y-88991D01*
X-18943Y-87509D01*
X-18500Y-85856D01*
Y-84144D01*
X-18943Y-82491D01*
X-19799Y-81009D01*
X-21009Y-79799D01*
X-22491Y-78943D01*
X-24144Y-78500D01*
D02*
G37*
%LPD*%
D10*
X-59500Y280750D02*
X-58820Y281430D01*
X-58082D01*
X-51568Y274916D01*
X-27088D01*
X-25250Y276754D01*
Y294833D01*
X-27833Y297416D02*
X-25250Y294833D01*
X-51568Y297416D02*
X-27833D01*
X-62818Y286166D02*
X-51568Y297416D01*
D23*
X1797849Y304770D02*
X1906168D01*
X1742500Y360119D02*
X1797849Y304770D01*
X1906168D02*
X1947500Y263438D01*
X1742500Y360119D02*
Y372500D01*
X1947500Y263000D02*
Y263438D01*
X1955800Y435000D02*
X1978100Y412700D01*
X1895538Y435000D02*
X1955800D01*
X1934940Y430460D02*
X1952700Y412700D01*
X1777788Y552750D02*
X1895538Y435000D01*
X1891859Y430460D02*
X1934940D01*
X1774109Y548210D02*
X1891859Y430460D01*
X21459Y548210D02*
X1774109D01*
X19579Y552750D02*
X1777788D01*
X-9324Y523847D02*
X19579Y552750D01*
X-4784Y521967D02*
X21459Y548210D01*
X-4784Y441259D02*
Y521967D01*
X-23537Y422506D02*
X-4784Y441259D01*
X-26125Y427046D02*
X-9324Y443847D01*
Y523847D01*
X-62818Y413166D02*
X-60147Y415837D01*
X-51039D01*
X-39830Y427046D01*
X-26125D01*
X-37418Y413166D02*
X-28078Y422506D01*
X-23537D01*
X1136000Y-61000D02*
Y34750D01*
X1123500Y-73500D02*
X1136000Y-61000D01*
D26*
X1742500Y372500D02*
D03*
Y437500D02*
D03*
X1697500Y372500D02*
D03*
X1697250Y437500D02*
D03*
X1107500Y182750D02*
D03*
Y137500D02*
D03*
X1042500D02*
D03*
Y182500D02*
D03*
X1107500Y22750D02*
D03*
Y-22500D02*
D03*
X1042500D02*
D03*
Y22500D02*
D03*
X1965000Y135000D02*
D03*
X1941001D02*
D03*
X1915000D02*
D03*
X1965000Y280000D02*
D03*
X1915000D02*
D03*
X2212500Y-22500D02*
D03*
X1667500Y-22750D02*
D03*
X1522500Y22500D02*
D03*
X1362499D02*
D03*
X1202499D02*
D03*
X152500Y-22500D02*
D03*
X32500Y57500D02*
D03*
X1587500Y182750D02*
D03*
X1362499Y182500D02*
D03*
X1202499D02*
D03*
X32500Y137500D02*
D03*
X972500Y162500D02*
D03*
X352500Y207750D02*
D03*
X32510Y-22500D02*
D03*
X2212500Y382500D02*
D03*
X2147500D02*
D03*
Y427500D02*
D03*
X2212500Y427750D02*
D03*
X2212500Y22750D02*
D03*
X2147500Y22500D02*
D03*
Y-22500D02*
D03*
X1732500Y-22500D02*
D03*
X1667500Y22500D02*
D03*
X1732500D02*
D03*
X1522500Y-22500D02*
D03*
X1587500D02*
D03*
Y22750D02*
D03*
X1362499Y-22500D02*
D03*
X1427499D02*
D03*
Y22750D02*
D03*
X1522500Y182500D02*
D03*
X1587500Y137500D02*
D03*
X1522500D02*
D03*
X1202499Y-22500D02*
D03*
X1267499D02*
D03*
Y22750D02*
D03*
X972500Y207500D02*
D03*
X907500D02*
D03*
Y162250D02*
D03*
X1362499Y137500D02*
D03*
X1427499D02*
D03*
Y182750D02*
D03*
X1202499Y137500D02*
D03*
X1267499D02*
D03*
Y182750D02*
D03*
X217500Y22750D02*
D03*
X152500Y22500D02*
D03*
X217500Y-22500D02*
D03*
X32500Y102750D02*
D03*
X-32500Y102500D02*
D03*
Y57500D02*
D03*
X32510Y22750D02*
D03*
X-32490Y22500D02*
D03*
Y-22500D02*
D03*
X287500Y162500D02*
D03*
X352500D02*
D03*
X287500Y207500D02*
D03*
X-32500Y137500D02*
D03*
Y182500D02*
D03*
X32500Y182750D02*
D03*
D27*
X1087700Y110000D02*
D03*
X1062300D02*
D03*
Y50000D02*
D03*
X1087700D02*
D03*
Y80000D02*
D03*
X1062300D02*
D03*
X1020000Y147300D02*
D03*
Y172700D02*
D03*
X1340000Y147300D02*
D03*
Y172700D02*
D03*
X1180000Y147300D02*
D03*
Y172700D02*
D03*
X1825700Y387300D02*
D03*
X1851100Y412700D02*
D03*
X1851100Y387300D02*
D03*
X1876500Y412700D02*
D03*
Y387300D02*
D03*
X1901900D02*
D03*
X1927300Y412700D02*
D03*
X1927300Y387300D02*
D03*
X1952700Y412700D02*
D03*
X1952700Y387300D02*
D03*
X1978100Y412700D02*
D03*
Y387300D02*
D03*
X1901900Y412700D02*
D03*
X2054300Y387300D02*
D03*
X2054300Y412700D02*
D03*
X2028900Y387300D02*
D03*
Y412700D02*
D03*
X2003500Y387300D02*
D03*
X2003500Y412700D02*
D03*
X2137300Y455000D02*
D03*
X2162700D02*
D03*
X2137300Y50000D02*
D03*
X2162700D02*
D03*
X2197300Y455000D02*
D03*
X2222700D02*
D03*
X2197300Y50000D02*
D03*
X2222700D02*
D03*
X1290000Y172700D02*
D03*
Y147300D02*
D03*
X1450000Y172700D02*
D03*
Y147300D02*
D03*
X1542300Y50000D02*
D03*
X1567700D02*
D03*
X1382299Y49999D02*
D03*
X1407699D02*
D03*
Y80000D02*
D03*
X1382299D02*
D03*
X1542300Y110000D02*
D03*
X1567700D02*
D03*
X1382299Y109999D02*
D03*
X1407699D02*
D03*
X1222299Y49999D02*
D03*
X1247699D02*
D03*
Y80000D02*
D03*
X1222299D02*
D03*
X107700Y160000D02*
D03*
X82300D02*
D03*
X1247699Y109999D02*
D03*
X1222299D02*
D03*
X172300Y80000D02*
D03*
X197700D02*
D03*
X172300Y160000D02*
D03*
X197700D02*
D03*
X362300Y185000D02*
D03*
X387700D02*
D03*
X107700Y80000D02*
D03*
X82300D02*
D03*
X897700Y185000D02*
D03*
X872300D02*
D03*
D28*
X1882000Y210000D02*
D03*
X1998000D02*
D03*
D29*
X1825700Y412700D02*
D03*
D30*
X-37418Y336966D02*
D03*
Y362366D02*
D03*
X-62818Y463966D02*
D03*
X-37418D02*
D03*
X-62818Y438566D02*
D03*
X-37418D02*
D03*
X-62818Y413166D02*
D03*
X-37418D02*
D03*
X-62818Y387766D02*
D03*
X-37418D02*
D03*
X-62818Y362366D02*
D03*
Y336966D02*
D03*
Y311566D02*
D03*
X-37418D02*
D03*
X-62818Y286166D02*
D03*
D31*
X-37418D02*
D03*
D32*
X1784710Y232500D02*
D03*
X1800500Y114000D02*
D03*
X1794000Y100750D02*
D03*
X1761500Y84750D02*
D03*
X1800250Y233750D02*
D03*
X1800000Y221000D02*
D03*
X1854250Y214250D02*
D03*
X1794250Y292250D02*
D03*
X1807733Y16502D02*
D03*
X1975250Y334750D02*
D03*
X1942000Y349250D02*
D03*
X2208750Y280250D02*
D03*
X2154500Y280000D02*
D03*
X2129000Y216750D02*
D03*
X2227750Y272250D02*
D03*
X2234000Y150750D02*
D03*
X2173250Y151000D02*
D03*
X2178686Y226126D02*
D03*
X1990250Y374000D02*
D03*
X2094250Y321750D02*
D03*
X2064750Y228250D02*
D03*
X1545750Y134750D02*
D03*
X1615750Y137750D02*
D03*
X1868250Y159250D02*
D03*
X1898000Y110500D02*
D03*
X1645750Y103500D02*
D03*
X1479000Y51750D02*
D03*
X1397250Y-22250D02*
D03*
X1555250Y-22500D02*
D03*
X1706000Y-51250D02*
D03*
X1775000Y-67500D02*
D03*
X53250Y177500D02*
D03*
X64500Y45000D02*
D03*
X84500Y45000D02*
D03*
X104500D02*
D03*
X124500D02*
D03*
X9250Y105750D02*
D03*
X-13250Y60250D02*
D03*
X216500Y94500D02*
D03*
X-5000Y187000D02*
D03*
X1758135Y317502D02*
D03*
X1741250Y294500D02*
D03*
X1758184Y360998D02*
D03*
X1777482Y355500D02*
D03*
X1902000Y320750D02*
D03*
X1957250Y252250D02*
D03*
X1886789Y124500D02*
D03*
X134500Y126000D02*
D03*
X1755250Y15750D02*
D03*
X2014500Y305500D02*
D03*
X2053500Y335250D02*
D03*
X2047000Y306250D02*
D03*
X317250Y137250D02*
D03*
X948500Y195500D02*
D03*
X1756500Y294500D02*
D03*
X1947500Y263000D02*
D03*
X1860000Y-40750D02*
D03*
X1731250Y188000D02*
D03*
X1760250Y213250D02*
D03*
X1760000Y187000D02*
D03*
X1527000Y90500D02*
D03*
X1621750Y81250D02*
D03*
X1881750Y258750D02*
D03*
X1882500Y281750D02*
D03*
X1857500Y283250D02*
D03*
X1867750Y297000D02*
D03*
X1882501Y270296D02*
D03*
X1872500Y250000D02*
D03*
X1850500Y238250D02*
D03*
X1872500D02*
D03*
X1854250Y203000D02*
D03*
X1925750Y246500D02*
D03*
X1735000Y142500D02*
D03*
X1815000Y162500D02*
D03*
Y175250D02*
D03*
X1434000Y65250D02*
D03*
X1455250Y-22500D02*
D03*
X1639000Y130250D02*
D03*
X1646750Y141750D02*
D03*
X1655500Y130250D02*
D03*
X1667000Y141750D02*
D03*
X1678750D02*
D03*
Y130500D02*
D03*
X1063000Y166500D02*
D03*
X1515750Y90500D02*
D03*
X1854250Y148750D02*
D03*
Y162500D02*
D03*
Y175500D02*
D03*
X1689750Y13750D02*
D03*
X1721750Y126500D02*
D03*
X1753750Y113250D02*
D03*
X1815000Y149250D02*
D03*
X1136000Y34750D02*
D03*
X1123500Y-73500D02*
D03*
X1731750Y-6500D02*
D03*
X1732000Y8000D02*
D03*
X1672500Y250D02*
D03*
X1689750Y-8750D02*
D03*
X1701000D02*
D03*
X1709750Y500D02*
D03*
X1850750Y-55750D02*
D03*
X1815750Y-55250D02*
D03*
Y-42500D02*
D03*
X1977000Y101000D02*
D03*
X1817500Y49250D02*
D03*
X1755250Y63000D02*
D03*
X1810750Y33000D02*
D03*
X1795250Y-10500D02*
D03*
Y7500D02*
D03*
X1557500Y152500D02*
D03*
X1860000Y30000D02*
D03*
Y17500D02*
D03*
X1312500Y182500D02*
D03*
X1570000Y140000D02*
D03*
X1817500Y-17500D02*
D03*
X1882500Y-7500D02*
D03*
X1860000D02*
D03*
Y-20000D02*
D03*
X1750000Y-50000D02*
D03*
X1740000Y-57500D02*
D03*
X1495000Y-22500D02*
D03*
X1472500Y110000D02*
D03*
X997500Y-15000D02*
D03*
X1020000D02*
D03*
X1855000Y115000D02*
D03*
Y315000D02*
D03*
X1800000Y340000D02*
D03*
X1886998Y320411D02*
D03*
X1600000Y95000D02*
D03*
X1170000Y-17310D02*
D03*
X915000Y-70000D02*
D03*
X2115000Y147690D02*
D03*
X2055000Y315000D02*
D03*
X225000Y45000D02*
D03*
X245000Y50000D02*
D03*
X135000Y140000D02*
D03*
X303009Y-24779D02*
D03*
X290000Y50000D02*
D03*
X235000Y-80000D02*
D03*
X-25000Y-85000D02*
D03*
D33*
X632511Y0D02*
D03*
X455000Y80000D02*
D03*
X1340000D02*
D03*
X2080000Y510000D02*
D03*
Y-40000D02*
D03*
X95000D02*
D03*
X-52489Y505589D02*
D03*
M02*
